<?xml version="1.0" standalone="no"?>
<!DOCTYPE svg PUBLIC "-//W3C//DTD SVG 20010904//EN"
 "http://www.w3.org/TR/2001/REC-SVG-20010904/DTD/svg10.dtd">
<svg version="1.0" xmlns="http://www.w3.org/2000/svg"
 width="300.000000pt" height="300.000000pt" viewBox="0 0 300.000000 300.000000"
 preserveAspectRatio="xMidYMid meet">
<metadata>
Created by potrace 1.11, written by Peter Selinger 2001-2013
</metadata>
<g transform="translate(0.000000,300.000000) scale(0.100000,-0.100000)"
fill="#000000" stroke="none">
<path d="M1375 2776 c-376 -138 -620 -278 -814 -469 -147 -145 -235 -287 -287
-462 -21 -72 -27 -116 -30 -218 -2 -70 0 -135 3 -143 4 -11 16 4 39 46 157
295 518 556 1004 727 190 67 471 138 670 170 63 10 61 17 -23 73 -45 30 -86
58 -92 63 -9 7 -155 108 -294 203 -35 24 -68 44 -75 44 -6 -1 -51 -16 -101
-34z"/>
<path d="M2105 2295 c-33 -8 -76 -17 -95 -20 -19 -3 -64 -13 -100 -21 -36 -9
-73 -17 -83 -19 -9 -2 -45 -11 -80 -20 -34 -9 -70 -18 -80 -20 -103 -22 -535
-164 -562 -185 -5 -4 -21 -11 -35 -15 -26 -8 -188 -87 -254 -124 -242 -137
-407 -305 -481 -488 -33 -80 -37 -103 -40 -223 -6 -198 65 -381 234 -607 66
-88 268 -298 329 -341 30 -22 28 -17 -28 70 -90 138 -179 330 -195 418 -3 14
-9 46 -13 72 -5 26 -8 89 -7 140 4 164 65 296 195 428 164 165 416 294 763
389 152 42 407 95 512 107 39 4 113 14 145 20 14 2 57 7 95 10 39 3 81 7 94 9
25 4 252 18 309 19 25 0 29 3 20 12 -45 42 -553 404 -567 403 -9 -1 -43 -7
-76 -14z"/>
</g>
</svg>
