<svg id="Layer_1" data-name="Layer 1" xmlns="http://www.w3.org/2000/svg" viewBox="0 0 960 417.95"><defs><style>.cls-1,.cls-20{font-size:22.87px;}.cls-1,.cls-10,.cls-15,.cls-22,.cls-3,.cls-4,.cls-6{fill:#fff;}.cls-1,.cls-20,.cls-22,.cls-26,.cls-3{font-family:NewsCycle, News Cycle;}.cls-2,.cls-21{fill:#0e3767;}.cls-2{stroke:#fff;stroke-width:0.95px;}.cls-12,.cls-15,.cls-19,.cls-2,.cls-4,.cls-6{stroke-miterlimit:10;}.cls-3{font-size:24px;}.cls-10,.cls-12,.cls-15,.cls-4,.cls-6{stroke:#000;}.cls-10,.cls-4{stroke-width:0.82px;}.cls-5{fill:#e6af78;}.cls-7{fill:#f0c087;}.cls-8{fill:#785550;}.cls-9{fill:#694b4b;}.cls-10{stroke-linecap:round;stroke-linejoin:round;}.cls-11{fill:#707487;}.cls-12,.cls-19{fill:none;}.cls-12,.cls-15{stroke-width:0.78px;}.cls-13{fill:#5b5d6e;}.cls-14{fill:#515262;}.cls-16{fill:#5a4146;}.cls-17{fill:#b4e1fa;}.cls-18{fill:#a0d2f0;}.cls-19{stroke:#3f4040;stroke-width:0.83px;}.cls-22,.cls-26{font-size:18.76px;}.cls-23{fill:#00407d;}.cls-24{fill:#0057a2;}.cls-25{fill:#ffcb31;}</style></defs><title>Artboard 1 copy 9bla</title><text class="cls-1" transform="translate(58.38 -4.64)">Administracion</text><rect class="cls-2" x="116.67" y="121.93" width="169.33" height="61.41"/><text class="cls-3" transform="translate(137.28 161.72)">Constituyente</text><rect class="cls-2" x="291.47" y="319.64" width="169.33" height="61.41"/><text class="cls-3" transform="translate(320.42 359.42)">Fideicomiso</text><rect class="cls-2" x="674" y="156.93" width="169.33" height="61.41"/><text class="cls-3" transform="translate(704.53 196.72)">Beneficiario</text><polygon class="cls-4" points="216.32 85.54 216.37 73.86 186.33 73.72 186.28 85.4 201.24 98.82 216.32 85.54"/><polygon class="cls-5" points="214.82 84.09 214.87 73.58 187.83 73.45 187.78 83.97 201.24 96.05 214.82 84.09"/><path class="cls-4" d="M217.91,20.48c-2.4-3.18-7.58-6.58-16.67-6.47-5.22.06-15,1.6-20.12,4.22l2.46,1.7c-11.2,8.19-9.18,22.33-9.18,22.33,3.32,3.35,3.28,11.7,3.28,11.7L181,50.63S179.8,41,186.11,37.3c5.86-3.41,11-1.62,16.17-1.59,5.89,0,10-.9,12.71-2.44,5.18,3,6,12.19,6.09,15a3.3,3.3,0,0,0,.52,1.63l2.7,4.24s-.9-7,3.39-11.67C227.7,42.5,228.86,22.19,217.91,20.48Z"/><path class="cls-6" d="M222.65,50h0c-.22,0-.43-.41-.64-.37l.84-17-43.39-.31.68,16.25c-.21,0-.42-.59-.64-.59h0c-2.25,0-3.91,2.55-3.37,4.74L178,60.55a2.11,2.11,0,0,0,1.94,1.64,2,2,0,0,0,.76-.1l.09,2.14a10,10,0,0,0,4,7.59L191.6,77a10,10,0,0,0,6,2l6.68,0a10,10,0,0,0,6-2L217.21,72a10,10,0,0,0,4-7.54l.11-2.11A2,2,0,0,0,224.06,61L226,53.9C226.54,51.72,224.9,50,222.65,50Z"/><path class="cls-7" d="M180.64,33l1.23,30.24a9.46,9.46,0,0,0,3.74,7.16l6.5,4.92a9.46,9.46,0,0,0,5.67,1.92l6.31,0a9.46,9.46,0,0,0,5.69-1.87l6.54-4.86a9.46,9.46,0,0,0,3.81-7.12l1.52-30.23-41-.19Z"/><path class="cls-8" d="M210.75,22.74l1.43,10.45c6.74,1.38,7.66,12,7.79,15a3.11,3.11,0,0,0,.49,1.54l2.56,4s-.85-6.61,3.21-11C226.23,42.73,227.74,16.51,210.75,22.74Z"/><path class="cls-7" d="M224.61,53.08l-1.81,7.12a1.9,1.9,0,0,1-1.85,1.43h0A1.9,1.9,0,0,1,219.07,60l-.88-7.29A3.26,3.26,0,0,1,221.45,49h0A3.26,3.26,0,0,1,224.61,53.08Z"/><path class="cls-9" d="M182.22,19.78l2.33,1.6c-10.58,7.74-8.67,21.1-8.67,21.1C179,45.66,179,53.54,179,53.54l3.17-3.14s-1.17-9.12,4.79-12.59c5.53-3.23,10.36-1.53,15.28-1.5,13.21.06,16.93-4.9,16.32-11-.32-3.14-5.08-9.69-17.3-9.54C196.29,15.86,187,17.31,182.22,19.78Z"/><path class="cls-5" d="M177.5,52.86,179.24,60a1.9,1.9,0,0,0,1.83,1.44h0A1.9,1.9,0,0,0,183,59.79l.94-7.28a3.26,3.26,0,0,0-3.22-3.68h0A3.26,3.26,0,0,0,177.5,52.86Z"/><path class="cls-10" d="M239.64,92.63,221,88.15l.49-1.06-2.25-3.41a1.67,1.67,0,0,0-2.5-.33L201.38,97h0L186.19,83.2a1.67,1.67,0,0,0-2.51.3L181.4,86.9l.48,1.07-18.72,4.31A6.68,6.68,0,0,0,158,98.75l-.06,13.07a3.34,3.34,0,0,0,3.32,3.35l80.1.38a3.34,3.34,0,0,0,3.35-3.32l.06-13.07A6.68,6.68,0,0,0,239.64,92.63Z"/><path class="cls-11" d="M236.26,94.73l-17-4,.45-1-2.05-3.07a1.53,1.53,0,0,0-2.28-.29l-14,12.29h0L187.53,86.25a1.53,1.53,0,0,0-2.29.27l-2.08,3.05.44,1-17.07,3.88a6,6,0,0,0-4.72,5.83l-.06,10.32a3,3,0,0,0,3,3l73,.34a3,3,0,0,0,3.06-3l.06-10.32A6,6,0,0,0,236.26,94.73Z"/><path class="cls-12" d="M195.24,66.59s6.85,6.61,13.46,0"/><polygon class="cls-13" points="205.19 113.79 197.68 113.75 198.68 100.24 204.31 100.27 205.19 113.79"/><path class="cls-14" d="M205.26,98.62l-7.51,0v.87a3.64,3.64,0,0,0,3.62,3.66h.23a3.64,3.64,0,0,0,3.66-3.62v-.87Z"/><path class="cls-13" d="M187.72,86.16l13.67,12.42a51.8,51.8,0,0,0-8.62,5.81,1.93,1.93,0,0,1-3-.69l-6.38-14.22,2.05-3.05A1.5,1.5,0,0,1,187.72,86.16Z"/><path class="cls-13" d="M215.36,86.5,201.57,98.79a51.8,51.8,0,0,1,8.56,5.89,1.93,1.93,0,0,0,3-.66l6.52-14.16-2-3.07A1.5,1.5,0,0,0,215.36,86.5Z"/><path class="cls-15" d="M758.85,50.89c-.75,0-1.46,0-2.15.1l0,0c-31.27,1.61-27.91,41.32-27.9,70.29a3.16,3.16,0,0,0,1.54,2.71,56.74,56.74,0,0,0,56.37.27,3.16,3.16,0,0,0,1.56-2.7C788.54,91.91,792.46,51,758.85,50.89Z"/><path class="cls-16" d="M756.78,53.08c-29.63,1.52-26.45,39.15-26.43,66.59a3,3,0,0,0,1.46,2.57,52.79,52.79,0,0,0,26.67,7.23l8.31-56.3"/><path class="cls-9" d="M758.83,53c-18.11-.09-19.47,21.79-19.47,21.79,10.45-1.71,16.84,2.72,27.42-1.63l-8.31,56.3a52.78,52.78,0,0,0,26.73-7,3,3,0,0,0,1.48-2.56C787,91.87,790.68,53.16,758.83,53Z"/><path class="cls-4" d="M792.25,129.92l-19.91-8.41a4.47,4.47,0,0,1-2.73-4.14l0-5.4-22.36-.11,0,5.4a4.47,4.47,0,0,1-2.77,4.11l-20,8.22a6.71,6.71,0,0,0-4.16,6.17l0,8.94a4.47,4.47,0,0,0,4.45,4.49l67.07.32a4.47,4.47,0,0,0,4.49-4.45l0-8.94A6.71,6.71,0,0,0,792.25,129.92Z"/><path class="cls-5" d="M788.18,130l-17.52-7.4a3.93,3.93,0,0,1-2.4-3.64l0-7.55-19.67-.09,0,7.55a3.93,3.93,0,0,1-2.44,3.62l-17.59,7.23a5.9,5.9,0,0,0-3.66,5.43l0,7.87a3.93,3.93,0,0,0,3.92,4l59,.28a3.93,3.93,0,0,0,4-3.92l0-7.87A5.9,5.9,0,0,0,788.18,130Z"/><path class="cls-4" d="M769.84,68.94c-11.23,11.12-33.12,2.08-33.21,20L738,102.08a8.94,8.94,0,0,0,4.53,7l12.7,7.13a6.71,6.71,0,0,0,6.51,0l12.76-7a8.94,8.94,0,0,0,4.6-7l1.68-15.64a24.68,24.68,0,0,0,.12-3.35C780,77.59,772,73.42,769.84,68.94Z"/><path class="cls-7" d="M769,70.77C758.62,81,738.39,72.69,738.31,89.21l1.23,12.18a8.26,8.26,0,0,0,4.19,6.49l11.73,6.59a6.2,6.2,0,0,0,6,0L773.26,108a8.26,8.26,0,0,0,4.25-6.46l1.55-14.45a22.81,22.81,0,0,0,.11-3.09C778.41,78.77,771,74.91,769,70.77Z"/><path class="cls-4" d="M799.46,134.86c0-.11,0-.21-.07-.32a7.2,7.2,0,0,0-.29-1l-.09-.23a7.2,7.2,0,0,0-3.84-3.87l-17.44-7.36.26-.36-2.7-4.09a1.92,1.92,0,0,0-2.75-.48l-13.82,10.26L745,117a1.92,1.92,0,0,0-2.76.46l-2.74,4.07.26.37-17.5,7.2a7.18,7.18,0,0,0-2.38,1.61h0a7.2,7.2,0,0,0-1.49,2.21l-.08.21a7.17,7.17,0,0,0-.31,1c0,.11-.05.21-.07.32a7.16,7.16,0,0,0-.14,1.29l0,9.62a4.81,4.81,0,0,0,4.79,4.83l9.62,0h0l62.54.29a4.81,4.81,0,0,0,4.83-4.79l0-9.62A7.17,7.17,0,0,0,799.46,134.86Z"/><path class="cls-17" d="M795.38,134.73c0-.1,0-.19-.06-.29a6.48,6.48,0,0,0-.26-.88l-.08-.21a6.48,6.48,0,0,0-3.45-3.48l-15.69-6.63.24-.33-2.43-3.68a1.73,1.73,0,0,0-2.48-.44L758.72,128l-12.35-9.35a1.73,1.73,0,0,0-2.48.41l-2.47,3.66.23.33-15.75,6.74a4.11,4.11,0,0,0-2.23,1.71H724V131a3.23,3.23,0,0,0-1.46,2c0,.06-.11.13-.14.19a6.57,6.57,0,0,0-.31.9c0,.1-.06.19-.08.28a6.44,6.44,0,0,0-.13,1.16l0,8.66a4.33,4.33,0,0,0,4.31,4.35l8.66,0h0l56.29.27a4.33,4.33,0,0,0,4.35-4.31l0-8.66A6.45,6.45,0,0,0,795.38,134.73Z"/><path class="cls-12" d="M751.15,103.53s6.17,6,12.12,0"/><path class="cls-13" d="M758.75,144.89h-.67a1.9,1.9,0,0,1-1.89-1.91l.07-15,4.47,0-.07,15A1.9,1.9,0,0,1,758.75,144.89Z"/><path class="cls-18" d="M758.49,128l-12.75-9.66a1.79,1.79,0,0,0-2.56.43l-2.55,3.78,7.79,11A1.79,1.79,0,0,0,751,134Z"/><path class="cls-18" d="M758.49,128l12.84-9.54a1.79,1.79,0,0,1,2.56.45l2.51,3.8-7.9,10.95a1.79,1.79,0,0,1-2.57.35Z"/><polyline class="cls-19" points="311.43 177.32 373.5 177.32 373.5 216.12"/><polyline class="cls-19" points="365.61 215.38 373.39 223.16 381.17 215.38"/><text class="cls-20" transform="matrix(1, 0.01, -0.01, 1, 338.77, 112.24)">Transfiere activos</text><circle class="cls-21" cx="311.73" cy="104.33" r="13.42"/><text class="cls-22" transform="translate(307.54 111.45)">a</text><text class="cls-20" transform="matrix(1, 0.01, -0.01, 1, 338.77, 155.72)">Da instrucciones</text><circle class="cls-21" cx="311.73" cy="147.8" r="13.42"/><text class="cls-22" transform="translate(307.54 154.93)">b</text><text class="cls-20" transform="matrix(1, 0.01, -0.01, 1, 481.31, 379.97)">Cumple con las instrucciones<tspan x="0" y="24.54">a favor del beneficiario</tspan></text><path class="cls-23" d="M395.34,250.56c-11.12,1.91-21.75,4.66-31.67,10.16-6.81,3.81-13.16,9.07-16.51,16.27a25.08,25.08,0,0,1,5.33-19.35c7-8.87,17.71-13.78,28.24-17.19Z"/><path class="cls-24" d="M400.09,254.09l15.35,11.26s-83.66,1-50.89,46.49C364.55,311.84,310.13,270.77,400.09,254.09Z"/><polyline class="cls-19" points="473.5 344.97 781.5 344.97 781.5 239.97"/><polyline class="cls-19" points="788.57 238.5 780.79 230.72 773.01 238.5"/><circle class="cls-25" cx="348.24" cy="65.68" r="13.42"/><text class="cls-26" transform="translate(344.04 72.81)">1</text><circle class="cls-25" cx="494.73" cy="323.54" r="13.42"/><text class="cls-26" transform="translate(489.54 330.67)">2</text></svg>