<svg id="Layer_1" data-name="Layer 1" xmlns="http://www.w3.org/2000/svg" viewBox="0 0 960 971.06"><defs><style>.cls-1{font-size:25.01px;font-family:NotoSerif, Noto Serif;}.cls-1,.cls-25,.cls-6{fill:#0e3767;}.cls-2{letter-spacing:-0.02em;}.cls-26,.cls-3{font-size:18.76px;}.cls-24,.cls-26,.cls-3,.cls-7{font-family:NewsCycle, News Cycle;}.cls-16,.cls-23,.cls-4,.cls-5{fill:none;}.cls-4,.cls-5{stroke:#5b5957;}.cls-10,.cls-16,.cls-19,.cls-23,.cls-4,.cls-5,.cls-6,.cls-8{stroke-miterlimit:10;}.cls-5{stroke-dasharray:5 5;}.cls-6{stroke:#fff;stroke-width:0.95px;}.cls-7{font-size:24px;}.cls-10,.cls-14,.cls-19,.cls-26,.cls-7,.cls-8{fill:#fff;}.cls-10,.cls-14,.cls-16,.cls-19,.cls-8{stroke:#000;}.cls-14,.cls-8{stroke-width:0.82px;}.cls-9{fill:#e6af78;}.cls-11{fill:#f0c087;}.cls-12{fill:#785550;}.cls-13{fill:#694b4b;}.cls-14{stroke-linecap:round;stroke-linejoin:round;}.cls-15{fill:#707487;}.cls-16,.cls-19{stroke-width:0.78px;}.cls-17{fill:#5b5d6e;}.cls-18{fill:#515262;}.cls-20{fill:#5a4146;}.cls-21{fill:#b4e1fa;}.cls-22{fill:#a0d2f0;}.cls-23{stroke:#3f4040;stroke-width:0.83px;}.cls-24{font-size:22.87px;}.cls-27{fill:#00407d;}.cls-28{fill:#0057a2;}</style></defs><title>Artboard 1 copy 12bla</title><text class="cls-1" transform="matrix(1, 0.01, -0.01, 1, 630.09, 493.87)">Fideicomiso<tspan x="0" y="30.01">Mercantil</tspan></text><text class="cls-1" transform="matrix(1, 0.01, -0.01, 1, 340.09, 493.87)">Encargo<tspan x="0" y="30.01">Fiduciario</tspan></text><text class="cls-1" transform="matrix(1, 0.01, -0.01, 1, 85.23, 603.36)">T<tspan class="cls-2" x="15.33" y="0">r</tspan><tspan x="26.61" y="0">ansferencia</tspan><tspan x="0" y="30.01">de dominio</tspan></text><text class="cls-1" transform="matrix(1, 0.01, -0.01, 1, 85.23, 697.86)">Tipo de<tspan x="0" y="30.01">documento</tspan></text><text class="cls-1" transform="matrix(1, 0.01, -0.01, 1, 85.23, 792.35)">Tipo de<tspan x="0" y="30.01">persona</tspan></text><text class="cls-1" transform="matrix(1, 0.01, -0.01, 1, 85.23, 886.85)">Instrucciones /<tspan x="0" y="30.01">finalidad</tspan></text><text class="cls-3" transform="translate(330.09 584.33)">No existe transferencia de la <tspan x="0" y="27.2">propiedad de los bienes o </tspan><tspan x="0" y="54.4">derechos.</tspan></text><text class="cls-3" transform="translate(330.09 699.31)">Se formaliza generalmente <tspan x="0" y="27.2">mediante contrato privado.</tspan></text><text class="cls-3" transform="translate(330.09 793.44)">No se crea un ente con <tspan x="0" y="27.2">personería jurídica.</tspan></text><text class="cls-3" transform="translate(330.09 883.44)">De tenencia, custodia y en <tspan x="0" y="27.2">general obligaciones de hacer.</tspan></text><text class="cls-3" transform="translate(630.09 584.33)">Transifieren de manera temporal <tspan x="0" y="27.2">e irrevocable propiedad de bienes </tspan><tspan x="0" y="54.4">muebles o inmuebles.</tspan></text><text class="cls-3" transform="translate(630.09 699.31)">Se formaliza mediante escritura <tspan x="0" y="27.2">pública.</tspan></text><text class="cls-3" transform="translate(630.09 793.44)">Patrimonio autónomo dotado de <tspan x="0" y="27.2">personería jurídica.</tspan></text><text class="cls-3" transform="translate(630.09 883.44)">Finalidades específicas señaladas <tspan x="0" y="27.2">en contrato a favor del </tspan><tspan x="0" y="54.4">Beneficiario.</tspan></text><line class="cls-4" x1="292.5" y1="471.3" x2="292.5" y2="474.3"/><line class="cls-5" x1="292.5" y1="478.3" x2="292.5" y2="944.3"/><line class="cls-4" x1="292.5" y1="947.3" x2="292.5" y2="949.3"/><line class="cls-4" x1="584.5" y1="471.3" x2="584.5" y2="474.3"/><line class="cls-5" x1="584.5" y1="478.3" x2="584.5" y2="944.3"/><line class="cls-4" x1="584.5" y1="947.3" x2="584.5" y2="949.3"/><line class="cls-4" x1="55" y1="544.8" x2="58" y2="544.8"/><line class="cls-5" x1="63" y1="544.8" x2="900" y2="544.8"/><line class="cls-4" x1="902" y1="544.8" x2="904" y2="544.8"/><line class="cls-4" x1="55" y1="658.8" x2="58" y2="658.8"/><line class="cls-5" x1="63" y1="658.8" x2="900" y2="658.8"/><line class="cls-4" x1="902" y1="658.8" x2="904" y2="658.8"/><line class="cls-4" x1="55" y1="753.8" x2="58" y2="753.8"/><line class="cls-5" x1="63" y1="753.8" x2="900" y2="753.8"/><line class="cls-4" x1="902" y1="753.8" x2="904" y2="753.8"/><line class="cls-4" x1="55" y1="848.8" x2="58" y2="848.8"/><line class="cls-5" x1="63" y1="848.8" x2="900" y2="848.8"/><line class="cls-4" x1="902" y1="848.8" x2="904" y2="848.8"/><rect class="cls-6" x="116.67" y="138.06" width="169.33" height="61.41"/><text class="cls-7" transform="translate(137.28 177.85)">Constituyente</text><rect class="cls-6" x="291.47" y="335.77" width="169.33" height="61.41"/><text class="cls-7" transform="translate(320.42 375.55)">Fideicomiso</text><rect class="cls-6" x="674" y="173.06" width="169.33" height="61.41"/><text class="cls-7" transform="translate(704.53 212.85)">Beneficiario</text><polygon class="cls-8" points="216.32 101.67 216.37 89.99 186.33 89.85 186.28 101.53 201.24 114.95 216.32 101.67"/><polygon class="cls-9" points="214.82 100.22 214.87 89.71 187.83 89.58 187.78 100.1 201.24 112.18 214.82 100.22"/><path class="cls-8" d="M217.91,36.61c-2.4-3.18-7.58-6.58-16.67-6.47-5.22.06-15,1.6-20.12,4.22l2.46,1.7c-11.2,8.19-9.18,22.33-9.18,22.33,3.32,3.35,3.28,11.7,3.28,11.7L181,66.76s-1.24-9.65,5.07-13.33c5.86-3.41,11-1.62,16.17-1.59,5.89,0,10-.9,12.71-2.44,5.18,3,6,12.19,6.09,15a3.3,3.3,0,0,0,.52,1.63l2.7,4.24s-.9-7,3.39-11.67C227.7,58.63,228.86,38.32,217.91,36.61Z"/><path class="cls-10" d="M222.65,65.8h0c-.22,0-.43-.23-.64-.19l.84-16.88-43.39-.27.68,16.09c-.21,0-.42-.75-.64-.75h0c-2.25,0-3.91,2.74-3.37,4.92L178,76.58a2.16,2.16,0,0,0,1.94,1.69,2,2,0,0,0,.76-.07l.09,2.15a10.05,10.05,0,0,0,4,7.59l6.88,5.22a10,10,0,0,0,6,2l6.68,0a10,10,0,0,0,6-2l6.92-5.14a10,10,0,0,0,4-7.54l.11-2.11a2,2,0,0,0,2.71-1.35L226,69.85A3.25,3.25,0,0,0,222.65,65.8Z"/><path class="cls-11" d="M180.64,49.18l1.23,30.24a9.46,9.46,0,0,0,3.74,7.16l6.5,4.92a9.46,9.46,0,0,0,5.67,1.92l6.31,0a9.46,9.46,0,0,0,5.69-1.87l6.54-4.86a9.46,9.46,0,0,0,3.81-7.12l1.52-30.23-41-.19Z"/><path class="cls-12" d="M210.75,38.87l1.43,10.45c6.74,1.38,7.66,12,7.79,15a3.11,3.11,0,0,0,.49,1.54l2.56,4s-.85-6.61,3.21-11C226.23,58.86,227.74,32.65,210.75,38.87Z"/><path class="cls-11" d="M224.61,69.21l-1.81,7.12a1.9,1.9,0,0,1-1.85,1.43h0a1.9,1.9,0,0,1-1.87-1.67l-.88-7.29a3.26,3.26,0,0,1,3.26-3.65h0A3.26,3.26,0,0,1,224.61,69.21Z"/><path class="cls-13" d="M182.22,35.91l2.33,1.6c-10.58,7.74-8.67,21.1-8.67,21.1C179,61.79,179,69.67,179,69.67l3.17-3.14s-1.17-9.12,4.79-12.59c5.53-3.23,10.36-1.53,15.28-1.5,13.21.06,16.93-4.9,16.32-11-.32-3.14-5.08-9.69-17.3-9.54C196.29,32,187,33.44,182.22,35.91Z"/><path class="cls-9" d="M177.5,69l1.75,7.13a1.9,1.9,0,0,0,1.83,1.44h0A1.9,1.9,0,0,0,183,75.92l.94-7.28A3.26,3.26,0,0,0,180.69,65h0A3.26,3.26,0,0,0,177.5,69Z"/><path class="cls-14" d="M239.64,108.77,221,104.28l.49-1.06L219.2,99.8a1.67,1.67,0,0,0-2.5-.33l-15.32,13.66h0l-15.19-13.8a1.67,1.67,0,0,0-2.51.3L181.4,103l.48,1.07-18.72,4.31a6.68,6.68,0,0,0-5.18,6.47l-.06,13.07a3.34,3.34,0,0,0,3.32,3.35l80.1.38a3.34,3.34,0,0,0,3.35-3.32l.06-13.07A6.68,6.68,0,0,0,239.64,108.77Z"/><path class="cls-15" d="M236.26,110.87l-17-4,.45-1-2.05-3.07a1.53,1.53,0,0,0-2.28-.29l-14,12.29h0l-13.85-12.42a1.53,1.53,0,0,0-2.29.27l-2.08,3.05.44,1-17.07,3.88a6,6,0,0,0-4.72,5.83l-.06,10.32a3,3,0,0,0,3,3l73,.34a3,3,0,0,0,3.06-3l.06-10.32A6,6,0,0,0,236.26,110.87Z"/><path class="cls-16" d="M195.24,82.72s6.85,6.61,13.46,0"/><polygon class="cls-17" points="205.19 129.92 197.68 129.88 198.68 116.37 204.31 116.4 205.19 129.92"/><path class="cls-18" d="M205.26,114.75l-7.51,0v.87a3.64,3.64,0,0,0,3.62,3.66h.23a3.64,3.64,0,0,0,3.66-3.62v-.87Z"/><path class="cls-17" d="M187.72,102.29l13.67,12.42a51.8,51.8,0,0,0-8.62,5.81,1.93,1.93,0,0,1-3-.69l-6.38-14.22,2.05-3.05A1.5,1.5,0,0,1,187.72,102.29Z"/><path class="cls-17" d="M215.36,102.63l-13.79,12.29a51.8,51.8,0,0,1,8.56,5.89,1.93,1.93,0,0,0,3-.66L219.64,106l-2-3.07A1.5,1.5,0,0,0,215.36,102.63Z"/><path class="cls-19" d="M758.85,67c-.75,0-1.46,0-2.15.1l0,0c-31.27,1.61-27.91,41.32-27.9,70.29a3.16,3.16,0,0,0,1.54,2.71,56.74,56.74,0,0,0,56.37.27,3.16,3.16,0,0,0,1.56-2.7C788.54,108,792.46,67.18,758.85,67Z"/><path class="cls-20" d="M756.78,69.21c-29.63,1.52-26.45,39.15-26.43,66.59a3,3,0,0,0,1.46,2.57,52.79,52.79,0,0,0,26.67,7.23l8.31-56.3"/><path class="cls-13" d="M758.83,69.14c-18.11-.09-19.47,21.79-19.47,21.79,10.45-1.71,16.84,2.72,27.42-1.63l-8.31,56.3a52.78,52.78,0,0,0,26.73-7,3,3,0,0,0,1.48-2.56C787,108,790.68,69.29,758.83,69.14Z"/><path class="cls-8" d="M792.25,146l-19.91-8.41a4.47,4.47,0,0,1-2.73-4.14l0-5.4L747.28,128l0,5.4a4.47,4.47,0,0,1-2.77,4.11l-20,8.22a6.71,6.71,0,0,0-4.16,6.17l0,8.94a4.47,4.47,0,0,0,4.45,4.49l67.07.32a4.47,4.47,0,0,0,4.49-4.45l0-8.94A6.71,6.71,0,0,0,792.25,146Z"/><path class="cls-9" d="M788.18,146.14l-17.52-7.4a3.93,3.93,0,0,1-2.4-3.64l0-7.55-19.67-.09,0,7.55a3.93,3.93,0,0,1-2.44,3.62l-17.59,7.23a5.9,5.9,0,0,0-3.66,5.43l0,7.87a3.93,3.93,0,0,0,3.92,4l59,.28a3.93,3.93,0,0,0,4-3.92l0-7.87A5.9,5.9,0,0,0,788.18,146.14Z"/><path class="cls-8" d="M769.84,85.07c-11.23,11.12-33.12,2.08-33.21,20L738,118.21a8.94,8.94,0,0,0,4.53,7l12.7,7.13a6.71,6.71,0,0,0,6.51,0l12.76-7a8.94,8.94,0,0,0,4.6-7l1.68-15.64a24.68,24.68,0,0,0,.12-3.35C780,93.73,772,89.55,769.84,85.07Z"/><path class="cls-11" d="M769,86.9c-10.38,10.28-30.61,1.92-30.68,18.45l1.23,12.18a8.26,8.26,0,0,0,4.19,6.49l11.73,6.59a6.2,6.2,0,0,0,6,0l11.79-6.48a8.26,8.26,0,0,0,4.25-6.46l1.55-14.45a22.81,22.81,0,0,0,.11-3.09C778.41,94.9,771,91,769,86.9Z"/><path class="cls-8" d="M799.46,151c0-.11,0-.21-.07-.32a7.2,7.2,0,0,0-.29-1l-.09-.23a7.2,7.2,0,0,0-3.84-3.87l-17.44-7.36.26-.36-2.7-4.09a1.92,1.92,0,0,0-2.75-.48l-13.82,10.26L745,133.15a1.92,1.92,0,0,0-2.76.46l-2.74,4.07.26.37-17.5,7.2a7.18,7.18,0,0,0-2.38,1.61h0a7.2,7.2,0,0,0-1.49,2.21l-.08.21a7.17,7.17,0,0,0-.31,1c0,.11-.05.21-.07.32a7.16,7.16,0,0,0-.14,1.29l0,9.62a4.81,4.81,0,0,0,4.79,4.83l9.62,0h0l62.54.29a4.81,4.81,0,0,0,4.83-4.79l0-9.62A7.17,7.17,0,0,0,799.46,151Z"/><path class="cls-21" d="M795.38,150.86c0-.1,0-.19-.06-.29a6.48,6.48,0,0,0-.26-.88l-.08-.21a6.48,6.48,0,0,0-3.45-3.48l-15.69-6.63.24-.33-2.43-3.68a1.73,1.73,0,0,0-2.48-.44l-12.44,9.23-12.35-9.35a1.73,1.73,0,0,0-2.48.41l-2.47,3.66.23.33-15.75,6.55a3.75,3.75,0,0,0-2.23,1.53H724v-.15a3.23,3.23,0,0,0-1.46,2c0,.06-.11.13-.14.19a6.57,6.57,0,0,0-.31.9c0,.1-.06.19-.08.28a6.44,6.44,0,0,0-.13,1.16l0,8.66a4.33,4.33,0,0,0,4.31,4.35l8.66,0h0l56.29.27a4.33,4.33,0,0,0,4.35-4.31l0-8.66A6.45,6.45,0,0,0,795.38,150.86Z"/><path class="cls-16" d="M751.15,119.66s6.17,6,12.12,0"/><path class="cls-17" d="M758.75,161h-.67a1.9,1.9,0,0,1-1.89-1.91l.07-15,4.47,0-.07,15A1.9,1.9,0,0,1,758.75,161Z"/><path class="cls-22" d="M758.49,144.15l-12.75-9.66a1.79,1.79,0,0,0-2.56.43l-2.55,3.78,7.79,11a1.79,1.79,0,0,0,2.57.37Z"/><path class="cls-22" d="M758.49,144.15l12.84-9.54a1.79,1.79,0,0,1,2.56.45l2.51,3.8-7.9,10.95a1.79,1.79,0,0,1-2.57.35Z"/><polyline class="cls-23" points="311.43 193.45 373.5 193.45 373.5 232.25"/><polyline class="cls-23" points="365.61 231.51 373.39 239.29 381.17 231.51"/><text class="cls-24" transform="matrix(1, 0.01, -0.01, 1, 338.77, 157.45)">Da instrucciones<tspan x="0" y="24.54">irrevocables</tspan></text><circle class="cls-25" cx="311.73" cy="149.53" r="13.42"/><text class="cls-26" transform="translate(307.54 156.66)">1</text><text class="cls-24" transform="matrix(1, 0.01, -0.01, 1, 521.77, 396.1)">Cumple con las instrucciones<tspan x="0" y="24.54">a favor del beneficiario</tspan></text><circle class="cls-25" cx="494.73" cy="388.18" r="13.42"/><text class="cls-26" transform="translate(490.54 393.31)">2</text><path class="cls-27" d="M395.34,266.69c-11.12,1.91-21.75,4.66-31.67,10.16-6.81,3.81-13.16,9.07-16.51,16.27a25.08,25.08,0,0,1,5.33-19.35c7-8.87,17.71-13.78,28.24-17.19Z"/><path class="cls-28" d="M400.09,270.22l15.35,11.26s-83.66,1-50.89,46.49C364.55,328,310.13,286.91,400.09,270.22Z"/><polyline class="cls-23" points="473.5 361.1 781.5 361.1 781.5 256.1"/><polyline class="cls-23" points="788.57 254.63 780.79 246.85 773.01 254.63"/></svg>