<svg id="Layer_1" data-name="Layer 1" xmlns="http://www.w3.org/2000/svg" viewBox="0 0 960 457.83"><defs><style>.cls-1,.cls-7,.cls-8{fill:#0e3767;}.cls-1{stroke:#fff;stroke-width:0.95px;}.cls-1,.cls-10,.cls-12,.cls-18,.cls-23,.cls-3,.cls-4{stroke-miterlimit:10;}.cls-2{font-size:24px;}.cls-10,.cls-12,.cls-16,.cls-2,.cls-23,.cls-25,.cls-9{fill:#fff;}.cls-2,.cls-25,.cls-5,.cls-7,.cls-9{font-family:NewsCycle, News Cycle;}.cls-18,.cls-3,.cls-4{fill:none;}.cls-3,.cls-4{stroke:#3f4040;stroke-width:0.83px;}.cls-4{stroke-dasharray:3 3;}.cls-5{font-size:18.87px;}.cls-6{fill:#ffcb31;}.cls-7,.cls-9{font-size:18.76px;}.cls-10,.cls-12,.cls-16,.cls-18,.cls-23{stroke:#000;}.cls-10,.cls-16{stroke-width:0.82px;}.cls-11{fill:#e6af78;}.cls-13{fill:#f0c087;}.cls-14{fill:#785550;}.cls-15{fill:#694b4b;}.cls-16{stroke-linecap:round;stroke-linejoin:round;}.cls-17{fill:#707487;}.cls-18,.cls-23{stroke-width:0.78px;}.cls-19{fill:#5b5d6e;}.cls-20{fill:#515262;}.cls-21{fill:#eff2fa;}.cls-22{fill:#e4eaf6;}.cls-24{fill:#5a4146;}.cls-25{font-size:22.87px;}.cls-26{fill:#00407d;}.cls-27{fill:#0057a2;}</style></defs><title>Artboard 1 copy 7bla</title><rect class="cls-1" x="67.12" y="164.39" width="169.33" height="61.41"/><text class="cls-2" transform="translate(87.72 204.18)">Constituyente</text><rect class="cls-1" x="418.5" y="164.39" width="169.33" height="61.41"/><text class="cls-2" transform="translate(447.45 204.18)">Fideicomiso</text><rect class="cls-1" x="724.53" y="164.39" width="169.33" height="86.96"/><text class="cls-2" transform="translate(767.36 204.18)">Acreedor<tspan x="-11.81" y="24.8">garantizado</tspan></text><rect class="cls-1" x="726.5" y="268.24" width="169.33" height="61.41"/><text class="cls-2" transform="translate(770.35 307.38)">Terceros</text><line class="cls-3" x1="247.09" y1="198.35" x2="406.67" y2="198.35"/><polyline class="cls-3" points="406.77 206.13 414.55 198.35 406.77 190.57"/><line class="cls-3" x1="596" y1="198.35" x2="706.67" y2="198.35"/><polyline class="cls-3" points="706.77 206.13 714.55 198.35 706.77 190.57"/><line class="cls-4" x1="494.17" y1="229.31" x2="494.17" y2="261.79"/><polyline class="cls-3" points="486.39 261.89 494.17 269.67 501.95 261.89"/><line class="cls-3" x1="621.99" y1="310.49" x2="706.46" y2="310.49"/><polyline class="cls-3" points="706.57 318.27 714.35 310.49 706.57 302.71"/><text class="cls-5" transform="matrix(1, 0.01, -0.01, 1, 288.44, 142.65)">Transfiere<tspan x="0" y="24.54">activos</tspan></text><circle class="cls-6" cx="261.4" cy="134.73" r="13.42"/><text class="cls-7" transform="translate(257.21 141.86)">1</text><text class="cls-5" transform="matrix(1, 0.01, -0.01, 1, 604.38, 142.65)">Nombra<tspan x="0" y="24.54">beneficiario</tspan></text><circle class="cls-6" cx="577.34" cy="134.73" r="13.42"/><text class="cls-7" transform="translate(573.15 141.86)">2</text><polyline class="cls-4" points="453.17 155 453.17 93 116.17 93 116.17 153"/><polyline class="cls-3" points="107.83 151.12 115.61 158.89 123.38 151.12"/><circle class="cls-6" cx="128.15" cy="43.21" r="13.42"/><text class="cls-7" transform="translate(122.95 50.33)">3</text><circle class="cls-8" cx="162" cy="43.21" r="13.42"/><text class="cls-9" transform="translate(157.81 48.33)">a</text><text class="cls-5" transform="matrix(1, 0.01, -0.01, 1, 183.25, 48.72)">Si cumple la obligaci贸n, se restituyen<tspan x="0" y="24.54">los activos al constituyente.</tspan></text><polygon class="cls-10" points="823.2 124.55 823.25 114.01 796.13 113.88 796.09 124.42 809.58 136.53 823.2 124.55"/><polygon class="cls-11" points="821.84 123.24 821.89 113.75 797.49 113.64 797.44 123.13 809.59 134.03 821.84 123.24"/><path class="cls-10" d="M824.64,65.83c-2.16-2.87-6.84-5.94-15-5.84-4.71.06-13.56,1.44-18.15,3.81l2.22,1.53c-10.11,7.39-8.28,20.15-8.28,20.15,3,3,3,10.56,3,10.56l3-3s-1.12-8.71,4.58-12c5.29-3.08,9.89-1.46,14.6-1.44,5.31,0,9-.81,11.47-2.2,4.67,2.74,5.39,11,5.49,13.57a3,3,0,0,0,.47,1.47l2.44,3.83s-.81-6.31,3.06-10.53C833.47,85.71,834.51,67.38,824.64,65.83Z"/><path class="cls-12" d="M828.91,93.81h0c-.2,0-.39-1-.57-1l.76-15.65-39.16-.45.62,15.14a3,3,0,0,0-.57-.05h0a3,3,0,0,0-3,3.72l1.67,6.74a1.78,1.78,0,0,0,1.75,1.34,1.81,1.81,0,0,0,.69-.16l.08,1.9a9,9,0,0,0,3.57,6.83l6.21,4.7a9,9,0,0,0,5.41,1.83l6,0a9,9,0,0,0,5.43-1.78l6.25-4.64a9,9,0,0,0,3.64-6.8l.1-1.91a1.79,1.79,0,0,0,2.45-1.22l1.73-5.75C832.42,94.68,830.94,93.81,828.91,93.81Z"/><path class="cls-13" d="M791,77.18l1.11,27.29a8.54,8.54,0,0,0,3.38,6.46l5.86,4.44a8.54,8.54,0,0,0,5.12,1.73l5.69,0a8.54,8.54,0,0,0,5.13-1.68l5.91-4.39a8.54,8.54,0,0,0,3.44-6.43L828,77.35l-37-.17Z"/><path class="cls-14" d="M818.18,67.87l1.29,9.44c6.09,1.25,6.92,10.81,7,13.54a2.81,2.81,0,0,0,.44,1.39l2.31,3.62s-.77-6,2.89-9.95C832.14,85.91,833.5,62.25,818.18,67.87Z"/><path class="cls-13" d="M830.68,95.26,829,101.68a1.71,1.71,0,0,1-1.67,1.29h0a1.71,1.71,0,0,1-1.69-1.51l-.79-6.58a3,3,0,0,1,2.94-3.3h0A3,3,0,0,1,830.68,95.26Z"/><path class="cls-15" d="M792.42,65.2l2.1,1.45c-9.55,7-7.83,19-7.83,19,2.83,2.86,2.8,10,2.8,10l2.86-2.83s-1.06-8.23,4.32-11.37c5-2.91,9.35-1.38,13.79-1.36,11.92.06,15.28-4.42,14.72-9.89-.29-2.83-4.59-8.75-15.62-8.61C805.12,61.66,796.76,63,792.42,65.2Z"/><path class="cls-11" d="M788.16,95.06l1.58,6.44a1.71,1.71,0,0,0,1.65,1.3h0a1.71,1.71,0,0,0,1.71-1.49l.85-6.57A3,3,0,0,0,791,91.41h0A3,3,0,0,0,788.16,95.06Z"/><path class="cls-16" d="M844.24,131l-16.86-4.05.44-1-2-3.08a1.51,1.51,0,0,0-2.26-.29l-13.82,12.32h0L796,122.44a1.51,1.51,0,0,0-2.26.27l-2.06,3.06.43,1-16.9,3.89a6,6,0,0,0-4.67,5.84l-.06,11.8a3,3,0,0,0,3,3l72.29.34a3,3,0,0,0,3-3l.06-11.8A6,6,0,0,0,844.24,131Z"/><path class="cls-17" d="M841.19,132.85l-15.37-3.65.4-.86-1.85-2.77a1.38,1.38,0,0,0-2.06-.27l-12.6,11.09h0l-12.5-11.21a1.38,1.38,0,0,0-2.06.25l-1.88,2.75.39.87-15.4,3.5a5.44,5.44,0,0,0-4.26,5.26l-.05,9.31a2.73,2.73,0,0,0,2.73,2.72l65.91.31a2.73,2.73,0,0,0,2.76-2.7l.05-9.31A5.44,5.44,0,0,0,841.19,132.85Z"/><path class="cls-18" d="M804.17,107.44s6.18,6,12.15,0"/><polygon class="cls-19" points="813.15 150.04 806.37 150.01 807.28 137.81 812.36 137.84 813.15 150.04"/><path class="cls-20" d="M813.22,136.36l-6.78,0v.78a3.28,3.28,0,0,0,3.27,3.3h.21a3.28,3.28,0,0,0,3.3-3.27v-.78Z"/><path class="cls-19" d="M797.38,125.1l12.34,11.21a46.75,46.75,0,0,0-7.78,5.25,1.74,1.74,0,0,1-2.69-.62l-5.76-12.83,1.85-2.75A1.36,1.36,0,0,1,797.38,125.1Z"/><path class="cls-19" d="M822.33,125.41,809.89,136.5a46.75,46.75,0,0,1,7.73,5.32,1.74,1.74,0,0,0,2.7-.6l5.88-12.78-1.83-2.77A1.36,1.36,0,0,0,822.33,125.41Z"/><polygon class="cls-10" points="126.34 314.11 126.39 302.07 95.43 301.93 95.37 313.97 110.79 327.8 126.34 314.11"/><polygon class="cls-11" points="124.79 312.62 124.84 301.78 96.97 301.65 96.92 312.49 110.8 324.94 124.79 312.62"/><path class="cls-10" d="M128,247c-2.47-3.28-7.81-6.78-17.19-6.67-5.38.07-15.49,1.65-20.74,4.35l2.54,1.75c-11.54,8.44-9.46,23-9.46,23,3.42,3.46,3.38,12.06,3.38,12.06L90,278.12s-1.28-9.94,5.23-13.74c6-3.52,11.3-1.67,16.67-1.64,6.07,0,10.28-.92,13.1-2.52,5.34,3.13,6.15,12.56,6.28,15.49a3.4,3.4,0,0,0,.54,1.68l2.79,4.37s-.93-7.21,3.5-12C138.07,269.75,139.26,248.81,128,247Z"/><path class="cls-12" d="M132.87,278.81h0c-.23,0-.44-1.07-.66-1l.87-17.82-44.73-.49.7,16.85c-.21,0-.43-.51-.66-.51h0a3.81,3.81,0,0,0-3.48,4.7l1.91,7.93a2.14,2.14,0,0,0,2,1.65,2,2,0,0,0,.78-.12l.09,2.2A10.34,10.34,0,0,0,93.77,300l7.09,5.37a10.32,10.32,0,0,0,6.18,2.1l6.88,0a10.32,10.32,0,0,0,6.2-2l7.14-5.3a10.32,10.32,0,0,0,4.15-7.77l.11-2.18a2,2,0,0,0,2.8-1.39l2-6.66C136.87,279.9,135.18,278.81,132.87,278.81Z"/><path class="cls-13" d="M89.56,260l1.27,31.17a9.75,9.75,0,0,0,3.86,7.38l6.7,5.07a9.75,9.75,0,0,0,5.84,2l6.5,0a9.75,9.75,0,0,0,5.86-1.92l6.75-5a9.75,9.75,0,0,0,3.93-7.34l1.56-31.16L89.56,260Z"/><path class="cls-14" d="M120.6,249.38l1.47,10.78c7,1.42,7.9,12.35,8,15.47a3.21,3.21,0,0,0,.51,1.59l2.63,4.13s-.88-6.81,3.31-11.36C136.55,270,138.11,243,120.6,249.38Z"/><path class="cls-13" d="M134.88,280.66,133,288a2,2,0,0,1-1.9,1.47h0a2,2,0,0,1-1.93-1.72l-.9-7.52a3.37,3.37,0,0,1,3.36-3.77h0A3.36,3.36,0,0,1,134.88,280.66Z"/><path class="cls-15" d="M91.19,246.33l2.4,1.65c-10.91,8-8.94,21.75-8.94,21.75,3.24,3.27,3.2,11.39,3.2,11.39l3.27-3.24s-1.21-9.4,4.94-13c5.71-3.33,10.68-1.58,15.76-1.55,13.61.06,17.45-5,16.82-11.3-.33-3.23-5.24-10-17.84-9.84C105.7,242.28,96.14,243.78,91.19,246.33Z"/><path class="cls-11" d="M86.32,280.43l1.8,7.35A2,2,0,0,0,90,289.27h0a2,2,0,0,0,1.95-1.7l1-7.51a3.37,3.37,0,0,0-3.32-3.8h0A3.37,3.37,0,0,0,86.32,280.43Z"/><path class="cls-16" d="M150.38,321.43l-19.26-4.63.5-1.09-2.32-3.52a1.72,1.72,0,0,0-2.58-.34l-15.79,14.08h0L95.28,311.7a1.72,1.72,0,0,0-2.58.31l-2.35,3.49.49,1.1-19.3,4.44a6.88,6.88,0,0,0-5.34,6.67l-.06,13.47a3.44,3.44,0,0,0,3.42,3.46l82.57.39a3.44,3.44,0,0,0,3.46-3.42l.06-13.47A6.88,6.88,0,0,0,150.38,321.43Z"/><path class="cls-21" d="M146.89,323.59l-17.56-4.16.46-1-2.12-3.16a1.58,1.58,0,0,0-2.35-.3l-14.4,12.67h0l-14.27-12.8a1.58,1.58,0,0,0-2.36.28l-2.15,3.14.45,1-17.59,4a6.21,6.21,0,0,0-4.87,6l-.06,10.63A3.12,3.12,0,0,0,73.21,343l75.28.35a3.12,3.12,0,0,0,3.15-3.08l.06-10.63A6.21,6.21,0,0,0,146.89,323.59Z"/><path class="cls-18" d="M104.61,294.57s7.06,6.81,13.88,0"/><polygon class="cls-19" points="114.86 343.23 107.12 343.19 108.16 329.26 113.96 329.29 114.86 343.23"/><path class="cls-20" d="M114.94,327.6l-7.74,0v.89a3.75,3.75,0,0,0,3.73,3.77h.24a3.75,3.75,0,0,0,3.77-3.73v-.89Z"/><path class="cls-22" d="M96.86,314.75l14.09,12.8a53.39,53.39,0,0,0-8.88,6,2,2,0,0,1-3.07-.71l-6.58-14.66L94.53,315A1.55,1.55,0,0,1,96.86,314.75Z"/><path class="cls-22" d="M125.35,315.1l-14.21,12.67a53.39,53.39,0,0,1,8.83,6.07,2,2,0,0,0,3.08-.68l6.72-14.6-2.09-3.16A1.55,1.55,0,0,0,125.35,315.1Z"/><path class="cls-23" d="M181.95,249c-.81,0-1.59,0-2.34.11l0,0c-34.09,1.75-30.43,45-30.41,76.62a3.45,3.45,0,0,0,1.68,3,61.85,61.85,0,0,0,61.45.29A3.45,3.45,0,0,0,214,326C214.32,293.76,218.59,249.21,181.95,249Z"/><path class="cls-24" d="M179.7,251.43c-32.29,1.66-28.83,42.67-28.81,72.59a3.27,3.27,0,0,0,1.59,2.8,57.54,57.54,0,0,0,29.07,7.88l9.06-61.37"/><path class="cls-15" d="M181.93,251.36c-19.74-.09-21.22,23.75-21.22,23.75,11.39-1.87,18.35,3,29.89-1.78l-9.06,61.37a57.54,57.54,0,0,0,29.14-7.6,3.27,3.27,0,0,0,1.61-2.79C212.6,293.72,216.65,251.52,181.93,251.36Z"/><path class="cls-10" d="M218.36,335.19,196.65,326a4.87,4.87,0,0,1-3-4.51l0-5.89-24.37-.11,0,5.89a4.87,4.87,0,0,1-3,4.48l-21.79,9a7.31,7.31,0,0,0-4.53,6.73l0,9.75a4.87,4.87,0,0,0,4.85,4.9l73.11.34a4.87,4.87,0,0,0,4.9-4.85l0-9.75A7.31,7.31,0,0,0,218.36,335.19Z"/><path class="cls-11" d="M213.92,335.29l-19.1-8.06a4.29,4.29,0,0,1-2.62-4l0-8.23-21.44-.1,0,8.23a4.29,4.29,0,0,1-2.66,3.95L148.93,335a6.43,6.43,0,0,0-4,5.92l0,8.58a4.29,4.29,0,0,0,4.27,4.31l64.33.3a4.29,4.29,0,0,0,4.31-4.27l0-8.58A6.43,6.43,0,0,0,213.92,335.29Z"/><path class="cls-10" d="M193.93,268.72c-12.24,12.13-36.11,2.27-36.2,21.76l1.45,14.37a9.75,9.75,0,0,0,4.94,7.66l13.84,7.77a7.31,7.31,0,0,0,7.1,0L199,312.67a9.75,9.75,0,0,0,5-7.62l1.83-17a26.9,26.9,0,0,0,.13-3.65C205,278.15,196.34,273.6,193.93,268.72Z"/><path class="cls-13" d="M193,270.71c-11.31,11.21-33.36,2.09-33.45,20.11l1.34,13.28a9,9,0,0,0,4.56,7.08l12.79,7.18a6.75,6.75,0,0,0,6.56,0l12.85-7.06a9,9,0,0,0,4.63-7L204,288.54a24.86,24.86,0,0,0,.12-3.37C203.28,279.43,195.24,275.22,193,270.71Z"/><path class="cls-10" d="M226.22,340.57c0-.12-.05-.23-.08-.35a7.85,7.85,0,0,0-.32-1.06l-.1-.26a7.85,7.85,0,0,0-4.18-4.22l-19-8,.29-.4-2.94-4.46a2.1,2.1,0,0,0-3-.53l-15.06,11.18-15-11.33a2.1,2.1,0,0,0-3,.5l-3,4.43.28.4-19.08,7.84a7.83,7.83,0,0,0-2.59,1.76h0a7.85,7.85,0,0,0-1.62,2.41l-.09.23a7.81,7.81,0,0,0-.34,1.09c0,.12-.06.23-.08.34a7.8,7.8,0,0,0-.15,1.41l0,10.49a5.24,5.24,0,0,0,5.22,5.27l10.49,0h0l68.18.32a5.24,5.24,0,0,0,5.27-5.22l0-10.49A7.82,7.82,0,0,0,226.22,340.57Z"/><path class="cls-21" d="M221.77,340.43c0-.11,0-.21-.07-.31a7.06,7.06,0,0,0-.29-1l-.09-.23a7.06,7.06,0,0,0-3.76-3.79l-17.1-7.22.26-.36-2.65-4a1.89,1.89,0,0,0-2.7-.48l-13.55,10.07-13.46-10.19a1.89,1.89,0,0,0-2.71.45l-2.69,4,.25.36-17.17,7c-.9.37-1.78,1.55-2.43,1.55h.4v.07a4,4,0,0,0-1.61,2.17c0,.07-.13.14-.16.21a7.18,7.18,0,0,0-.34,1c0,.1-.07.2-.09.31a7,7,0,0,0-.14,1.27l0,9.44a4.72,4.72,0,0,0,4.7,4.74l9.44,0h0l61.36.29a4.72,4.72,0,0,0,4.74-4.7l0-9.44A7,7,0,0,0,221.77,340.43Z"/><path class="cls-18" d="M173.56,306.43s6.73,6.49,13.21,0"/><path class="cls-19" d="M181.84,351.52h-.73a2.07,2.07,0,0,1-2.06-2.08l.08-16.32,4.87,0-.08,16.32A2.07,2.07,0,0,1,181.84,351.52Z"/><path class="cls-22" d="M181.56,333.12l-13.9-10.53a2,2,0,0,0-2.79.46l-2.78,4.12,8.49,12a2,2,0,0,0,2.8.4Z"/><path class="cls-22" d="M181.56,333.12l14-10.39a2,2,0,0,1,2.79.49l2.74,4.15-8.61,11.93a2,2,0,0,1-2.81.38Z"/><text class="cls-25" transform="translate(41.57 -5.82)">Garantia</text><path class="cls-26" d="M523.78,92.14C512.66,94,502,96.79,492.11,102.29c-6.81,3.81-13.16,9.07-16.51,16.27a25.08,25.08,0,0,1,5.33-19.35c7-8.87,17.71-13.78,28.24-17.19Z"/><path class="cls-27" d="M528.53,95.67l15.35,11.26s-83.66,1-50.89,46.49C493,153.42,438.58,112.35,528.53,95.67Z"/><text class="cls-5" transform="translate(621 379.31)">Entrega el bien al acreedor<tspan x="0" y="24.54">o a terceros que lo hayan</tspan><tspan x="0" y="49.08">adquirido. Se cumple la obligaci贸n.</tspan></text><circle class="cls-6" cx="361.15" cy="289.21" r="13.42"/><text class="cls-7" transform="translate(355.95 296.33)">3</text><circle class="cls-8" cx="395" cy="289.21" r="13.42"/><text class="cls-9" transform="translate(390.81 294.33)">b</text><text class="cls-5" transform="translate(420 292.27)">Si no se cumple la <tspan x="0" y="24.54">obligaci贸n, se procede a la </tspan><tspan x="0" y="49.08">ejecuci贸n de los activos.</tspan></text></svg>