<svg id="Layer_1" data-name="Layer 1" xmlns="http://www.w3.org/2000/svg" viewBox="0 0 1041.25 804.47"><defs><style>.cls-1{font-size:22.87px;}.cls-1,.cls-26,.cls-5{font-family:NewsCycle, News Cycle;}.cls-17,.cls-2,.cls-3{fill:none;}.cls-2,.cls-3{stroke:#3f4040;}.cls-11,.cls-17,.cls-2,.cls-21,.cls-3,.cls-4,.cls-6,.cls-9{stroke-miterlimit:10;}.cls-2{stroke-width:0.83px;}.cls-25,.cls-4{fill:#0e3767;}.cls-4{stroke:#fff;}.cls-4,.cls-6{stroke-width:0.95px;}.cls-5{font-size:24px;}.cls-11,.cls-15,.cls-21,.cls-26,.cls-5,.cls-6,.cls-7,.cls-9{fill:#fff;}.cls-6{stroke:#0e3767;}.cls-11,.cls-15,.cls-17,.cls-21,.cls-7,.cls-9{stroke:#000;}.cls-15,.cls-7{stroke-linecap:round;stroke-linejoin:round;}.cls-8{fill:#e6e6e6;}.cls-15,.cls-9{stroke-width:0.82px;}.cls-10{fill:#e6af78;}.cls-12{fill:#f0c087;}.cls-13{fill:#785550;}.cls-14{fill:#694b4b;}.cls-16{fill:#eff2fa;}.cls-17,.cls-21{stroke-width:0.78px;}.cls-18{fill:#5b5d6e;}.cls-19{fill:#515262;}.cls-20{fill:#e4eaf6;}.cls-22{fill:#5a4146;}.cls-23{fill:#ffdb17;}.cls-24{fill:#ffbf00;}.cls-26{font-size:18.76px;}.cls-27{fill:#00407d;}.cls-28{fill:#0057a2;}</style></defs><title>Artboard 1 copy 10bla</title><text class="cls-1" transform="matrix(1, 0.01, -0.01, 1, 830.99, 638.17)">Fiscalizador</text><text class="cls-1" transform="matrix(1, 0.01, -0.01, 1, 830.99, 606.95)">Constructor</text><text class="cls-1" transform="matrix(1, 0.01, -0.01, 1, 830.99, 701.16)">Gerente de proyecto</text><text class="cls-1" transform="matrix(1, 0.01, -0.01, 1, 830.99, 732.88)">Comercializador</text><text class="cls-1" transform="matrix(1, 0.01, -0.01, 1, 830.99, 669.39)">Junta de Fideicomiso</text><polyline class="cls-2" points="813.1 632.41 757.52 632.41 757.52 599.17 813.1 599.17"/><polyline class="cls-2" points="813.21 640.19 820.98 632.41 813.21 624.63"/><polyline class="cls-2" points="813.21 671.31 820.98 663.53 813.21 655.75"/><polyline class="cls-2" points="813.21 606.95 820.98 599.17 813.21 591.39"/><polyline class="cls-3" points="811 663.97 757.5 663.97 757.5 632.47"/><polyline class="cls-2" points="813.21 703.31 820.98 695.53 813.21 687.75"/><polyline class="cls-3" points="811 695.97 757.5 695.97 757.5 664.47"/><polyline class="cls-2" points="813.21 735.31 820.98 727.53 813.21 719.75"/><polyline class="cls-3" points="811 727.97 757.5 727.97 757.5 696.47"/><rect class="cls-4" x="25.39" y="109.49" width="169.33" height="61.41"/><text class="cls-5" transform="translate(55.47 149.28)">Promotores</text><rect class="cls-4" x="274.81" y="357.98" width="169.33" height="81.17"/><text class="cls-5" transform="translate(303.76 408.3)">Fideicomiso</text><rect class="cls-6" x="25.39" y="308.27" width="169.33" height="146.36"/><text class="cls-1" transform="translate(57 348.06)">Terrenos<tspan x="0" y="28.54">Estudios</tspan><tspan x="0" y="57.08">Planos</tspan><tspan x="0" y="85.62">Otros</tspan></text><rect class="cls-6" x="675.19" y="345.49" width="300.56" height="146.36"/><text class="cls-1" transform="translate(706.79 385.28)">Promesas de Compra Venta<tspan x="0" y="28.54">Aportes</tspan><tspan x="0" y="57.08">Financiamiento</tspan><tspan x="0" y="85.62">Permisos</tspan></text><line class="cls-2" x1="109.7" y1="185.03" x2="109.7" y2="286.71"/><polyline class="cls-2" points="101.92 286.81 109.7 294.59 117.48 286.81"/><line class="cls-2" x1="463.92" y1="416.81" x2="632.81" y2="416.81"/><polyline class="cls-2" points="631.47 424.59 639.25 416.81 631.47 409.03"/><line class="cls-2" x1="213.67" y1="390.56" x2="239.84" y2="390.56"/><polyline class="cls-2" points="239.95 398.34 247.73 390.56 239.95 382.79"/><polyline class="cls-7" points="766 239.1 738.69 266.4 758.01 285.72 793.96 249.77 779.75 235.55"/><path class="cls-7" d="M828.33,255.88l-4.87,5.1H807.39l-13.74,13.74c-1.44,1.48-2.77,2.54-3.44,4.56-1.35,4.06.59,9,5.33,9.29a7.56,7.56,0,0,0,5.29-1.92l1.18-1.16,9.7-9.52h13l20.82,20.2a5.8,5.8,0,0,1,1,3.8,7.23,7.23,0,0,1-8.68,7.12,7.27,7.27,0,0,1-8.81,8.42,7.27,7.27,0,0,1-9,8.68,7.27,7.27,0,0,1-7,9.18,7.65,7.65,0,0,1-5.65-2.63l-44.88-44.69"/><polyline class="cls-7" points="790.18 253.54 796 259.14 808.69 260.2"/><polyline class="cls-7" points="845.86 292.71 857.87 281.95 827.36 251.92 840.83 237.54"/><polyline class="cls-7" points="854.04 237.54 882.22 266.2 862.44 286.25 857.87 281.95"/><circle class="cls-7" cx="778.74" cy="301.51" r="6.9"/><circle class="cls-7" cx="789.45" cy="312.06" r="6.9"/><circle class="cls-7" cx="799.68" cy="321.63" r="6.9"/><line class="cls-7" x1="820.13" y1="324.2" x2="808.2" y2="311.6"/><line class="cls-7" x1="829.22" y1="315.11" x2="817.29" y2="302.51"/><line class="cls-7" x1="837.93" y1="307.09" x2="825.73" y2="295.37"/><polygon class="cls-8" points="744.52 266.23 758.53 280.02 787.41 251.19 773.35 237.4 744.52 266.23"/><polygon class="cls-8" points="833.62 252.63 847.27 238.84 875.69 267.11 862.45 280.35 833.62 252.63"/><path class="cls-8" d="M838.92,301.41a3.28,3.28,0,0,1-4.64,0L828.9,296a2.59,2.59,0,1,0-3.66,3.66l5.4,5.4a3.51,3.51,0,0,1-4.9,5l-5.18-4.91A2.59,2.59,0,0,0,817,309l5.64,5.34a2.82,2.82,0,1,1-3.94,4l-2.62-2.62a2.59,2.59,0,1,0-3.66,3.66l2.72,2.72a2.68,2.68,0,1,1-3.79,3.79l-3.17-3.17a8.86,8.86,0,0,0-7.79-13,8.87,8.87,0,0,0-8.89-8.86,8.86,8.86,0,0,0-8.85-8.85c-1.5,0-5.18-.84-6.42-.18l-8.1-8.1,23.7-24.19,4,4a8.43,8.43,0,0,0,2.66.9l-10.76,11.17c-1.82,1.89-1,6.85-.24,9A18.18,18.18,0,0,0,792,290.8c1.56,1.56,4.27,2.07,6.48,2.07s5.33-2,6.9-3.59l9-9.1h7.79l16.79,16.57a3.28,3.28,0,0,1,0,4.66Z"/><path class="cls-8" d="M844.26,288.09,836,280.22c-3.35-3.18-7.65-9.23-12.58-9.09-4.27.11-8.53.07-12.82.06a2.93,2.93,0,0,0-2.1.85l-5.43,5.08-3.75,3.51c-1,.93-2.41,3.19-3.77,3.15a2,2,0,0,1-.77-.2,2,2,0,0,1-1.13-1.17c-.28-.92.56-1.46,1.12-2l15.65-15.65,13.11-.25a2.92,2.92,0,0,0,2.06-.86l3.59-3.17,22.25,21.78Z"/><circle class="cls-8" cx="779.05" cy="301.77" r="3.31"/><path class="cls-8" d="M791.54,313.95l-.28.28a3.33,3.33,0,1,1,.28-.28Z"/><path class="cls-8" d="M801.38,324l0,0,0,0a3.31,3.31,0,0,1-4.78-4.57l.28-.28a3.31,3.31,0,0,1,4.56,4.78Z"/><polygon class="cls-9" points="289 156.19 289.07 140.78 249.44 140.59 249.36 156.01 269.1 173.71 289 156.19"/><polygon class="cls-10" points="287.02 154.28 287.08 140.41 251.41 140.24 251.35 154.12 269.11 170.05 287.02 154.28"/><path class="cls-9" d="M291.1,70.35c-3.16-4.2-10-8.68-22-8.53-6.89.08-19.83,2.11-26.54,5.56l3.25,2.24C231,80.42,233.7,99.08,233.7,99.08c4.38,4.42,4.33,15.43,4.33,15.43l4.42-4.38s-1.64-12.73,6.69-17.58c7.73-4.5,14.46-2.13,21.34-2.1,7.77,0,13.16-1.18,16.76-3.22,6.83,4,7.88,16.08,8,19.83a4.35,4.35,0,0,0,.69,2.15l3.57,5.59s-1.19-9.23,4.48-15.39C304,99.41,305.54,72.61,291.1,70.35Z"/><path class="cls-11" d="M297.35,111h0c-.29,0-.57-1.36-.84-1.31l1.11-22.8-57.25-.62.9,22a4.66,4.66,0,0,0-.84-.24h0a4.54,4.54,0,0,0-4.45,5.61l2.44,9.94a2.62,2.62,0,0,0,3.56,1.8l.11,2.79a13.21,13.21,0,0,0,5.22,10l9.07,6.87a13.21,13.21,0,0,0,7.91,2.68l8.81,0a13.21,13.21,0,0,0,7.94-2.6l9.14-6.79a13.21,13.21,0,0,0,5.32-9.94l.14-2.79a2.62,2.62,0,0,0,3.58-1.78l2.53-8.54C302.48,112.39,300.32,111,297.35,111Z"/><path class="cls-12" d="M241.93,86.94l1.63,39.9a12.49,12.49,0,0,0,4.94,9.44l8.57,6.49a12.49,12.49,0,0,0,7.48,2.53l8.32,0a12.48,12.48,0,0,0,7.5-2.46l8.63-6.41a12.49,12.49,0,0,0,5-9.4l2-39.88-54.1-.26Z"/><path class="cls-13" d="M281.66,73.34l1.89,13.79c8.9,1.82,10.11,15.8,10.28,19.79a4.11,4.11,0,0,0,.65,2l3.37,5.29s-1.12-8.72,4.23-14.55C302.07,99.7,304.06,65.12,281.66,73.34Z"/><path class="cls-12" d="M299.93,113.37l-2.39,9.39a2.5,2.5,0,0,1-2.44,1.88h0a2.5,2.5,0,0,1-2.47-2.2l-1.16-9.62a4.31,4.31,0,0,1,4.3-4.82h0A4.31,4.31,0,0,1,299.93,113.37Z"/><path class="cls-14" d="M244,69.43l3.07,2.12c-14,10.21-11.45,27.84-11.45,27.84,4.14,4.18,4.09,14.58,4.09,14.58l4.18-4.14s-1.55-12,6.32-16.62c7.3-4.26,13.66-2,20.17-2,17.43.08,22.33-6.46,21.53-14.46-.42-4.14-6.7-12.79-22.83-12.59C262.58,64.26,250.35,66.17,244,69.43Z"/><path class="cls-10" d="M237.77,113.08l2.31,9.41a2.5,2.5,0,0,0,2.42,1.91h0a2.5,2.5,0,0,0,2.49-2.18l1.25-9.61a4.31,4.31,0,0,0-4.25-4.86h0A4.31,4.31,0,0,0,237.77,113.08Z"/><path class="cls-15" d="M319.77,165.55l-24.65-5.92.64-1.4-3-4.5a2.2,2.2,0,0,0-3.3-.43l-20.21,18h0l-20-18.21a2.2,2.2,0,0,0-3.31.4l-3,4.47.63,1.41-24.7,5.69a8.81,8.81,0,0,0-6.83,8.54l-.08,17.24a4.4,4.4,0,0,0,4.38,4.42l105.69.5a4.4,4.4,0,0,0,4.42-4.38l.08-17.24A8.81,8.81,0,0,0,319.77,165.55Z"/><path class="cls-16" d="M315.31,168.32,292.84,163l.59-1.26-2.71-4.05a2,2,0,0,0-3-.39l-18.43,16.22h0L251,157.12a2,2,0,0,0-3,.36l-2.75,4,.58,1.27L223.3,167.9a8,8,0,0,0-6.23,7.69L217,189.19a4,4,0,0,0,4,4l96.36.45a4,4,0,0,0,4-3.94l.07-13.61A8,8,0,0,0,315.31,168.32Z"/><path class="cls-17" d="M261.18,131.18s9,8.72,17.76,0"/><polygon class="cls-18" points="274.31 193.46 264.4 193.41 265.72 175.59 273.15 175.62 274.31 193.46"/><path class="cls-19" d="M274.41,173.45l-9.91,0v1.14a4.8,4.8,0,0,0,4.78,4.82h.31a4.8,4.8,0,0,0,4.82-4.78v-1.14Z"/><path class="cls-20" d="M251.26,157l18,16.39a68.34,68.34,0,0,0-11.37,7.67,2.54,2.54,0,0,1-3.93-.91l-8.42-18.76,2.71-4A2,2,0,0,1,251.26,157Z"/><path class="cls-20" d="M287.73,157.45l-18.19,16.22a68.34,68.34,0,0,1,11.3,7.78,2.54,2.54,0,0,0,3.94-.87l8.6-18.68-2.67-4.05A2,2,0,0,0,287.73,157.45Z"/><path class="cls-21" d="M360.17,72.9c-1,0-2,.06-3,.15l0,0c-43.63,2.24-38.95,57.66-38.93,98.07a4.41,4.41,0,0,0,2.14,3.78,79.16,79.16,0,0,0,78.65.37,4.41,4.41,0,0,0,2.18-3.76C401.61,130.14,407.08,73.13,360.17,72.9Z"/><path class="cls-22" d="M357.29,76c-41.34,2.12-36.9,54.62-36.88,92.91a4.18,4.18,0,0,0,2,3.59,73.65,73.65,0,0,0,37.21,10.08L371.25,104"/><path class="cls-14" d="M360.16,75.87c-25.26-.12-27.16,30.4-27.16,30.4,14.57-2.39,23.49,3.79,38.26-2.28l-11.6,78.55a73.64,73.64,0,0,0,37.3-9.73,4.18,4.18,0,0,0,2.07-3.57C399.41,130.09,404.59,76.08,360.16,75.87Z"/><path class="cls-9" d="M406.78,183.17,379,171.44a6.24,6.24,0,0,1-3.81-5.78l0-7.54L344,158l0,7.54a6.24,6.24,0,0,1-3.87,5.74l-27.89,11.47a9.36,9.36,0,0,0-5.8,8.61l-.06,12.48a6.24,6.24,0,0,0,6.21,6.27l93.57.44a6.24,6.24,0,0,0,6.27-6.21l.06-12.48A9.36,9.36,0,0,0,406.78,183.17Z"/><path class="cls-10" d="M401.1,183.3,376.65,173a5.49,5.49,0,0,1-3.35-5.08l0-10.54-27.45-.13,0,10.54a5.49,5.49,0,0,1-3.4,5.05l-24.54,10.09a8.23,8.23,0,0,0-5.1,7.58l-.05,11a5.49,5.49,0,0,0,5.46,5.52l82.34.39a5.49,5.49,0,0,0,5.52-5.46l.05-11A8.23,8.23,0,0,0,401.1,183.3Z"/><path class="cls-9" d="M375.51,98.09c-15.67,15.52-46.22,2.9-46.33,27.85L331,144.33a12.48,12.48,0,0,0,6.32,9.81l17.71,9.95a9.36,9.36,0,0,0,9.09,0l17.81-9.78a12.48,12.48,0,0,0,6.41-9.75l2.34-21.82a34.44,34.44,0,0,0,.16-4.67C389.73,110.17,378.6,104.34,375.51,98.09Z"/><path class="cls-12" d="M374.33,100.64c-14.48,14.34-42.7,2.68-42.81,25.74l1.71,17a11.53,11.53,0,0,0,5.84,9.06l16.37,9.19a8.65,8.65,0,0,0,8.4,0l16.45-9a11.53,11.53,0,0,0,5.92-9l2.16-20.16a31.82,31.82,0,0,0,.15-4.31C387.47,111.8,377.18,106.42,374.33,100.64Z"/><path class="cls-9" d="M416.84,190.06c0-.15-.07-.3-.1-.45a10,10,0,0,0-.41-1.36c0-.11-.08-.22-.13-.33a10,10,0,0,0-5.35-5.4l-24.33-10.27.37-.51L383.12,166a2.68,2.68,0,0,0-3.84-.68L360,179.67l-19.14-14.5a2.68,2.68,0,0,0-3.85.64l-3.82,5.68.36.51-24.42,10a10,10,0,0,0-3.32,2.25h0a10,10,0,0,0-2.08,3.08c0,.1-.08.2-.12.3a10,10,0,0,0-.43,1.39c0,.15-.07.29-.1.44a10,10,0,0,0-.19,1.8l-.06,13.43a6.71,6.71,0,0,0,6.68,6.74l13.43.06h0l87.26.41a6.71,6.71,0,0,0,6.74-6.68l.06-13.43A10,10,0,0,0,416.84,190.06Z"/><path class="cls-16" d="M411.14,189.88c0-.14-.06-.27-.09-.4a9,9,0,0,0-.37-1.23c0-.1-.07-.2-.11-.3a9,9,0,0,0-4.82-4.86l-21.89-9.24.33-.46-3.39-5.14a2.42,2.42,0,0,0-3.46-.61L360,180.54l-17.23-13a2.42,2.42,0,0,0-3.46.58l-3.44,5.11.33.46-22,9.42a8.64,8.64,0,0,0-3.11,2.41H311v-.77a6.17,6.17,0,0,0-1.76,2.77c0,.09,0,.18,0,.27a8.9,8.9,0,0,0-.36,1.25c0,.13-.05.26-.08.4a9,9,0,0,0-.16,1.62l-.05,12.08a6,6,0,0,0,6,6.07l12.08.06h0l78.53.37a6,6,0,0,0,6.07-6l.06-12.08A9,9,0,0,0,411.14,189.88Z"/><path class="cls-17" d="M349.44,146.35s8.61,8.3,16.91,0"/><path class="cls-18" d="M360,204.07h-.94a2.65,2.65,0,0,1-2.64-2.66l.1-20.88,6.24,0-.1,20.88A2.65,2.65,0,0,1,360,204.07Z"/><path class="cls-20" d="M359.68,180.52,341.89,167a2.5,2.5,0,0,0-3.58.59l-3.55,5.27,10.87,15.37a2.5,2.5,0,0,0,3.59.52Z"/><path class="cls-20" d="M359.68,180.52l17.92-13.3a2.5,2.5,0,0,1,3.57.63l3.5,5.31-11,15.27a2.5,2.5,0,0,1-3.59.48Z"/><path class="cls-11" d="M310.06,79H305.5V75.91c0-17.34-12-27.78-29-31.68V42.07c0-2.38-.9-4.09-3.29-4.09h-8.67c-2.38,0-5,1.71-5,4.09v2.17c-16,3.9-28,14.34-28,31.68V79h-3.8c-1.3,0-2.28,2.28-2.28,3.58s1,3.42,2.28,3.42h82.36c1.3,0,2.27-2.16,2.27-3.46S311.36,79,310.06,79Z"/><path class="cls-23" d="M307,80.47h-6v-3c0-15.79-7-26.16-26-31.57v-2a3.33,3.33,0,0,0-3.54-3.45h-6.17c-2,0-4.29,1.28-4.29,3.45v2c-20,7.19-26,15.79-26,31.57v3h-4.19a2,2,0,0,0,0,4H307a2,2,0,0,0,0-4Z"/><path class="cls-24" d="M237.51,64.17l16.62,2.39-4.07-15.63a26.6,26.6,0,0,0-12.55,13.24"/><path class="cls-24" d="M299.16,64.72l-17.09,1.73,3.76-16.32c7.21,3,11.08,9.25,13.33,14.5"/><path class="cls-11" d="M401.06,98H396.5V94.91c0-17.34-12-27.78-29-31.68V61.07c0-2.38-.9-4.09-3.29-4.09h-8.67c-2.38,0-5,1.71-5,4.09v2.17c-16,3.9-28,14.34-28,31.68V98h-3.8c-1.3,0-2.28,2.28-2.28,3.58s1,3.42,2.28,3.42h82.36c1.3,0,2.27-2.16,2.27-3.46S402.36,98,401.06,98Z"/><path class="cls-23" d="M398,99.47h-6v-3c0-15.79-7-26.16-26-31.57v-2a3.33,3.33,0,0,0-3.54-3.45h-6.17c-2,0-4.29,1.28-4.29,3.45v2c-20,7.19-26,15.79-26,31.57v3h-4.19a2,2,0,0,0,0,4H398a2,2,0,0,0,0-4Z"/><path class="cls-24" d="M328.51,83.17l16.62,2.39-4.07-15.63a26.6,26.6,0,0,0-12.55,13.24"/><path class="cls-24" d="M390.16,83.72l-17.09,1.73,3.76-16.32c7.21,3,11.08,9.25,13.33,14.5"/><path class="cls-7" d="M740.34,723.68h-3.42V616.32a2.05,2.05,0,0,0-2.05-2.05H696.58a2.05,2.05,0,0,0-2.05,2.05v8.89h-4.1v-8.89a2.05,2.05,0,0,0-2.05-2.05h-8.89v-6.15a2.05,2.05,0,1,0-4.1,0v6.15h-8.89a2.05,2.05,0,0,0-2.05,2.05v8.89h-6.15a2.05,2.05,0,0,0-2.05,2.05v17.09H639.14a2.05,2.05,0,0,0-2.05,2.05v77.27h-3.42a2.05,2.05,0,0,0,0,4.1H740.34a2.05,2.05,0,1,0,0-4.1Z"/><rect class="cls-8" x="668.54" y="618.37" width="17.78" height="6.84"/><path class="cls-8" d="M661.7,723.68h-1.37v-3.42a2.05,2.05,0,1,0-4.1,0v3.42h-1.37v-6.84h6.84Z"/><path class="cls-8" d="M675.38,671v52.65h-9.57v-8.89a2.05,2.05,0,0,0-2.05-2.05H652.81a2.05,2.05,0,0,0-2.05,2.05v8.89h-9.57V648.46h34.19V671Z"/><path class="cls-8" d="M677.43,644.36H660.34v-15h34.19V669h-15v-6.84h6.15a2.05,2.05,0,1,0,0-4.1h-6.15v-6.84h6.15a2.05,2.05,0,1,0,0-4.1h-6.15v-.68A2.05,2.05,0,0,0,677.43,644.36Z"/><polygon class="cls-8" points="713.67 723.68 679.48 723.68 679.48 674.55 679.48 673.08 713.67 673.08 713.67 723.68"/><path class="cls-8" d="M732.82,723.68h-15V668.29a2.05,2.05,0,1,0-4.1,0V669h-4.1v-.68a2.05,2.05,0,1,0-4.1,0V669h-6.84v-50.6h34.19v105.3Z"/><path class="cls-7" d="M650.06,663.24a2.05,2.05,0,0,0,2.05-2.05v-2.74a2.05,2.05,0,0,0-4.1,0v2.74A2.05,2.05,0,0,0,650.06,663.24Z"/><path class="cls-7" d="M658.27,663.24a2.05,2.05,0,0,0,2.05-2.05v-2.74a2.05,2.05,0,1,0-4.1,0v2.74A2.05,2.05,0,0,0,658.27,663.24Z"/><path class="cls-7" d="M666.47,663.24a2.05,2.05,0,0,0,2.05-2.05v-2.74a2.05,2.05,0,1,0-4.1,0v2.74A2.05,2.05,0,0,0,666.47,663.24Z"/><path class="cls-7" d="M650.06,676.91a2.05,2.05,0,0,0,2.05-2.05v-2.74a2.05,2.05,0,0,0-4.1,0v2.74A2.05,2.05,0,0,0,650.06,676.91Z"/><path class="cls-7" d="M658.27,676.91a2.05,2.05,0,0,0,2.05-2.05v-2.74a2.05,2.05,0,1,0-4.1,0v2.74A2.05,2.05,0,0,0,658.27,676.91Z"/><path class="cls-7" d="M666.47,676.91a2.05,2.05,0,0,0,2.05-2.05v-2.74a2.05,2.05,0,1,0-4.1,0v2.74A2.05,2.05,0,0,0,666.47,676.91Z"/><path class="cls-7" d="M650.06,690.59a2.05,2.05,0,0,0,2.05-2.05V685.8a2.05,2.05,0,1,0-4.1,0v2.74A2.05,2.05,0,0,0,650.06,690.59Z"/><path class="cls-7" d="M658.27,690.59a2.05,2.05,0,0,0,2.05-2.05V685.8a2.05,2.05,0,1,0-4.1,0v2.74A2.05,2.05,0,0,0,658.27,690.59Z"/><path class="cls-7" d="M666.47,690.59a2.05,2.05,0,0,0,2.05-2.05V685.8a2.05,2.05,0,1,0-4.1,0v2.74A2.05,2.05,0,0,0,666.47,690.59Z"/><path class="cls-7" d="M650.06,704.26a2.05,2.05,0,0,0,2.05-2.05v-2.74a2.05,2.05,0,0,0-4.1,0v2.74A2.05,2.05,0,0,0,650.06,704.26Z"/><path class="cls-7" d="M658.27,704.26a2.05,2.05,0,0,0,2.05-2.05v-2.74a2.05,2.05,0,0,0-4.1,0v2.74A2.05,2.05,0,0,0,658.27,704.26Z"/><path class="cls-7" d="M666.47,704.26a2.05,2.05,0,0,0,2.05-2.05v-2.74a2.05,2.05,0,0,0-4.1,0v2.74A2.05,2.05,0,0,0,666.47,704.26Z"/><path class="cls-7" d="M688.69,719.89a2.05,2.05,0,0,0,2.05-2.05V679.55a2.05,2.05,0,1,0-4.1,0v38.29A2.05,2.05,0,0,0,688.69,719.89Z"/><path class="cls-7" d="M696.89,719.89a2.05,2.05,0,0,0,2.05-2.05V679.55a2.05,2.05,0,1,0-4.1,0v38.29A2.05,2.05,0,0,0,696.89,719.89Z"/><path class="cls-7" d="M705.1,719.89a2.05,2.05,0,0,0,2.05-2.05V679.55a2.05,2.05,0,0,0-4.1,0v38.29A2.05,2.05,0,0,0,705.1,719.89Z"/><path class="cls-7" d="M707.91,633.4a2.05,2.05,0,0,0,2.05-2.05v-2.74a2.05,2.05,0,1,0-4.1,0v2.74A2.05,2.05,0,0,0,707.91,633.4Z"/><path class="cls-7" d="M716.11,633.4a2.05,2.05,0,0,0,2.05-2.05v-2.74a2.05,2.05,0,1,0-4.1,0v2.74A2.05,2.05,0,0,0,716.11,633.4Z"/><path class="cls-7" d="M724.32,633.4a2.05,2.05,0,0,0,2.05-2.05v-2.74a2.05,2.05,0,1,0-4.1,0v2.74A2.05,2.05,0,0,0,724.32,633.4Z"/><path class="cls-7" d="M707.91,647.07A2.05,2.05,0,0,0,710,645v-2.74a2.05,2.05,0,1,0-4.1,0V645A2.05,2.05,0,0,0,707.91,647.07Z"/><path class="cls-7" d="M716.11,647.07a2.05,2.05,0,0,0,2.05-2.05v-2.74a2.05,2.05,0,1,0-4.1,0V645A2.05,2.05,0,0,0,716.11,647.07Z"/><path class="cls-7" d="M724.32,647.07a2.05,2.05,0,0,0,2.05-2.05v-2.74a2.05,2.05,0,1,0-4.1,0V645A2.05,2.05,0,0,0,724.32,647.07Z"/><path class="cls-7" d="M707.91,660.75A2.05,2.05,0,0,0,710,658.7V656a2.05,2.05,0,1,0-4.1,0v2.74A2.05,2.05,0,0,0,707.91,660.75Z"/><path class="cls-7" d="M716.11,660.75a2.05,2.05,0,0,0,2.05-2.05V656a2.05,2.05,0,1,0-4.1,0v2.74A2.05,2.05,0,0,0,716.11,660.75Z"/><path class="cls-7" d="M724.32,660.75a2.05,2.05,0,0,0,2.05-2.05V656a2.05,2.05,0,1,0-4.1,0v2.74A2.05,2.05,0,0,0,724.32,660.75Z"/><path class="cls-7" d="M724.32,674.42a2.05,2.05,0,0,0,2.05-2.05v-2.74a2.05,2.05,0,0,0-4.1,0v2.74A2.05,2.05,0,0,0,724.32,674.42Z"/><path class="cls-7" d="M724.32,688.1a2.05,2.05,0,0,0,2.05-2.05v-2.74a2.05,2.05,0,1,0-4.1,0V686A2.05,2.05,0,0,0,724.32,688.1Z"/><path class="cls-7" d="M724.32,701.77a2.05,2.05,0,0,0,2.05-2.05V697a2.05,2.05,0,0,0-4.1,0v2.74A2.05,2.05,0,0,0,724.32,701.77Z"/><path class="cls-7" d="M724.32,715.45a2.05,2.05,0,0,0,2.05-2.05v-2.74a2.05,2.05,0,1,0-4.1,0v2.74A2.05,2.05,0,0,0,724.32,715.45Z"/><path class="cls-7" d="M687.37,638a2.05,2.05,0,0,0-2.05-2.05H668.91a2.05,2.05,0,0,0,0,4.1h16.41A2.05,2.05,0,0,0,687.37,638Z"/><text class="cls-1" transform="matrix(1, 0.01, -0.01, 1, 499.98, 377.93)">El fideicomiso<tspan x="0" y="24.54">reune</tspan></text><circle class="cls-25" cx="472.94" cy="370.01" r="13.42"/><text class="cls-26" transform="translate(467.75 376.14)">2</text><text class="cls-1" transform="matrix(1, 0.01, -0.01, 1, 830.37, 536.88)">El fideicomiso<tspan x="0" y="24.54">se relaciona con</tspan></text><circle class="cls-25" cx="803.33" cy="528.96" r="13.42"/><text class="cls-26" transform="translate(799.13 535.09)">3</text><text class="cls-1" transform="matrix(1, 0.01, -0.01, 1, 176.69, 233.29)">Aportan al<tspan x="0" y="24.54">fideicomiso</tspan></text><circle class="cls-25" cx="149.65" cy="225.37" r="13.42"/><text class="cls-26" transform="translate(146.46 231.49)">1</text><path class="cls-27" d="M373.65,281.86c-11.12,1.91-21.75,4.66-31.67,10.16-6.81,3.81-13.16,9.07-16.51,16.27a25.08,25.08,0,0,1,5.33-19.35c7-8.87,17.71-13.78,28.24-17.19Z"/><path class="cls-28" d="M378.4,285.4l15.35,11.26s-83.66,1-50.89,46.49C342.86,343.14,288.44,302.08,378.4,285.4Z"/><line class="cls-6" x1="757.81" y1="494.03" x2="757.81" y2="599.03"/><path class="cls-8" d="M72.54,638.93h117.9a9.23,9.23,0,0,0,9.22-9.22V516.44a9.23,9.23,0,0,0-9.22-9.22H72.54Z"/><path class="cls-8" d="M46,485.09c-7.28,0-13,5.09-13,11.35v9.12h0v97c0,6.26,5.72-7.42,13-7.42s13,13.68,13,7.42v-9.12h0v-97C59,490.18,53.28,485.09,46,485.09Z"/><path class="cls-7" d="M84.8,624.55H187.4a2.73,2.73,0,0,0,0-5.46H84.8a2.73,2.73,0,0,0,0,5.46Z"/><path class="cls-7" d="M84.8,532.91h9a2.73,2.73,0,0,0,0-5.46h-9a2.73,2.73,0,0,0,0,5.46Z"/><path class="cls-7" d="M84.8,555.82h9a2.73,2.73,0,0,0,0-5.46h-9a2.73,2.73,0,0,0,0,5.46Z"/><path class="cls-7" d="M84.8,578.73h9a2.73,2.73,0,0,0,0-5.46h-9a2.73,2.73,0,0,0,0,5.46Z"/><path class="cls-7" d="M84.8,601.64h9a2.73,2.73,0,1,0,0-5.46h-9a2.73,2.73,0,1,0,0,5.46Z"/><path class="cls-7" d="M117.13,601.64h57.17a5.15,5.15,0,0,0,5.14-5.14V553.71h3.41a3.53,3.53,0,0,0,2-6.44l-37.14-25.73a3.58,3.58,0,0,0-4,0l-37.14,25.73a3.53,3.53,0,0,0,2,6.44H112V596.5A5.15,5.15,0,0,0,117.13,601.64Zm35.25-5.46H139v-23.1h13.33Zm21.6,0H157.84V572.64a5,5,0,0,0-5-5H138.6a5,5,0,0,0-5,5v23.54H117.45V553.71H174Zm-28.26-69.38,31,21.45H114.75Z"/><path class="cls-7" d="M208,519.57a2.73,2.73,0,0,0,2.73-2.73v-10a9.87,9.87,0,0,0-9.85-9.87H67.46v-.12a21.62,21.62,0,1,0-43.24,0v85.47a2.73,2.73,0,0,0,5.46,0V496.86a16.15,16.15,0,1,1,32.31,0V613.94q-.56-.63-1.18-1.23a21.4,21.4,0,0,0-13.72-6h-.32l-.81,0H44.8l-.44,0-.68.06-.46.05-.63.09-.5.08-.54.1-.57.12-.37.09A21.63,21.63,0,0,0,29.68,614V593.41a2.73,2.73,0,1,0-5.46,0v34.92s0,.07,0,.1A21.64,21.64,0,0,0,45.84,650h155a9.87,9.87,0,0,0,9.85-9.87V528.21a2.73,2.73,0,0,0-5.46,0V640.13a4.4,4.4,0,0,1-4.39,4.41h-155A16.17,16.17,0,0,1,29.7,627.91c0-.09,0-.19,0-.28s0-.32,0-.47,0-.22,0-.34,0-.3,0-.45,0-.23,0-.34,0-.31.07-.46l.05-.3c0-.17.07-.33.1-.49l.06-.25q.07-.27.14-.54l0-.17q.09-.3.19-.6l0-.08a16.33,16.33,0,0,1,9.4-9.88l.06,0,.59-.22.17-.06.52-.16.26-.08.45-.12.35-.08.39-.08.42-.08.35-.06.46-.06.32,0,.48,0,.33,0h1.64l.59,0,.2,0,.76.1h0a16.21,16.21,0,0,1,13.61,14.34,16.62,16.62,0,0,1,.08,1.67s0,0,0,.06a2.74,2.74,0,0,0,0,.29l0,.13a2.72,2.72,0,0,0,.06.27l0,.08a2.66,2.66,0,0,0,.12.3l0,.1.14.24,0,.07a2.73,2.73,0,0,0,.19.24l.08.09.21.2.07.06.25.18.09.05.31.16h0l.31.1.09,0,.35.06h.46l.33,0h0l.35-.1.07,0,.31-.14h0a2.71,2.71,0,0,0,.3-.19l.06,0a2.72,2.72,0,0,0,.28-.24h0l0,0,.16-.18,0-.06.11-.15,0-.06.1-.17,0,0,.1-.2v0c0-.07.06-.15.08-.22v0c0-.08,0-.15.06-.23v-.07c0-.06,0-.13,0-.2a2.72,2.72,0,0,0,0-.27V502.45H200.88a4.4,4.4,0,0,1,4.39,4.41v10A2.73,2.73,0,0,0,208,519.57Z"/></svg>