<svg id="Layer_1" data-name="Layer 1" xmlns="http://www.w3.org/2000/svg" viewBox="0 0 771.45 368.02"><defs><style>.cls-1{font-size:22.87px;}.cls-1,.cls-8{font-family:NewsCycle, News Cycle;}.cls-17,.cls-2,.cls-5,.cls-6{fill:none;}.cls-2,.cls-5,.cls-6{stroke:#3f4040;}.cls-11,.cls-17,.cls-2,.cls-20,.cls-24,.cls-5,.cls-6,.cls-7,.cls-9{stroke-miterlimit:10;}.cls-2{stroke-width:0.83px;}.cls-3{fill:#00407d;}.cls-4{fill:#0057a2;}.cls-6{stroke-dasharray:3 3;}.cls-7{fill:#0e3767;stroke:#fff;stroke-width:0.95px;}.cls-8{font-size:24px;}.cls-11,.cls-15,.cls-20,.cls-24,.cls-8,.cls-9{fill:#fff;}.cls-11,.cls-15,.cls-17,.cls-20,.cls-24,.cls-9{stroke:#000;}.cls-15,.cls-9{stroke-width:0.82px;}.cls-10{fill:#e6af78;}.cls-12{fill:#f0c087;}.cls-13{fill:#785550;}.cls-14{fill:#694b4b;}.cls-15{stroke-linecap:round;stroke-linejoin:round;}.cls-16{fill:#707487;}.cls-17,.cls-20{stroke-width:0.78px;}.cls-18{fill:#5b5d6e;}.cls-19{fill:#515262;}.cls-21{fill:#5a4146;}.cls-22{fill:#b4e1fa;}.cls-23{fill:#a0d2f0;}.cls-24{stroke-width:1.94px;}</style></defs><title>Artboard 1 copy 6bla</title><text class="cls-1" transform="translate(188.86 130.05)">Entrega<tspan x="6.86" y="24.54">dinero</tspan></text><text class="cls-1" transform="translate(494.64 130.05)">Entrega<tspan x="-18.24" y="24.54">rendimiento</tspan></text><line class="cls-2" x1="200.11" y1="320.18" x2="245.68" y2="320.18"/><polyline class="cls-2" points="245.79 327.95 253.57 320.18 245.79 312.4"/><line class="cls-2" x1="506.11" y1="320.18" x2="551.68" y2="320.18"/><polyline class="cls-2" points="551.79 327.95 559.57 320.18 551.79 312.4"/><path class="cls-3" d="M412,210c-11.12,1.91-21.75,4.66-31.67,10.16-6.81,3.81-13.16,9.07-16.51,16.27a25.08,25.08,0,0,1,5.33-19.35c7-8.87,17.71-13.78,28.24-17.19Z"/><path class="cls-4" d="M416.74,213.56l15.35,11.26s-83.66,1-50.89,46.49C381.2,271.3,326.78,230.24,416.74,213.56Z"/><line class="cls-5" x1="223.58" y1="169.53" x2="223.58" y2="170.53"/><line class="cls-6" x1="223.58" y1="173.53" x2="223.58" y2="309.53"/><line class="cls-5" x1="223.58" y1="310.53" x2="223.58" y2="312.53"/><line class="cls-5" x1="528.58" y1="169.53" x2="528.58" y2="170.53"/><line class="cls-6" x1="528.58" y1="173.53" x2="528.58" y2="309.53"/><line class="cls-5" x1="528.58" y1="310.53" x2="528.58" y2="312.53"/><rect class="cls-7" x="13.25" y="289.49" width="169.33" height="61.41"/><text class="cls-8" transform="translate(33.85 329.27)">Constituyente</text><rect class="cls-7" x="297.09" y="289.47" width="169.33" height="61.41"/><text class="cls-8" transform="translate(326.04 329.26)">Fideicomiso</text><rect class="cls-7" x="583.57" y="289.49" width="169.33" height="61.41"/><text class="cls-8" transform="translate(614.11 329.27)">Beneficiario</text><polygon class="cls-9" points="112.89 253.1 112.95 241.42 82.91 241.28 82.86 252.96 97.81 266.38 112.89 253.1"/><polygon class="cls-10" points="111.39 251.65 111.44 241.14 84.41 241.01 84.36 251.52 97.82 263.6 111.39 251.65"/><path class="cls-9" d="M114.49,188c-2.4-3.18-7.58-6.58-16.67-6.47-5.22.06-15,1.6-20.12,4.22l2.46,1.7C69,195.67,71,209.81,71,209.81c3.32,3.35,3.28,11.7,3.28,11.7l3.35-3.32s-1.24-9.65,5.07-13.33c5.86-3.41,11-1.62,16.17-1.59,5.89,0,10-.9,12.71-2.44,5.18,3,6,12.19,6.09,15a3.3,3.3,0,0,0,.52,1.63l2.7,4.24s-.9-7,3.39-11.67C124.27,210.06,125.43,189.75,114.49,188Z"/><path class="cls-11" d="M119.23,218h0c-.22,0-.43-.63-.64-.59l.84-17.08L76,200l.68,16.44c-.21,0-.42-.39-.64-.39h0a3.66,3.66,0,0,0-3.37,4.52l1.85,7.67a2.06,2.06,0,0,0,1.94,1.59,2,2,0,0,0,.76-.12l.09,2.13a10,10,0,0,0,4,7.58l6.88,5.21a10,10,0,0,0,6,2l6.68,0a10,10,0,0,0,6-2l6.92-5.14a10,10,0,0,0,4-7.54l.11-2.11a2,2,0,0,0,2.71-1.35l1.92-6.87C123.11,219.5,121.47,218,119.23,218Z"/><path class="cls-12" d="M77.22,200.61l1.23,30.24A9.46,9.46,0,0,0,82.19,238l6.5,4.92a9.46,9.46,0,0,0,5.67,1.92l6.31,0a9.46,9.46,0,0,0,5.69-1.87l6.54-4.86a9.46,9.46,0,0,0,3.81-7.12l1.52-30.23-41-.19Z"/><path class="cls-13" d="M107.33,190.3l1.43,10.45c6.74,1.38,7.66,12,7.79,15a3.11,3.11,0,0,0,.49,1.54l2.56,4s-.85-6.61,3.21-11C122.8,210.29,124.31,184.07,107.33,190.3Z"/><path class="cls-12" d="M121.18,220.64l-1.81,7.12a1.9,1.9,0,0,1-1.85,1.43h0a1.9,1.9,0,0,1-1.87-1.67l-.88-7.29a3.26,3.26,0,0,1,3.26-3.65h0A3.26,3.26,0,0,1,121.18,220.64Z"/><path class="cls-14" d="M78.79,187.34l2.33,1.6c-10.58,7.74-8.67,21.1-8.67,21.1,3.14,3.17,3.1,11.05,3.1,11.05L78.72,218s-1.17-9.12,4.79-12.59c5.53-3.23,10.36-1.53,15.28-1.5,13.21.06,16.93-4.9,16.32-11-.32-3.14-5.08-9.69-17.3-9.54C92.87,183.42,83.6,184.87,78.79,187.34Z"/><path class="cls-10" d="M74.07,220.42l1.75,7.13A1.9,1.9,0,0,0,77.65,229h0a1.9,1.9,0,0,0,1.89-1.65l.94-7.28a3.26,3.26,0,0,0-3.22-3.68h0A3.26,3.26,0,0,0,74.07,220.42Z"/><path class="cls-15" d="M136.22,260.19l-18.68-4.49.49-1.06-2.25-3.41a1.67,1.67,0,0,0-2.5-.33L98,264.56h0l-15.19-13.8a1.67,1.67,0,0,0-2.51.3L78,254.45l.48,1.07-18.72,4.31a6.68,6.68,0,0,0-5.18,6.47l-.06,13.07a3.34,3.34,0,0,0,3.32,3.35l80.1.38a3.34,3.34,0,0,0,3.35-3.32l.06-13.07A6.68,6.68,0,0,0,136.22,260.19Z"/><path class="cls-16" d="M132.84,262.29l-17-4,.45-1-2.05-3.07a1.53,1.53,0,0,0-2.28-.29l-14,12.29h0L84.1,253.81a1.53,1.53,0,0,0-2.29.27l-2.08,3.05.44,1L63.1,262a6,6,0,0,0-4.72,5.83l-.06,10.32a3,3,0,0,0,3,3l73,.34a3,3,0,0,0,3.06-3l.06-10.32A6,6,0,0,0,132.84,262.29Z"/><path class="cls-17" d="M91.81,234.14s6.85,6.61,13.46,0"/><polygon class="cls-18" points="101.76 281.35 94.25 281.31 95.25 267.8 100.89 267.82 101.76 281.35"/><path class="cls-19" d="M101.84,266.18l-7.51,0V267a3.64,3.64,0,0,0,3.62,3.66h.23a3.64,3.64,0,0,0,3.66-3.62v-.87Z"/><path class="cls-18" d="M84.29,253.71,98,266.13a51.8,51.8,0,0,0-8.62,5.81,1.93,1.93,0,0,1-3-.69L80,257,82,254A1.5,1.5,0,0,1,84.29,253.71Z"/><path class="cls-18" d="M111.93,254.05,98.15,266.35a51.8,51.8,0,0,1,8.56,5.89,1.93,1.93,0,0,0,3-.66l6.52-14.16-2-3.07A1.5,1.5,0,0,0,111.93,254.05Z"/><path class="cls-20" d="M668.42,183.45c-.75,0-1.46,0-2.15.1l0,0c-31.27,1.61-27.91,41.32-27.9,70.29a3.16,3.16,0,0,0,1.54,2.71,56.74,56.74,0,0,0,56.37.27,3.16,3.16,0,0,0,1.56-2.7C698.12,224.47,702,183.6,668.42,183.45Z"/><path class="cls-21" d="M666.36,185.64c-29.63,1.52-26.45,39.15-26.43,66.59a3,3,0,0,0,1.46,2.57A52.79,52.79,0,0,0,668,262l8.31-56.3"/><path class="cls-14" d="M668.41,185.57c-18.11-.09-19.47,21.79-19.47,21.79,10.45-1.71,16.84,2.72,27.42-1.63L668,262a52.78,52.78,0,0,0,26.73-7,3,3,0,0,0,1.48-2.56C696.54,224.43,700.26,185.72,668.41,185.57Z"/><path class="cls-9" d="M701.82,262.48l-19.91-8.41a4.47,4.47,0,0,1-2.73-4.14l0-5.4-22.36-.11,0,5.4a4.47,4.47,0,0,1-2.77,4.11l-20,8.22a6.71,6.71,0,0,0-4.16,6.17l0,8.94a4.47,4.47,0,0,0,4.45,4.49l67.07.32a4.47,4.47,0,0,0,4.49-4.45l0-8.94A6.71,6.71,0,0,0,701.82,262.48Z"/><path class="cls-10" d="M697.75,262.57l-17.52-7.4a3.93,3.93,0,0,1-2.4-3.64l0-7.55-19.67-.09,0,7.55a3.93,3.93,0,0,1-2.44,3.62l-17.59,7.23a5.9,5.9,0,0,0-3.66,5.43l0,7.87a3.93,3.93,0,0,0,3.92,4l59,.28a3.93,3.93,0,0,0,4-3.92l0-7.87A5.9,5.9,0,0,0,697.75,262.57Z"/><path class="cls-9" d="M679.41,201.49c-11.23,11.12-33.12,2.08-33.21,20l1.33,13.18a8.94,8.94,0,0,0,4.53,7l12.7,7.13a6.71,6.71,0,0,0,6.51,0l12.76-7a8.94,8.94,0,0,0,4.6-7l1.68-15.64a24.68,24.68,0,0,0,.12-3.35C689.61,210.15,681.63,206,679.41,201.49Z"/><path class="cls-12" d="M678.57,203.33c-10.38,10.28-30.61,1.92-30.68,18.45L649.11,234a8.26,8.26,0,0,0,4.19,6.49L665,247a6.2,6.2,0,0,0,6,0l11.79-6.48a8.26,8.26,0,0,0,4.25-6.46l1.55-14.45a22.81,22.81,0,0,0,.11-3.09C688,211.33,680.61,207.47,678.57,203.33Z"/><path class="cls-9" d="M709,267.41c0-.11,0-.21-.07-.32a7.2,7.2,0,0,0-.29-1l-.09-.23a7.2,7.2,0,0,0-3.84-3.87l-17.44-7.36.26-.36-2.7-4.09a1.92,1.92,0,0,0-2.75-.48L668.3,260l-13.72-10.39a1.92,1.92,0,0,0-2.76.46l-2.74,4.07.26.37-17.5,7.2a7.18,7.18,0,0,0-2.38,1.61h0a7.2,7.2,0,0,0-1.49,2.21l-.08.21a7.17,7.17,0,0,0-.31,1c0,.11-.05.21-.07.32a7.16,7.16,0,0,0-.14,1.29l0,9.62a4.81,4.81,0,0,0,4.79,4.83l9.62,0h0l62.54.29a4.81,4.81,0,0,0,4.83-4.79l0-9.62A7.17,7.17,0,0,0,709,267.41Z"/><path class="cls-22" d="M705,267.29c0-.1,0-.19-.06-.29a6.48,6.48,0,0,0-.26-.88l-.08-.21a6.48,6.48,0,0,0-3.45-3.48L685.4,255.8l.24-.33-2.43-3.68a1.73,1.73,0,0,0-2.48-.44l-12.44,9.23-12.35-9.35a1.73,1.73,0,0,0-2.48.41L651,255.31l.23.33-15.75,7a4.6,4.6,0,0,0-2.23,1.93h.83v-1a3.76,3.76,0,0,0-1.71,2c0,.06-.23.13-.26.19a6.87,6.87,0,0,0-.37.9c0,.1-.09.19-.11.28a6.45,6.45,0,0,0-.14,1.16l-.05,8.66a4.33,4.33,0,0,0,4.3,4.35l8.66,0h0l56.29.27A4.33,4.33,0,0,0,705,277.1l0-8.66A6.45,6.45,0,0,0,705,267.29Z"/><path class="cls-17" d="M660.73,236.09s6.17,6,12.12,0"/><path class="cls-18" d="M668.33,277.45h-.67a1.9,1.9,0,0,1-1.89-1.91l.07-15,4.47,0-.07,15A1.9,1.9,0,0,1,668.33,277.45Z"/><path class="cls-23" d="M668.07,260.58l-12.75-9.66a1.79,1.79,0,0,0-2.56.43l-2.55,3.78,7.79,11a1.79,1.79,0,0,0,2.57.37Z"/><path class="cls-23" d="M668.07,260.58,680.91,251a1.79,1.79,0,0,1,2.56.45l2.51,3.8-7.9,10.95a1.79,1.79,0,0,1-2.57.35Z"/><g id="_Group_" data-name="&lt;Group&gt;"><path class="cls-24" d="M555.74,52.47V68.06A2.74,2.74,0,0,1,553,70.8h-1.21l-3.36,28.43a2.74,2.74,0,0,1-2.72,2.42H509.22a2.74,2.74,0,0,1-2.72-2.42L503.13,70.8h-1.21a2.74,2.74,0,0,1-2.74-2.74V52.47a2.74,2.74,0,0,1,2.74-2.74h22.9V39.37h-1.2c-5.8,0-9.68-.89-11.84-2.73-3.86-3.28-7.31-15.58-8-18a2.74,2.74,0,0,1,2.92-3.44c2.51.25,15.2,1.67,19.06,4.94,1.62,1.38,2.79,3.83,3.55,7.46,1.76-1.47,3.84-2.79,5.78-2.95l.46,0c3.71,0,10.69,3.86,12.74,5a2.74,2.74,0,0,1,.37,4.49c-2.49,2-8.66,6.81-12.21,7.1l-.43,0a11.38,11.38,0,0,1-5.76-2.23V49.73H553A2.74,2.74,0,0,1,555.74,52.47Z"/></g><rect class="cls-3" x="502.04" y="53.3" width="50.6" height="14.03"/><polygon class="cls-3" points="545.73 99.23 548.73 70.8 506.25 70.8 509.25 99.23 545.73 99.23"/><path class="cls-3" d="M536.54,38c1.53-.17,5.73-2.62,10.35-5.9-4.76-2.33-9.34-4.16-11.15-4.16-1.3.11-4.34,2.38-7.3,5.28C531.82,35.94,535.18,38,536.54,38Z"/><path class="cls-3" d="M524.89,35.81l1.5,0c-.45-5.9-1.74-11.93-3.42-13.36-1.89-1.6-9.28-3.32-16.73-4.41,2.28,7.17,5.18,14.19,7.06,15.79C514.45,34.78,518.09,35.81,524.89,35.81Z"/></svg>