<svg id="Layer_1" data-name="Layer 1" xmlns="http://www.w3.org/2000/svg" viewBox="0 0 960 387.63"><defs><style>.cls-1,.cls-4{fill:#0e3767;}.cls-1{stroke:#fff;stroke-width:0.95px;}.cls-1,.cls-11,.cls-17,.cls-21,.cls-3,.cls-9{stroke-miterlimit:10;}.cls-2{font-size:24px;}.cls-11,.cls-15,.cls-2,.cls-21,.cls-5,.cls-9{fill:#fff;}.cls-2,.cls-5,.cls-6,.cls-8{font-family:NewsCycle, News Cycle;}.cls-17,.cls-3{fill:none;}.cls-3{stroke:#3f4040;stroke-width:0.83px;}.cls-5,.cls-8{font-size:18.76px;}.cls-6{font-size:18.87px;}.cls-7{fill:#ffcb31;}.cls-11,.cls-15,.cls-17,.cls-21,.cls-9{stroke:#000;}.cls-15,.cls-9{stroke-width:0.82px;}.cls-10{fill:#e6af78;}.cls-12{fill:#f0c087;}.cls-13{fill:#785550;}.cls-14{fill:#694b4b;}.cls-15{stroke-linecap:round;stroke-linejoin:round;}.cls-16{fill:#eff2fa;}.cls-17,.cls-21{stroke-width:0.78px;}.cls-18{fill:#5b5d6e;}.cls-19{fill:#515262;}.cls-20{fill:#e4eaf6;}.cls-22{fill:#5a4146;}.cls-23{fill:#707487;}.cls-24{fill:#b4e1fa;}.cls-25{fill:#a0d2f0;}.cls-26{fill:#00407d;}.cls-27{fill:#0057a2;}</style></defs><title>Artboard 1 copy 8bla</title><rect class="cls-1" x="18.76" y="131.49" width="169.33" height="86.65"/><text class="cls-2" transform="translate(52.65 171.28)">Propietario<tspan x="21.76" y="24.8">Activo</tspan></text><rect class="cls-1" x="395.62" y="131.49" width="169.33" height="61.41"/><text class="cls-2" transform="translate(424.56 171.28)">Fideicomiso</text><rect class="cls-1" x="771.91" y="131.49" width="169.33" height="61.41"/><text class="cls-2" transform="translate(793.31 171.28)">Inversionistas</text><line class="cls-3" x1="201.93" y1="149.98" x2="371.5" y2="149.98"/><polyline class="cls-3" points="371.61 157.76 379.38 149.98 371.61 142.2"/><line class="cls-3" x1="379.38" y1="173.98" x2="209.81" y2="173.98"/><polyline class="cls-3" points="209.7 166.2 201.93 173.98 209.7 181.76"/><circle class="cls-4" cx="211.25" cy="73.88" r="13.42"/><text class="cls-5" transform="translate(207.06 81.01)">1</text><text class="cls-6" transform="matrix(1, 0.01, -0.01, 1, 266.27, 212.64)">Entrega<tspan x="0" y="24.54">recursos</tspan></text><circle class="cls-7" cx="239.23" cy="204.72" r="13.42"/><text class="cls-8" transform="translate(233.04 211.85)">4</text><line class="cls-3" x1="577.93" y1="149.98" x2="747.5" y2="149.98"/><polyline class="cls-3" points="747.61 157.76 755.38 149.98 747.61 142.2"/><line class="cls-3" x1="747.5" y1="173.98" x2="585.81" y2="173.98"/><polyline class="cls-3" points="585.7 166.2 577.92 173.98 585.7 181.76"/><text class="cls-6" transform="matrix(1, 0.01, -0.01, 1, 642.27, 86.64)">Emisión/<tspan x="0" y="24.54">colocación</tspan><tspan x="0" y="49.08">valores</tspan></text><circle class="cls-4" cx="615.23" cy="78.72" r="13.42"/><text class="cls-5" transform="translate(610.04 85.85)">2</text><text class="cls-6" transform="matrix(1, 0.01, -0.01, 1, 642.27, 212.64)">Pagan por<tspan x="0" y="24.54">los valores</tspan><tspan x="0" y="49.08">recibidos</tspan></text><circle class="cls-7" cx="615.23" cy="204.72" r="13.42"/><text class="cls-8" transform="translate(610.04 211.85)">3</text><text class="cls-6" transform="matrix(1, 0.01, -0.01, 1, 506.51, 322.62)">Pago por los valores.<tspan x="0" y="24.54">Es el retorno de</tspan><tspan x="0" y="49.08">los inversionistas</tspan></text><circle class="cls-7" cx="476.47" cy="312.7" r="13.42"/><text class="cls-8" transform="translate(471.28 319.82)">5</text><polygon class="cls-9" points="836.38 80.46 836.43 70.1 809.79 69.97 809.75 80.33 823.01 92.23 836.38 80.46"/><polygon class="cls-10" points="835.05 79.17 835.1 69.85 811.12 69.74 811.08 79.06 823.01 89.77 835.05 79.17"/><path class="cls-9" d="M837.8,22.77c-2.13-2.82-6.72-5.83-14.78-5.74-4.63.06-13.33,1.42-17.84,3.74l2.18,1.51c-9.93,7.26-8.14,19.8-8.14,19.8,2.95,3,2.91,10.37,2.91,10.37l3-2.95s-1.1-8.55,4.49-11.82c5.19-3,9.72-1.43,14.34-1.41,5.22,0,8.84-.79,11.27-2.17,4.59,2.69,5.29,10.81,5.4,13.33a2.92,2.92,0,0,0,.46,1.45l2.4,3.76s-.8-6.2,3-10.34C846.47,42.3,847.5,24.29,837.8,22.77Z"/><path class="cls-11" d="M842,50.22h0c-.19,0-.38-1-.56-1l.75-15.36-38.47-.43.61,14.34c-.18,0-.37-.59-.56-.59h0c-2,0-3.46,2.25-3,4.19l1.64,6.89a1.87,1.87,0,0,0,1.72,1.45,1.74,1.74,0,0,0,.67-.09l.08,1.9a8.9,8.9,0,0,0,3.51,6.73l6.1,4.62a8.88,8.88,0,0,0,5.32,1.8l5.92,0A8.88,8.88,0,0,0,831,73l6.14-4.56a8.88,8.88,0,0,0,3.57-6.68l.09-1.87a1.76,1.76,0,0,0,2.4-1.2L845,53C845.44,51.1,844,50.22,842,50.22Z"/><path class="cls-12" d="M804.75,33.91l1.09,26.81a8.39,8.39,0,0,0,3.32,6.35l5.76,4.36a8.39,8.39,0,0,0,5,1.7l5.59,0a8.39,8.39,0,0,0,5-1.65l5.8-4.31a8.39,8.39,0,0,0,3.38-6.32l1.35-26.8-36.36-.17Z"/><path class="cls-13" d="M831.45,24.78,832.72,34c6,1.22,6.8,10.62,6.91,13.3a2.76,2.76,0,0,0,.44,1.37l2.27,3.55s-.75-5.86,2.84-9.78C845.17,42.5,846.51,19.25,831.45,24.78Z"/><path class="cls-12" d="M843.73,51.68,842.12,58a1.68,1.68,0,0,1-1.64,1.27h0a1.68,1.68,0,0,1-1.66-1.48L838,51.31a2.89,2.89,0,0,1,2.89-3.24h0A2.89,2.89,0,0,1,843.73,51.68Z"/><path class="cls-14" d="M806.14,22.15l2.06,1.42c-9.38,6.86-7.69,18.71-7.69,18.71,2.78,2.81,2.75,9.8,2.75,9.8l2.81-2.78s-1-8.08,4.25-11.17c4.91-2.86,9.18-1.35,13.55-1.33,11.71.06,15-4.34,14.47-9.72-.28-2.78-4.51-8.6-15.34-8.46C818.63,18.67,810.41,20,806.14,22.15Z"/><path class="cls-10" d="M802,51.48l1.55,6.32a1.68,1.68,0,0,0,1.63,1.28h0a1.68,1.68,0,0,0,1.68-1.46l.84-6.46a2.89,2.89,0,0,0-2.86-3.27h0A2.89,2.89,0,0,0,802,51.48Z"/><path class="cls-15" d="M857.06,86.75l-16.56-4,.43-.94-2-3a1.48,1.48,0,0,0-2.22-.29L823.13,90.62h0L809.67,78.39a1.48,1.48,0,0,0-2.22.27l-2,3,.42.95-16.6,3.82a5.92,5.92,0,0,0-4.59,5.74l-.05,11.59a3,3,0,0,0,2.95,3l71,.33a3,3,0,0,0,3-2.95l.05-11.59A5.92,5.92,0,0,0,857.06,86.75Z"/><path class="cls-16" d="M854.06,88.61,839,85l.4-.85-1.82-2.72a1.36,1.36,0,0,0-2-.26L823.13,92.1h0l-12.28-11a1.36,1.36,0,0,0-2,.24L807,84l.39.85-15.13,3.44A5.34,5.34,0,0,0,788,93.49l0,9.15a2.68,2.68,0,0,0,2.69,2.68l64.76.3a2.68,2.68,0,0,0,2.71-2.65l0-9.15A5.34,5.34,0,0,0,854.06,88.61Z"/><path class="cls-17" d="M817.69,63.65s6.08,5.86,11.94,0"/><polygon class="cls-18" points="826.51 105.5 819.85 105.47 820.74 93.49 825.74 93.52 826.51 105.5"/><path class="cls-19" d="M826.58,92.06l-6.66,0v.77A3.23,3.23,0,0,0,823.13,96h.21a3.23,3.23,0,0,0,3.24-3.21v-.77Z"/><path class="cls-20" d="M811,81l12.12,11a45.93,45.93,0,0,0-7.64,5.15,1.71,1.71,0,0,1-2.64-.61L807.2,84,809,81.25A1.33,1.33,0,0,1,811,81Z"/><path class="cls-20" d="M835.53,81.31,823.3,92.2a45.93,45.93,0,0,1,7.59,5.23,1.71,1.71,0,0,0,2.65-.59l5.78-12.55-1.8-2.72A1.33,1.33,0,0,0,835.53,81.31Z"/><path class="cls-21" d="M884.22,24.49c-.7,0-1.37,0-2,.1v0C852.86,26.06,856,63.3,856,90.46A3,3,0,0,0,857.46,93a53.2,53.2,0,0,0,52.86.25,3,3,0,0,0,1.47-2.53C912.06,62.95,915.73,24.63,884.22,24.49Z"/><path class="cls-22" d="M882.28,26.54C854.5,28,857.48,63.25,857.49,89a2.81,2.81,0,0,0,1.37,2.41,49.49,49.49,0,0,0,25,6.78l7.8-52.79"/><path class="cls-14" d="M884.2,26.48c-17-.08-18.25,20.43-18.25,20.43,9.79-1.6,15.79,2.55,25.71-1.53l-7.8,52.79a49.49,49.49,0,0,0,25.07-6.54,2.81,2.81,0,0,0,1.39-2.4C910.58,62.91,914.06,26.62,884.2,26.48Z"/><path class="cls-9" d="M915.53,98.59l-18.67-7.88a4.19,4.19,0,0,1-2.56-3.88l0-5.07-21-.1,0,5.07a4.19,4.19,0,0,1-2.6,3.86L852,98.29a6.29,6.29,0,0,0-3.9,5.79l0,8.38a4.19,4.19,0,0,0,4.17,4.21l62.89.3a4.19,4.19,0,0,0,4.21-4.17l0-8.38A6.29,6.29,0,0,0,915.53,98.59Z"/><path class="cls-10" d="M911.72,98.68l-16.43-6.94A3.69,3.69,0,0,1,893,88.32l0-7.08-18.45-.09,0,7.08a3.69,3.69,0,0,1-2.29,3.39l-16.49,6.78a5.53,5.53,0,0,0-3.43,5.09l0,7.38a3.69,3.69,0,0,0,3.67,3.71l55.34.26a3.69,3.69,0,0,0,3.71-3.67l0-7.38A5.53,5.53,0,0,0,911.72,98.68Z"/><path class="cls-9" d="M894.52,41.41C884,51.84,863.46,43.36,863.38,60.13l1.24,12.36a8.39,8.39,0,0,0,4.25,6.59l11.9,6.69a6.29,6.29,0,0,0,6.11,0l12-6.57a8.38,8.38,0,0,0,4.31-6.55L904.73,58a23.14,23.14,0,0,0,.11-3.14C904.08,49.53,896.6,45.61,894.52,41.41Z"/><path class="cls-12" d="M893.73,43.13C884,52.76,865,44.93,865,60.42l1.15,11.42A7.75,7.75,0,0,0,870,77.93l11,6.18a5.81,5.81,0,0,0,5.64,0l11.06-6.07a7.75,7.75,0,0,0,4-6.05l1.45-13.55a21.38,21.38,0,0,0,.1-2.9C902.56,50.63,895.65,47,893.73,43.13Z"/><path class="cls-9" d="M922.29,103.22c0-.1,0-.2-.07-.3A6.75,6.75,0,0,0,922,102l-.08-.22a6.75,6.75,0,0,0-3.6-3.63l-16.35-6.9.25-.34-2.53-3.84a1.8,1.8,0,0,0-2.58-.45l-13,9.62L871.24,86.5a1.8,1.8,0,0,0-2.59.43l-2.57,3.81.24.34-16.41,6.75a6.73,6.73,0,0,0-2.23,1.51h0a6.75,6.75,0,0,0-1.4,2.07l-.08.2a6.72,6.72,0,0,0-.29.94c0,.1,0,.2-.07.3a6.71,6.71,0,0,0-.13,1.21l0,9a4.51,4.51,0,0,0,4.49,4.53l9,0h0l58.64.28a4.51,4.51,0,0,0,4.53-4.49l0-9A6.72,6.72,0,0,0,922.29,103.22Z"/><path class="cls-16" d="M918.47,103.1c0-.09,0-.18-.06-.27a6.08,6.08,0,0,0-.25-.82l-.08-.2a6.08,6.08,0,0,0-3.24-3.26l-14.71-6.21.22-.31-2.28-3.45a1.62,1.62,0,0,0-2.32-.41L884.1,96.82l-11.58-8.77a1.62,1.62,0,0,0-2.33.39l-2.31,3.43.22.31-14.77,6.13c-.77.32-1.53,1.42-2.09,1.42H851v-.11c-1,.54-.8,1.17-1.1,1.86,0,.06,0,.12,0,.18a5.92,5.92,0,0,0-.22.84c0,.09,0,.18,0,.27a6,6,0,0,0-.1,1.09l0,8.12a4.06,4.06,0,0,0,4,4.08l8.12,0h0l52.78.25a4.06,4.06,0,0,0,4.08-4l0-8.12A6.05,6.05,0,0,0,918.47,103.1Z"/><path class="cls-17" d="M877,73.85s5.79,5.58,11.37,0"/><path class="cls-18" d="M884.12,112.63h-.63a1.78,1.78,0,0,1-1.77-1.79l.07-14,4.19,0-.07,14A1.78,1.78,0,0,1,884.12,112.63Z"/><path class="cls-20" d="M883.88,96.81l-12-9.05a1.68,1.68,0,0,0-2.4.4l-2.39,3.54L874.44,102a1.68,1.68,0,0,0,2.41.35Z"/><path class="cls-20" d="M883.88,96.81l12-8.94a1.68,1.68,0,0,1,2.4.42l2.35,3.57-7.4,10.26a1.68,1.68,0,0,1-2.41.32Z"/><line class="cls-3" x1="475.55" y1="204.53" x2="475.55" y2="275.46"/><polyline class="cls-3" points="467.77 280.14 475.55 287.92 483.33 280.14"/><polyline class="cls-3" points="704 342.23 863.07 342.23 863.07 214.28"/><polyline class="cls-3" points="871.24 210.97 863.46 203.19 855.68 210.97"/><polygon class="cls-9" points="92.12 81.23 92.17 69.55 62.13 69.41 62.08 81.09 77.03 94.51 92.12 81.23"/><polygon class="cls-10" points="90.62 79.78 90.67 69.27 63.63 69.14 63.58 79.66 77.04 91.73 90.62 79.78"/><path class="cls-9" d="M93.71,16.17C91.32,13,86.14,9.59,77,9.7c-5.22.06-15,1.6-20.12,4.22l2.46,1.7C48.19,23.8,50.2,37.94,50.2,37.94c3.32,3.35,3.28,11.7,3.28,11.7l3.35-3.32S55.6,36.67,61.91,33c5.86-3.41,11-1.62,16.17-1.59,5.89,0,10-.9,12.71-2.44,5.18,3,6,12.19,6.09,15a3.3,3.3,0,0,0,.52,1.63l2.7,4.24s-.9-7,3.39-11.67C103.5,38.19,104.66,17.88,93.71,16.17Z"/><path class="cls-11" d="M98.45,46.22h0c-.22,0-.43-.66-.64-.62l.84-17.1-43.39-.38.68,16.47c-.21,0-.42-.37-.64-.37h0a3.63,3.63,0,0,0-3.37,4.48l1.85,7.65a2.05,2.05,0,0,0,1.94,1.58,2,2,0,0,0,.76-.13l.09,2.13a10,10,0,0,0,4,7.58l6.88,5.21a10,10,0,0,0,6,2l6.68,0a10,10,0,0,0,6-2L93,67.68a10,10,0,0,0,4-7.54L97.15,58a2,2,0,0,0,2.71-1.35l1.92-6.84C102.34,47.66,100.7,46.22,98.45,46.22Z"/><path class="cls-12" d="M56.44,28.74,57.67,59a9.46,9.46,0,0,0,3.74,7.16l6.5,4.92A9.46,9.46,0,0,0,73.58,73l6.31,0a9.46,9.46,0,0,0,5.69-1.87l6.54-4.86a9.46,9.46,0,0,0,3.81-7.12l1.52-30.23-41-.19Z"/><path class="cls-13" d="M86.55,18.43,88,28.89c6.74,1.38,7.66,12,7.79,15a3.11,3.11,0,0,0,.49,1.54l2.56,4s-.85-6.61,3.21-11C102,38.42,103.54,12.2,86.55,18.43Z"/><path class="cls-12" d="M100.41,48.77l-1.81,7.12a1.9,1.9,0,0,1-1.85,1.43h0a1.9,1.9,0,0,1-1.87-1.67L94,48.36a3.26,3.26,0,0,1,3.26-3.65h0A3.26,3.26,0,0,1,100.41,48.77Z"/><path class="cls-14" d="M58,15.47l2.33,1.6c-10.58,7.74-8.67,21.1-8.67,21.1,3.14,3.17,3.1,11.05,3.1,11.05l3.17-3.14S56.76,37,62.73,33.5C68.26,30.27,73.09,32,78,32c13.21.06,16.93-4.9,16.32-11C94,17.89,89.25,11.34,77,11.49,72.09,11.55,62.83,13,58,15.47Z"/><path class="cls-10" d="M53.29,48.55,55,55.68a1.9,1.9,0,0,0,1.83,1.44h0a1.9,1.9,0,0,0,1.89-1.65l.94-7.28a3.26,3.26,0,0,0-3.22-3.68h0A3.26,3.26,0,0,0,53.29,48.55Z"/><path class="cls-15" d="M115.44,88.32,96.76,83.84l.49-1.06L95,79.36a1.67,1.67,0,0,0-2.5-.33L77.18,92.69h0L62,78.89a1.67,1.67,0,0,0-2.51.3L57.2,82.58l.48,1.07L39,88a6.68,6.68,0,0,0-5.18,6.47l-.06,13.07A3.34,3.34,0,0,0,37,110.86l80.1.38a3.34,3.34,0,0,0,3.35-3.32l.06-13.07A6.68,6.68,0,0,0,115.44,88.32Z"/><path class="cls-23" d="M112.06,90.42l-17-4,.45-1-2.05-3.07a1.53,1.53,0,0,0-2.28-.29l-14,12.29h0L63.32,81.94a1.53,1.53,0,0,0-2.29.27L59,85.26l.44,1L42.33,90.1a6,6,0,0,0-4.72,5.83l-.06,10.32a3,3,0,0,0,3,3l73,.34a3,3,0,0,0,3.06-3l.06-10.32A6,6,0,0,0,112.06,90.42Z"/><path class="cls-17" d="M71,62.27s6.85,6.61,13.46,0"/><polygon class="cls-18" points="80.98 109.48 73.47 109.44 74.48 95.93 80.11 95.95 80.98 109.48"/><path class="cls-19" d="M81.06,94.31l-7.51,0v.87a3.64,3.64,0,0,0,3.62,3.66h.23a3.64,3.64,0,0,0,3.66-3.62v-.87Z"/><path class="cls-18" d="M63.52,81.84,77.19,94.26a51.8,51.8,0,0,0-8.62,5.81,1.93,1.93,0,0,1-3-.69L59.21,85.17l2.05-3.05A1.5,1.5,0,0,1,63.52,81.84Z"/><path class="cls-18" d="M91.15,82.19,77.37,94.48a51.8,51.8,0,0,1,8.56,5.89,1.93,1.93,0,0,0,3-.66l6.52-14.16-2-3.07A1.5,1.5,0,0,0,91.15,82.19Z"/><path class="cls-21" d="M132.69,22.73c-.75,0-1.46,0-2.15.1l0,0c-31.27,1.61-27.91,41.32-27.9,70.29a3.16,3.16,0,0,0,1.54,2.71,56.74,56.74,0,0,0,56.37.27,3.16,3.16,0,0,0,1.56-2.7C162.38,63.75,166.3,22.89,132.69,22.73Z"/><path class="cls-22" d="M130.62,24.93C101,26.45,104.18,64.07,104.19,91.51a3,3,0,0,0,1.46,2.57,52.79,52.79,0,0,0,26.67,7.23L140.63,45"/><path class="cls-14" d="M132.68,24.86c-18.11-.09-19.47,21.79-19.47,21.79C123.65,44.93,130,49.36,140.63,45l-8.31,56.3a52.78,52.78,0,0,0,26.73-7,3,3,0,0,0,1.48-2.56C160.81,63.72,164.52,25,132.68,24.86Z"/><path class="cls-9" d="M166.09,101.76l-19.91-8.41a4.47,4.47,0,0,1-2.73-4.14l0-5.4-22.36-.11,0,5.4a4.47,4.47,0,0,1-2.77,4.11l-20,8.22a6.71,6.71,0,0,0-4.16,6.17l0,8.94a4.47,4.47,0,0,0,4.45,4.49l67.07.32a4.47,4.47,0,0,0,4.49-4.45l0-8.94A6.71,6.71,0,0,0,166.09,101.76Z"/><path class="cls-10" d="M162,101.86l-17.52-7.4a3.93,3.93,0,0,1-2.4-3.64l0-7.55-19.67-.09,0,7.55A3.93,3.93,0,0,1,120,94.34l-17.59,7.23A5.9,5.9,0,0,0,98.74,107l0,7.87a3.93,3.93,0,0,0,3.92,4l59,.28a3.93,3.93,0,0,0,4-3.92l0-7.87A5.9,5.9,0,0,0,162,101.86Z"/><path class="cls-9" d="M143.68,40.78c-11.23,11.12-33.12,2.08-33.21,20l1.33,13.18a8.94,8.94,0,0,0,4.53,7L129,88.08a6.71,6.71,0,0,0,6.51,0l12.76-7a8.94,8.94,0,0,0,4.6-7l1.68-15.64a24.68,24.68,0,0,0,.12-3.35C153.87,49.44,145.89,45.26,143.68,40.78Z"/><path class="cls-12" d="M142.83,42.61c-10.38,10.28-30.61,1.92-30.68,18.45l1.23,12.18a8.26,8.26,0,0,0,4.19,6.49l11.73,6.59a6.2,6.2,0,0,0,6,0l11.79-6.48a8.26,8.26,0,0,0,4.25-6.46L152.9,59a22.81,22.81,0,0,0,.11-3.09C152.26,50.61,144.88,46.75,142.83,42.61Z"/><path class="cls-9" d="M173.3,106.7c0-.11,0-.21-.07-.32a7.2,7.2,0,0,0-.29-1l-.09-.23A7.2,7.2,0,0,0,169,101.3l-17.44-7.36.26-.36-2.7-4.09a1.92,1.92,0,0,0-2.75-.48L132.57,99.26,118.85,88.87a1.92,1.92,0,0,0-2.76.46l-2.74,4.07.26.37L96.11,101a7.18,7.18,0,0,0-2.38,1.61h0a7.2,7.2,0,0,0-1.49,2.21l-.08.21a7.17,7.17,0,0,0-.31,1c0,.11-.05.21-.07.32a7.16,7.16,0,0,0-.14,1.29l0,9.62a4.81,4.81,0,0,0,4.79,4.83l9.62,0h0l62.54.29a4.81,4.81,0,0,0,4.83-4.79l0-9.62A7.17,7.17,0,0,0,173.3,106.7Z"/><path class="cls-24" d="M169.22,106.57c0-.1,0-.19-.06-.29a6.48,6.48,0,0,0-.26-.88l-.08-.21a6.48,6.48,0,0,0-3.45-3.48l-15.69-6.63.24-.33-2.43-3.68a1.73,1.73,0,0,0-2.48-.44l-12.44,9.23-12.35-9.35a1.73,1.73,0,0,0-2.48.41l-2.47,3.66.23.33-15.75,6.91a4.49,4.49,0,0,0-2.23,1.89H98v-.87a3.39,3.39,0,0,0-1.54,2c0,.06-.15.13-.17.19a6.66,6.66,0,0,0-.33.9c0,.1-.07.19-.09.28a6.45,6.45,0,0,0-.13,1.16l0,8.66a4.33,4.33,0,0,0,4.31,4.35l8.66,0h0l56.29.27a4.33,4.33,0,0,0,4.35-4.31l0-8.66A6.45,6.45,0,0,0,169.22,106.57Z"/><path class="cls-17" d="M125,75.37s6.17,6,12.12,0"/><path class="cls-18" d="M132.59,116.74h-.67a1.9,1.9,0,0,1-1.89-1.91l.07-15,4.47,0-.07,15A1.9,1.9,0,0,1,132.59,116.74Z"/><path class="cls-25" d="M132.33,99.86l-12.75-9.66a1.79,1.79,0,0,0-2.56.43l-2.55,3.78,7.79,11a1.79,1.79,0,0,0,2.57.37Z"/><path class="cls-25" d="M132.33,99.86l12.84-9.54a1.79,1.79,0,0,1,2.56.45l2.51,3.8-7.9,10.95a1.79,1.79,0,0,1-2.57.35Z"/><path class="cls-26" d="M501.28,63.92c-11.12,1.91-21.75,4.66-31.67,10.16-6.81,3.81-13.16,9.07-16.51,16.27A25.08,25.08,0,0,1,458.43,71c7-8.87,17.71-13.78,28.24-17.19Z"/><path class="cls-27" d="M506,67.46l15.35,11.26s-83.66,1-50.89,46.49C470.49,125.2,416.08,84.14,506,67.46Z"/><text class="cls-6" transform="translate(231.33 80.3)">Transferencia de<tspan x="0" y="24.54">activos generadores</tspan><tspan x="0" y="49.08">de flujo</tspan></text></svg>