<?xml version="1.0" encoding="utf-8"?>
<!-- Generator: Adobe Illustrator 20.1.0, SVG Export Plug-In . SVG Version: 6.00 Build 0)  -->
<svg version="1.1" id="Layer_1" xmlns="http://www.w3.org/2000/svg" xmlns:xlink="http://www.w3.org/1999/xlink" x="0px" y="0px"
	 viewBox="0 0 422 666" style="enable-background:new 0 0 422 666;" xml:space="preserve">
<style type="text/css">
	.st0{fill:#0057A2;}
	.st1{font-family:'NotoSerif';}
	.st2{font-size:15.7979px;}
	.st3{fill:none;stroke:#000000;stroke-miterlimit:10;}
	.st4{fill:none;stroke:#000000;stroke-width:0.8532;stroke-miterlimit:10;}
	.st5{fill:#FFCB31;}
	.st6{fill:none;stroke:#000000;stroke-width:1.7642;stroke-miterlimit:10;}
	.st7{fill:#C0DB82;}
	.st8{fill:none;stroke:#000000;stroke-width:1.3412;stroke-miterlimit:10;}
	.st9{fill:none;stroke:#000000;stroke-width:2;stroke-miterlimit:10;}
	.st10{fill:none;stroke:#000000;stroke-width:1.6118;stroke-miterlimit:10;}
	.st11{fill:none;stroke:#000000;stroke-width:1.5631;stroke-miterlimit:10;}
	.st12{fill:none;stroke:#000000;stroke-width:1.5057;stroke-miterlimit:10;}
	.st13{fill:#E6AF78;}
	.st14{fill:#EFF2FA;}
	.st15{fill:#D29B6E;}
	.st16{fill:#F0C087;}
	.st17{fill:#E4EAF6;}
	.st18{fill:#5B5D6E;}
	.st19{fill:#515262;}
	.st20{fill:#CFC2C1;}
	.st21{fill:#C8BDBD;}
	.st22{fill:#CEC6C8;}
	.st23{fill:#694B4B;}
	.st24{fill:#5A4146;}
	.st25{fill:#785550;}
	.st26{fill:#B4E1FA;}
	.st27{fill:#A0D2F0;}
	.st28{fill:#0E3767;}
	.st29{fill:#707487;}
	.st30{font-size:21.3394px;}
</style>
<g>
	<text transform="matrix(1 0 0 1 21.6807 280.1536)"><tspan x="0" y="0" class="st0 st1 st2">Transferencia</tspan><tspan x="0" y="20" class="st0 st1 st2">de bienes</tspan></text>
	<polyline class="st3" points="396.5,340 396.5,600.5 203,600.5 	"/>
	<g>
		<polyline class="st3" points="21.5,103 21.5,252.5 240,252.5 		"/>
		<polyline class="st4" points="240.3,258.3 246.9,251.7 240.3,245 		"/>
	</g>
	<polyline class="st4" points="202.7,593.2 196.1,599.8 202.7,606.4 	"/>
	<g>
		<g>
			<g>
				<path class="st5" d="M333.5,376.9c-11.7,0-21.2,4.3-21.2,9.6v2.1c0,5.3,9.5,9.6,21.2,9.6c11.7,0,21.2-4.3,21.2-9.6v-2.1
					C354.7,381.2,345.2,376.9,333.5,376.9L333.5,376.9z M333.5,376.9"/>
			</g>
			<path class="st5" d="M333.5,408.7c-12.6,0-23-2.6-25.5-7.9c-0.4,0.8-0.5-2.1-0.5-1.3v2.6c0,6.5,11.7,11.8,26,11.8
				c14.4,0,26-5.3,26-11.8v-2.6c0-0.8-0.2,2.1-0.5,1.3C356.5,406.1,346,408.7,333.5,408.7L333.5,408.7z M333.5,410.2"/>
			<path class="st5" d="M333.2,422c-12.6,0-23-4-25.5-9.4c-0.4,0.8-0.3-0.7-0.3,0.1v2.6c0,6.5,11.7,11.8,26,11.8
				c14.4,0,25.8-5.5,25.8-12.1l0,0c0-0.8-0.2-1.6-0.5-2.4C356.2,417.9,345.8,422,333.2,422L333.2,422z M333.2,422"/>
			<path class="st5" d="M333.5,436.4c-12.6,0-23-4-25.5-9.4c-0.4,0.8-0.5-1.3-0.5-0.5v2.6c0,6.5,11.7,11.8,26,11.8
				c14.4,0,26-5.3,26-11.8v0.3c0-0.8-0.2-1.6-0.5-2.4C356.5,432.4,346,436.4,333.5,436.4L333.5,436.4z M333.5,436.4"/>
			<path class="st5" d="M333.5,449.3c-12.6,0-23-4-25.5-9.4c-0.4,0.8-0.5-1-0.5-0.1v2.6c0,6.5,11.7,11.8,26,11.8
				c14.4,0,26-5.3,26-11.8v0c0-0.8-0.2-1.6-0.5-2.4C356.5,445.3,346,449.3,333.5,449.3L333.5,449.3z M333.5,449.3"/>
		</g>
		<g>
			<g>
				<path class="st6" d="M333.5,374.5c-14.4,0-26,5.3-26,11.8v2.6c0,6.5,11.7,11.8,26,11.8c14.4,0,26-5.3,26-11.8v-2.6
					C359.5,379.8,347.9,374.5,333.5,374.5L333.5,374.5z M333.5,374.5"/>
			</g>
			<path class="st6" d="M333.5,406.5c-12.6,0-23-4-25.5-9.4c-0.4,0.8-0.5,1.6-0.5,2.4v2.6c0,6.5,11.7,11.8,26,11.8
				c14.4,0,26-5.3,26-11.8v-2.6c0-0.8-0.2-1.6-0.5-2.4C356.5,402.4,346,406.5,333.5,406.5L333.5,406.5z M333.5,408.7"/>
			<path class="st6" d="M333.5,419.6c-12.6,0-23-4-25.5-9.4c-0.4,0.8-0.5,1.6-0.5,2.4v2.6c0,6.5,11.7,11.8,26,11.8
				c14.4,0,26-5.3,26-11.8v-2.6c0-0.8-0.2-1.6-0.5-2.4C356.5,415.6,346,419.6,333.5,419.6L333.5,419.6z M333.2,422"/>
			<path class="st6" d="M333.5,433.6c-12.6,0-23-4-25.5-9.4c-0.4,0.8-0.5,1.6-0.5,2.4v2.6c0,6.5,11.7,11.8,26,11.8
				c14.4,0,26-5.3,26-11.8v-2.6c0-0.8-0.2-1.6-0.5-2.4C356.5,429.5,346,433.6,333.5,433.6L333.5,433.6z M333.5,436.4"/>
			<path class="st6" d="M333.5,446.7c-12.6,0-23-4-25.5-9.4c-0.4,0.8-0.5,1.6-0.5,2.4v2.6c0,6.5,11.7,11.8,26,11.8
				c14.4,0,26-5.3,26-11.8v-2.6c0-0.8-0.2-1.6-0.5-2.4C356.5,442.7,346,446.7,333.5,446.7L333.5,446.7z M333.5,449.3"/>
		</g>
	</g>
	<g>
		<g>
			<g>
				<path class="st5" d="M75.4,180.2c-11.7,0-21.2,4.3-21.2,9.6v2.1c0,5.3,9.5,9.6,21.2,9.6c11.7,0,21.2-4.3,21.2-9.6v-2.1
					C96.6,184.5,87.1,180.2,75.4,180.2L75.4,180.2z M75.4,180.2"/>
			</g>
			<path class="st5" d="M75.4,212c-12.6,0-23-2.6-25.5-7.9c-0.4,0.8-0.5-2.1-0.5-1.3v2.6c0,6.5,11.7,11.8,26,11.8
				c14.4,0,26-5.3,26-11.8v-2.6c0-0.8-0.2,2.1-0.5,1.3C98.4,209.4,87.9,212,75.4,212L75.4,212z M75.4,213.4"/>
			<path class="st5" d="M75.1,225.2c-12.6,0-23-4-25.5-9.4c-0.4,0.8-0.3-0.7-0.3,0.1v2.6c0,6.5,11.7,11.8,26,11.8
				c14.4,0,25.8-5.5,25.8-12.1l0,0c0-0.8-0.2-1.6-0.5-2.4C98.1,221.2,87.6,225.2,75.1,225.2L75.1,225.2z M75.1,225.2"/>
		</g>
		<g>
			<g>
				<path class="st6" d="M75.4,177.8c-14.4,0-26,5.3-26,11.8v2.6c0,6.5,11.7,11.8,26,11.8c14.4,0,26-5.3,26-11.8v-2.6
					C101.4,183.1,89.7,177.8,75.4,177.8L75.4,177.8z M75.4,177.8"/>
			</g>
			<path class="st6" d="M75.4,209.7c-12.6,0-23-4-25.5-9.4c-0.4,0.8-0.5,1.6-0.5,2.4v2.6c0,6.5,11.7,11.8,26,11.8
				c14.4,0,26-5.3,26-11.8v-2.6c0-0.8-0.2-1.6-0.5-2.4C98.4,205.7,87.9,209.7,75.4,209.7L75.4,209.7z M75.3,212"/>
			<path class="st6" d="M75.4,222.9c-12.6,0-23-4-25.5-9.4c-0.4,0.8-0.5,1.6-0.5,2.4v2.6c0,6.5,11.7,11.8,26,11.8
				c14.4,0,26-5.3,26-11.8V216c0-0.8-0.2-1.6-0.5-2.4C98.4,218.9,87.9,222.9,75.4,222.9L75.4,222.9z M75.1,225.2"/>
		</g>
	</g>
	<text transform="matrix(1 0 0 1 307.9697 630.8091)"><tspan x="0" y="0" class="st0 st1 st2">Patrimonio</tspan><tspan x="-7.5" y="20" class="st0 st1 st2">de afectación</tspan></text>
	<g>
		<path class="st7" d="M329,245.9c13-37.7,47.8-25.3,47.8-25.3l0.2,0.2c0,0-12,30.8-48,25.3V245.9z"/>
		<path class="st7" d="M277.8,231c37.1-12.6,48.5,22.7,48.5,22.7l-0.1,0.2c0,0-31.8,8.3-48.6-22.7L277.8,231z"/>
		<circle class="st5" cx="327.9" cy="177.4" r="31.9"/>
		<circle class="st8" cx="327.9" cy="177.4" r="35.8"/>
		<line class="st9" x1="326" y1="214" x2="326" y2="262"/>
		<path class="st9" d="M326,246.5c19-46.7,60.6-31.3,60.6-31.3l-0.5,0.2c0,0-17.1,38.1-60.1,31.3V246.5z"/>
		<path class="st10" d="M265.3,225.5c46.6-15.8,60.9,28.4,60.9,28.4l-0.1,0.2c0,0-39.9,10.4-61-28.5L265.3,225.5z"/>
		<rect x="291.6" y="262.6" class="st11" width="73.2" height="15"/>
		<polygon class="st12" points="304,316 352.4,316 362.1,277.6 294.2,277.6 		"/>
		<g>
			<path class="st8" d="M318.5,187c0.9,4.5,4.9,8,9.7,8c5.5,0,9.9-4.4,9.9-9.9c0-3.4-2.1-6.2-4.9-7.9c-1.5-0.9-3.2-1.6-4.9-1.9
				c-1.6-0.3-3.2-0.5-4.6-1.5c-0.3-0.2-0.6-0.4-0.8-0.7c-1.5-1.4-2.3-3.4-2.3-5.5c0-4.2,3.4-7.7,7.7-7.7c3.1,0,5.8,1.8,7,4.5"/>
			<line class="st9" x1="328" y1="157" x2="328" y2="200"/>
		</g>
		<line class="st10" x1="328.2" y1="246.5" x2="356.3" y2="232.6"/>
		<line class="st10" x1="326.1" y1="254.2" x2="304.9" y2="244"/>
		<rect x="295.7" y="265.2" class="st0" width="64.9" height="9.8"/>
		<polygon class="st0" points="308,312.9 348.3,312.9 356.5,280.8 299.8,280.8 		"/>
	</g>
	<g>
		<g>
			<polygon class="st13" points="126.1,76.7 126.1,66.4 99.7,66.3 99.7,76.6 112.8,88.4 			"/>
			<path class="st14" d="M146.4,81.6l-18.1-4.4c-0.3-0.1-0.5-0.2-0.8-0.3l-14.7,8.5l-14.1-9.1c-0.4,0.3-0.8,0.6-1.3,0.7l-18.2,4.2
				c-2.7,0.6-4.5,3-4.5,5.7l-0.1,11.5c0,1.6,1.3,2.9,2.9,2.9l70.4,0.3c1.6,0,2.9-1.3,2.9-2.9l0.1-11.5
				C151,84.6,149.1,82.2,146.4,81.6z"/>
			<path class="st15" d="M99.7,66.3l-0.1,10.8c16.6,6.1,26.4-8.9,26.4-8.9l0-1.8L99.7,66.3L99.7,66.3z"/>
			<path class="st16" d="M94,32.6l1.1,28.1c0.1,2.6,1.4,5.1,3.5,6.7l6,4.6c1.5,1.1,3.4,1.8,5.3,1.8l5.9,0c1.9,0,3.8-0.6,5.3-1.7
				l6.1-4.5c2.1-1.6,3.4-4,3.5-6.6l1.4-28.1L94,32.6L94,32.6z"/>
			<path class="st13" d="M108.6,38.5c5.9,0,14.7-1.4,16.8-5.8L94,32.6l1.1,28.1c0.1,2.6,1.4,5.1,3.5,6.7l6,4.6
				c1.5,1.1,3.4,1.8,5.3,1.8l2.9,0c-2.9,0-8.8-5.9-8.7-13.2c0-3.6,0.1-13.2,0.1-17.6C104.2,41.4,105.7,38.5,108.6,38.5z"/>
			<path class="st17" d="M140.2,92.2l9.5-8.5c0.8,1,1.3,2.3,1.2,3.6l-0.1,11.5c0,1.6-1.3,2.9-2.9,2.9l-10.3,0l0-4.1
				C137.7,95.5,138.6,93.6,140.2,92.2z"/>
			<polygon class="st18" points="116.4,101.6 109.1,101.6 110.1,88.4 115.6,88.4 			"/>
			<path class="st19" d="M116.5,85.5l-7.3,0l0,0.8c0,2,1.6,3.6,3.5,3.6l0.2,0c2,0,3.6-1.6,3.6-3.5L116.5,85.5L116.5,85.5z"/>
			<g>
				<path class="st17" d="M99.5,73.3l13.3,12.1c0,0-3.8,1.9-8.4,5.7c-1,0.8-2.4,0.5-2.9-0.7l-6.2-13.9l2-3
					C97.8,72.8,98.8,72.7,99.5,73.3z"/>
				<path class="st17" d="M126.3,73.4l-13.5,12c0,0,3.7,1.9,8.4,5.8c1,0.8,2.4,0.5,2.9-0.6l6.4-13.8l-2-3
					C128,73,127,72.8,126.3,73.4z"/>
			</g>
			<path class="st20" d="M122,23l1.3,9.7c6.3,1.3,7.1,11.1,7.2,14c0,0.5,0.2,1,0.5,1.4l2.4,3.7c0,0-0.8-6.1,3-10.3
				C136.4,41.6,137.8,17.2,122,23z"/>
			<path class="st16" d="M134.9,51.2l-1.7,6.6c-0.2,0.8-0.9,1.3-1.7,1.3l0,0c-0.9,0-1.6-0.7-1.7-1.6l-0.8-6.8
				c-0.2-1.8,1.2-3.4,3-3.4l0,0C133.9,47.4,135.4,49.3,134.9,51.2z"/>
			<path class="st21" d="M95.5,20.2l2.2,1.5c-9.8,7.2-8.1,19.6-8.1,19.6c2.9,2.9,2.9,10.3,2.9,10.3l2.9-2.9c0,0-1.1-8.5,4.5-11.7
				c5.1-3,9.6-1.4,14.2-1.4c12.3,0.1,15.7-4.6,15.2-10.2c-0.3-2.9-4.7-9-16.1-8.9C108.6,16.6,99.9,17.9,95.5,20.2z"/>
			<path class="st22" d="M94.6,34.2c0,0-1.5-6.1,3.1-12.5c-9.8,7.2-8.1,19.6-8.1,19.6c2.9,2.9,2.9,10.3,2.9,10.3l2.9-2.9
				c0,0-1.1-8.5,4.5-11.7c5.1-3,9.6-1.4,14.2-1.4c2,0,3.7-0.1,5.3-0.3C109.9,35.5,104.4,28.3,94.6,34.2z"/>
			<path class="st13" d="M91.1,51l1.6,6.6c0.2,0.8,0.9,1.3,1.7,1.3l0,0c0.9,0,1.6-0.7,1.8-1.5l0.9-6.8c0.2-1.8-1.2-3.4-3-3.4l0,0
				C92.1,47.2,90.6,49.1,91.1,51z"/>
			<path class="st17" d="M130.4,98.7l-7.3,0c-1.6,0-2.9,1.3-2.9,2.9l0,0l13.2,0.1l0,0C133.3,100.1,132,98.7,130.4,98.7z"/>
		</g>
		<g>
			<path class="st23" d="M168.1,18.8c-30.6-0.1-27.4,37.1-27.4,64.1c0,1,0.5,1.9,1.4,2.5c3.4,2.1,12.7,6.9,25.6,7
				c13,0.1,22.3-4.7,25.7-6.7c0.9-0.5,1.4-1.4,1.4-2.5C195.1,56.2,198.7,18.9,168.1,18.8z"/>
			<path class="st24" d="M166.1,18.9c-28.5,1.5-25.4,37.6-25.4,64c0,1,0.5,1.9,1.4,2.5c3.4,2.1,12.7,6.9,25.6,7l8-54.1"/>
			<path class="st23" d="M168.1,18.8c-17.4-0.1-18.7,21-18.7,21c10-1.6,16.2,2.6,26.4-1.6l-8,54.1c13,0.1,22.3-4.7,25.7-6.7
				c0.9-0.5,1.4-1.4,1.4-2.5C195.1,56.2,198.7,18.9,168.1,18.8z"/>
			<path class="st25" d="M194.9,83.2c0.2-23.2,2.9-53.9-15.8-62.2c-0.3,1.7-0.9,6.4,0.6,9.5c3.8,7.8,7.7,7.8,11.5,13.6
				c3.8,21.3-7.6,43.8-11.4,46.9l0,0c6.6-1.5,11.4-4,13.6-5.3C194.3,85.1,194.9,84.2,194.9,83.2z"/>
			<path class="st13" d="M197.1,89l-17.2-7.3c-1.4-0.6-2.4-2-2.4-3.6l0-4.7l-19.3-0.1l0,4.7c0,1.6-1,3-2.4,3.6l-17.3,7.1
				c-2.2,0.9-3.6,3-3.6,5.3l0,7.7c0,2.1,1.7,3.9,3.9,3.9l58,0.3c2.1,0,3.9-1.7,3.9-3.9l0-7.7C200.6,92.1,199.2,89.9,197.1,89z"/>
			<path class="st26" d="M197.1,89l-16.7-7l-12.7,5.4l-12.6-5.5l-16.7,6.9c-2.2,0.9-3.6,3-3.6,5.3l0,7.7c0,2.1,1.7,3.9,3.9,3.9
				l58,0.3c2.1,0,3.9-1.7,3.9-3.9l0-7.7C200.6,92.1,199.2,89.9,197.1,89z"/>
			<path class="st15" d="M177.5,73.5l-19.3-0.1l0,4.7c0,1.6-1,3-2.4,3.6l-2.7,1.1C173.6,88.1,177.5,73.5,177.5,73.5z"/>
			<g>
				<path class="st27" d="M144.3,96.3l-7.7-6.2c-1,1.1-1.7,2.5-1.7,4l0,7.7c0,2.1,1.7,3.9,3.9,3.9l7.7,0l0-4.9
					C146.4,99.1,145.6,97.4,144.3,96.3z"/>
				<path class="st27" d="M200.6,102.2l0-7.7c0-1.5-0.6-3-1.6-4l-7.8,6.1c-1.4,1.1-2.2,2.8-2.2,4.5l0,4.9l7.7,0
					C198.8,106,200.6,104.3,200.6,102.2z"/>
				<path class="st27" d="M167.7,102L167.7,102c-1.1,0-1.9-0.9-1.9-1.9l0.1-12.7l3.9,0l-0.1,12.7C169.6,101.1,168.8,102,167.7,102z"
					/>
				<path class="st27" d="M167.8,87.4l-11-8.4c-0.7-0.5-1.7-0.4-2.2,0.4l-2.2,3.3l6.7,9.5c0.5,0.7,1.5,0.9,2.2,0.3L167.8,87.4z"/>
				<path class="st27" d="M167.8,87.4l11.1-8.3c0.7-0.5,1.7-0.4,2.2,0.4l2.2,3.3l-6.8,9.5c-0.5,0.7-1.5,0.9-2.2,0.3L167.8,87.4z"/>
			</g>
			<path class="st16" d="M177.7,36.3c-9.7,9.6-28.7,1.8-28.7,17.3l1.1,11.4c0.2,2.6,1.7,4.8,3.9,6.1l11,6.2c1.7,1,3.9,1,5.6,0
				l11-6.1c2.2-1.2,3.7-3.5,4-6l1.5-13.5c0.1-1,0.1-1.9,0.1-2.9C186.5,43.8,179.6,40.1,177.7,36.3z"/>
			<path class="st13" d="M148.9,53.5l1.1,11.4c0.2,2.6,1.7,4.8,3.9,6.1l11,6.2c1.2,0.7,2.6,0.9,3.9,0.6l0,0c0,0-5.5-1.7-8.8-10.7
				c-1-2.7-2.3-17.3-1.1-19c2.4-3.5,15.7-3.8,19.7-10.3c-0.2-0.2-0.4-0.5-0.5-0.7c0,0,0,0,0-0.1c-0.2-0.3-0.3-0.5-0.5-0.8
				C168,45.9,149,38.1,148.9,53.5z"/>
			<path class="st27" d="M183.2,102.1l-7.7,0c-1.1,0-1.9,0.9-1.9,1.9l0,1.9l11.6,0.1l0-1.9C185.1,102.9,184.2,102.1,183.2,102.1z"/>
		</g>
		<rect x="35.4" y="100.2" class="st28" width="343.9" height="8.6"/>
		<g id="XMLID_41_">
			<g>
				<path class="st28" d="M249.5,11.3v97.5H262V89.2h10.6v19.5h13.5V11.3H249.5z M261.2,73.8h-6.2V58.6h6.2V73.8z M261.2,54.3h-6.2
					V39.1h6.2V54.3z M261.2,35.5h-6.2V20.3h6.2V35.5z M270.9,73.8h-6.2V58.6h6.2V73.8z M270.9,54.3h-6.2V39.1h6.2V54.3z M270.9,35.5
					h-6.2V20.3h6.2V35.5z M280.6,73.8h-6.2V58.6h6.2V73.8z M280.6,54.3h-6.2V39.1h6.2V54.3z M280.6,35.5h-6.2V20.3h6.2V35.5z"/>
				<path class="st28" d="M239.9,93.2v-9.5h7.9V77h-7.9v-9.5h7.9V60h-7.9v-9.5h7.9v-7h-7.9v-9.5h7.9v-6.2h-31.3v76h31.3V93.2H239.9z
					 M232.2,93.2h-9.5v-9.5h9.5V93.2z M232.2,77h-9.5v-9.5h9.5V77z M232.2,60h-9.5v-9.5h9.5V60z M232.2,43.5h-9.5v-9.5h9.5V43.5z"/>
				<path class="st28" d="M314.2,100.1v-8.5v-4v-1.8v-5.4v-5.8v-3.1v-5.8v-2.8v-5.8v-3.3V48v-3.3v-5.8H308h-19.5v5.8H308V48h-19.5
					v5.8H308v3.3h-19.5v5.8H308v2.8h-19.5v5.8H308v3.1h-19.5v5.8H308v5.4h-19.5v1.8v4v8.5v4.9H308h6.2h4.1v-4.9H314.2z M303.4,99.8
					h-11.6v-8.5h11.6V99.8z"/>
			</g>
		</g>
	</g>
	<g>
		<g>
			<defs>
				<rect id="SVGID_1_" x="34.4" y="450.8" width="343" height="118.9"/>
			</defs>
			<clipPath id="SVGID_2_">
				<use xlink:href="#SVGID_1_"  style="overflow:visible;"/>
			</clipPath>
		</g>
		<g>
			<polygon class="st13" points="124.2,542.5 124.3,531.7 96.5,531.6 96.4,542.4 110.3,554.8 			"/>
			<path class="st29" d="M145.7,547.7l-19.1-4.6c-0.3-0.1-0.6-0.2-0.8-0.3l-15.5,9l-14.8-9.5c-0.4,0.4-0.9,0.6-1.4,0.8l-19.1,4.4
				c-2.8,0.6-4.8,3.1-4.8,6l-0.1,12.1c0,1.7,1.4,3.1,3.1,3.1l74.1,0.3c1.7,0,3.1-1.4,3.1-3.1l0.1-12.1
				C150.4,550.9,148.5,548.4,145.7,547.7z"/>
			<path class="st15" d="M96.5,531.6L96.4,543c17.5,6.4,27.8-9.3,27.8-9.3l0-1.9L96.5,531.6L96.5,531.6z"/>
			<path class="st16" d="M90.5,496.1l1.2,29.6c0.1,2.8,1.5,5.3,3.7,7l6.4,4.8c1.6,1.2,3.5,1.9,5.5,1.9l6.2,0c2,0,4-0.6,5.6-1.8
				l6.4-4.8c2.2-1.7,3.6-4.2,3.7-7l1.5-29.6L90.5,496.1z"/>
			<path class="st13" d="M105.9,502.3c6.2,0,15.4-1.5,17.7-6.1l-33.1-0.2l1.2,29.6c0.1,2.8,1.5,5.3,3.7,7l6.4,4.8
				c1.6,1.2,3.5,1.9,5.5,1.9l3.1,0c-3.1,0-9.2-6.2-9.2-13.9c0-3.8,0.1-13.9,0.1-18.5C101.2,505.4,102.8,502.3,105.9,502.3z"/>
			<g>
				<path class="st18" d="M139,558.8l10-8.9c0.8,1.1,1.3,2.4,1.3,3.8l-0.1,12.1c0,1.7-1.4,3.1-3.1,3.1l-10.8-0.1l0-4.3
					C136.5,562.4,137.4,560.3,139,558.8z"/>
				<path class="st18" d="M81.4,558.6l-10-9c-0.8,1.1-1.3,2.4-1.3,3.8l-0.1,12.1c0,1.7,1.4,3.1,3.1,3.1l10.8,0.1l0-4.3
					C84,562.1,83,560,81.4,558.6z"/>
				<polygon class="st18" points="114,568.7 106.3,568.7 107.4,554.8 113.1,554.8 				"/>
			</g>
			<path class="st19" d="M114.1,551.8l-7.7,0l0,1.7c0,1.6,1.3,2.9,2.9,2.9l1.9,0c1.6,0,2.9-1.3,2.9-2.9L114.1,551.8z"/>
			<g>
				<path class="st18" d="M96.2,539l14.1,12.8c0,0-4,2-8.9,6c-1,0.8-2.5,0.5-3.1-0.7l-6.6-14.6l2.1-3.1
					C94.4,538.5,95.5,538.3,96.2,539z"/>
				<path class="st18" d="M124.4,539.1l-14.2,12.6c0,0,3.9,2,8.8,6.1c1,0.8,2.5,0.5,3.1-0.7l6.7-14.6l-2.1-3.2
					C126.2,538.6,125.1,538.5,124.4,539.1z"/>
			</g>
			<path class="st25" d="M119.9,486l1.4,10.2c6.6,1.4,7.5,11.7,7.6,14.7c0,0.5,0.2,1.1,0.5,1.5l2.5,3.9c0,0-0.8-6.5,3.1-10.8
				C135.1,505.5,136.6,479.9,119.9,486z"/>
			<path class="st16" d="M133.5,515.7l-1.8,7c-0.2,0.8-1,1.4-1.8,1.4l0,0c-0.9,0-1.7-0.7-1.8-1.6l-0.9-7.1c-0.2-1.9,1.3-3.6,3.2-3.6
				l0,0C132.5,511.7,134,513.7,133.5,515.7z"/>
			<path class="st23" d="M92,483.1l2.3,1.6c-10.4,7.6-8.5,20.7-8.5,20.7c3.1,3.1,3,10.8,3,10.8l3.1-3.1c0,0-1.1-8.9,4.7-12.3
				c5.4-3.2,10.1-1.5,15-1.5c12.9,0.1,16.6-4.8,16-10.7c-0.3-3.1-5-9.5-16.9-9.3C105.8,479.2,96.7,480.6,92,483.1z"/>
			<path class="st24" d="M91,497.8c0,0-1.6-6.5,3.2-13.2c-10.4,7.6-8.5,20.7-8.5,20.7c3.1,3.1,3,10.8,3,10.8l3.1-3.1
				c0,0-1.1-8.9,4.7-12.3c5.4-3.2,10.1-1.5,15-1.5c2.1,0,3.9-0.1,5.6-0.4C107.2,499.2,101.4,491.6,91,497.8z"/>
			<path class="st13" d="M87.4,515.5l1.7,7c0.2,0.8,0.9,1.4,1.8,1.4l0,0c0.9,0,1.7-0.7,1.8-1.6l0.9-7.1c0.2-1.9-1.2-3.6-3.2-3.6l0,0
				C88.4,511.5,86.9,513.4,87.4,515.5z"/>
			<path class="st18" d="M129.4,565.7l-9.1,0c-1.3,0-2.4,1.1-2.4,2.4l0,0.7l13.9,0.1l0-0.7C131.8,566.8,130.7,565.7,129.4,565.7z"/>
		</g>
		<g>
			<path class="st23" d="M164.6,485.8c-29.6-0.1-26.5,35.9-26.5,62.1c0,1,0.5,1.9,1.4,2.4c3.3,2,12.3,6.7,24.8,6.7
				c12.5,0.1,21.6-4.5,24.9-6.5c0.8-0.5,1.4-1.4,1.4-2.4C190.8,521.9,194.3,485.9,164.6,485.8z"/>
			<path class="st24" d="M162.7,485.8c-27.6,1.4-24.6,36.4-24.6,62c0,1,0.5,1.9,1.4,2.4c3.3,2,12.3,6.7,24.8,6.7l7.7-52.4"/>
			<path class="st23" d="M164.6,485.8c-16.9-0.1-18.1,20.3-18.1,20.3c9.7-1.6,15.7,2.5,25.5-1.5l-7.7,52.4
				c12.5,0.1,21.6-4.5,24.9-6.5c0.8-0.5,1.4-1.4,1.4-2.4C190.8,521.9,194.3,485.9,164.6,485.8z"/>
			<path class="st25" d="M190.6,548.1c0.2-22.4,2.8-52.2-15.3-60.2c-0.3,1.6-0.9,6.2,0.6,9.2c3.7,7.5,7.5,7.5,11.2,13.2
				c3.6,20.6-7.4,42.4-11,45.4l0,0c6.4-1.5,11-3.9,13.2-5.2C190,549.9,190.6,549,190.6,548.1z"/>
			<path class="st13" d="M192.7,553.8l-16.7-7c-1.4-0.6-2.3-2-2.3-3.5l0-4.5l-18.7-0.1l0,4.5c0,1.5-0.9,2.9-2.3,3.4l-16.7,6.9
				c-2.1,0.9-3.5,2.9-3.5,5.2l0,7.5c0,2.1,1.7,3.8,3.7,3.8l56.2,0.3c2.1,0,3.8-1.7,3.8-3.7l0-7.5
				C196.1,556.7,194.8,554.6,192.7,553.8z"/>
			<path class="st14" d="M192.7,553.8l-16.1-6.8l-12.2,5.2l-12.2-5.3l-16.2,6.7c-2.1,0.9-3.5,2.9-3.5,5.2l0,7.5
				c0,2.1,1.7,3.8,3.7,3.8l56.2,0.3c2.1,0,3.8-1.7,3.8-3.7l0-7.5C196.1,556.7,194.8,554.6,192.7,553.8z"/>
			<path class="st15" d="M173.7,538.7l-18.7-0.1l0,4.5c0,1.5-0.9,2.9-2.3,3.4l-2.6,1.1C170,552.9,173.7,538.7,173.7,538.7z"/>
			<g>
				<path class="st17" d="M141.6,560.8l-7.5-6c-1,1-1.6,2.4-1.6,3.9l0,7.5c0,2.1,1.7,3.8,3.7,3.8l7.5,0l0-4.8
					C143.7,563.4,142.9,561.8,141.6,560.8z"/>
				<path class="st17" d="M196.1,566.4l0-7.5c0-1.5-0.6-2.9-1.6-3.9L187,561c-1.3,1.1-2.1,2.7-2.1,4.4l0,4.8l7.5,0
					C194.4,570.2,196.1,568.5,196.1,566.4z"/>
				<path class="st17" d="M164.5,566.3l-0.6,0c-0.9,0-1.6-0.7-1.6-1.6l0.1-12.5l3.7,0l-0.1,12.5
					C166.1,565.6,165.4,566.3,164.5,566.3z"/>
				<path class="st17" d="M164.3,552.2l-10.7-8.1c-0.7-0.5-1.7-0.4-2.1,0.4l-2.1,3.2l6.5,9.2c0.5,0.7,1.5,0.8,2.2,0.3L164.3,552.2z"
					/>
				<path class="st17" d="M164.3,552.2l10.8-8c0.7-0.5,1.7-0.3,2.1,0.4l2.1,3.2l-6.6,9.2c-0.5,0.7-1.5,0.8-2.2,0.3L164.3,552.2z"/>
			</g>
			<path class="st16" d="M173.9,502.7c-9.4,9.3-27.8,1.7-27.8,16.7l1.1,11c0.2,2.5,1.6,4.7,3.8,5.9l10.6,6c1.7,1,3.8,1,5.5,0
				l10.7-5.9c2.2-1.2,3.6-3.4,3.8-5.9l1.4-13.1c0.1-0.9,0.1-1.9,0.1-2.8C182.5,509.9,175.8,506.4,173.9,502.7z"/>
			<path class="st13" d="M146.1,519.4l1.1,11c0.2,2.5,1.6,4.7,3.8,5.9l10.6,6c1.2,0.7,2.5,0.8,3.8,0.6l0,0c0,0-5.4-1.7-8.5-10.3
				c-1-2.7-2.3-16.7-1.1-18.4c2.3-3.4,15.2-3.7,19.1-10c-0.2-0.2-0.4-0.5-0.5-0.7c0,0,0,0,0-0.1c-0.2-0.2-0.3-0.5-0.4-0.8
				C164.5,512,146.2,504.4,146.1,519.4z"/>
		</g>
		<rect x="34.4" y="567.2" class="st28" width="342.2" height="8.6"/>
		<g id="XMLID_178_">
			<g>
				<path class="st28" d="M253.9,478.5v97.5h12.6v-19.5h10.6v19.5h13.5v-97.5H253.9z M265.6,541.1h-6.2v-15.2h6.2V541.1z
					 M265.6,521.6h-6.2v-15.2h6.2V521.6z M265.6,502.8h-6.2v-15.2h6.2V502.8z M275.4,541.1h-6.2v-15.2h6.2V541.1z M275.4,521.6h-6.2
					v-15.2h6.2V521.6z M275.4,502.8h-6.2v-15.2h6.2V502.8z M285.1,541.1h-6.2v-15.2h6.2V541.1z M285.1,521.6h-6.2v-15.2h6.2V521.6z
					 M285.1,502.8h-6.2v-15.2h6.2V502.8z"/>
				<path class="st28" d="M244.4,560.4v-9.5h7.9v-6.6h-7.9v-9.5h7.9v-7.5h-7.9v-9.5h7.9v-7h-7.9v-9.5h7.9V495H221v76h31.3v-10.6
					H244.4z M236.6,560.4h-9.5v-9.5h9.5V560.4z M236.6,544.3h-9.5v-9.5h9.5V544.3z M236.6,527.3h-9.5v-9.5h9.5V527.3z M236.6,510.7
					h-9.5v-9.5h9.5V510.7z"/>
				<path class="st28" d="M318.7,567.4v-8.5v-4v-1.8v-5.4v-5.8v-3.1V533v-2.8v-5.8v-3.3v-5.8V512v-5.8h-6.2H293v5.8h19.5v3.3H293
					v5.8h19.5v3.3H293v5.8h19.5v2.8H293v5.8h19.5v3.1H293v5.8h19.5v5.4H293v1.8v4v8.5v4.9h19.5h6.2h4.1v-4.9H318.7z M307.9,567.1
					h-11.6v-8.5h11.6V567.1z"/>
			</g>
		</g>
	</g>
	<g>
		<text transform="matrix(1 0 0 1 44.4189 144.8091)" class="st28 st1 st30">Constituyente</text>
	</g>
	<g>
		<text transform="matrix(1 0 0 1 44.4192 612.809)" class="st28 st1 st30">Beneficiario</text>
	</g>
	<g>
		<text transform="matrix(1 0 0 1 278.4192 351.8093)" class="st28 st1 st30">Fiduciaria</text>
	</g>
</g>
</svg>
