<?xml version="1.0" encoding="utf-8"?>
<!-- Generator: Adobe Illustrator 20.1.0, SVG Export Plug-In . SVG Version: 6.00 Build 0)  -->
<svg version="1.1" id="Layer_1" xmlns="http://www.w3.org/2000/svg" xmlns:xlink="http://www.w3.org/1999/xlink" x="0px" y="0px"
	 viewBox="0 0 867 481.5" style="enable-background:new 0 0 867 481.5;" xml:space="preserve">
<style type="text/css">
	.st0{fill:#0057A2;}
	.st1{font-family:'NotoSerif';}
	.st2{font-size:15.7979px;}
	.st3{fill:none;stroke:#000000;stroke-miterlimit:10;}
	.st4{fill:none;stroke:#000000;stroke-width:0.8532;stroke-miterlimit:10;}
	.st5{fill:#FFCB31;}
	.st6{fill:none;stroke:#000000;stroke-width:1.7642;stroke-miterlimit:10;}
	.st7{fill:#C0DB82;}
	.st8{fill:none;stroke:#000000;stroke-width:1.3412;stroke-miterlimit:10;}
	.st9{fill:none;stroke:#000000;stroke-width:2;stroke-miterlimit:10;}
	.st10{fill:none;stroke:#000000;stroke-width:1.6118;stroke-miterlimit:10;}
	.st11{fill:none;stroke:#000000;stroke-width:1.5631;stroke-miterlimit:10;}
	.st12{fill:none;stroke:#000000;stroke-width:1.5057;stroke-miterlimit:10;}
	.st13{fill:#E6AF78;}
	.st14{fill:#EFF2FA;}
	.st15{fill:#D29B6E;}
	.st16{fill:#F0C087;}
	.st17{fill:#E4EAF6;}
	.st18{fill:#5B5D6E;}
	.st19{fill:#515262;}
	.st20{fill:#CFC2C1;}
	.st21{fill:#C8BDBD;}
	.st22{fill:#CEC6C8;}
	.st23{fill:#694B4B;}
	.st24{fill:#5A4146;}
	.st25{fill:#785550;}
	.st26{fill:#B4E1FA;}
	.st27{fill:#A0D2F0;}
	.st28{fill:#0E3767;}
	.st29{fill:#707487;}
	.st30{font-size:21.3394px;}
</style>
<g>
	<text transform="matrix(1 0 0 1 13.1495 281.7418)"><tspan x="0" y="0" class="st0 st1 st2">Transferencia</tspan><tspan x="0" y="20" class="st0 st1 st2">de bienes</tspan></text>
	<polyline class="st3" points="281.9,373.4 282.4,423.9 579.9,423.9 	"/>
	<g>
		<polyline class="st3" points="13.4,104.4 13.4,253.9 231.9,253.9 		"/>
		<polyline class="st4" points="231.8,259.9 238.4,253.3 231.8,246.6 		"/>
	</g>
	<polyline class="st4" points="580.3,430 586.9,423.4 580.3,416.8 	"/>
	<g>
		<g>
			<g>
				<path class="st5" d="M461.8,321.2c-11.7,0-21.2,4.3-21.2,9.6v2.1c0,5.3,9.5,9.6,21.2,9.6c11.7,0,21.2-4.3,21.2-9.6v-2.1
					C483.1,325.5,473.6,321.2,461.8,321.2L461.8,321.2z M461.8,321.2"/>
			</g>
			<path class="st5" d="M461.8,353c-12.6,0-23-2.6-25.5-7.9c-0.4,0.8-0.5-2.1-0.5-1.3v2.6c0,6.5,11.7,11.8,26,11.8
				c14.4,0,26-5.3,26-11.8v-2.6c0-0.8-0.2,2.1-0.5,1.3C484.9,350.4,474.4,353,461.8,353L461.8,353z M461.8,354.4"/>
			<path class="st5" d="M461.6,366.2c-12.6,0-23-4-25.5-9.4c-0.4,0.8-0.3-0.7-0.3,0.1v2.6c0,6.5,11.7,11.8,26,11.8
				c14.4,0,25.8-5.5,25.8-12.1l0,0c0-0.8-0.2-1.6-0.5-2.4C484.6,362.2,474.1,366.2,461.6,366.2L461.6,366.2z M461.6,366.2"/>
			<path class="st5" d="M461.8,380.7c-12.6,0-23-4-25.5-9.4c-0.4,0.8-0.5-1.3-0.5-0.5v2.6c0,6.5,11.7,11.8,26,11.8
				c14.4,0,26-5.3,26-11.8v0.3c0-0.8-0.2-1.6-0.5-2.4C484.9,376.7,474.4,380.7,461.8,380.7L461.8,380.7z M461.8,380.7"/>
			<path class="st5" d="M461.8,393.6c-12.6,0-23-4-25.5-9.4c-0.4,0.8-0.5-1-0.5-0.1v2.6c0,6.5,11.7,11.8,26,11.8
				c14.4,0,26-5.3,26-11.8v0c0-0.8-0.2-1.6-0.5-2.4C484.9,389.5,474.4,393.6,461.8,393.6L461.8,393.6z M461.8,393.6"/>
		</g>
		<g>
			<g>
				<path class="st6" d="M461.8,318.7c-14.4,0-26,5.3-26,11.8v2.6c0,6.5,11.7,11.8,26,11.8c14.4,0,26-5.3,26-11.8v-2.6
					C487.9,324,476.2,318.7,461.8,318.7L461.8,318.7z M461.8,318.7"/>
			</g>
			<path class="st6" d="M461.8,350.7c-12.6,0-23-4-25.5-9.4c-0.4,0.8-0.5,1.6-0.5,2.4v2.6c0,6.5,11.7,11.8,26,11.8
				c14.4,0,26-5.3,26-11.8v-2.6c0-0.8-0.2-1.6-0.5-2.4C484.9,346.7,474.4,350.7,461.8,350.7L461.8,350.7z M461.8,353"/>
			<path class="st6" d="M461.8,363.9c-12.6,0-23-4-25.5-9.4c-0.4,0.8-0.5,1.6-0.5,2.4v2.6c0,6.5,11.7,11.8,26,11.8
				c14.4,0,26-5.3,26-11.8v-2.6c0-0.8-0.2-1.6-0.5-2.4C484.9,359.9,474.4,363.9,461.8,363.9L461.8,363.9z M461.6,366.2"/>
			<path class="st6" d="M461.8,377.8c-12.6,0-23-4-25.5-9.4c-0.4,0.8-0.5,1.6-0.5,2.4v2.6c0,6.5,11.7,11.8,26,11.8
				c14.4,0,26-5.3,26-11.8v-2.6c0-0.8-0.2-1.6-0.5-2.4C484.9,373.8,474.4,377.8,461.8,377.8L461.8,377.8z M461.8,380.7"/>
			<path class="st6" d="M461.8,391c-12.6,0-23-4-25.5-9.4c-0.4,0.8-0.5,1.6-0.5,2.4v2.6c0,6.5,11.7,11.8,26,11.8
				c14.4,0,26-5.3,26-11.8V384c0-0.8-0.2-1.6-0.5-2.4C484.9,387,474.4,391,461.8,391L461.8,391z M461.8,393.6"/>
		</g>
	</g>
	<g>
		<g>
			<g>
				<path class="st5" d="M66.8,181.8c-11.7,0-21.2,4.3-21.2,9.6v2.1c0,5.3,9.5,9.6,21.2,9.6c11.7,0,21.2-4.3,21.2-9.6v-2.1
					C88.1,186.1,78.5,181.8,66.8,181.8L66.8,181.8z M66.8,181.8"/>
			</g>
			<path class="st5" d="M66.8,213.6c-12.6,0-23-2.6-25.5-7.9c-0.4,0.8-0.5-2.1-0.5-1.3v2.6c0,6.5,11.7,11.8,26,11.8
				c14.4,0,26-5.3,26-11.8v-2.6c0-0.8-0.2,2.1-0.5,1.3C89.9,211,79.4,213.6,66.8,213.6L66.8,213.6z M66.8,215"/>
			<path class="st5" d="M66.5,226.8c-12.6,0-23-4-25.5-9.4c-0.4,0.8-0.3-0.7-0.3,0.1v2.6c0,6.5,11.7,11.8,26,11.8
				c14.4,0,25.8-5.5,25.8-12.1l0,0c0-0.8-0.2-1.6-0.5-2.4C89.6,222.8,79.1,226.8,66.5,226.8L66.5,226.8z M66.5,226.8"/>
		</g>
		<g>
			<g>
				<path class="st6" d="M66.8,179.4c-14.4,0-26,5.3-26,11.8v2.6c0,6.5,11.7,11.8,26,11.8c14.4,0,26-5.3,26-11.8v-2.6
					C92.9,184.6,81.2,179.4,66.8,179.4L66.8,179.4z M66.8,179.4"/>
			</g>
			<path class="st6" d="M66.8,211.3c-12.6,0-23-4-25.5-9.4c-0.4,0.8-0.5,1.6-0.5,2.4v2.6c0,6.5,11.7,11.8,26,11.8
				c14.4,0,26-5.3,26-11.8v-2.6c0-0.8-0.2-1.6-0.5-2.4C89.9,207.3,79.4,211.3,66.8,211.3L66.8,211.3z M66.8,213.6"/>
			<path class="st6" d="M66.8,224.5c-12.6,0-23-4-25.5-9.4c-0.4,0.8-0.5,1.6-0.5,2.4v2.6c0,6.5,11.7,11.8,26,11.8
				c14.4,0,26-5.3,26-11.8v-2.6c0-0.8-0.2-1.6-0.5-2.4C89.9,220.5,79.4,224.5,66.8,224.5L66.8,224.5z M66.5,226.8"/>
		</g>
	</g>
	<g>
		<text transform="matrix(1 0 0 1 281.8878 452.3973)"><tspan x="0" y="0" class="st0 st1 st2">Patrimonio</tspan><tspan x="0" y="20" class="st0 st1 st2">de afectación</tspan></text>
	</g>
	<g>
		<path class="st7" d="M320.9,247.5c13-37.7,47.6-25.3,47.6-25.3l0.3,0.2c0,0-11.9,30.8-47.9,25.3V247.5z"/>
		<path class="st7" d="M269.3,232.6c37.1-12.6,48.5,22.7,48.5,22.7l-0.1,0.2c0,0-31.8,8.3-48.6-22.7L269.3,232.6z"/>
		<circle class="st5" cx="319.4" cy="179" r="31.9"/>
		<circle class="st8" cx="319.4" cy="179" r="35.8"/>
		<line class="st9" x1="317.9" y1="215.4" x2="317.9" y2="263.4"/>
		<path class="st9" d="M317.9,248.1c19-46.7,60.4-31.3,60.4-31.3l-0.4,0.2c0,0-17,38.1-60,31.3V248.1z"/>
		<path class="st10" d="M256.8,227.1c46.6-15.8,60.9,28.4,60.9,28.4l-0.1,0.2c0,0-39.9,10.4-61-28.5L256.8,227.1z"/>
		<rect x="283" y="264.2" class="st11" width="73.2" height="15"/>
		<polygon class="st12" points="295.4,317.6 343.8,317.6 353.6,279.2 285.7,279.2 		"/>
		<g>
			<path class="st8" d="M310,188.6c0.9,4.5,4.9,8,9.7,8c5.5,0,9.9-4.4,9.9-9.9c0-3.4-2.1-6.2-4.9-7.9c-1.5-0.9-3.2-1.6-4.9-1.9
				c-1.6-0.3-3.2-0.5-4.6-1.5c-0.3-0.2-0.6-0.4-0.8-0.7c-1.5-1.4-2.3-3.4-2.3-5.5c0-4.2,3.4-7.7,7.7-7.7c3.1,0,5.8,1.8,7,4.5"/>
			<line class="st9" x1="319.9" y1="158.4" x2="319.9" y2="201.4"/>
		</g>
		<line class="st10" x1="319.7" y1="248.1" x2="347.8" y2="234.2"/>
		<line class="st10" x1="317.6" y1="255.7" x2="296.3" y2="245.6"/>
		<rect x="287.2" y="266.7" class="st0" width="64.9" height="9.8"/>
		<polygon class="st0" points="299.5,314.4 339.8,314.4 347.9,282.4 291.3,282.4 		"/>
	</g>
	<g>
		<g>
			<polygon class="st13" points="117.5,78.3 117.6,68 91.2,67.9 91.1,78.2 104.3,90 			"/>
			<path class="st14" d="M137.9,83.2l-18.1-4.4c-0.3-0.1-0.5-0.2-0.8-0.3L104.3,87L90.2,78c-0.4,0.3-0.8,0.6-1.3,0.7l-18.2,4.2
				c-2.7,0.6-4.5,3-4.5,5.7L66.1,100c0,1.6,1.3,2.9,2.9,2.9l70.4,0.3c1.6,0,2.9-1.3,2.9-2.9l0.1-11.5
				C142.4,86.2,140.6,83.8,137.9,83.2z"/>
			<path class="st15" d="M91.2,67.9l-0.1,10.8c16.6,6.1,26.4-8.9,26.4-8.9l0-1.8L91.2,67.9L91.2,67.9z"/>
			<path class="st16" d="M85.5,34.2l1.1,28.1c0.1,2.6,1.4,5.1,3.5,6.7l6,4.6c1.5,1.1,3.4,1.8,5.3,1.8l5.9,0c1.9,0,3.8-0.6,5.3-1.7
				l6.1-4.5c2.1-1.6,3.4-4,3.5-6.6l1.4-28.1L85.5,34.2L85.5,34.2z"/>
			<path class="st13" d="M100.1,40.1c5.9,0,14.7-1.4,16.8-5.8l-31.4-0.1l1.1,28.1c0.1,2.6,1.4,5.1,3.5,6.7l6,4.6
				c1.5,1.1,3.4,1.8,5.3,1.8l2.9,0c-2.9,0-8.8-5.9-8.7-13.2c0-3.6,0.1-13.2,0.1-17.6C95.7,43,97.2,40.1,100.1,40.1z"/>
			<path class="st17" d="M131.6,93.8l9.5-8.5c0.8,1,1.3,2.3,1.2,3.6l-0.1,11.5c0,1.6-1.3,2.9-2.9,2.9l-10.3,0l0-4.1
				C129.2,97.1,130.1,95.2,131.6,93.8z"/>
			<polygon class="st18" points="107.9,103.2 100.6,103.1 101.5,90 107,90 			"/>
			<path class="st19" d="M108,87l-7.3,0l0,0.8c0,2,1.6,3.6,3.5,3.6l0.2,0c2,0,3.6-1.6,3.6-3.5L108,87L108,87z"/>
			<g>
				<path class="st17" d="M90.9,74.9L104.3,87c0,0-3.8,1.9-8.4,5.7c-1,0.8-2.4,0.5-2.9-0.7l-6.2-13.9l2-3
					C89.2,74.4,90.3,74.3,90.9,74.9z"/>
				<path class="st17" d="M117.8,75l-13.5,12c0,0,3.7,1.9,8.4,5.8c1,0.8,2.4,0.5,2.9-0.6l6.4-13.8l-2-3
					C119.5,74.6,118.4,74.4,117.8,75z"/>
			</g>
			<path class="st20" d="M113.5,24.6l1.3,9.7c6.3,1.3,7.1,11.1,7.2,14c0,0.5,0.2,1,0.5,1.4l2.4,3.7c0,0-0.8-6.1,3-10.3
				C127.9,43.2,129.3,18.8,113.5,24.6z"/>
			<path class="st16" d="M126.4,52.8l-1.7,6.6c-0.2,0.8-0.9,1.3-1.7,1.3l0,0c-0.9,0-1.6-0.7-1.7-1.6l-0.8-6.8
				c-0.2-1.8,1.2-3.4,3-3.4l0,0C125.4,49,126.8,50.9,126.4,52.8z"/>
			<path class="st21" d="M86.9,21.8l2.2,1.5C79.3,30.5,81,42.9,81,42.9c2.9,2.9,2.9,10.3,2.9,10.3l2.9-2.9c0,0-1.1-8.5,4.5-11.7
				c5.1-3,9.6-1.4,14.2-1.4c12.3,0.1,15.7-4.6,15.2-10.2c-0.3-2.9-4.7-9-16.1-8.9C100,18.2,91.4,19.5,86.9,21.8z"/>
			<path class="st22" d="M86,35.8c0,0-1.5-6.1,3.1-12.5C79.3,30.5,81,42.9,81,42.9c2.9,2.9,2.9,10.3,2.9,10.3l2.9-2.9
				c0,0-1.1-8.5,4.5-11.7c5.1-3,9.6-1.4,14.2-1.4c2,0,3.7-0.1,5.3-0.3C101.4,37.1,95.8,29.9,86,35.8z"/>
			<path class="st13" d="M82.6,52.6l1.6,6.6c0.2,0.8,0.9,1.3,1.7,1.3l0,0c0.9,0,1.6-0.7,1.8-1.5l0.9-6.8c0.2-1.8-1.2-3.4-3-3.4l0,0
				C83.5,48.8,82.1,50.7,82.6,52.6z"/>
			<path class="st17" d="M121.8,100.3l-7.3,0c-1.6,0-2.9,1.3-2.9,2.9l0,0l13.2,0.1l0,0C124.8,101.6,123.4,100.3,121.8,100.3z"/>
		</g>
		<g>
			<path class="st23" d="M159.5,20.4c-30.6-0.1-27.4,37.1-27.4,64.1c0,1,0.5,1.9,1.4,2.5c3.4,2.1,12.7,6.9,25.6,7
				c13,0.1,22.3-4.7,25.7-6.7c0.9-0.5,1.4-1.4,1.4-2.5C186.6,57.8,190.2,20.5,159.5,20.4z"/>
			<path class="st24" d="M157.6,20.5c-28.5,1.5-25.4,37.6-25.4,64c0,1,0.5,1.9,1.4,2.5c3.4,2.1,12.7,6.9,25.6,7l8-54.1"/>
			<path class="st23" d="M159.5,20.4c-17.4-0.1-18.7,21-18.7,21c10-1.6,16.2,2.6,26.4-1.6l-8,54.1c13,0.1,22.3-4.7,25.7-6.7
				c0.9-0.5,1.4-1.4,1.4-2.5C186.6,57.8,190.2,20.5,159.5,20.4z"/>
			<path class="st25" d="M186.3,84.7c0.2-23.2,2.9-53.9-15.8-62.2c-0.3,1.7-0.9,6.4,0.6,9.5c3.8,7.8,7.7,7.8,11.5,13.6
				c3.8,21.3-7.6,43.8-11.4,46.9l0,0c6.6-1.5,11.4-4,13.6-5.3C185.8,86.7,186.3,85.8,186.3,84.7z"/>
			<path class="st13" d="M188.5,90.6l-17.2-7.3c-1.4-0.6-2.4-2-2.4-3.6l0-4.7L149.6,75l0,4.7c0,1.6-1,3-2.4,3.6l-17.3,7.1
				c-2.2,0.9-3.6,3-3.6,5.3l0,7.7c0,2.1,1.7,3.9,3.9,3.9l58,0.3c2.1,0,3.9-1.7,3.9-3.9l0-7.7C192.1,93.7,190.7,91.5,188.5,90.6z"/>
			<path class="st26" d="M188.5,90.6l-16.7-7L159.2,89l-12.6-5.5l-16.7,6.9c-2.2,0.9-3.6,3-3.6,5.3l0,7.7c0,2.1,1.7,3.9,3.9,3.9
				l58,0.3c2.1,0,3.9-1.7,3.9-3.9l0-7.7C192.1,93.7,190.7,91.5,188.5,90.6z"/>
			<path class="st15" d="M169,75.1L149.6,75l0,4.7c0,1.6-1,3-2.4,3.6l-2.7,1.1C165.1,89.7,169,75.1,169,75.1z"/>
			<g>
				<path class="st27" d="M135.7,97.9l-7.7-6.2c-1,1.1-1.7,2.5-1.7,4l0,7.7c0,2.1,1.7,3.9,3.9,3.9l7.7,0l0-4.9
					C137.9,100.6,137.1,99,135.7,97.9z"/>
				<path class="st27" d="M192,103.7l0-7.7c0-1.5-0.6-3-1.6-4l-7.8,6.1c-1.4,1.1-2.2,2.8-2.2,4.5l0,4.9l7.7,0
					C190.3,107.6,192,105.9,192,103.7z"/>
				<path class="st27" d="M159.2,103.6L159.2,103.6c-1.1,0-1.9-0.9-1.9-1.9l0.1-12.7l3.9,0l-0.1,12.7
					C161.1,102.7,160.2,103.6,159.2,103.6z"/>
				<path class="st27" d="M159.2,89l-11-8.4c-0.7-0.5-1.7-0.4-2.2,0.4l-2.2,3.3l6.7,9.5c0.5,0.7,1.5,0.9,2.2,0.3L159.2,89z"/>
				<path class="st27" d="M159.2,89l11.1-8.3c0.7-0.5,1.7-0.4,2.2,0.4l2.2,3.3l-6.8,9.5c-0.5,0.7-1.5,0.9-2.2,0.3L159.2,89z"/>
			</g>
			<path class="st16" d="M169.1,37.8c-9.7,9.6-28.7,1.8-28.7,17.3l1.1,11.4c0.2,2.6,1.7,4.8,3.9,6.1l11,6.2c1.7,1,3.9,1,5.6,0
				l11-6.1c2.2-1.2,3.7-3.5,4-6l1.5-13.5c0.1-1,0.1-1.9,0.1-2.9C178,45.3,171.1,41.7,169.1,37.8z"/>
			<path class="st13" d="M140.4,55.1l1.1,11.4c0.2,2.6,1.7,4.8,3.9,6.1l11,6.2c1.2,0.7,2.6,0.9,3.9,0.6l0,0c0,0-5.5-1.7-8.8-10.7
				c-1-2.7-2.3-17.3-1.1-19c2.4-3.5,15.7-3.8,19.7-10.3c-0.2-0.2-0.4-0.5-0.5-0.7c0,0,0,0,0-0.1c-0.2-0.3-0.3-0.5-0.5-0.8
				C159.4,47.5,140.5,39.6,140.4,55.1z"/>
			<path class="st27" d="M174.6,103.7l-7.7,0c-1.1,0-1.9,0.9-1.9,1.9l0,1.9l11.6,0.1l0-1.9C176.6,104.5,175.7,103.7,174.6,103.7z"/>
		</g>
		<rect x="26.9" y="101.8" class="st28" width="343.9" height="8.6"/>
		<g id="XMLID_41_">
			<g>
				<path class="st28" d="M240.9,12.8v97.5h12.6V90.8h10.6v19.5h13.5V12.8H240.9z M252.6,75.4h-6.2V60.2h6.2V75.4z M252.6,55.9h-6.2
					V40.7h6.2V55.9z M252.6,37.1h-6.2V21.9h6.2V37.1z M262.4,75.4h-6.2V60.2h6.2V75.4z M262.4,55.9h-6.2V40.7h6.2V55.9z M262.4,37.1
					h-6.2V21.9h6.2V37.1z M272.1,75.4h-6.2V60.2h6.2V75.4z M272.1,55.9h-6.2V40.7h6.2V55.9z M272.1,37.1h-6.2V21.9h6.2V37.1z"/>
				<path class="st28" d="M231.4,94.7v-9.5h7.9v-6.6h-7.9v-9.5h7.9v-7.5h-7.9v-9.5h7.9v-7h-7.9v-9.5h7.9v-6.2H208v76h31.3V94.7
					H231.4z M223.6,94.7h-9.5v-9.5h9.5V94.7z M223.6,78.6h-9.5v-9.5h9.5V78.6z M223.6,61.6h-9.5v-9.5h9.5V61.6z M223.6,45.1h-9.5
					v-9.5h9.5V45.1z"/>
				<path class="st28" d="M305.7,101.7v-8.5v-4v-1.8V82v-5.8v-3.1v-5.8v-2.8v-5.8v-3.3v-5.8v-3.3v-5.8h-6.2H280v5.8h19.5v3.3H280
					v5.8h19.5v3.3H280v5.8h19.5v2.8H280v5.8h19.5v3.1H280V82h19.5v5.4H280v1.8v4v8.5v4.9h19.5h6.2h4.1v-4.9H305.7z M294.9,101.4
					h-11.6v-8.5h11.6V101.4z"/>
			</g>
		</g>
	</g>
	<g>
		<g>
			<defs>
				<rect id="SVGID_1_" x="514.9" y="272.4" width="343" height="118.9"/>
			</defs>
			<clipPath id="SVGID_2_">
				<use xlink:href="#SVGID_1_"  style="overflow:visible;"/>
			</clipPath>
		</g>
		<g>
			<polygon class="st13" points="604.7,364.1 604.7,353.3 576.9,353.2 576.9,364 590.7,376.4 			"/>
			<path class="st29" d="M626.1,369.3l-19.1-4.6c-0.3-0.1-0.6-0.2-0.8-0.3l-15.5,9l-14.8-9.5c-0.4,0.4-0.9,0.6-1.4,0.8l-19.1,4.4
				c-2.8,0.6-4.8,3.1-4.8,6l-0.1,12.1c0,1.7,1.4,3.1,3.1,3.1l74.1,0.3c1.7,0,3.1-1.4,3.1-3.1l0.1-12.1
				C630.9,372.4,628.9,369.9,626.1,369.3z"/>
			<path class="st15" d="M576.9,353.2l-0.1,11.4c17.5,6.4,27.8-9.3,27.8-9.3l0-1.9L576.9,353.2L576.9,353.2z"/>
			<path class="st16" d="M570.9,317.6l1.2,29.6c0.1,2.8,1.5,5.3,3.7,7l6.4,4.8c1.6,1.2,3.5,1.9,5.5,1.9l6.2,0c2,0,4-0.6,5.6-1.8
				l6.4-4.8c2.2-1.7,3.6-4.2,3.7-7l1.5-29.6L570.9,317.6z"/>
			<path class="st13" d="M586.3,323.9c6.2,0,15.4-1.5,17.7-6.1l-33.1-0.2l1.2,29.6c0.1,2.8,1.5,5.3,3.7,7l6.4,4.8
				c1.6,1.2,3.5,1.9,5.5,1.9l3.1,0c-3.1,0-9.2-6.2-9.2-13.9c0-3.8,0.1-13.9,0.1-18.5C581.7,327,583.3,323.9,586.3,323.9z"/>
			<g>
				<path class="st18" d="M619.5,380.4l10-8.9c0.8,1.1,1.3,2.4,1.3,3.8l-0.1,12.1c0,1.7-1.4,3.1-3.1,3.1l-10.8-0.1l0-4.3
					C616.9,384,617.9,381.9,619.5,380.4z"/>
				<path class="st18" d="M561.9,380.1l-10-9c-0.8,1.1-1.3,2.4-1.3,3.8l-0.1,12.1c0,1.7,1.4,3.1,3.1,3.1l10.8,0.1l0-4.3
					C564.4,383.7,563.5,381.6,561.9,380.1z"/>
				<polygon class="st18" points="594.5,390.3 586.8,390.3 587.8,376.4 593.6,376.4 				"/>
			</g>
			<path class="st19" d="M594.6,373.3l-7.7,0l0,1.7c0,1.6,1.3,2.9,2.9,2.9l1.9,0c1.6,0,2.9-1.3,2.9-2.9L594.6,373.3z"/>
			<g>
				<path class="st18" d="M576.7,360.6l14.1,12.8c0,0-4,2-8.9,6c-1,0.8-2.5,0.5-3.1-0.7l-6.6-14.6l2.1-3.1
					C574.9,360.1,576,359.9,576.7,360.6z"/>
				<path class="st18" d="M604.9,360.7l-14.2,12.6c0,0,3.9,2,8.8,6.1c1,0.8,2.5,0.5,3.1-0.7l6.7-14.6l-2.1-3.2
					C606.7,360.2,605.6,360.1,604.9,360.7z"/>
			</g>
			<path class="st25" d="M600.4,307.6l1.4,10.2c6.6,1.4,7.5,11.7,7.6,14.7c0,0.5,0.2,1.1,0.5,1.5l2.5,3.9c0,0-0.8-6.5,3.1-10.8
				C615.6,327.1,617,301.5,600.4,307.6z"/>
			<path class="st16" d="M614,337.3l-1.8,7c-0.2,0.8-1,1.4-1.8,1.4l0,0c-0.9,0-1.7-0.7-1.8-1.6l-0.9-7.1c-0.2-1.9,1.3-3.6,3.2-3.6
				l0,0C613,333.3,614.5,335.2,614,337.3z"/>
			<path class="st23" d="M572.5,304.7l2.3,1.6c-10.4,7.6-8.5,20.7-8.5,20.7c3.1,3.1,3,10.8,3,10.8l3.1-3.1c0,0-1.1-8.9,4.7-12.3
				c5.4-3.2,10.1-1.5,15-1.5c12.9,0.1,16.6-4.8,16-10.7c-0.3-3.1-5-9.5-16.9-9.3C586.3,300.8,577.2,302.2,572.5,304.7z"/>
			<path class="st24" d="M571.5,319.4c0,0-1.6-6.5,3.2-13.2c-10.4,7.6-8.5,20.7-8.5,20.7c3.1,3.1,3,10.8,3,10.8l3.1-3.1
				c0,0-1.1-8.9,4.7-12.3c5.4-3.2,10.1-1.5,15-1.5c2.1,0,3.9-0.1,5.6-0.4C587.7,320.8,581.8,313.2,571.5,319.4z"/>
			<path class="st13" d="M567.9,337l1.7,7c0.2,0.8,0.9,1.4,1.8,1.4l0,0c0.9,0,1.7-0.7,1.8-1.6l0.9-7.1c0.2-1.9-1.2-3.6-3.2-3.6l0,0
				C568.9,333.1,567.4,335,567.9,337z"/>
			<path class="st18" d="M609.9,387.3l-9.1,0c-1.3,0-2.4,1.1-2.4,2.4l0,0.7l13.9,0.1l0-0.7C612.3,388.4,611.2,387.3,609.9,387.3z"/>
		</g>
		<g>
			<path class="st23" d="M645.1,307.3c-29.6-0.1-26.5,35.9-26.5,62.1c0,1,0.5,1.9,1.4,2.4c3.3,2,12.3,6.7,24.8,6.7
				c12.5,0.1,21.6-4.5,24.9-6.5c0.8-0.5,1.4-1.4,1.4-2.4C671.3,343.5,674.8,307.5,645.1,307.3z"/>
			<path class="st24" d="M643.2,307.4c-27.6,1.4-24.6,36.4-24.6,62c0,1,0.5,1.9,1.4,2.4c3.3,2,12.3,6.7,24.8,6.7l7.7-52.4"/>
			<path class="st23" d="M645.1,307.3c-16.9-0.1-18.1,20.3-18.1,20.3c9.7-1.6,15.7,2.5,25.5-1.5l-7.7,52.4
				c12.5,0.1,21.6-4.5,24.9-6.5c0.8-0.5,1.4-1.4,1.4-2.4C671.3,343.5,674.8,307.5,645.1,307.3z"/>
			<path class="st25" d="M671,369.6c0.2-22.4,2.8-52.2-15.3-60.2c-0.3,1.6-0.9,6.2,0.6,9.2c3.7,7.5,7.5,7.5,11.2,13.2
				c3.6,20.6-7.4,42.4-11,45.4l0,0c6.4-1.5,11-3.9,13.2-5.2C670.5,371.5,671,370.6,671,369.6z"/>
			<path class="st13" d="M673.2,375.3l-16.7-7c-1.4-0.6-2.3-2-2.3-3.5l0-4.5l-18.7-0.1l0,4.5c0,1.5-0.9,2.9-2.3,3.4l-16.7,6.9
				c-2.1,0.9-3.5,2.9-3.5,5.2l0,7.5c0,2.1,1.7,3.8,3.7,3.8l56.2,0.3c2.1,0,3.8-1.7,3.8-3.7l0-7.5
				C676.6,378.3,675.3,376.2,673.2,375.3z"/>
			<path class="st14" d="M673.2,375.3l-16.1-6.8l-12.2,5.2l-12.2-5.3l-16.2,6.7c-2.1,0.9-3.5,2.9-3.5,5.2l0,7.5
				c0,2.1,1.7,3.8,3.7,3.8l56.2,0.3c2.1,0,3.8-1.7,3.8-3.7l0-7.5C676.6,378.3,675.3,376.2,673.2,375.3z"/>
			<path class="st15" d="M654.2,360.3l-18.7-0.1l0,4.5c0,1.5-0.9,2.9-2.3,3.4l-2.6,1.1C650.5,374.4,654.2,360.3,654.2,360.3z"/>
			<g>
				<path class="st17" d="M622,382.3l-7.5-6c-1,1-1.6,2.4-1.6,3.9l0,7.5c0,2.1,1.7,3.8,3.7,3.8l7.5,0l0-4.8
					C624.1,385,623.4,383.4,622,382.3z"/>
				<path class="st17" d="M676.6,388l0-7.5c0-1.5-0.6-2.9-1.6-3.9l-7.6,5.9c-1.3,1.1-2.1,2.7-2.1,4.4l0,4.8l7.5,0
					C674.9,391.8,676.6,390.1,676.6,388z"/>
				<path class="st17" d="M645,387.9l-0.6,0c-0.9,0-1.6-0.7-1.6-1.6l0.1-12.5l3.7,0l-0.1,12.5C646.6,387.2,645.9,387.9,645,387.9z"
					/>
				<path class="st17" d="M644.8,373.7l-10.7-8.1c-0.7-0.5-1.7-0.4-2.1,0.4l-2.1,3.2l6.5,9.2c0.5,0.7,1.5,0.8,2.2,0.3L644.8,373.7z"
					/>
				<path class="st17" d="M644.8,373.7l10.8-8c0.7-0.5,1.7-0.3,2.1,0.4l2.1,3.2l-6.6,9.2c-0.5,0.7-1.5,0.8-2.2,0.3L644.8,373.7z"/>
			</g>
			<path class="st16" d="M654.4,324.2c-9.4,9.3-27.8,1.7-27.8,16.7l1.1,11c0.2,2.5,1.6,4.7,3.8,5.9l10.6,6c1.7,1,3.8,1,5.5,0
				l10.7-5.9c2.2-1.2,3.6-3.4,3.8-5.9l1.4-13.1c0.1-0.9,0.1-1.9,0.1-2.8C662.9,331.5,656.2,328,654.4,324.2z"/>
			<path class="st13" d="M626.6,341l1.1,11c0.2,2.5,1.6,4.7,3.8,5.9l10.6,6c1.2,0.7,2.5,0.8,3.8,0.6l0,0c0,0-5.4-1.7-8.5-10.3
				c-1-2.7-2.3-16.7-1.1-18.4c2.3-3.4,15.2-3.7,19.1-10c-0.2-0.2-0.4-0.5-0.5-0.7c0,0,0,0,0-0.1c-0.2-0.2-0.3-0.5-0.4-0.8
				C645,333.6,626.6,326,626.6,341z"/>
		</g>
		<rect x="514.9" y="388.8" class="st28" width="342.2" height="8.6"/>
		<g id="XMLID_178_">
			<g>
				<path class="st28" d="M734.4,300.1v97.5H747v-19.5h10.6v19.5H771v-97.5H734.4z M746.1,362.7h-6.2v-15.2h6.2V362.7z M746.1,343.2
					h-6.2V328h6.2V343.2z M746.1,324.4h-6.2v-15.2h6.2V324.4z M755.8,362.7h-6.2v-15.2h6.2V362.7z M755.8,343.2h-6.2V328h6.2V343.2z
					 M755.8,324.4h-6.2v-15.2h6.2V324.4z M765.6,362.7h-6.2v-15.2h6.2V362.7z M765.6,343.2h-6.2V328h6.2V343.2z M765.6,324.4h-6.2
					v-15.2h6.2V324.4z"/>
				<path class="st28" d="M724.9,382v-9.5h7.9v-6.6h-7.9v-9.5h7.9v-7.5h-7.9v-9.5h7.9v-7h-7.9v-9.5h7.9v-6.2h-31.3v76h31.3V382
					H724.9z M717.1,382h-9.5v-9.5h9.5V382z M717.1,365.9h-9.5v-9.5h9.5V365.9z M717.1,348.9h-9.5v-9.5h9.5V348.9z M717.1,332.3h-9.5
					v-9.5h9.5V332.3z"/>
				<path class="st28" d="M799.1,388.9v-8.5v-4v-1.8v-5.4v-5.8v-3.1v-5.8v-2.8V346v-3.3v-5.8v-3.3v-5.8h-6.2h-19.5v5.8h19.5v3.3
					h-19.5v5.8h19.5v3.3h-19.5v5.8h19.5v2.8h-19.5v5.8h19.5v3.1h-19.5v5.8h19.5v5.4h-19.5v1.8v4v8.5v4.9h19.5h6.2h4.1v-4.9H799.1z
					 M788.4,388.7h-11.6v-8.5h11.6V388.7z"/>
			</g>
		</g>
	</g>
	<g>
		<text transform="matrix(1 0 0 1 35.8878 146.3973)" class="st28 st1 st30">Constituyente</text>
	</g>
	<g>
		<text transform="matrix(1 0 0 1 604.8881 434.3972)" class="st28 st1 st30">Beneficiario</text>
	</g>
	<g>
		<text transform="matrix(1 0 0 1 269.8881 353.3976)" class="st28 st1 st30">Fiduciaria</text>
	</g>
</g>
</svg>
