<svg id="Layer_1" data-name="Layer 1" xmlns="http://www.w3.org/2000/svg" viewBox="0 0 44.57 44.57"><defs><style>.cls-1{fill:none;stroke:#fff;stroke-miterlimit:10;}</style></defs><title>Artboard 4social</title><path class="cls-1" d="M43.46,22.29A21.17,21.17,0,1,1,22.29,1.11,21.17,21.17,0,0,1,43.46,22.29Zm0,0"/><path class="cls-1" d="M34.93,24v8.73H29.87V24.57c0-2-.73-3.44-2.56-3.44A2.77,2.77,0,0,0,24.72,23a3.43,3.43,0,0,0-.17,1.23v8.5H19.49s.07-13.79,0-15.22h5.06v2.16l0,0h0v0a5,5,0,0,1,4.56-2.52c3.33,0,5.82,2.18,5.82,6.85ZM14.19,10.16a2.64,2.64,0,1,0-.07,5.26h0a2.64,2.64,0,1,0,0-5.26ZM11.63,32.72h5.06V17.5H11.63Zm0,0"/></svg>