<?xml version="1.0" encoding="utf-8"?>
<!-- Generator: Adobe Illustrator 20.1.0, SVG Export Plug-In . SVG Version: 6.00 Build 0)  -->
<svg version="1.1" id="Layer_1" xmlns="http://www.w3.org/2000/svg" xmlns:xlink="http://www.w3.org/1999/xlink" x="0px" y="0px"
	 viewBox="0 0 1012 1252" style="enable-background:new 0 0 1012 1252;" xml:space="preserve">
<style type="text/css">
	.st0{fill:none;stroke:#E6E6E6;stroke-width:1.7501;stroke-miterlimit:10;}
	.st1{fill:none;stroke:#3F4040;stroke-width:0.8341;stroke-miterlimit:10;}
	.st2{font-family:'NewsCycle';}
	.st3{font-size:22.8664px;}
	.st4{fill:#694B4B;}
	.st5{fill:#5A4146;}
	.st6{fill:#785550;}
	.st7{fill:#E6AF78;}
	.st8{fill:#B4E1FA;}
	.st9{fill:#D29B6E;}
	.st10{fill:#A0D2F0;}
	.st11{fill:#F0C087;}
	.st12{fill:#FFCB31;}
	.st13{fill:none;stroke:#000000;stroke-width:1.7947;stroke-miterlimit:10;}
	.st14{fill:#E4EAF6;}
	.st15{fill:#EFF2FA;}
	.st16{fill:#5B5D6E;}
	.st17{fill:#515262;}
	.st18{fill:#707487;}
	.st19{fill:#C0DB82;}
	.st20{fill:none;stroke:#000000;stroke-width:1.297;stroke-miterlimit:10;}
	.st21{fill:none;stroke:#000000;stroke-width:2;stroke-miterlimit:10;}
	.st22{fill:none;stroke:#000000;stroke-width:1.5587;stroke-miterlimit:10;}
	.st23{fill:none;stroke:#000000;stroke-width:1.5115;stroke-miterlimit:10;}
	.st24{fill:none;stroke:#000000;stroke-width:1.4561;stroke-miterlimit:10;}
	.st25{fill:#0057A2;}
	.st26{fill:#E6E6E6;}
	.st27{fill:none;stroke:#000000;stroke-width:0.8218;stroke-miterlimit:10;}
</style>
<g>
	<rect x="28.5" y="173.2" class="st0" width="957.3" height="1046.6"/>
	<rect x="12.5" y="156.1" class="st0" width="989.3" height="1080.7"/>
</g>
<g>
	<polyline class="st1" points="824.7,867 850,866.9 850,1152.5 424.7,1152.8 424.7,867.2 450.7,867.2 	"/>
	<g>
		<text transform="matrix(1 4.710000e-03 -4.710000e-03 1 164.6131 632.6866)" class="st2 st3">Inversionista B</text>
		<text transform="matrix(1 4.710000e-03 -4.710000e-03 1 141.7026 787.6678)" class="st2 st3">Otros Inversionistas</text>
		<g>
			<path class="st4" d="M233.5,496.2c-35.9-0.2-32.1,43.5-32.1,75.1c0,1.2,0.6,2.3,1.6,2.9c4,2.4,14.9,8.1,30.1,8.1
				s26.1-5.5,30.1-7.9c1-0.6,1.7-1.7,1.7-2.9C265.2,540,269.3,496.4,233.5,496.2z"/>
			<path class="st5" d="M231.1,496.3c-33.4,1.7-29.8,44.1-29.8,75.1c0,1.2,0.6,2.3,1.6,2.9c4,2.4,14.9,8.1,30.1,8.1l9.4-63.5"/>
			<path class="st4" d="M233.5,496.2c-20.4-0.1-21.9,24.6-21.9,24.6c11.8-1.9,19,3.1,30.9-1.8l-9.4,63.5c15.2,0.1,26.1-5.5,30.1-7.9
				c1-0.6,1.7-1.7,1.7-2.9C265.2,540,269.3,496.4,233.5,496.2z"/>
			<path class="st6" d="M264.8,571.6c0.3-27.2,3.4-63.2-18.5-72.9c-0.4,2-1.1,7.5,0.7,11.1c4.5,9.1,9,9.1,13.5,15.9
				c4.4,25-8.9,51.4-13.3,55l0,0c7.8-1.8,13.4-4.7,16-6.3C264.2,573.9,264.8,572.8,264.8,571.6z"/>
			<path class="st7" d="M267.4,578.5l-20.2-8.5c-1.7-0.7-2.8-2.4-2.8-4.2l0-5.5l-22.7-0.1l0,5.5c0,1.8-1.1,3.5-2.8,4.2l-20.3,8.3
				c-2.5,1-4.2,3.5-4.2,6.3l0,9.1c0,2.5,2,4.5,4.5,4.6l68,0.3c2.5,0,4.5-2,4.6-4.5l0-9.1C271.6,582.1,270,579.6,267.4,578.5z"/>
			<path class="st8" d="M267.4,578.5l-19.5-8.2l-14.8,6.3l-14.8-6.5l-19.6,8.1c-2.5,1-4.2,3.5-4.2,6.3l0,9.1c0,2.5,2,4.5,4.5,4.6
				l68,0.3c2.5,0,4.5-2,4.6-4.5l0-9.1C271.6,582.1,270,579.6,267.4,578.5z"/>
			<path class="st9" d="M244.5,560.3l-22.7-0.1l0,5.5c0,1.8-1.1,3.5-2.8,4.2l-3.2,1.3C240,577.5,244.5,560.3,244.5,560.3z"/>
			<g>
				<path class="st10" d="M205.5,587l-9.1-7.3c-1.2,1.2-2,2.9-2,4.7l0,9.1c0,2.5,2,4.5,4.5,4.6l9.1,0l0-5.8
					C208.1,590.3,207.1,588.3,205.5,587z"/>
				<path class="st10" d="M271.5,593.9l0-9.1c0-1.8-0.7-3.5-1.9-4.7l-9.2,7.2c-1.6,1.3-2.6,3.2-2.6,5.3l0,5.8l9.1,0
					C269.5,598.4,271.5,596.4,271.5,593.9z"/>
				<path class="st10" d="M233,593.7L233,593.7c-1.3,0-2.3-1-2.3-2.3l0.1-14.8l4.5,0l-0.1,14.8C235.3,592.7,234.2,593.7,233,593.7z"
					/>
				<path class="st10" d="M233.1,576.6l-12.9-9.8c-0.8-0.6-2-0.4-2.6,0.4l-2.6,3.8l7.9,11.2c0.6,0.8,1.8,1,2.6,0.4L233.1,576.6z"/>
				<path class="st10" d="M233.1,576.6l13-9.7c0.8-0.6,2-0.4,2.6,0.5l2.5,3.9l-8,11.1c-0.6,0.8-1.8,1-2.6,0.3L233.1,576.6z"/>
			</g>
			<path class="st11" d="M244.7,516.7c-11.4,11.3-33.6,2.1-33.7,20.3l1.3,13.4c0.3,3,2,5.7,4.6,7.1l12.9,7.2c2,1.2,4.5,1.2,6.6,0
				l12.9-7.1c2.6-1.4,4.4-4.1,4.7-7.1l1.7-15.9c0.1-1.1,0.2-2.3,0.1-3.4C255,525.5,246.9,521.2,244.7,516.7z"/>
			<path class="st7" d="M211,536.9l1.3,13.4c0.3,3,2,5.7,4.6,7.1l12.9,7.2c1.4,0.8,3.1,1,4.6,0.7l0,0c0,0-6.5-2-10.3-12.5
				c-1.2-3.2-2.7-20.2-1.3-22.3c2.8-4.1,18.4-4.4,23.1-12c-0.2-0.3-0.4-0.6-0.6-0.9c0,0,0,0,0-0.1c-0.2-0.3-0.4-0.6-0.5-0.9
				C233.3,528,211.1,518.8,211,536.9z"/>
			<path class="st10" d="M251.1,593.8l-9.1,0c-1.3,0-2.3,1-2.3,2.3l0,2.3l13.6,0.1l0-2.3C253.4,594.8,252.4,593.8,251.1,593.8z"/>
		</g>
		<g>
			<g>
				<g>
					<path class="st12" d="M355,384.4c-11.9-0.1-21.6,4.3-21.6,9.7l0,2.1c0,5.4,9.6,9.8,21.6,9.9c11.9,0.1,21.6-4.3,21.6-9.7l0-2.1
						C376.6,388.9,367,384.5,355,384.4L355,384.4z M355,384.4"/>
				</g>
				<path class="st12" d="M354.9,416.8c-12.8-0.1-23.4-2.7-25.9-8.2c-0.4,0.8-0.5-2.1-0.6-1.3l0,2.6c0,6.6,11.8,12.1,26.4,12.1
					c14.6,0.1,26.5-5.3,26.6-11.9l0-2.6c0-0.8-0.2,2.1-0.6,1.3C378.3,414.3,367.7,416.8,354.9,416.8L354.9,416.8z M354.9,418.3"/>
				<path class="st12" d="M354.5,430.3c-12.8-0.1-23.4-4.2-25.9-9.7c-0.4,0.8-0.3-0.7-0.3,0.1l0,2.6c0,6.6,11.8,12.1,26.4,12.1
					c14.6,0.1,26.2-5.5,26.3-12.1l0,0c0-0.8-0.2-1.7-0.5-2.5C378,426.3,367.3,430.3,354.5,430.3L354.5,430.3z M354.5,430.3"/>
			</g>
			<g>
				<g>
					<path class="st13" d="M355,382c-14.6-0.1-26.5,5.3-26.6,11.9l0,2.6c0,6.6,11.8,12.1,26.4,12.1c14.6,0.1,26.5-5.3,26.6-11.9
						l0-2.6C381.5,387.5,369.7,382,355,382L355,382z M355,382"/>
				</g>
				<path class="st13" d="M354.9,414.5c-12.8-0.1-23.4-4.2-25.9-9.7c-0.4,0.8-0.6,1.6-0.6,2.5l0,2.6c0,6.6,11.8,12.1,26.4,12.1
					c14.6,0.1,26.5-5.3,26.6-11.9l0-2.6c0-0.8-0.2-1.7-0.5-2.5C378.3,410.5,367.7,414.6,354.9,414.5L354.9,414.5z M354.9,416.8"/>
				<path class="st13" d="M354.8,427.9c-12.8-0.1-23.4-4.2-25.9-9.7c-0.4,0.8-0.6,1.6-0.6,2.5l0,2.6c0,6.6,11.8,12.1,26.4,12.1
					c14.6,0.1,26.5-5.3,26.6-11.9l0-2.6c0-0.8-0.2-1.7-0.5-2.5C378.3,423.9,367.6,428,354.8,427.9L354.8,427.9z M354.5,430.3"/>
			</g>
		</g>
		<g>
			<g>
				<g>
					<path class="st12" d="M354,538c-11.9-0.1-21.6,4.3-21.6,9.7l0,2.1c0,5.4,9.6,9.8,21.6,9.9c11.9,0.1,21.6-4.3,21.6-9.7l0-2.1
						C375.6,542.5,366,538.1,354,538L354,538z M354,538"/>
				</g>
				<path class="st12" d="M353.9,570.4c-12.8-0.1-23.4-2.7-25.9-8.2c-0.4,0.8-0.5-2.1-0.6-1.3l0,2.6c0,6.6,11.8,12.1,26.4,12.1
					c14.6,0.1,26.5-5.3,26.6-11.9l0-2.6c0-0.8-0.2,2.1-0.6,1.3C377.3,567.9,366.6,570.5,353.9,570.4L353.9,570.4z M353.9,571.9"/>
				<path class="st12" d="M353.5,583.9c-12.8-0.1-23.4-4.2-25.9-9.7c-0.4,0.8-0.3-0.7-0.3,0.1l0,2.6c0,6.6,11.8,12.1,26.4,12.1
					c14.6,0.1,26.2-5.5,26.3-12.1l0,0c0-0.8-0.2-1.7-0.5-2.5C377,579.9,366.3,583.9,353.5,583.9L353.5,583.9z M353.5,583.9"/>
			</g>
			<g>
				<g>
					<path class="st13" d="M354,535.6c-14.6-0.1-26.5,5.3-26.6,11.9l0,2.6c0,6.6,11.8,12.1,26.4,12.1c14.6,0.1,26.5-5.3,26.6-11.9
						l0-2.6C380.5,541.1,368.7,535.6,354,535.6L354,535.6z M354,535.6"/>
				</g>
				<path class="st13" d="M353.9,568.1c-12.8-0.1-23.4-4.2-25.9-9.7c-0.4,0.8-0.6,1.6-0.6,2.5l0,2.6c0,6.6,11.8,12.1,26.4,12.1
					c14.6,0.1,26.5-5.3,26.6-11.9l0-2.6c0-0.8-0.2-1.7-0.5-2.5C377.3,564.1,366.7,568.2,353.9,568.1L353.9,568.1z M353.9,570.4"/>
				<path class="st13" d="M353.8,581.5c-12.8-0.1-23.4-4.2-25.9-9.7c-0.4,0.8-0.6,1.6-0.6,2.5l0,2.6c0,6.6,11.8,12.1,26.4,12.1
					c14.6,0.1,26.5-5.3,26.6-11.9l0-2.6c0-0.8-0.2-1.7-0.5-2.5C377.3,577.5,366.6,581.6,353.8,581.5L353.8,581.5z M353.5,583.9"/>
			</g>
		</g>
		<g>
			<g>
				<g>
					<path class="st12" d="M352.1,689.2c-11.9-0.1-21.6,4.3-21.6,9.7l0,2.1c0,5.4,9.6,9.8,21.6,9.9c11.9,0.1,21.6-4.3,21.6-9.7
						l0-2.1C373.6,693.7,364,689.2,352.1,689.2L352.1,689.2z M352.1,689.2"/>
				</g>
				<path class="st12" d="M351.9,721.5c-12.8-0.1-23.4-2.7-25.9-8.2c-0.4,0.8-0.5-2.1-0.6-1.3l0,2.6c0,6.6,11.8,12.1,26.4,12.1
					c14.6,0.1,26.5-5.3,26.6-11.9l0-2.6c0-0.8-0.2,2.1-0.6,1.3C375.4,719,364.7,721.6,351.9,721.5L351.9,721.5z M351.9,723"/>
				<path class="st12" d="M351.6,735c-12.8-0.1-23.4-4.2-25.9-9.7c-0.4,0.8-0.3-0.7-0.3,0.1l0,2.6c0,6.6,11.8,12.1,26.4,12.1
					c14.6,0.1,26.2-5.5,26.3-12.1l0,0c0-0.8-0.2-1.7-0.5-2.5C375,731,364.3,735.1,351.6,735L351.6,735z M351.6,735"/>
			</g>
			<g>
				<g>
					<path class="st13" d="M352.1,686.7c-14.6-0.1-26.5,5.3-26.6,11.9l0,2.6c0,6.6,11.8,12.1,26.4,12.1c14.6,0.1,26.5-5.3,26.6-11.9
						l0-2.6C378.5,692.2,366.7,686.8,352.1,686.7L352.1,686.7z M352.1,686.7"/>
				</g>
				<path class="st13" d="M351.9,719.2c-12.8-0.1-23.4-4.2-25.9-9.7c-0.4,0.8-0.6,1.6-0.6,2.5l0,2.6c0,6.6,11.8,12.1,26.4,12.1
					c14.6,0.1,26.5-5.3,26.6-11.9l0-2.6c0-0.8-0.2-1.7-0.5-2.5C375.4,715.3,364.7,719.3,351.9,719.2L351.9,719.2z M351.9,721.5"/>
				<path class="st13" d="M351.9,732.7c-12.8-0.1-23.4-4.2-25.9-9.7c-0.4,0.8-0.6,1.6-0.6,2.5l0,2.6c0,6.6,11.8,12.1,26.4,12.1
					c14.6,0.1,26.5-5.3,26.6-11.9l0-2.6c0-0.8-0.2-1.7-0.5-2.5C375.3,728.7,364.6,732.7,351.9,732.7L351.9,732.7z M351.6,735"/>
			</g>
		</g>
		<g>
			<g>
				<g>
					<path class="st12" d="M579.8,508.6c-11.9-0.1-21.6,4.3-21.6,9.7l0,2.1c0,5.4,9.6,9.8,21.6,9.9c11.9,0.1,21.6-4.3,21.6-9.7
						l0-2.1C601.4,513,591.7,508.6,579.8,508.6L579.8,508.6z M579.8,508.6"/>
				</g>
				<path class="st12" d="M579.6,540.9c-12.8-0.1-23.4-2.7-25.9-8.2c-0.4,0.8-0.5-2.1-0.6-1.3l0,2.6c0,6.6,11.8,12.1,26.4,12.1
					c14.6,0.1,26.5-5.3,26.6-11.9l0-2.6c0-0.8-0.2,2.1-0.6,1.3C603.1,538.4,592.4,541,579.6,540.9L579.6,540.9z M579.6,542.4"/>
				<path class="st12" d="M579.3,554.4c-12.8-0.1-23.4-4.2-25.9-9.7c-0.4,0.8-0.3-0.7-0.3,0.1l0,2.6c0,6.6,11.8,12.1,26.4,12.1
					c14.6,0.1,26.2-5.5,26.3-12.1l0,0c0-0.8-0.2-1.7-0.5-2.5C602.7,550.4,592.1,554.5,579.3,554.4L579.3,554.4z M579.3,554.4"/>
				<path class="st12" d="M579.5,569.1c-12.8-0.1-23.4-4.2-25.9-9.7c-0.4,0.8-0.6-1.3-0.6-0.5l0,2.6c0,6.6,11.8,12.1,26.4,12.1
					c14.6,0.1,26.5-5.3,26.6-11.9l0,0.3c0-0.8-0.2-1.7-0.5-2.5C602.9,565.1,592.3,569.2,579.5,569.1L579.5,569.1z M579.5,569.1"/>
				<path class="st12" d="M579.4,582.2c-12.8-0.1-23.4-4.2-25.9-9.7c-0.4,0.8-0.6-1-0.6-0.2l0,2.6c0,6.6,11.8,12.1,26.4,12.1
					c14.6,0.1,26.5-5.3,26.6-11.9l0,0c0-0.8-0.2-1.7-0.5-2.5C602.9,578.2,592.2,582.3,579.4,582.2L579.4,582.2z M579.4,582.2"/>
			</g>
			<g>
				<g>
					<path class="st13" d="M579.8,506.1c-14.6-0.1-26.5,5.3-26.6,11.9l0,2.6c0,6.6,11.8,12.1,26.4,12.1c14.6,0.1,26.5-5.3,26.6-11.9
						l0-2.6C606.3,511.6,594.4,506.2,579.8,506.1L579.8,506.1z M579.8,506.1"/>
				</g>
				<path class="st13" d="M579.6,538.6c-12.8-0.1-23.4-4.2-25.9-9.7c-0.4,0.8-0.6,1.6-0.6,2.5l0,2.6c0,6.6,11.8,12.1,26.4,12.1
					c14.6,0.1,26.5-5.3,26.6-11.9l0-2.6c0-0.8-0.2-1.7-0.5-2.5C603.1,534.6,592.4,538.7,579.6,538.6L579.6,538.6z M579.6,540.9"/>
				<path class="st13" d="M579.6,552c-12.8-0.1-23.4-4.2-25.9-9.7c-0.4,0.8-0.6,1.6-0.6,2.5l0,2.6c0,6.6,11.8,12.1,26.4,12.1
					c14.6,0.1,26.5-5.3,26.6-11.9l0-2.6c0-0.8-0.2-1.7-0.5-2.5C603,548.1,592.3,552.1,579.6,552L579.6,552z M579.3,554.4"/>
				<path class="st13" d="M579.5,566.2c-12.8-0.1-23.4-4.2-25.9-9.7c-0.4,0.8-0.6,1.6-0.6,2.5l0,2.6c0,6.6,11.8,12.1,26.4,12.1
					c14.6,0.1,26.5-5.3,26.6-11.9l0-2.6c0-0.8-0.2-1.7-0.5-2.5C603,562.2,592.3,566.2,579.5,566.2L579.5,566.2z M579.5,569.1"/>
				<path class="st13" d="M579.4,579.6c-12.8-0.1-23.4-4.2-25.9-9.7c-0.4,0.8-0.6,1.6-0.6,2.5l0,2.6c0,6.6,11.8,12.1,26.4,12.1
					c14.6,0.1,26.5-5.3,26.6-11.9l0-2.6c0-0.8-0.2-1.7-0.5-2.5C602.9,575.6,592.2,579.7,579.4,579.6L579.4,579.6z M579.4,582.2"/>
			</g>
		</g>
		<g>
			<g>
				<path class="st14" d="M249.3,737l-2,0c-0.7,0-1.3,0.6-1.3,1.3l0,0.2l4.5,0l0-0.2C250.6,737.5,250,737,249.3,737z"/>
				<path class="st4" d="M268.4,689.9c-20.2-0.1-18.1,24.5-18.1,42.4c0,0.7,0.4,1.3,0.9,1.6c2.2,1.4,8.4,4.6,17,4.6s14.7-3.1,17-4.4
					c0.6-0.3,0.9-1,0.9-1.6C286.3,714.6,288.7,690,268.4,689.9z"/>
				<path class="st5" d="M267.1,689.9c-18.8,1-16.8,24.9-16.8,42.3c0,0.7,0.4,1.3,0.9,1.6c2.2,1.4,8.4,4.6,17,4.6l5.3-35.8"/>
				<path class="st4" d="M268.4,689.9c-11.5-0.1-12.4,13.9-12.4,13.9c6.6-1.1,10.7,1.7,17.4-1l-5.3,35.8c8.6,0,14.7-3.1,17-4.4
					c0.6-0.3,0.9-1,0.9-1.6C286.3,714.6,288.7,690,268.4,689.9z"/>
				<path class="st6" d="M286.1,732.4c0.2-15.3,1.9-35.6-10.4-41.1c-0.2,1.1-0.6,4.2,0.4,6.3c2.5,5.1,5.1,5.1,7.6,9
					c2.5,14.1-5,29-7.5,31l0,0c4.4-1,7.5-2.7,9-3.5C285.8,733.7,286.1,733.1,286.1,732.4z"/>
				<path class="st7" d="M287.6,736.3l-11.4-4.8c-1-0.4-1.6-1.3-1.6-2.4l0-3.1l-12.8-0.1l0,3.1c0,1-0.6,2-1.6,2.4l-11.4,4.7
					c-1.4,0.6-2.4,2-2.4,3.5l0,5.1c0,1.4,1.1,2.6,2.5,2.6l38.4,0.2c1.4,0,2.6-1.1,2.6-2.5l0-5.1C289.9,738.3,289,736.9,287.6,736.3z
					"/>
				<path class="st8" d="M287.6,736.3l-11-4.6l-8.4,3.6l-8.3-3.6l-11.1,4.5c-1.4,0.6-2.4,2-2.4,3.5l0,5.1c0,1.4,1.1,2.6,2.5,2.6
					l38.4,0.2c1.4,0,2.6-1.1,2.6-2.5l0-5.1C289.9,738.3,289,736.9,287.6,736.3z"/>
				<path class="st9" d="M274.6,726.1l-12.8-0.1l0,3.1c0,1-0.6,2-1.6,2.4l-1.8,0.7C272.1,735.7,274.6,726.1,274.6,726.1z"/>
				<g>
					<path class="st10" d="M252.7,741.1l-5.1-4.1c-0.7,0.7-1.1,1.6-1.1,2.7l0,5.1c0,1.4,1.1,2.6,2.5,2.6l5.1,0l0-3.3
						C254.1,742.9,253.6,741.8,252.7,741.1z"/>
					<path class="st10" d="M289.9,745l0-5.1c0-1-0.4-2-1.1-2.7l-5.2,4c-0.9,0.7-1.4,1.8-1.5,3l0,3.3l5.1,0
						C288.7,747.5,289.9,746.4,289.9,745z"/>
					<path class="st10" d="M268.2,744.9L268.2,744.9c-0.7,0-1.3-0.6-1.3-1.3l0-8.4l2.6,0l0,8.4C269.4,744.3,268.9,744.9,268.2,744.9
						z"/>
					<path class="st10" d="M268.2,735.2l-7.3-5.5c-0.5-0.4-1.1-0.2-1.5,0.2l-1.5,2.2l4.5,6.3c0.3,0.5,1,0.6,1.5,0.2L268.2,735.2z"/>
					<path class="st10" d="M268.2,735.2l7.3-5.5c0.5-0.4,1.1-0.2,1.5,0.3l1.4,2.2l-4.5,6.3c-0.3,0.5-1,0.6-1.5,0.2L268.2,735.2z"/>
				</g>
				<path class="st11" d="M274.8,701.4c-6.4,6.4-19,1.2-19,11.4l0.8,7.5c0.1,1.7,1.1,3.2,2.6,4l7.3,4.1c1.2,0.6,2.6,0.7,3.7,0l7.3-4
					c1.5-0.8,2.5-2.3,2.6-4l1-8.9c0.1-0.6,0.1-1.3,0.1-1.9C280.6,706.4,276,704,274.8,701.4z"/>
				<path class="st7" d="M255.8,712.9l0.8,7.5c0.1,1.7,1.1,3.2,2.6,4l7.3,4.1c0.8,0.5,1.7,0.6,2.6,0.4l0,0c0,0-3.7-1.1-5.8-7.1
					c-0.7-1.8-1.5-11.4-0.7-12.6c1.6-2.3,10.4-2.5,13-6.8c-0.1-0.2-0.2-0.3-0.4-0.5c0,0,0,0,0,0c-0.1-0.2-0.2-0.3-0.3-0.5
					C268.3,707.8,255.8,702.6,255.8,712.9z"/>
				<path class="st10" d="M278.4,744.9l-5.1,0c-0.7,0-1.3,0.6-1.3,1.3l0,1.3l7.7,0l0-1.3C279.7,745.5,279.1,744.9,278.4,744.9z"/>
			</g>
			<g>
				<polygon class="st7" points="200.5,730.5 200.5,723.6 182.9,723.5 182.9,730.4 191.6,738.3 				"/>
				<path class="st15" d="M214.1,733.8l-12.1-2.9c-0.2,0-0.4-0.1-0.5-0.2l-9.8,5.7l-9.4-6c-0.2,0.2-0.5,0.4-0.9,0.5l-12.1,2.8
					c-1.8,0.4-3,2-3,3.8l0,7.7c0,1.1,0.9,2,1.9,2l47,0.2c1.1,0,2-0.9,2-1.9l0-7.7C217.1,735.8,215.9,734.2,214.1,733.8z"/>
				<path class="st9" d="M182.9,723.5l0,7.2c11.1,4.1,17.7-5.9,17.7-5.9l0-1.2L182.9,723.5L182.9,723.5z"/>
				<path class="st11" d="M179.1,701l0.8,18.8c0.1,1.8,0.9,3.4,2.3,4.4l4,3.1c1,0.8,2.2,1.2,3.5,1.2l3.9,0c1.3,0,2.5-0.4,3.5-1.2
					l4.1-3c1.4-1,2.3-2.7,2.4-4.4l0.9-18.8L179.1,701L179.1,701z"/>
				<path class="st7" d="M188.9,705c3.9,0,9.8-0.9,11.2-3.9l-21-0.1l0.8,18.8c0.1,1.8,0.9,3.4,2.3,4.4l4,3.1c1,0.8,2.2,1.2,3.5,1.2
					l2,0c-2,0-5.9-3.9-5.8-8.8c0-2.4,0-8.8,0.1-11.7C185.9,706.9,186.9,705,188.9,705z"/>
				<path class="st14" d="M209.9,740.8l6.4-5.7c0.5,0.7,0.8,1.5,0.8,2.4l0,7.7c0,1.1-0.9,2-2,1.9l-6.9,0l0-2.7
					C208.3,743.1,208.9,741.7,209.9,740.8z"/>
				<polygon class="st16" points="194,747.1 189.1,747.1 189.8,738.3 193.5,738.3 				"/>
				<path class="st17" d="M194.1,736.3l-4.9,0l0,0.6c0,1.3,1.1,2.4,2.4,2.4l0.2,0c1.3,0,2.4-1.1,2.4-2.4L194.1,736.3L194.1,736.3z"
					/>
				<g>
					<path class="st14" d="M182.7,728.2l8.9,8.1c0,0-2.5,1.3-5.6,3.8c-0.6,0.5-1.6,0.3-1.9-0.4l-4.2-9.3l1.3-2
						C181.6,727.9,182.3,727.8,182.7,728.2z"/>
					<path class="st14" d="M200.6,728.3l-9,8c0,0,2.5,1.3,5.6,3.8c0.6,0.5,1.6,0.3,1.9-0.4l4.2-9.2l-1.3-2
						C201.8,728,201.1,727.9,200.6,728.3z"/>
				</g>
				<path class="st6" d="M197.8,694.6l0.9,6.5c4.2,0.9,4.8,7.4,4.8,9.3c0,0.3,0.1,0.7,0.3,1l1.6,2.5c0,0-0.5-4.1,2-6.8
					C207.4,707,208.3,690.7,197.8,694.6z"/>
				<path class="st11" d="M206.4,713.4l-1.1,4.4c-0.1,0.5-0.6,0.9-1.1,0.9l0,0c-0.6,0-1.1-0.4-1.2-1l-0.5-4.5
					c-0.1-1.2,0.8-2.3,2-2.3h0C205.7,710.9,206.7,712.2,206.4,713.4z"/>
				<path class="st4" d="M180.1,692.8l1.4,1c-6.6,4.8-5.4,13.1-5.4,13.1c1.9,2,1.9,6.9,1.9,6.9l2-1.9c0,0-0.7-5.7,3-7.8
					c3.4-2,6.4-0.9,9.5-0.9c8.2,0,10.5-3,10.1-6.8c-0.2-1.9-3.2-6-10.7-5.9C188.8,690.3,183,691.2,180.1,692.8z"/>
				<path class="st5" d="M179.4,702.1c0,0-1-4.1,2.1-8.3c-6.6,4.8-5.4,13.1-5.4,13.1c1.9,2,1.9,6.9,1.9,6.9l2-1.9c0,0-0.7-5.7,3-7.8
					c3.4-2,6.4-0.9,9.5-0.9c1.3,0,2.5-0.1,3.5-0.2C189.7,703,186,698.2,179.4,702.1z"/>
				<path class="st7" d="M177.1,713.3l1.1,4.4c0.1,0.5,0.6,0.9,1.1,0.9l0,0c0.6,0,1.1-0.4,1.2-1l0.6-4.5c0.2-1.2-0.8-2.3-2-2.3l0,0
					C177.8,710.8,176.8,712,177.1,713.3z"/>
				<path class="st14" d="M203.3,745.2l-4.9,0c-1.1,0-2,0.9-2,1.9l0,0l8.8,0l0,0C205.3,746.1,204.4,745.2,203.3,745.2z"/>
			</g>
			<g>
				<path class="st4" d="M228.3,679.8c-25.8-0.1-23.1,31.3-23.1,54.1c0,0.9,0.4,1.6,1.2,2.1c2.9,1.7,10.7,5.8,21.6,5.9
					s18.8-3.9,21.7-5.7c0.7-0.4,1.2-1.2,1.2-2.1C251.1,711.3,254.1,679.9,228.3,679.8z"/>
				<path class="st5" d="M226.6,679.8c-24,1.2-21.5,31.8-21.5,54c0,0.9,0.4,1.6,1.2,2.1c2.9,1.7,10.7,5.8,21.6,5.9l6.7-45.7"/>
				<path class="st4" d="M228.3,679.8c-14.7-0.1-15.8,17.7-15.8,17.7c8.5-1.4,13.7,2.2,22.3-1.3l-6.7,45.7
					c10.9,0.1,18.8-3.9,21.7-5.7c0.7-0.4,1.2-1.2,1.2-2.1C251.1,711.3,254.1,679.9,228.3,679.8z"/>
				<path class="st6" d="M250.9,734.1c0.2-19.6,2.4-45.5-13.3-52.5c-0.3,1.4-0.8,5.4,0.5,8c3.2,6.5,6.5,6.6,9.7,11.5
					c3.2,18-6.4,37-9.6,39.6l0,0c5.6-1.3,9.6-3.4,11.5-4.5C250.4,735.7,250.9,734.9,250.9,734.1z"/>
				<path class="st7" d="M252.7,739.1l-14.5-6.1c-1.2-0.5-2-1.7-2-3l0-3.9l-16.3-0.1l0,3.9c0,1.3-0.8,2.5-2,3l-14.6,6
					c-1.8,0.8-3,2.5-3,4.5l0,6.5c0,1.8,1.4,3.3,3.3,3.3l49,0.2c1.8,0,3.3-1.4,3.3-3.3l0-6.5C255.7,741.6,254.5,739.8,252.7,739.1z"
					/>
				<path class="st15" d="M252.7,739.1l-14.1-5.9l-10.7,4.5l-10.6-4.6l-14.1,5.8c-1.8,0.8-3,2.5-3,4.5l0,6.5c0,1.8,1.4,3.3,3.3,3.3
					l49,0.2c1.8,0,3.3-1.4,3.3-3.3l0-6.5C255.7,741.6,254.5,739.8,252.7,739.1z"/>
				<path class="st9" d="M236.2,725.9l-16.3-0.1l0,3.9c0,1.3-0.8,2.5-2,3l-2.3,0.9C232.9,738.3,236.2,725.9,236.2,725.9z"/>
				<g>
					<path class="st14" d="M208.2,745.2l-6.5-5.2c-0.9,0.9-1.4,2.1-1.4,3.4l0,6.5c0,1.8,1.4,3.3,3.3,3.3l6.5,0l0-4.2
						C210,747.5,209.3,746.1,208.2,745.2z"/>
					<path class="st14" d="M255.7,750.1l0-6.5c0-1.3-0.5-2.5-1.4-3.4l-6.6,5.2c-1.2,0.9-1.8,2.3-1.9,3.8l0,4.2l6.5,0
						C254.2,753.4,255.7,751.9,255.7,750.1z"/>
					<path class="st14" d="M228.2,750l-0.5,0c-0.8,0-1.4-0.6-1.4-1.4l0.1-10.9l3.3,0l-0.1,10.9C229.6,749.4,228.9,750,228.2,750z"/>
					<path class="st14" d="M228,737.7l-9.3-7.1c-0.6-0.5-1.5-0.3-1.9,0.3l-1.9,2.8l5.7,8c0.4,0.6,1.3,0.7,1.9,0.3L228,737.7z"/>
					<path class="st14" d="M228,737.7l9.4-7c0.6-0.4,1.5-0.3,1.9,0.3l1.8,2.8l-5.8,8c-0.4,0.6-1.3,0.7-1.9,0.3L228,737.7z"/>
				</g>
				<path class="st11" d="M236.4,694.5c-8.2,8.1-24.2,1.5-24.3,14.6l1,9.6c0.2,2.2,1.4,4.1,3.3,5.1l9.3,5.2c1.5,0.8,3.3,0.8,4.8,0
					l9.3-5.1c1.9-1,3.2-3,3.4-5.1l1.2-11.4c0.1-0.8,0.1-1.6,0.1-2.4C243.8,700.8,238,697.8,236.4,694.5z"/>
				<path class="st7" d="M212.1,709.1l1,9.6c0.2,2.2,1.4,4.1,3.3,5.1l9.3,5.2c1,0.6,2.2,0.7,3.3,0.5l0,0c0,0-4.7-1.4-7.4-9
					c-0.8-2.3-2-14.6-0.9-16.1c2-2.9,13.3-3.2,16.6-8.7c-0.2-0.2-0.3-0.4-0.5-0.6c0,0,0,0,0,0c-0.1-0.2-0.3-0.4-0.4-0.7
					C228.2,702.6,212.2,696,212.1,709.1z"/>
			</g>
		</g>
		<text transform="matrix(1 4.710000e-03 -4.710000e-03 1 164.6243 465.479)" class="st2 st3">Inversionista A</text>
		<text transform="matrix(1 4.710000e-03 -4.710000e-03 1 487.2979 618.7301)"><tspan x="0" y="0" class="st2 st3">El fondo de inversión</tspan><tspan x="-17.2" y="24.5" class="st2 st3">es un patrimonio común.</tspan></text>
		<g>
			<polygon class="st7" points="248.4,400.2 248.4,387.5 215.8,387.3 215.8,400 232,414.6 			"/>
			<path class="st18" d="M273.5,406.2l-22.4-5.4c-0.3-0.1-0.6-0.2-0.9-0.4L232,410.9l-17.4-11.2c-0.5,0.4-1,0.7-1.7,0.9l-22.4,5.2
				c-3.3,0.8-5.6,3.7-5.6,7l-0.1,14.2c0,2,1.6,3.6,3.6,3.6l86.9,0.4c2,0,3.6-1.6,3.6-3.6l0.1-14.2
				C279.1,409.9,276.8,407,273.5,406.2z"/>
			<path class="st9" d="M215.8,387.3l-0.1,13.4c20.5,7.5,32.6-11,32.6-11l0-2.3L215.8,387.3L215.8,387.3z"/>
			<path class="st11" d="M208.8,345.7l1.4,34.7c0.1,3.2,1.7,6.3,4.3,8.2l7.5,5.6c1.9,1.4,4.2,2.2,6.5,2.2l7.2,0
				c2.3,0,4.6-0.7,6.5-2.1l7.5-5.6c2.6-1.9,4.2-4.9,4.4-8.2l1.7-34.7L208.8,345.7z"/>
			<path class="st7" d="M226.9,353c7.2,0,18.1-1.7,20.7-7.1l-38.8-0.2l1.4,34.7c0.1,3.2,1.7,6.3,4.3,8.2l7.5,5.6
				c1.9,1.4,4.2,2.2,6.5,2.2l3.6,0c-3.6,0-10.8-7.3-10.8-16.3c0-4.4,0.1-16.3,0.1-21.7C221.4,356.6,223.2,353,226.9,353z"/>
			<g>
				<path class="st16" d="M265.7,419.3l11.8-10.5c1,1.2,1.5,2.8,1.5,4.5l-0.1,14.2c0,2-1.6,3.6-3.6,3.6l-12.7-0.1l0-5
					C262.7,423.4,263.8,421,265.7,419.3z"/>
				<path class="st16" d="M198.2,418.9l-11.7-10.6c-1,1.2-1.6,2.8-1.6,4.5l-0.1,14.2c0,2,1.6,3.6,3.6,3.6l12.7,0.1l0-5
					C201.2,423.1,200.1,420.7,198.2,418.9z"/>
				<polygon class="st16" points="236.4,430.9 227.4,430.8 228.6,414.5 235.4,414.6 				"/>
			</g>
			<path class="st17" d="M236.5,411l-9,0l0,2c0,1.9,1.5,3.4,3.4,3.4l2.2,0c1.9,0,3.4-1.5,3.4-3.4L236.5,411z"/>
			<g>
				<path class="st16" d="M215.5,396l16.5,15c0,0-4.6,2.3-10.4,7c-1.2,1-3,0.6-3.6-0.8l-7.7-17.1l2.5-3.7
					C213.4,395.4,214.7,395.2,215.5,396z"/>
				<path class="st16" d="M248.6,396.1L232,410.9c0,0,4.6,2.4,10.3,7.1c1.2,1,3,0.6,3.6-0.8l7.9-17.1l-2.4-3.7
					C250.7,395.6,249.5,395.4,248.6,396.1z"/>
			</g>
			<path class="st6" d="M243.4,333.9l1.6,12c7.7,1.6,8.8,13.7,8.9,17.2c0,0.6,0.2,1.2,0.6,1.8l2.9,4.6c0,0-1-7.6,3.7-12.7
				C261.1,356.8,262.8,326.7,243.4,333.9z"/>
			<path class="st11" d="M259.2,368.7l-2.1,8.2c-0.2,1-1.1,1.6-2.1,1.6l0,0c-1.1,0-2-0.8-2.1-1.9l-1-8.4c-0.3-2.2,1.5-4.2,3.7-4.2
				l0,0C258.1,364,259.8,366.3,259.2,368.7z"/>
			<path class="st4" d="M210.6,330.5l2.7,1.8c-12.1,8.9-10,24.2-10,24.2c3.6,3.6,3.6,12.7,3.6,12.7l3.6-3.6c0,0-1.3-10.5,5.5-14.5
				c6.4-3.7,11.9-1.8,17.5-1.7c15.2,0.1,19.4-5.6,18.7-12.6c-0.4-3.6-5.8-11.1-19.9-11C226.8,326,216.1,327.6,210.6,330.5z"/>
			<path class="st5" d="M209.5,347.7c0,0-1.9-7.6,3.8-15.4c-12.1,8.9-10,24.2-10,24.2c3.6,3.6,3.6,12.7,3.6,12.7l3.6-3.6
				c0,0-1.3-10.5,5.5-14.5c6.4-3.7,11.9-1.8,17.5-1.7c2.5,0,4.6-0.1,6.5-0.4C228.4,349.3,221.6,340.5,209.5,347.7z"/>
			<path class="st7" d="M205.2,368.4l2,8.2c0.2,1,1.1,1.7,2.1,1.7l0,0c1.1,0,2-0.8,2.2-1.9l1.1-8.4c0.3-2.2-1.4-4.2-3.7-4.2l0,0
				C206.4,363.8,204.6,366.1,205.2,368.4z"/>
			<path class="st16" d="M254.4,427.3l-10.6-0.1c-1.6,0-2.8,1.3-2.8,2.8l0,0.8l16.3,0.1l0-0.8C257.3,428.6,256,427.3,254.4,427.3z"
				/>
		</g>
		<polyline class="st1" points="406,714.2 581.7,715 582.1,674.5 		"/>
		<line class="st1" x1="400.1" y1="557.8" x2="532.3" y2="558.4"/>
		<polyline class="st1" points="579.8,481.1 580.2,412.6 400.8,411.9 		"/>
	</g>
	<polyline class="st1" points="636.4,552.1 756.4,552.1 756.4,740.1 	"/>
	<g>
		<path class="st19" d="M759,869.8c13-36.4,45.9-24.4,45.9-24.4l0.4,0.1c0,0-12.2,29.7-46.2,24.5V869.8z"/>
		<path class="st19" d="M708.8,855.4c35.9-12.2,46.9,21.9,46.9,21.9l-0.1,0.2c0,0-30.8,8-47-22L708.8,855.4z"/>
		<circle class="st12" cx="757.2" cy="803.6" r="30.9"/>
		<circle class="st20" cx="757.2" cy="803.6" r="34.7"/>
		<line class="st21" x1="756" y1="838" x2="756" y2="885"/>
		<path class="st22" d="M696.7,850.1c45-15.3,58.9,27.5,58.9,27.5l-0.1,0.2c0,0-38.6,10-59-27.6L696.7,850.1z"/>
		<path class="st22" d="M812.7,838.9c-15,45.1-57.5,30.3-57.5,30.3l-0.1-0.2c0,0,15.3-36.8,57.6-30.4L812.7,838.9z"/>
		<rect x="722.1" y="886" class="st23" width="70.8" height="14.5"/>
		<polygon class="st24" points="734,937.7 780.9,937.7 790.3,900.5 724.6,900.5 		"/>
		<g>
			<path class="st20" d="M748.1,812.9c0.9,4.4,4.7,7.7,9.4,7.7c5.3,0,9.6-4.3,9.6-9.6c0-3.3-2-6-4.7-7.6c-1.4-0.9-3-1.5-4.7-1.9
				c-1.5-0.3-3.1-0.5-4.5-1.4c-0.3-0.2-0.6-0.4-0.8-0.7c-1.4-1.4-2.3-3.3-2.3-5.3c0-4.1,3.3-7.4,7.4-7.4c3,0,5.6,1.8,6.8,4.3"/>
			<line class="st21" x1="758" y1="784" x2="758" y2="825"/>
		</g>
		<line class="st22" x1="755.5" y1="869.5" x2="782.6" y2="856"/>
		<line class="st22" x1="755.4" y1="877.8" x2="734.9" y2="868"/>
		<rect x="726.1" y="888.5" class="st25" width="62.7" height="9.5"/>
		<polygon class="st25" points="737.9,934.6 777,934.6 784.8,903.6 730.1,903.6 		"/>
	</g>
	<g>
		<g>
			<g>
				<path class="st12" d="M236.2,989.5c-11.9-0.1-21.6,4.3-21.6,9.7l0,2.1c0,5.4,9.6,9.8,21.6,9.9c11.9,0.1,21.6-4.3,21.6-9.7l0-2.1
					C257.8,994,248.1,989.6,236.2,989.5L236.2,989.5z M236.2,989.5"/>
			</g>
			<path class="st12" d="M236,1021.9c-12.8-0.1-23.4-2.7-25.9-8.2c-0.4,0.8-0.5-2.1-0.6-1.3l0,2.6c0,6.6,11.8,12.1,26.4,12.1
				c14.6,0.1,26.5-5.3,26.6-11.9l0-2.6c0-0.8-0.2,2.1-0.6,1.3C259.5,1019.4,248.8,1021.9,236,1021.9L236,1021.9z M236,1023.4"/>
			<path class="st12" d="M235.7,1035.4c-12.8-0.1-23.4-4.2-25.9-9.7c-0.4,0.8-0.3-0.7-0.3,0.1l0,2.6c0,6.6,11.8,12.1,26.4,12.1
				c14.6,0.1,26.2-5.5,26.3-12.1l0,0c0-0.8-0.2-1.7-0.5-2.5C259.2,1031.4,248.5,1035.4,235.7,1035.4L235.7,1035.4z M235.7,1035.4"/>
			<path class="st12" d="M235.9,1050.1c-12.8-0.1-23.4-4.2-25.9-9.7c-0.4,0.8-0.6-1.3-0.6-0.5l0,2.6c0,6.6,11.8,12.1,26.4,12.1
				c14.6,0.1,26.5-5.3,26.6-11.9l0,0.3c0-0.8-0.2-1.7-0.5-2.5C259.4,1046.1,248.7,1050.2,235.9,1050.1L235.9,1050.1z M235.9,1050.1"
				/>
			<path class="st12" d="M235.8,1063.2c-12.8-0.1-23.4-4.2-25.9-9.7c-0.4,0.8-0.6-1-0.6-0.2l0,2.6c0,6.6,11.8,12.1,26.4,12.1
				c14.6,0.1,26.5-5.3,26.6-11.9l0,0c0-0.8-0.2-1.7-0.5-2.5C259.3,1059.2,248.6,1063.2,235.8,1063.2L235.8,1063.2z M235.8,1063.2"/>
		</g>
		<g>
			<g>
				<path class="st13" d="M236.2,987.1c-14.6-0.1-26.5,5.3-26.6,11.9l0,2.6c0,6.6,11.8,12.1,26.4,12.1c14.6,0.1,26.5-5.3,26.6-11.9
					l0-2.6C262.7,992.6,250.8,987.1,236.2,987.1L236.2,987.1z M236.2,987.1"/>
			</g>
			<path class="st13" d="M236.1,1019.6c-12.8-0.1-23.4-4.2-25.9-9.7c-0.4,0.8-0.6,1.6-0.6,2.5l0,2.6c0,6.6,11.8,12.1,26.4,12.1
				c14.6,0.1,26.5-5.3,26.6-11.9l0-2.6c0-0.8-0.2-1.7-0.5-2.5C259.5,1015.6,248.8,1019.7,236.1,1019.6L236.1,1019.6z M236,1021.9"/>
			<path class="st13" d="M236,1033c-12.8-0.1-23.4-4.2-25.9-9.7c-0.4,0.8-0.6,1.6-0.6,2.5l0,2.6c0,6.6,11.8,12.1,26.4,12.1
				c14.6,0.1,26.5-5.3,26.6-11.9l0-2.6c0-0.8-0.2-1.7-0.5-2.5C259.4,1029,248.8,1033.1,236,1033L236,1033z M235.7,1035.4"/>
			<path class="st13" d="M235.9,1047.2c-12.8-0.1-23.4-4.2-25.9-9.7c-0.4,0.8-0.6,1.6-0.6,2.5l0,2.6c0,6.6,11.8,12.1,26.4,12.1
				c14.6,0.1,26.5-5.3,26.6-11.9l0-2.6c0-0.8-0.2-1.7-0.5-2.5C259.4,1043.2,248.7,1047.2,235.9,1047.2L235.9,1047.2z M235.9,1050.1"
				/>
			<path class="st13" d="M235.9,1060.6c-12.8-0.1-23.4-4.2-25.9-9.7c-0.4,0.8-0.6,1.6-0.6,2.5l0,2.6c0,6.6,11.8,12.1,26.4,12.1
				c14.6,0.1,26.5-5.3,26.6-11.9l0-2.6c0-0.8-0.2-1.7-0.5-2.5C259.3,1056.6,248.6,1060.6,235.9,1060.6L235.9,1060.6z M235.8,1063.2"
				/>
		</g>
	</g>
	<line class="st1" x1="235.4" y1="875.1" x2="235.4" y2="813"/>
	<polyline class="st1" points="235.4,1086.3 235.4,1114.1 425.5,1114.1 	"/>
	<g>
		<text transform="matrix(1 4.710000e-03 -4.710000e-03 1 599.6951 1097.8696)"><tspan x="0" y="0" class="st2 st3">Mercado</tspan><tspan x="-7" y="24.5" class="st2 st3">de valores</tspan></text>
		<g>
			<path class="st26" d="M675.9,1013.5c-0.2-0.4-0.7-0.6-1.1-0.6l-8.8,0.2c-0.6,0-1.1,0.4-1.2,1c-0.1,0.6,0.2,1.2,0.7,1.4l2.1,1
				l-28.1,19.8l-19.6-17.3c-0.8-0.7-2.1-0.7-2.9,0l-14,12.5c-0.9,0.8-1,2.2-0.2,3.1c0.8,0.9,2.2,1,3.1,0.2l12.5-11.2l19.5,17.2
				c0.4,0.4,0.9,0.6,1.5,0.6c0.4,0,0.9-0.1,1.3-0.4l29.4-20.7l0.1,1.9c0,0.6,0.5,1.1,1.1,1.2c0.1,0,0.2,0,0.2,0c0.5,0,1-0.3,1.2-0.8
				l3.5-7.8C676.2,1014.4,676.1,1013.9,675.9,1013.5L675.9,1013.5z"/>
			<path class="st26" d="M665.3,1030.3c-0.5-0.3-1.1-0.2-1.5,0.1L638,1049l-16.6-15.6c-0.6-0.5-1.4-0.5-2,0l-13.8,12.5
				c-0.3,0.3-0.5,0.7-0.5,1.1v14.9c0,0.8,0.7,1.5,1.5,1.5h58.1c0.8,0,1.5-0.7,1.5-1.5v-30.3C666.2,1031.1,665.8,1030.5,665.3,1030.3
				L665.3,1030.3z"/>
			<g>
				<g>
					<path class="st27" d="M667.8,1026.8c-0.5-0.3-1.2-0.2-1.7,0.1l-27.9,20.2l-18-16.9c-0.6-0.6-1.6-0.6-2.2,0l-15,13.5
						c-0.3,0.3-0.5,0.7-0.5,1.2v18.4c0,0.9,0.7,1.6,1.6,1.6h63c0.9,0,1.6-0.7,1.6-1.6v-35.1C668.7,1027.6,668.4,1027.1,667.8,1026.8
						L667.8,1026.8z"/>
					<path class="st27" d="M676.5,1012.5c-0.3-0.4-0.8-0.7-1.3-0.7l-10.2,0.3c-0.7,0-1.3,0.5-1.4,1.2c-0.1,0.7,0.2,1.4,0.8,1.7
						l2.4,1.2l-28.2,20.1l-19.2-17.4c-1-0.9-2.4-0.9-3.4,0l-16.3,14.5c-1,0.9-1.1,2.5-0.2,3.6c0.9,1,2.5,1.1,3.6,0.2l14.6-13
						l19.1,17.3c0.5,0.4,1.1,0.7,1.7,0.7c0.5,0,1-0.2,1.5-0.5l29.8-21.2l0.1,2.2c0,0.7,0.6,1.3,1.2,1.4c0.1,0,0.2,0,0.3,0
						c0.6,0,1.1-0.3,1.4-0.9l4-9.1C676.8,1013.5,676.8,1013,676.5,1012.5L676.5,1012.5z M676.5,1012.5"/>
				</g>
			</g>
			<g>
				<polygon class="st27" points="610.5,1061.7 606.8,1061.7 606.8,1046.2 610.5,1042.9 				"/>
				<polygon class="st27" points="617.2,1061.7 613.6,1061.7 613.6,1040.1 617.2,1036.8 				"/>
				<polygon class="st27" points="623.9,1061.7 620.3,1061.7 620.3,1035.2 623.9,1038.6 				"/>
				<polygon class="st27" points="630.6,1061.7 627,1061.7 627,1041.5 630.6,1044.9 				"/>
				<path class="st27" d="M637.4,1061.7h-3.7v-13.9l3.2,3c0.2,0.1,0.3,0.3,0.5,0.3V1061.7z"/>
				<polygon class="st27" points="644.2,1061.7 640.5,1061.7 640.5,1049.7 644.2,1047.1 				"/>
				<polygon class="st27" points="651,1061.7 647.3,1061.7 647.3,1044.8 651,1042.2 				"/>
				<polygon class="st27" points="657.7,1061.7 654.1,1061.7 654.1,1039.9 657.7,1037.3 				"/>
				<polygon class="st27" points="664.3,1061.7 660.8,1061.7 660.8,1035 664.3,1032.5 				"/>
				<path class="st27" d="M664.3,1061.7"/>
			</g>
		</g>
	</g>
	<g>
		<text transform="matrix(1 4.710000e-03 -4.710000e-03 1 484.0755 1096.9265)" class="st2 st3">Bancos</text>
		<g>
			<path class="st26" d="M495.7,1052.7c-1.3,0-2.4,1.1-2.4,2.4c0,1.3,1.1,2.4,2.4,2.4h41.5c1.3,0,2.4-1.1,2.4-2.4
				c0-1.3-1.1-2.4-2.4-2.4h-0.6v-21.3h0.6c0.7,0,1.2-0.5,1.2-1.2c0-0.7-0.5-1.2-1.2-1.2h-41.5c-0.7,0-1.2,0.5-1.2,1.2
				c0,0.7,0.5,1.2,1.2,1.2h0.6v21.3L495.7,1052.7L495.7,1052.7z"/>
			<g>
				<path class="st27" d="M542.3,1060.3h-51.7c-1.4,0-2.6,1.2-2.6,2.6c0,1.4,1.2,2.6,2.6,2.6h51.7c1.4,0,2.6-1.2,2.6-2.6
					C544.9,1061.4,543.7,1060.3,542.3,1060.3L542.3,1060.3z M542.3,1060.3"/>
				<g>
					<path class="st27" d="M493.9,1053.5c-1.4,0-2.6,1.2-2.6,2.6c0,1.4,1.2,2.6,2.6,2.6h45.2c1.4,0,2.6-1.2,2.6-2.6
						c0-1.4-1.2-2.6-2.6-2.6h-0.6v-23.3h0.6c0.7,0,1.3-0.6,1.3-1.3c0-0.7-0.6-1.3-1.3-1.3h-45.2c-0.7,0-1.3,0.6-1.3,1.3
						c0,0.7,0.6,1.3,1.3,1.3h0.6v23.3L493.9,1053.5L493.9,1053.5z M499.7,1030.3"/>
					<path class="st27" d="M490.6,1025.4h51.7c1.4,0,2.6-1.2,2.6-2.6c0-1.1-0.7-2.1-1.7-2.4l-25.6-11.5c-0.7-0.3-1.4-0.3-2.1,0
						l-25.8,11.6c-1.1,0.5-1.7,1.7-1.5,2.9C488.4,1024.5,489.4,1025.4,490.6,1025.4L490.6,1025.4z M490.6,1025.4"/>
				</g>
			</g>
			<rect x="525.5" y="1032.4" class="st27" width="7.8" height="18.9"/>
			<rect x="512.6" y="1032.4" class="st27" width="7.8" height="18.9"/>
			<rect x="499.7" y="1032.4" class="st27" width="7.8" height="18.9"/>
			<path class="st26" d="M497,1023.3h38.9c1.1,0,1.9-0.9,1.9-1.9c0-0.9-0.5-1.6-1.3-1.8l-19.3-8.7c-0.5-0.2-1.1-0.2-1.6,0l-19.4,8.7
				c-0.8,0.4-1.3,1.3-1.1,2.2C495.3,1022.6,496.1,1023.3,497,1023.3L497,1023.3z"/>
			<path class="st26" d="M540.9,1061.5H492c-1.4,0-2.4,0.6-2.4,1.3c0,0.7,1.1,1.3,2.4,1.3h48.9c1.4,0,2.4-0.6,2.4-1.3
				C543.4,1062.1,542.3,1061.5,540.9,1061.5L540.9,1061.5z"/>
		</g>
	</g>
	<g>
		<text transform="matrix(1 4.710000e-03 -4.710000e-03 1 733.849 1098.4819)"><tspan x="0" y="0" class="st2 st3">Otros</tspan><tspan x="-7.1" y="24.5" class="st2 st3">activos</tspan></text>
		<g>
			<g>
				<path class="st27" d="M747.4,1027.1h-13.8c-2.7,0-4.1,1.5-4.1,4.1v30.9c0,2.7,0.4,3.8,3.1,3.8h51.2c2.7,0,3.1-0.8,3.1-3.4v-31.3
					c0-2.7-1.1-4.1-3.8-4.1h-14.1L747.4,1027.1z M768.9,1027v-5.8c0-1-0.8-1.7-1.7-1.7h-18.1c-1,0-1.7,0.8-1.7,1.7v5.8 M782,1063.6"
					/>
			</g>
			<rect x="749" y="1021.1" class="st26" width="18.2" height="4.4"/>
			<path class="st26" d="M732.2,1029.2H784c0.8,0,1.5,0.7,1.5,1.5v9.3c-3.7,3.6-12.5,6.2-22.7,6.8l-0.3-2.5c0-1.4-1.1-2.5-2.5-2.5
				h-3.6c-1.4,0-2.5,1.1-2.5,2.5l-0.3,2.5c-10.2-0.6-19-3.2-22.7-6.8v-9.3C730.8,1029.9,731.4,1029.2,732.2,1029.2L732.2,1029.2z"/>
			<path class="st26" d="M784,1065h-51.7c-0.8,0-1.5-0.7-1.5-1.5v-18.8c5,3.1,13,5.2,22.2,5.8l-0.4,2.8c0,1.4,1.1,2.5,2.5,2.5h6
				c1.4,0,2.5-1.1,2.5-2.5l-0.4-2.8c9.2-0.6,17.2-2.7,22.2-5.8v18.8C785.5,1064.3,784.8,1065,784,1065L784,1065z"/>
			<path class="st27" d="M786.8,1038.9c-3.7,3.6-13.9,7.4-24.1,8l-0.3-2.5c0-1.4-1.1-2.5-2.5-2.5h-3.6c-1.4,0-2.5,1.1-2.5,2.5
				l-0.3,2.5c-10.2-0.6-20.2-4.5-23.9-8"/>
			<path class="st27" d="M729.4,1044.1c5,3.1,14.2,6,23.5,6.6l-0.4,2.8c0,1.4,1.1,2.5,2.5,2.5h6c1.4,0,2.5-1.1,2.5-2.5l-0.4-2.8
				c9.2-0.6,18.6-3.5,23.6-6.6"/>
		</g>
	</g>
	<line class="st1" x1="756.4" y1="958.1" x2="756.4" y2="997.1"/>
	<text transform="matrix(1 4.710000e-03 -4.710000e-03 1 477.7172 862.7675)"><tspan x="0" y="0" class="st2 st3">El comité de inversión</tspan><tspan x="31.6" y="24.5" class="st2 st3">evalúa las mejores</tspan><tspan x="68.9" y="49.1" class="st2 st3">oportunidades</tspan><tspan x="88.2" y="73.6" class="st2 st3">para invertir</tspan></text>
	<text transform="matrix(1 4.710000e-03 -4.710000e-03 1 172.1237 913.3849)"><tspan x="0" y="0" class="st2 st3">El rendimiento</tspan><tspan x="8.3" y="24.5" class="st2 st3">retorna a los</tspan><tspan x="3.3" y="49.1" class="st2 st3">inversionistas</tspan></text>
	<polyline class="st1" points="243.1,813 235.4,805.2 227.6,813 	"/>
	<polyline class="st1" points="748.6,740.2 756.4,748 764.1,740.2 	"/>
</g>
</svg>
