<?xml version="1.0" encoding="utf-8"?>
<!-- Generator: Adobe Illustrator 20.1.0, SVG Export Plug-In . SVG Version: 6.00 Build 0)  -->
<svg version="1.1" id="Layer_1" xmlns="http://www.w3.org/2000/svg" xmlns:xlink="http://www.w3.org/1999/xlink" x="0px" y="0px"
	 viewBox="0 0 396 162" style="enable-background:new 0 0 396 162;" xml:space="preserve">
<style type="text/css">
	.st0{fill:#E6AF78;}
	.st1{fill:#707487;}
	.st2{fill:#D29B6E;}
	.st3{fill:#F0C087;}
	.st4{fill:#5B5D6E;}
	.st5{fill:#515262;}
	.st6{fill:#785550;}
	.st7{fill:#694B4B;}
	.st8{fill:#5A4146;}
	.st9{fill:#EFF2FA;}
	.st10{fill:#E4EAF6;}
	.st11{fill:#0E3767;}
</style>
<g>
	<defs>
		<rect id="SVGID_1_" x="-2.3" y="-53.5" width="402" height="187.2"/>
	</defs>
	<clipPath id="SVGID_2_">
		<use xlink:href="#SVGID_1_"  style="overflow:visible;"/>
	</clipPath>
</g>
<g>
	<polygon class="st0" points="102.9,101.9 103,89.2 70.4,89 70.4,101.7 86.6,116.3 	"/>
	<path class="st1" d="M128.1,107.9l-22.4-5.4c-0.3-0.1-0.6-0.2-0.9-0.4l-18.2,10.5l-17.4-11.2c-0.5,0.4-1,0.7-1.7,0.9l-22.4,5.2
		c-3.3,0.8-5.6,3.7-5.6,7l-0.1,14.2c0,2,1.6,3.6,3.6,3.6l86.9,0.4c2,0,3.6-1.6,3.6-3.6l0.1-14.2
		C133.7,111.6,131.4,108.7,128.1,107.9z"/>
	<path class="st2" d="M70.4,89l-0.1,13.4c20.5,7.5,32.6-11,32.6-11l0-2.3L70.4,89L70.4,89z"/>
	<path class="st3" d="M63.4,47.4l1.4,34.7c0.1,3.2,1.7,6.3,4.3,8.2l7.5,5.6c1.9,1.4,4.2,2.2,6.5,2.2l7.2,0c2.3,0,4.6-0.7,6.5-2.1
		l7.5-5.6c2.6-1.9,4.2-4.9,4.4-8.2l1.7-34.7L63.4,47.4z"/>
	<path class="st0" d="M81.5,54.7c7.2,0,18.1-1.7,20.7-7.1l-38.8-0.2l1.4,34.7c0.1,3.2,1.7,6.3,4.3,8.2l7.5,5.6
		c1.9,1.4,4.2,2.2,6.5,2.2l3.6,0c-3.6,0-10.8-7.3-10.8-16.3c0-4.4,0.1-16.3,0.1-21.7C76,58.3,77.8,54.7,81.5,54.7z"/>
	<g>
		<path class="st4" d="M120.3,121l11.8-10.5c1,1.2,1.5,2.8,1.5,4.5l-0.1,14.2c0,2-1.6,3.6-3.6,3.6l-12.7-0.1l0-5
			C117.3,125.1,118.4,122.7,120.3,121z"/>
		<path class="st4" d="M52.8,120.6L41.1,110c-1,1.2-1.6,2.8-1.6,4.5l-0.1,14.2c0,2,1.6,3.6,3.6,3.6l12.7,0.1l0-5
			C55.8,124.8,54.7,122.4,52.8,120.6z"/>
		<polygon class="st4" points="91,132.6 82,132.5 83.2,116.2 90,116.3 		"/>
	</g>
	<path class="st5" d="M91.1,112.7l-9,0l0,2c0,1.9,1.5,3.4,3.4,3.4l2.2,0c1.9,0,3.4-1.5,3.4-3.4L91.1,112.7z"/>
	<g>
		<path class="st4" d="M70.1,97.7l16.5,15c0,0-4.6,2.3-10.4,7c-1.2,1-3,0.6-3.6-0.8l-7.7-17.1l2.5-3.7C68,97.1,69.3,96.9,70.1,97.7z
			"/>
		<path class="st4" d="M103.2,97.8l-16.6,14.8c0,0,4.6,2.4,10.3,7.1c1.2,1,3,0.6,3.6-0.8l7.9-17.1l-2.4-3.7
			C105.3,97.3,104,97.1,103.2,97.8z"/>
	</g>
	<path class="st6" d="M97.9,35.6l1.6,12c7.7,1.6,8.8,13.7,8.9,17.2c0,0.6,0.2,1.2,0.6,1.8l2.9,4.6c0,0-1-7.6,3.7-12.7
		C115.7,58.5,117.4,28.4,97.9,35.6z"/>
	<path class="st3" d="M113.8,70.4l-2.1,8.2c-0.2,1-1.1,1.6-2.1,1.6l0,0c-1.1,0-2-0.8-2.1-1.9l-1-8.4c-0.3-2.2,1.5-4.2,3.7-4.2l0,0
		C112.7,65.7,114.4,68,113.8,70.4z"/>
	<path class="st7" d="M65.2,32.2l2.7,1.8c-12.1,8.9-10,24.2-10,24.2c3.6,3.6,3.6,12.7,3.6,12.7l3.6-3.6c0,0-1.3-10.5,5.5-14.5
		c6.4-3.7,11.9-1.8,17.5-1.7c15.2,0.1,19.4-5.6,18.7-12.6c-0.4-3.6-5.8-11.1-19.9-11C81.3,27.7,70.7,29.3,65.2,32.2z"/>
	<path class="st8" d="M64.1,49.4c0,0-1.9-7.6,3.8-15.4c-12.1,8.9-10,24.2-10,24.2c3.6,3.6,3.6,12.7,3.6,12.7l3.6-3.6
		c0,0-1.3-10.5,5.5-14.5c6.4-3.7,11.9-1.8,17.5-1.7c2.5,0,4.6-0.1,6.5-0.4C83,51,76.2,42.2,64.1,49.4z"/>
	<path class="st0" d="M59.8,70.1l2,8.2c0.2,1,1.1,1.7,2.1,1.7l0,0c1.1,0,2-0.8,2.2-1.9l1.1-8.4c0.3-2.2-1.4-4.2-3.7-4.2l0,0
		C61,65.5,59.2,67.7,59.8,70.1z"/>
	<path class="st4" d="M109,129L98.4,129c-1.6,0-2.8,1.3-2.8,2.8l0,0.8l16.3,0.1l0-0.8C111.9,130.3,110.6,129,109,129z"/>
</g>
<g>
	<path class="st7" d="M150.3,35.3c-34.7-0.2-31.1,42.1-31.1,72.7c0,1.2,0.6,2.2,1.6,2.8c3.8,2.3,14.4,7.8,29.1,7.9
		c14.7,0.1,25.3-5.3,29.2-7.6c1-0.6,1.6-1.6,1.6-2.8C181,77.7,185.1,35.5,150.3,35.3z"/>
	<path class="st8" d="M148.1,35.4c-32.3,1.7-28.9,42.7-28.8,72.6c0,1.2,0.6,2.2,1.6,2.8c3.8,2.3,14.4,7.8,29.1,7.9l9.1-61.4"/>
	<path class="st7" d="M150.3,35.3c-19.8-0.1-21.2,23.8-21.2,23.8c11.4-1.9,18.4,3,29.9-1.8l-9.1,61.4c14.7,0.1,25.3-5.3,29.2-7.6
		c1-0.6,1.6-1.6,1.6-2.8C181,77.7,185.1,35.5,150.3,35.3z"/>
	<path class="st6" d="M180.7,108.3C181,82,184,47.2,162.8,37.8c-0.4,1.9-1.1,7.3,0.7,10.8c4.3,8.8,8.7,8.8,13.1,15.4
		c4.3,24.2-8.6,49.7-12.9,53.2l0,0c7.5-1.8,12.9-4.6,15.5-6.1C180.1,110.5,180.7,109.5,180.7,108.3z"/>
	<path class="st0" d="M183.2,115l-19.5-8.3c-1.6-0.7-2.7-2.3-2.7-4.1l0-5.3l-21.9-0.1l0,5.3c0,1.8-1.1,3.4-2.7,4l-19.6,8.1
		c-2.5,1-4.1,3.4-4.1,6.1l0,8.8c0,2.4,1.9,4.4,4.4,4.4l65.9,0.3c2.4,0,4.4-1.9,4.4-4.4l0-8.8C187.2,118.4,185.7,116,183.2,115z"/>
	<path class="st9" d="M183.2,115l-18.9-8l-14.4,6.1l-14.3-6.3l-19,7.8c-2.5,1-4.1,3.4-4.1,6.1l0,8.8c0,2.4,1.9,4.4,4.4,4.4l65.9,0.3
		c2.4,0,4.4-1.9,4.4-4.4l0-8.8C187.2,118.4,185.7,116,183.2,115z"/>
	<path class="st2" d="M161,97.4l-21.9-0.1l0,5.3c0,1.8-1.1,3.4-2.7,4l-3.1,1.3C156.6,114,161,97.4,161,97.4z"/>
	<g>
		<path class="st10" d="M123.3,123.2l-8.8-7c-1.2,1.2-1.9,2.8-1.9,4.6l0,8.8c0,2.4,1.9,4.4,4.4,4.4l8.8,0l0-5.6
			C125.7,126.4,124.8,124.5,123.3,123.2z"/>
		<path class="st10" d="M187.2,129.9l0-8.8c0-1.7-0.7-3.4-1.8-4.6l-8.9,6.9c-1.6,1.2-2.5,3.1-2.5,5.1l0,5.6l8.8,0
			C185.2,134.3,187.2,132.3,187.2,129.9z"/>
		<path class="st10" d="M150.2,129.7l-0.7,0c-1,0-1.9-0.8-1.9-1.9l0.1-14.7l4.4,0l-0.1,14.7C152.1,128.9,151.2,129.7,150.2,129.7z"
			/>
		<path class="st10" d="M150,113.1l-12.5-9.5c-0.8-0.6-2-0.4-2.5,0.4l-2.5,3.7l7.7,10.8c0.6,0.8,1.7,1,2.5,0.4L150,113.1z"/>
		<path class="st10" d="M150,113.1l12.6-9.4c0.8-0.6,2-0.4,2.5,0.4l2.5,3.7l-7.8,10.7c-0.6,0.8-1.7,1-2.5,0.3L150,113.1z"/>
	</g>
	<path class="st3" d="M161.2,55.1c-11,10.9-32.5,2-32.6,19.6l1.3,12.9c0.2,2.9,1.9,5.5,4.4,6.9l12.5,7c2,1.1,4.4,1.1,6.4,0l12.5-6.9
		c2.5-1.4,4.2-4,4.5-6.9l1.6-15.4c0.1-1.1,0.1-2.2,0.1-3.3C171.2,63.6,163.4,59.5,161.2,55.1z"/>
	<path class="st0" d="M128.6,74.7l1.3,12.9c0.2,2.9,1.9,5.5,4.4,6.9l12.5,7c1.4,0.8,3,1,4.5,0.7l0,0c0,0-6.3-1.9-10-12.1
		c-1.1-3.1-2.7-19.6-1.3-21.6c2.7-4,17.9-4.3,22.4-11.7c-0.2-0.3-0.4-0.6-0.6-0.8c0,0,0,0,0-0.1c-0.2-0.3-0.4-0.6-0.5-0.9
		C150.2,66,128.7,57.2,128.6,74.7z"/>
</g>
<rect x="-2.3" y="130.8" class="st11" width="401" height="10.1"/>
<g id="XMLID_1_">
	<g>
		<path class="st11" d="M255,26.9v114.3h14.7v-22.9h12.4v22.9h15.8V26.9H255z M268.7,100.2h-7.3V82.3h7.3V100.2z M268.7,77.3h-7.3
			V59.5h7.3V77.3z M268.7,55.3h-7.3V37.4h7.3V55.3z M280.1,100.2h-7.3V82.3h7.3V100.2z M280.1,77.3h-7.3V59.5h7.3V77.3z M280.1,55.3
			h-7.3V37.4h7.3V55.3z M291.5,100.2h-7.3V82.3h7.3V100.2z M291.5,77.3h-7.3V59.5h7.3V77.3z M291.5,55.3h-7.3V37.4h7.3V55.3z"/>
		<path class="st11" d="M243.8,122.8v-11.2h9.2v-7.8h-9.2V92.7h9.2V84h-9.2V72.8h9.2v-8.2h-9.2V53.4h9.2v-7.3h-36.7v89.1h36.7v-12.4
			H243.8z M234.7,122.8h-11.2v-11.2h11.2V122.8z M234.7,103.9h-11.2V92.7h11.2V103.9z M234.7,84h-11.2V72.8h11.2V84z M234.7,64.6
			h-11.2V53.4h11.2V64.6z"/>
		<path class="st11" d="M330.9,130.9V121v-4.7v-2.1v-6.3v-6.8v-3.6v-6.8v-3.3v-6.8v-3.9v-6.8v-3.9v-6.8h-7.3h-22.8v6.8h22.8v3.9
			h-22.8v6.8h22.8v3.9h-22.8v6.8h22.8v3.3h-22.8v6.8h22.8v3.6h-22.8v6.8h22.8v6.3h-22.8v2.1v4.7v9.9v5.7h22.8h7.3h4.9v-5.7H330.9z
			 M318.2,130.6h-13.6v-10h13.6V130.6z"/>
	</g>
</g>
</svg>
