<svg id="Layer_1" data-name="Layer 1" xmlns="http://www.w3.org/2000/svg" xmlns:xlink="http://www.w3.org/1999/xlink" viewBox="0 0 250.42 72.3"><defs><style>.cls-1{fill:none;}.cls-2{clip-path:url(#clip-path);}.cls-3,.cls-5,.cls-7{fill:#0057a2;}.cls-3{opacity:0.57;}.cls-4,.cls-8{fill:#00407d;}.cls-6{fill:#929497;}.cls-7,.cls-8{fill-rule:evenodd;}</style><clipPath id="clip-path"><rect class="cls-1" x="-146.22" y="133.96" width="1148" height="584.76"/></clipPath></defs><title>Artboard 31logo</title><g class="cls-2"><rect class="cls-3" x="-146.22" y="34.95" width="1148" height="682.67"/></g><path class="cls-4" d="M56.12,12.71c-10,1.72-19.58,4.19-28.51,9.14C21.49,25.28,15.77,30,12.76,36.5a22.58,22.58,0,0,1,4.8-17.41C23.89,11.1,33.49,6.68,43,3.61Z"/><path class="cls-5" d="M60.4,15.89,74.22,26s-75.3.9-45.81,41.84C28.41,67.86-20.56,30.9,60.4,15.89Z"/><path class="cls-6" d="M48.46,68.63s-.07,0-.07-.05v-6.4s0-.05.07-.05h5s.07,0,.07.05v.92s0,.05-.07.05H49.72v1.78h3.21s.07,0,.07.05v.86s0,.05-.07.05H49.72v2.68s0,.05-.07.05Z"/><path class="cls-6" d="M55.61,68.63s-.07,0-.07-.05v-6.4s0-.05.07-.05H56.8s.07,0,.07.05v6.4s0,.05-.07.05Z"/><path class="cls-6" d="M59.65,68.63s-.07,0-.07-.05v-6.4s0-.05.07-.05H62.4a2.82,2.82,0,0,1,2.45,1.1,3.34,3.34,0,0,1,.24.41,1.39,1.39,0,0,1,.13.38,8.88,8.88,0,0,1,.07,1.37,7.13,7.13,0,0,1-.09,1.46,1.73,1.73,0,0,1-.13.36,2,2,0,0,1-.23.35h0a2.76,2.76,0,0,1-1,.77,3.4,3.4,0,0,1-1.51.31Zm1.26-5.48v4.46h1.36a1.76,1.76,0,0,0,1.41-.53,1.14,1.14,0,0,0,.23-.5,2.6,2.6,0,0,0,0-.43c0-.19,0-.44,0-.73s0-.53,0-.72,0-.34,0-.46a1.15,1.15,0,0,0-.28-.57,1.74,1.74,0,0,0-1.35-.51Z"/><path class="cls-6" d="M67.65,62.18s0-.05.07-.05h1.19s.06,0,.06.05V66.3a1.14,1.14,0,0,0,.44,1,2,2,0,0,0,2.2,0,1.14,1.14,0,0,0,.45-1V62.18s0-.05.06-.05h1.19s.07,0,.07.05v4.23a2,2,0,0,1-.84,1.65,3.62,3.62,0,0,1-4.05,0,2,2,0,0,1-.84-1.65Z"/><path class="cls-6" d="M81.37,66.74l.06,0a0,0,0,0,1,0,0,2.24,2.24,0,0,1-1,1.4,3.21,3.21,0,0,1-.83.36,3.77,3.77,0,0,1-1,.12,3.2,3.2,0,0,1-1.6-.37,2.63,2.63,0,0,1-.92-.8,2,2,0,0,1-.17-.31,1.64,1.64,0,0,1-.11-.32,9,9,0,0,1-.07-1.5c0-.39,0-.71,0-1a3.38,3.38,0,0,1,.06-.54,1.66,1.66,0,0,1,.11-.33,2.05,2.05,0,0,1,.17-.31,2.72,2.72,0,0,1,.92-.8,3.13,3.13,0,0,1,1.6-.37,3,3,0,0,1,1.89.57A2.37,2.37,0,0,1,81.44,64a0,0,0,0,1,0,0l-.06,0H80.12s-.05,0-.06,0a1.15,1.15,0,0,0-.2-.33,1.67,1.67,0,0,0-.33-.29,1.51,1.51,0,0,0-.91-.26,1.72,1.72,0,0,0-.71.13,1.67,1.67,0,0,0-.46.31,1.16,1.16,0,0,0-.18.24,1.45,1.45,0,0,0-.12.28,2.06,2.06,0,0,0-.06.47c0,.21,0,.48,0,.79s0,.59,0,.8a2.1,2.1,0,0,0,.06.47,1.35,1.35,0,0,0,.12.27,1.31,1.31,0,0,0,.18.24,1.46,1.46,0,0,0,.46.32,1.74,1.74,0,0,0,.71.13,1.58,1.58,0,0,0,1.44-.84l0,0h1.29Z"/><path class="cls-6" d="M83.43,68.63s-.07,0-.07-.05v-6.4s0-.05.07-.05h1.19s.07,0,.07.05v6.4s0,.05-.07.05Z"/><path class="cls-6" d="M86.64,68.63a.06.06,0,0,1-.06,0,0,0,0,0,1,0,0l2.87-6.4a.06.06,0,0,1,.06,0h1l0,0,2.87,6.4a0,0,0,0,1,0,0,.05.05,0,0,1,0,0H92.11a.06.06,0,0,1-.06,0l-.59-1.41h-2.9l-.31.71-.31.7,0,0H86.64Zm4.43-2.41,0-.07,0-.06-.17-.4-.14-.32-.08-.17L90.56,65a1.08,1.08,0,0,0-.06-.14l-.05-.13c0-.09-.07-.17-.11-.26l-.1-.27-.06-.14-.06-.16,0-.07,0,0,0-.06,0-.09-.11.27-.09.23,0,.05a.12.12,0,0,1,0,0s0,.1-.06.14l-.06.14s0,.09-.05.14l-.06.13-.11.28-.13.31-.15.34-.2.47Z"/><path class="cls-6" d="M95.6,68.63s-.07,0-.07-.05v-6.4s0-.05.07-.05h3.08a3.48,3.48,0,0,1,.92.11,2.43,2.43,0,0,1,.72.32,2.68,2.68,0,0,1,.31.27,2.24,2.24,0,0,1,.26.33,1.58,1.58,0,0,1,.18.38,1.28,1.28,0,0,1,.07.41,1.7,1.7,0,0,1-.11.6,2,2,0,0,1-.31.53,2.2,2.2,0,0,1-.47.4,2.52,2.52,0,0,1-.61.28l.89,1.39.9,1.39a.05.05,0,0,1,0,.06.06.06,0,0,1-.06,0H99.92l0,0-1.61-2.7H96.86v2.68s0,.05-.07.05Zm1.26-5.54v1.84H98.6a1.39,1.39,0,0,0,1-.28.88.88,0,0,0,.32-.68.82.82,0,0,0-.1-.4.75.75,0,0,0-.28-.28,1.44,1.44,0,0,0-.37-.14,2,2,0,0,0-.46,0Z"/><path class="cls-6" d="M103.57,68.63s-.06,0-.06-.05v-6.4s0-.05.06-.05h1.19s.07,0,.07.05v6.4s0,.05-.07.05Z"/><path class="cls-6" d="M106.78,68.63a.05.05,0,0,1-.05,0,.05.05,0,0,1,0,0l2.88-6.4a.05.05,0,0,1,.05,0h1l0,0,2.87,6.4a0,0,0,0,1,0,0,.05.05,0,0,1,0,0h-1.26a.05.05,0,0,1-.05,0l-.59-1.41h-2.9l-.3.71-.31.7,0,0h-1.29Zm4.43-2.41,0-.07,0-.06-.17-.4-.14-.32-.07-.17-.07-.16-.05-.14-.06-.13-.1-.26-.11-.27-.06-.14-.06-.16,0-.07,0,0,0-.06,0-.09-.11.27-.1.23,0,.05a.21.21,0,0,1,0,0l-.06.14s0,.09-.06.14l-.06.14-.06.13-.11.28c0,.1-.08.2-.13.31l-.14.34-.2.47Z"/><path class="cls-6" d="M119.57,68.63s-.07,0-.07-.05v-6.4s0-.05.07-.05h2.76a2.83,2.83,0,0,1,2.45,1.1,3.38,3.38,0,0,1,.24.41,1.73,1.73,0,0,1,.13.38,9.55,9.55,0,0,1,.06,1.37,7,7,0,0,1-.1,1.46,1.55,1.55,0,0,1-.13.36,1.85,1.85,0,0,1-.23.35h0a2.72,2.72,0,0,1-1,.77,3.43,3.43,0,0,1-1.51.31Zm1.25-5.48v4.46h1.37a1.74,1.74,0,0,0,1.41-.53,1.23,1.23,0,0,0,.23-.5,3.25,3.25,0,0,0,0-.43c0-.19,0-.44,0-.73s0-.53,0-.72a3.88,3.88,0,0,0,0-.46,1.12,1.12,0,0,0-.28-.57,1.73,1.73,0,0,0-1.35-.51Z"/><path class="cls-6" d="M127.78,68.63s-.06,0-.06-.05v-6.4s0-.05.06-.05h5s.07,0,.07.05v.92s0,.05-.07.05H129v1.71h3.2s.07,0,.07.05v.87s0,0-.07,0H129v1.77h3.77s.07,0,.07.06v.91s0,.05-.07.05Z"/><path class="cls-6" d="M139,68.63s-.07,0-.07-.05v-6.4s0-.05.07-.05h1.19s.06,0,.06.05v5.43H144s.06,0,.06.06v.91s0,.05-.06.05Z"/><path class="cls-6" d="M145.52,68.63a.07.07,0,0,1-.06,0,0,0,0,0,1,0,0l2.87-6.4a.05.05,0,0,1,.06,0h1l0,0,2.87,6.4a.06.06,0,0,1,0,0,.06.06,0,0,1,0,0H151a.06.06,0,0,1-.06,0l-.59-1.41h-2.9l-.3.71-.31.7,0,0h-1.29ZM150,66.22l0-.07,0-.06-.17-.4-.14-.32-.07-.17-.07-.16-.06-.14-.06-.13-.1-.26-.11-.27-.06-.14-.06-.16,0-.07,0,0,0-.06,0-.09-.11.27-.1.23a.14.14,0,0,0,0,.05.19.19,0,0,1,0,0l-.06.14-.06.14a1.2,1.2,0,0,1-.05.14l-.06.13-.11.28-.13.31c0,.11-.1.22-.15.34l-.2.47Z"/><path class="cls-6" d="M154.54,67l0,0h0a3.79,3.79,0,0,0,1,.46,4,4,0,0,0,1.19.17,2.21,2.21,0,0,0,1.11-.24.68.68,0,0,0,.39-.6c0-.47-.33-.74-1-.81h0l-.26,0-.25,0-.25,0-.28,0a3.79,3.79,0,0,1-.92-.21,2.07,2.07,0,0,1-.68-.41,1.79,1.79,0,0,1-.41-.57,1.62,1.62,0,0,1-.14-.67,1.66,1.66,0,0,1,.69-1.38,3.11,3.11,0,0,1,1.94-.54,5.1,5.1,0,0,1,.72,0,5.79,5.79,0,0,1,.67.14,5.35,5.35,0,0,1,.63.21c.2.08.39.17.58.27s0,0,0,.08l-.66.8a.06.06,0,0,1-.09,0,4.91,4.91,0,0,0-.91-.35,3.74,3.74,0,0,0-1-.13,2.16,2.16,0,0,0-.49.05,1.24,1.24,0,0,0-.41.17.7.7,0,0,0-.35.64.67.67,0,0,0,.24.48,1,1,0,0,0,.32.18,2.33,2.33,0,0,0,.5.11l.37,0,.51.05a2.64,2.64,0,0,1,1.67.67,1.71,1.71,0,0,1,.54,1.23,1.6,1.6,0,0,1-.77,1.41,3.75,3.75,0,0,1-2.06.5,5.12,5.12,0,0,1-3.05-.89,0,0,0,0,1,0,0,.06.06,0,0,1,0,0Z"/><path class="cls-6" d="M165.06,68.63a.06.06,0,0,1-.05,0,0,0,0,0,1,0,0l2.88-6.4a0,0,0,0,1,.05,0h1l0,0,2.87,6.4a0,0,0,0,1,0,0,.06.06,0,0,1,0,0h-1.26a.05.05,0,0,1-.06,0l-.59-1.41H167l-.31.71-.31.7,0,0h-1.29Zm4.43-2.41,0-.07a.22.22,0,0,1,0-.06l-.17-.4-.14-.32-.07-.17L169,65l-.06-.14-.05-.13-.1-.26-.11-.27-.06-.14-.06-.16,0-.07,0,0,0-.06a.51.51,0,0,1,0-.09l-.12.27-.09.23,0,.05v0l-.06.14-.06.14-.06.14-.05.13-.12.28c0,.1-.08.2-.13.31s-.1.22-.15.34l-.2.47Z"/><path class="cls-6" d="M174,68.63s-.07,0-.07-.05v-6.4s0-.05.07-.05h1.12a.06.06,0,0,1,.06,0l2.2,4.06,1.07-2,1.08-2a.06.06,0,0,1,.06,0h1.12s.07,0,.07.05v6.4s0,.05-.07.05h-1.19s-.07,0-.07-.05V64.8l-.77,1.45c-.26.48-.52,1-.77,1.44a.08.08,0,0,1-.06,0h-1a.07.07,0,0,1-.06,0l-1.55-2.9v3.79s0,.05-.07.05Z"/><path class="cls-6" d="M183.67,68.63s-.07,0-.07-.05v-6.4s0-.05.07-.05h5s.07,0,.07.05v.92s0,.05-.07.05h-3.77v1.71h3.21s.07,0,.07.05v.87s0,0-.07,0h-3.21v1.77h3.77s.07,0,.07.06v.91s0,.05-.07.05Zm1.58-6.76s0,0-.06,0a.06.06,0,0,1,0-.05l1-1.3a.07.07,0,0,1,.05,0h1.43a.06.06,0,0,1,.06,0s0,0,0,.06l-1.52,1.3h-.95Z"/><path class="cls-6" d="M191,68.63s-.07,0-.07-.05v-6.4s0-.05.07-.05h3.08a3.5,3.5,0,0,1,.92.11,2.45,2.45,0,0,1,.72.32,3,3,0,0,1,.3.27,2.18,2.18,0,0,1,.26.33,1.56,1.56,0,0,1,.18.38,1.27,1.27,0,0,1,.07.41,1.69,1.69,0,0,1-.11.6,2,2,0,0,1-.31.53,2.21,2.21,0,0,1-.47.4,2.56,2.56,0,0,1-.61.28l.9,1.39.9,1.39a.05.05,0,0,1,0,.06.06.06,0,0,1-.06,0h-1.45l0,0-1.61-2.7H192.3v2.68s0,.05-.07.05Zm1.26-5.54v1.84H194a1.39,1.39,0,0,0,1-.28.9.9,0,0,0,.32-.68.82.82,0,0,0-.09-.4.79.79,0,0,0-.28-.28,1.41,1.41,0,0,0-.37-.14,2,2,0,0,0-.46,0Z"/><path class="cls-6" d="M199,68.63s-.06,0-.06-.05v-6.4s0-.05.06-.05h1.19s.07,0,.07.05v6.4s0,.05-.07.05Z"/><path class="cls-6" d="M208.36,66.74l.06,0a0,0,0,0,1,0,0,2.25,2.25,0,0,1-1,1.4,3.19,3.19,0,0,1-.84.36,3.73,3.73,0,0,1-1,.12,3.18,3.18,0,0,1-1.6-.37,2.65,2.65,0,0,1-.92-.8,3,3,0,0,1-.17-.31,1.9,1.9,0,0,1-.11-.32,9.64,9.64,0,0,1-.07-1.5c0-.39,0-.71,0-1a3.53,3.53,0,0,1,.05-.54,1.92,1.92,0,0,1,.11-.33,3,3,0,0,1,.17-.31,2.74,2.74,0,0,1,.92-.8,3.13,3.13,0,0,1,1.6-.37,3,3,0,0,1,1.89.57,2.37,2.37,0,0,1,.94,1.37,0,0,0,0,1,0,0l-.06,0H207.1a.05.05,0,0,1-.06,0,1.22,1.22,0,0,0-.2-.33,1.76,1.76,0,0,0-.32-.29,1.53,1.53,0,0,0-.92-.26,1.69,1.69,0,0,0-.7.13,1.63,1.63,0,0,0-.47.31,1,1,0,0,0-.18.24,1.24,1.24,0,0,0-.12.28,2.05,2.05,0,0,0-.06.47c0,.21,0,.48,0,.79s0,.59,0,.8a2.09,2.09,0,0,0,.06.47,1.34,1.34,0,0,0,.12.27,1.15,1.15,0,0,0,.18.24,1.43,1.43,0,0,0,.47.32,1.7,1.7,0,0,0,.7.13,1.58,1.58,0,0,0,1.45-.84l0,0h1.29Z"/><path class="cls-6" d="M209.6,68.63a.07.07,0,0,1-.06,0,.06.06,0,0,1,0,0l2.88-6.4a.05.05,0,0,1,.06,0h1l0,0,2.87,6.4a.07.07,0,0,1,0,0,0,0,0,0,1,0,0h-1.26a.06.06,0,0,1-.06,0l-.59-1.41h-2.9l-.31.71-.31.7,0,0H209.6ZM214,66.22a.22.22,0,0,0,0-.07l0-.06-.17-.4-.14-.32-.07-.17-.07-.16-.05-.14-.06-.13-.1-.26-.11-.27-.06-.14-.06-.16a.22.22,0,0,1,0-.07l0,0,0-.06,0-.09-.11.27-.1.23a.15.15,0,0,0,0,.05l0,0-.06.14-.06.14-.06.14-.05.13-.12.28c0,.1-.08.2-.13.31l-.15.34-.19.47Z"/><path class="cls-6" d="M218.61,67l0,0h0a3.76,3.76,0,0,0,1,.46,4.05,4.05,0,0,0,1.19.17,2.23,2.23,0,0,0,1.11-.24.68.68,0,0,0,.38-.6q0-.7-1-.81h0l-.26,0-.25,0-.25,0-.28,0a3.79,3.79,0,0,1-.92-.21,2.09,2.09,0,0,1-.68-.41,1.76,1.76,0,0,1-.41-.57,1.61,1.61,0,0,1-.14-.67,1.67,1.67,0,0,1,.69-1.38,3.12,3.12,0,0,1,1.94-.54,5.11,5.11,0,0,1,.72,0,5.68,5.68,0,0,1,.67.14,5.36,5.36,0,0,1,.63.21,6.07,6.07,0,0,1,.57.27s0,0,0,.08l-.66.8a.07.07,0,0,1-.09,0,4.9,4.9,0,0,0-.91-.35,3.69,3.69,0,0,0-1-.13,2.12,2.12,0,0,0-.49.05,1.21,1.21,0,0,0-.41.17.7.7,0,0,0-.35.64.68.68,0,0,0,.24.48,1,1,0,0,0,.33.18,2.31,2.31,0,0,0,.5.11l.38,0,.51.05a2.62,2.62,0,0,1,1.67.67,1.72,1.72,0,0,1,.54,1.23,1.6,1.6,0,0,1-.77,1.41,3.76,3.76,0,0,1-2.06.5,5.13,5.13,0,0,1-3.06-.89,0,0,0,0,1,0,0,.06.06,0,0,1,0,0Z"/><path class="cls-7" d="M126.92,51.55l.2-.37L133,38.89c.27-.57.17-.49.76-.5h3.59l.07.06s0,0,0,0a1.25,1.25,0,0,1,0,.19q0,8.66,0,17.32s0,.1,0,.14a26.17,26.17,0,0,1-3.71,0c0-.7,0-1.42,0-2.14s0-1.44,0-2.17V45.31c-.22.09-.24.24-.3.36l-2.62,5.64c-.7,1.51-1.4,3-2.09,4.52a.56.56,0,0,1-.61.4c-.76,0-1.52,0-2.28,0a.53.53,0,0,1-.58-.36q-2.37-5.06-4.77-10.1c-.07-.16-.16-.31-.24-.46h-.09c0,.13,0,.26,0,.39v5.37q0,2.32,0,4.64c0,.15,0,.3,0,.47h-3.68V38.42l.4,0c1.12,0,2.25,0,3.37,0a.52.52,0,0,1,.55.35q2.86,6.1,5.74,12.2l.3.61Z"/><path class="cls-7" d="M157.18,38.42l.39,0c3.21,0,6.42,0,9.63,0a7.89,7.89,0,0,1,3.73,1,6.17,6.17,0,0,1,1.53,1.17,4.39,4.39,0,0,1-.37,6.59c-.2.17-.42.33-.66.52a2.69,2.69,0,0,0,.27.18,3.14,3.14,0,0,1,1.75,2.61,17.7,17.7,0,0,1,.08,1.77c0,.43,0,.85,0,1.28a2.82,2.82,0,0,0,.37,1.52c.2.38.42.76.65,1.17l-.32,0c-1.11,0-2.22,0-3.32,0a.59.59,0,0,1-.56-.3,3,3,0,0,1-.47-1.57c0-1,0-2,0-2.94a3.71,3.71,0,0,0-.06-.65,1.92,1.92,0,0,0-1-1.32,3.46,3.46,0,0,0-1.73-.48c-2,0-3.92,0-5.87,0-.09,0-.18,0-.32,0,0,.81,0,1.6,0,2.39s0,1.6,0,2.4v2.37a28.23,28.23,0,0,1-3.66,0c0-.12,0-.26,0-.4V38.85C157.15,38.72,157.17,38.59,157.18,38.42Zm3.75,8,.16,0c2,0,3.92,0,5.88,0a3.33,3.33,0,0,0,2.34-1.06,2.45,2.45,0,0,0-.39-3.84,3.83,3.83,0,0,0-2.16-.63H161.3l-.36,0A50.13,50.13,0,0,0,160.92,46.42Z"/><path class="cls-8" d="M56.68,56.06c.17-.82.33-1.58.5-2.33l2.06-9.51q.61-2.83,1.22-5.66c.07-.32.07-.33.4-.33,3.06,0,6.11,0,9.16,0a8,8,0,0,1,5.07,1.82,6.14,6.14,0,0,1,2.27,4.17,9.34,9.34,0,0,1-1.82,6.66,12,12,0,0,1-7.42,4.85,13,13,0,0,1-2.91.3H56.68Zm4.27-2.54.48,0c1.18,0,2.37,0,3.56,0a10.41,10.41,0,0,0,2.41-.3,7.94,7.94,0,0,0,6.22-8,4,4,0,0,0-2.69-3.91,7.91,7.91,0,0,0-3-.55h-4a.24.24,0,0,0-.27.21c0,.08,0,.15-.06.23q-1.2,5.53-2.39,11.06C61.13,52.65,61,53,60.95,53.52Z"/><path class="cls-7" d="M220.71,50.14a22.13,22.13,0,0,1,3.77,0c0,.13.07.26.1.4a4.43,4.43,0,0,0,3.64,3.57,7.09,7.09,0,0,0,3.88-.28,3.53,3.53,0,0,0,1.43-.9,2.28,2.28,0,0,0,.63-1.84,1.51,1.51,0,0,0-.52-1,4.43,4.43,0,0,0-1.3-.82,18.05,18.05,0,0,0-2.65-.82c-1.32-.36-2.66-.68-4-1.09a12.14,12.14,0,0,1-1.9-.83,5.05,5.05,0,0,1-1.55-1.26,3.57,3.57,0,0,1-.86-2.14,3.93,3.93,0,0,1,2-3.86,8.47,8.47,0,0,1,2.92-1.06,16.25,16.25,0,0,1,4-.21,8.73,8.73,0,0,1,4,1.18,5.83,5.83,0,0,1,2.82,4.1c0,.18.05.37.08.58l-.31,0h-3.13c-.32,0-.33,0-.38-.3a3.68,3.68,0,0,0-3-3,6.68,6.68,0,0,0-3.73.21,3,3,0,0,0-1.1.64,1.66,1.66,0,0,0,0,2.52A4.67,4.67,0,0,0,227.51,45c.91.29,1.83.52,2.74.78,1.16.33,2.33.64,3.48,1a11.14,11.14,0,0,1,1.68.78,5.68,5.68,0,0,1,1.49,1.16,3.69,3.69,0,0,1,1,3.1,4.53,4.53,0,0,1-2,3.29,8.16,8.16,0,0,1-3.08,1.29,14.33,14.33,0,0,1-4.11.3,9.58,9.58,0,0,1-5.55-2.06,6.17,6.17,0,0,1-2.3-3.69C220.77,50.66,220.75,50.39,220.71,50.14Z"/><path class="cls-7" d="M115.41,56.22h-.47c-1,0-2,0-3,0a.57.57,0,0,1-.64-.4c-.66-1.48-1.35-3-2-4.43a.58.58,0,0,0-.61-.4q-3.62,0-7.23,0a.58.58,0,0,0-.61.4c-.65,1.49-1.34,3-2,4.44a.54.54,0,0,1-.6.38c-1,0-2,0-3.06,0h-.43c.07-.18.12-.31.18-.43l7.75-16.68c.07-.15.15-.3.21-.46a.37.37,0,0,1,.41-.26c.71,0,1.42,0,2.13,0,.46,0,.93,0,1.39,0a.5.5,0,0,1,.55.35c.7,1.56,1.43,3.11,2.14,4.67l5.64,12.28ZM105.08,42.35a1.31,1.31,0,0,0-.14.22l-2.59,5.61c0,.1-.06.2-.09.31.52.08,5.35.06,5.63,0C107.84,48.14,105.31,42.6,105.08,42.35Z"/><path class="cls-7" d="M204.46,56.2h-3.9c0-.13.08-.24.13-.34q4-8.55,7.94-17.09a.57.57,0,0,1,.61-.38c1.11,0,2.22,0,3.32,0a.59.59,0,0,1,.63.41q3.56,7.78,7.14,15.55l.68,1.47c.05.11.09.23.14.38l-.35,0c-1.05,0-2.11,0-3.17,0a.48.48,0,0,1-.52-.34c-.67-1.49-1.36-3-2-4.46a.6.6,0,0,0-.63-.43q-3.6,0-7.19,0a.6.6,0,0,0-.64.42c-.64,1.47-1.32,2.93-2,4.4Zm9.2-7.72c0-.34-2.57-5.87-2.8-6.13a1.67,1.67,0,0,0-.14.22l-2.6,5.65a1.7,1.7,0,0,0-.08.28C208.57,48.57,213.38,48.55,213.66,48.48Z"/><path class="cls-7" d="M201.53,44.15h-.45c-1,0-1.94,0-2.9,0-.34,0-.56-.06-.68-.4a3.35,3.35,0,0,0-.38-.67,5.71,5.71,0,0,0-4.36-2.65,7.09,7.09,0,0,0-2.83.14A6.29,6.29,0,0,0,185.4,45a7.54,7.54,0,0,0,.76,6.25,5.89,5.89,0,0,0,4,2.83A6.17,6.17,0,0,0,197.5,50l.16-.44h3.77c0,.15-.05.29-.09.42a8.93,8.93,0,0,1-6.21,6.24,10.93,10.93,0,0,1-3.08.48,13.62,13.62,0,0,1-4.42-.55A8.62,8.62,0,0,1,183,52.93a9.21,9.21,0,0,1-1.63-4.44,10.62,10.62,0,0,1,0-2.54,8.6,8.6,0,0,1,2.39-5,9.83,9.83,0,0,1,5.55-2.89,13.43,13.43,0,0,1,5.82.24,9.08,9.08,0,0,1,4.86,3,9.33,9.33,0,0,1,1.41,2.43C201.45,43.9,201.48,44,201.53,44.15Z"/><path class="cls-8" d="M84.34,38.28c0,.17,0,.32-.08.47Q83.05,44.36,81.84,50a3.37,3.37,0,0,0-.06,1.45,3,3,0,0,0,1,1.72,4.21,4.21,0,0,0,2.26.91,6.93,6.93,0,0,0,4.36-1,4.61,4.61,0,0,0,2.26-3.13c.77-3.68,1.57-7.35,2.37-11,.16-.75,0-.65.81-.65h2.55l.43,0a1.57,1.57,0,0,1,0,.3q-1.25,5.79-2.5,11.59a6.14,6.14,0,0,1-1.45,2.78,10.64,10.64,0,0,1-5,3.07,12.5,12.5,0,0,1-4.54.53,8.71,8.71,0,0,1-3.76-1.08,5,5,0,0,1-2.49-3.11,5.31,5.31,0,0,1,.05-2.56q1.19-5.49,2.38-11c.12-.58,0-.55.65-.55H84A3.17,3.17,0,0,1,84.34,38.28Z"/><path class="cls-8" d="M37.9,56H34.21c0-.18.06-.34.09-.5l3.07-14.26q.29-1.36.6-2.71c.07-.33.08-.33.4-.33h15c-.19.87-.36,1.68-.54,2.51H41.7c-.49,0-.48,0-.59.49-.27,1.26-.54,2.52-.81,3.77,0,.16-.06.33-.1.54.19,0,.35,0,.51,0h9.56c-.11.86-.34,1.65-.5,2.5l-.51,0h-9c-.58,0-.59,0-.7.56L38,55.62C38,55.76,37.94,55.89,37.9,56Z"/><path class="cls-7" d="M176.11,38.42h3.65V56.19h-3.62l0,0,0,0a1.71,1.71,0,0,1,0-.19q0-8.68,0-17.35A.7.7,0,0,1,176.11,38.42Z"/><path class="cls-8" d="M54.73,56h-3.6c0-.3,3.6-17.23,3.8-17.77h3.6l0,0a.06.06,0,0,1,0,0,2.88,2.88,0,0,1,0,.31q-1.87,8.64-3.74,17.27A.69.69,0,0,1,54.73,56Z"/><path class="cls-7" d="M155.58,53.71c0,.87,0,1.67,0,2.49h-16.2c-.08-.34-.09-17.39,0-17.77H155v2.46l-.44,0H143.07a3.7,3.7,0,0,0-.05.44q0,2,0,3.94c0,.14,0,.28,0,.45h11.17a8.47,8.47,0,0,1,0,2.51l-.48,0H143.63c-.62,0-.62,0-.62.62V53.3c0,.37,0,.4.4.41h12.16Z"/><path class="cls-5" d="M144.48,36.36a.18.18,0,0,1-.17-.07.16.16,0,0,1,0-.16l2.8-3.72a.2.2,0,0,1,.16-.08h4.07a.2.2,0,0,1,.18.09.12.12,0,0,1,0,.17l-4.32,3.72-.06,0-.08,0Z"/></svg>