<?xml version="1.0" encoding="utf-8"?>
<!-- Generator: Adobe Illustrator 20.1.0, SVG Export Plug-In . SVG Version: 6.00 Build 0)  -->
<svg version="1.1" id="Layer_1" xmlns="http://www.w3.org/2000/svg" xmlns:xlink="http://www.w3.org/1999/xlink" x="0px" y="0px"
	 viewBox="0 0 166.1 164.5" style="enable-background:new 0 0 166.1 164.5;" xml:space="preserve">
<style type="text/css">
	.st0{display:none;}
	.st1{display:inline;fill:#E6E6E6;}
	.st2{display:inline;fill:none;stroke:#000000;stroke-width:0.8218;stroke-miterlimit:10;}
	.st3{display:inline;fill:none;stroke:#000000;stroke-width:0.5765;stroke-miterlimit:10;}
	.st4{display:inline;}
	.st5{fill:#FFFFFF;stroke:#000000;stroke-width:0.5765;stroke-miterlimit:10;}
	.st6{fill:#E6E6E6;}
	.st7{fill:none;stroke:#000000;stroke-width:0.6857;stroke-miterlimit:10;}
</style>
<g class="st0">
	<path class="st1" d="M143.8,63.1c6.6,13.2,7.2,27.3-0.1,40.4c-6.3,11.3-16.1,20.2-28.1,25c0,0-17.6,4.8-9.1-8.3
		c1.5-2.3,4.2-4.1,5.9-6.5c2.7-4.1,4.5-9.1,3.1-14c-2.4-8.2-11.2-13-18-17.1L75.9,69.7c0,0-6.1-3.6-3.6-8.1c0,0,2.5-4.2,9.2-0.4
		l20,11.5c8.3,1.9,1.2-3.6,1.2-3.6L75.9,52.9c0,0-6.1-3.6-3.6-8.1c0,0,2.5-4.2,9.2-0.4l26,14c7.6,3.1,2.1-1.6,2.1-1.6
		c0,0-24.1-16.2-24.1-16.2s-6-3.8-3.3-8.2c0,0,2.6-4.1,9.2-0.1l25.1,15.6c4.1,2.5,1.5-0.7,1.5-0.7c0,0-18-13.9-18-13.9
		s-4.6-3.3-2.3-6.7c0,0,2.3-3.2,7.3,0.3l15.1,10.5C120.1,37.3,135.2,45.9,143.8,63.1z"/>
	<path class="st1" d="M21.1,103c-6.5-13.2-6.9-27.2,0.4-40.1C27.9,51.7,37.6,43,49.6,38.2c0,0,17.5-4.6,8.9,8.3
		c-1.5,2.3-4.2,4-5.9,6.4c-2.8,4-4.6,9-3.1,13.9c2.3,8.1,11.1,13,17.7,17.1L88.7,97c0,0,6,3.7,3.5,8.1c0,0-2.5,4.2-9.1,0.3
		L63.3,93.9C55.1,92,62,97.5,62,97.5l26.5,16.2c0,0,6,3.7,3.5,8.1c0,0-2.5,4.2-9.1,0.3L57.2,108c-7.5-3.1-2.1,1.6-2.1,1.6l23.8,16.3
		c0,0,5.9,3.8,3.3,8.2c0,0-2.6,4.1-9.1,0l-24.9-15.7c-4-2.5-1.5,0.7-1.5,0.7L64.4,133c0,0,4.6,3.3,2.3,6.7c0,0-2.3,3.1-7.3-0.4
		l-15-10.5C44.4,128.8,29.5,120.2,21.1,103z"/>
	<path class="st2" d="M146.4,61.5c7.4,14.7,8,30.4-0.2,45c-7,12.6-17.9,22.5-31.3,27.9c0,0-19.6,5.3-10.1-9.2
		c1.7-2.6,4.7-4.6,6.5-7.2c3.1-4.5,5-10.1,3.4-15.6c-2.7-9.1-12.5-14.5-20-19c0,0-24-14.5-24-14.5s-6.8-4-4-9c0,0,2.8-4.7,10.2-0.4
		l22.2,12.8c9.2,2.1,1.3-4,1.3-4L70.7,50.1c0,0-6.8-4-4-9c0,0,2.8-4.7,10.2-0.4l28.9,15.6c8.5,3.4,2.4-1.8,2.4-1.8l-26.8-18
		c0,0-6.7-4.3-3.7-9.2c0,0,2.9-4.6,10.2-0.1l28,17.4c4.5,2.8,1.6-0.7,1.6-0.7l-20-15.5c0,0-5.1-3.7-2.6-7.5c0,0,2.5-3.5,8.2,0.3
		L120,32.8C120,32.8,136.7,42.3,146.4,61.5z"/>
	<path class="st2" d="M19.6,102.6c-7.3-14.7-7.7-30.5,0.5-45C27.2,45.1,38.2,35.3,51.6,30c0,0,19.6-5.2,10,9.3
		c-1.7,2.6-4.7,4.5-6.6,7.2C52,51,49.9,56.5,51.5,62c2.6,9.1,12.4,14.6,19.9,19.2l23.9,14.7c0,0,6.8,4.1,3.9,9.1
		c0,0-2.8,4.7-10.2,0.4L66.9,92.4c-9.2-2.1-1.4,4-1.4,4l29.7,18.2c0,0,6.8,4.1,3.9,9.1c0,0-2.8,4.7-10.2,0.4l-28.8-15.8
		c-8.4-3.5-2.4,1.8-2.4,1.8l26.7,18.2c0,0,6.6,4.3,3.7,9.2c0,0-3,4.6-10.2,0l-27.8-17.6c-4.5-2.9-1.6,0.7-1.6,0.7l19.9,15.6
		c0,0,5.1,3.7,2.5,7.5c0,0-1.7,3.5-7.3-0.4l-17.6-11.8C45.8,131.5,29.1,121.9,19.6,102.6z"/>
</g>
<g class="st0">
	<path class="st3" d="M26.2,148.7h109.3c2.8,0,5,2.9,5,6.4l0,0c0,3.5-2.2,6.4-5,6.4H26.2c-2.8,0-5-2.9-5-6.4l0,0
		C21.2,151.5,23.5,148.7,26.2,148.7z"/>
	<path class="st3" d="M27.1,73.2h18c3.4,0,6.1,2.6,6.1,5.8v56.8c0,3.2-2.8,5.8-6.1,5.8h-18c-3.4,0-6.1-2.6-6.1-5.8V79
		C21,75.8,23.7,73.2,27.1,73.2z"/>
	<path class="st3" d="M69.7,49.2h18c3.4,0,6.1,2.6,6.1,5.8v80.8c0,3.2-2.8,5.8-6.1,5.8h-18c-3.4,0-6.1-2.6-6.1-5.8V55
		C63.5,51.8,66.3,49.2,69.7,49.2z"/>
	<path class="st3" d="M136.3,33.8v101.9c0,3.2-2.8,5.8-6.1,5.8h-18c-3.4,0-6.1-2.6-6.1-5.8V33.8h-8.9l24-30.8l24,30.8H136.3z"/>
	<path class="st1" d="M28.1,149.9h105c2.2,0,4,2.3,4,5.1l0,0c0,2.8-1.8,5.1-4,5.1h-105c-2.2,0-4-2.3-4-5.1l0,0
		C24.1,152.2,25.9,149.9,28.1,149.9z"/>
	<path class="st1" d="M28.9,76.4h14.4c2.7,0,4.9,2.1,4.9,4.6v52.4c0,2.6-2.2,4.6-4.9,4.6H28.9c-2.7,0-4.9-2.1-4.9-4.6V81.1
		C24,78.5,26.2,76.4,28.9,76.4z"/>
	<path class="st1" d="M71.5,52h14.4c2.7,0,4.9,2.1,4.9,4.6v76.7c0,2.6-2.2,4.6-4.9,4.6H71.5c-2.7,0-4.9-2.1-4.9-4.6V56.7
		C66.6,54.1,68.8,52,71.5,52z"/>
	<path class="st1" d="M133.2,31.6v101.8c0,2.6-2.2,4.6-4.9,4.6h-14.4c-2.7,0-4.9-2.1-4.9-4.6V31.6h-7.1L121.1,7l19.2,24.6H133.2z"/>
	<g class="st4">
		<path class="st5" d="M115.4,36.6L92.4,64.1l13.6,0.6c0,0-4,29.5-25.3,46.3s-43.6,11.5-43.6,11.5s24.2,7,50.7-4.2
			s33.3-35,33.3-53.5h12.4L115.4,36.6z"/>
		<path class="st6" d="M115.4,40.5L97,62.5l10.9,0.5c0,0-5.3,32.8-22.3,46.2c-17,13.4-32.2,14.5-32.2,14.5
			c11.8-0.9,23.9-2.2,34.7-6.8c10.9-4.6,18.6-12.7,23.8-22.7c4.9-9.5,8.1-20.6,8.1-31.2h9.9L115.4,40.5z"/>
	</g>
</g>
<g>
	<path class="st7" d="M14.8,61.2c0.8,2.8,2,5.6,3.4,8.1l-4.1,5.2c-1.3,1.7-1.2,4.1,0.3,5.7l7.1,7.1c1.5,1.5,4,1.7,5.7,0.3l5.2-4.1
		c2.7,1.5,5.5,2.7,8.4,3.6l0.8,6.7c0.3,2.2,2.1,3.8,4.2,3.8h10.1c2.2,0,4-1.6,4.2-3.8l0.7-6.4c3.2-0.8,6.2-2.1,9.1-3.7l5,4
		c1.7,1.3,4.1,1.2,5.7-0.3l7.1-7.1c1.5-1.5,1.7-4,0.3-5.7l-3.9-4.9c1.6-2.8,2.9-5.8,3.7-8.9l6-0.7c2.2-0.3,3.8-2.1,3.8-4.2V45.8
		c0-2.2-1.6-4-3.8-4.2l-5.9-0.7c-0.8-3.1-2-6-3.6-8.8l3.6-4.6c1.3-1.7,1.2-4.1-0.3-5.7l-7.1-7.1c-1.5-1.5-4-1.7-5.7-0.3l-4.5,3.5
		c-2.9-1.7-6-3-9.3-3.9l-0.7-5.8c-0.3-2.2-2.1-3.8-4.2-3.8H46.2c-2.2,0-4,1.6-4.2,3.8L41.3,14c-3.3,0.9-6.5,2.2-9.5,4l-4.6-3.7
		c-1.7-1.3-4.1-1.2-5.7,0.3l-7.1,7.1c-1.5,1.5-1.7,4-0.3,5.7l3.9,4.9c-1.6,2.8-2.7,5.8-3.5,8.9l-6.2,0.7c-2.2,0.3-3.8,2.1-3.8,4.2
		v10.1c0,2.2,1.6,4,3.8,4.2L14.8,61.2z M51.3,34c9.2,0,16.6,7.5,16.6,16.6c0,9.2-7.5,16.6-16.6,16.6c-9.2,0-16.6-7.5-16.6-16.6
		C34.6,41.5,42.1,34,51.3,34L51.3,34z M51.3,34"/>
	<path class="st7" d="M150.8,63.7l-5.3-4.5c-1.6-1.4-4-1.3-5.6,0.2l-2.9,2.7c-2.5-1.2-5.1-2-7.8-2.5l-0.8-4
		c-0.4-2.1-2.4-3.5-4.5-3.4l-6.9,0.6c-2.1,0.2-3.8,1.9-3.9,4.1l-0.1,4.1c-2.7,1-5.2,2.3-7.5,3.9l-3.5-2.3c-1.8-1.2-4.2-0.8-5.5,0.8
		l-4.5,5.3c-1.4,1.6-1.3,4,0.2,5.6l3.1,3.3c-1.1,2.4-1.8,4.9-2.3,7.5l-4.4,0.9c-2.1,0.4-3.5,2.4-3.4,4.5l0.6,6.9
		c0.2,2.1,1.9,3.8,4.1,3.9l4.7,0.2c0.9,2.3,2,4.4,3.4,6.4l-2.6,4c-1.2,1.8-0.8,4.2,0.8,5.5l5.3,4.5c1.6,1.4,4,1.3,5.6-0.2l3.5-3.3
		c2.3,1.1,4.7,1.9,7.1,2.3l1,4.8c0.4,2.1,2.4,3.5,4.5,3.4l6.9-0.6c2.1-0.2,3.8-1.9,3.9-4.1l0.2-4.7c2.5-0.9,4.9-2.1,7.1-3.6l3.8,2.5
		c1.8,1.2,4.2,0.8,5.5-0.8l4.5-5.3c1.4-1.6,1.3-4-0.2-5.6l-3.1-3.3c1.1-2.4,2-4.9,2.4-7.5l4.2-0.9c2.1-0.4,3.5-2.4,3.4-4.5l-0.6-6.9
		c-0.2-2.1-1.9-3.8-4.1-3.9l-4.2-0.1c-0.9-2.5-2.1-4.8-3.5-6.9l2.3-3.5C152.7,67.5,152.4,65.1,150.8,63.7L150.8,63.7z M124.7,103.8
		c-7.5,0.6-14.1-4.9-14.7-12.4c-0.6-7.5,4.9-14.1,12.4-14.7c7.5-0.6,14.1,4.9,14.7,12.4C137.7,96.5,132.1,103.1,124.7,103.8
		L124.7,103.8z M124.7,103.8"/>
	<path class="st7" d="M39.1,122.4c-2.1,0.2-3.8,2-3.8,4.1l-0.1,4.3c0,2.1,1.6,4,3.7,4.2l3.1,0.4c0.5,1.9,1.3,3.7,2.2,5.4l-2,2.5
		c-1.3,1.7-1.2,4.1,0.3,5.6l3,3.1c1.5,1.5,3.9,1.7,5.6,0.4l2.5-1.9c1.8,1,3.6,1.9,5.6,2.4l0.3,3.2c0.2,2.1,2,3.8,4.1,3.8l4.3,0.1
		c2.1,0,4-1.6,4.2-3.7l0.4-3.1c2.1-0.5,4.1-1.3,6.1-2.4l2.4,1.9c1.7,1.3,4.1,1.2,5.6-0.3l3.1-3c1.5-1.5,1.7-3.9,0.4-5.6l-1.8-2.3
		c1.1-1.9,2-3.8,2.6-5.9l2.8-0.3c2.1-0.2,3.8-2,3.8-4.1l0-4.3c0-2.1-1.6-4-3.7-4.2l-2.7-0.4c-0.5-2.1-1.3-4-2.3-5.9l1.7-2.1
		c1.3-1.7,1.2-4.1-0.3-5.6l-3-3.1c-1.5-1.5-3.9-1.7-5.6-0.4l-2,1.6c-1.9-1.2-4-2.1-6.1-2.7l-0.3-2.6c-0.2-2.1-2-3.8-4.1-3.8l-4.3,0
		c-2.1,0-4,1.5-4.2,3.7l-0.3,2.6c-2.2,0.6-4.4,1.4-6.4,2.6l-2.1-1.7c-1.7-1.3-4.1-1.2-5.6,0.3l-3.1,3c-1.5,1.5-1.7,3.9-0.4,5.6
		l1.8,2.3c-1,1.9-1.9,3.8-2.4,5.9L39.1,122.4z M66.6,117.6c6.1,0.1,11,5.1,11,11.2c-0.1,6.1-5.1,11-11.2,11c-6.1-0.1-11-5.1-11-11.2
		C55.4,122.4,60.5,117.5,66.6,117.6L66.6,117.6z M66.6,117.6"/>
	<g>
		<path class="st6" d="M88.5,42.7l-5.2-0.6c-0.7-2.7-1.8-5.3-3.2-7.7l3.2-4c1.2-1.5,1-3.6-0.3-4.9l-6.2-6.2
			c-1.3-1.3-3.5-1.5-4.9-0.3L68,22.1c-2.5-1.5-5.2-2.6-8.1-3.4l-0.6-4.5c-0.2-1.9-1.8-2.8-3.7-2.8h-8.8c-1.9,0-3.5,0.9-3.7,2.8
			L42.6,19c-2.9,0.8-5.7,1.8-8.3,3.4l-4-3.3c-1.5-1.2-3.6-1.1-4.9,0.2l-6.2,6.2c-1.3,1.3-1.5,3.4-0.3,4.9l3.4,4.3
			c-1.4,2.4-2.4,5-3.1,7.8L14,43.1c-1.9,0.2-3,1.8-3,3.7v8.8c0,1.9,1.1,3.5,3,3.7l5.6,0.7c0.7,2.5,1.7,4.9,2.9,7.1l-3.6,4.5
			c-1.2,1.5-1.1,3.6,0.3,4.9l6.2,6.2c1.3,1.3,3.5,1.5,4.9,0.3l4.5-3.6c2.3,1.3,4.8,2.4,7.4,3.1l0.7,5.7c0.2,1.9,1.8,3.2,3.7,3.2h8.8
			c1.9,0,3.5-1.3,3.7-3.2l0.6-5.6c2.8-0.7,5.4-1.8,7.9-3.2l4.4,3.5c1.5,1.2,3.6,1.1,4.9-0.3l6.2-6.2c1.3-1.3,1.5-3.5,0.3-4.9
			l-3.4-4.3c1.4-2.4,2.5-5,3.2-7.8l5.4-0.6c1.9-0.2,3.4-1.8,3.4-3.7v-8.8C92,44.5,90.4,43,88.5,42.7z M51.3,71.1
			c-11.3,0-20.5-9.2-20.5-20.5c0-11.3,9.2-20.5,20.5-20.5c11.3,0,20.5,9.2,20.5,20.5C71.7,61.9,62.6,71.1,51.3,71.1z"/>
	</g>
	<g>
		<path class="st6" d="M152.1,81.9l-4-0.2c-0.7-2.1-1.6-4-2.9-5.8l2.3-3.4c0.8-1.2,0.6-2.9-0.5-3.9l-5.2-4.5c-1.1-1-2.8-0.9-3.9,0.1
			l-2.9,2.7c-2.1-1-4.3-1.7-6.6-2.2l-0.8-3.8c-0.3-1.5-1.6-2.3-3.1-2.2l-6.9,0.5c-1.5,0.1-2.7,1.1-2.7,2.6l-0.2,3.9
			c-2.2,0.8-4.4,1.8-6.3,3.2l-3.4-2.3c-1.2-0.8-2.9-0.6-3.9,0.5l-4.5,5.3c-1,1.1-0.9,2.8,0.1,3.9l2.9,3.2c-0.9,2-1.6,4.1-1.9,6.3
			l-4.3,0.8c-1.5,0.3-2.5,1.6-2.4,3.1l0.5,6.9c0.1,1.5,1.4,2.6,2.9,2.7l4.6,0.2c0.7,1.9,1.7,3.7,2.8,5.4l-2.5,3.8
			c-0.8,1.2-0.6,2.9,0.5,3.9l5.3,4.5c1.1,1,2.8,0.9,3.9-0.1l3.3-3.1c1.9,0.9,3.9,1.6,6,2l0.9,4.5c0.3,1.5,1.6,2.5,3.1,2.3l6.9-0.5
			c1.5-0.1,2.6-1.3,2.7-2.8l0.2-4.4c2.1-0.7,4.1-1.7,6-3l3.6,2.5c1.2,0.8,2.9,0.6,3.9-0.5l4.5-5.3c1-1.1,0.9-2.8-0.1-3.9l-2.9-3.2
			c1-2,1.7-4.1,2.1-6.3l3.8-0.8c1.5-0.3,2.2-1.6,2.1-3.1l-0.5-6.9C154.5,83.2,153.6,82,152.1,81.9z M124.9,106.5
			c-8.9,0.7-16.7-6-17.3-14.8c-0.7-8.9,6-16.7,14.8-17.3c8.9-0.7,16.7,6,17.3,14.8C140.5,98,133.8,105.8,124.9,106.5z"/>
	</g>
	<g>
		<path class="st6" d="M89.9,124.6l-3.1-0.5c-0.4-1.7-0.9-3.4-1.7-4.9l2.1-2.4c0.8-0.9,0.8-2.2,0-3.1l-3.7-4.1
			c-0.8-0.9-2.1-1-3.1-0.3l-2.5,1.8c-1.6-1-3.2-1.8-5-2.4l-0.2-3.1c-0.1-1.2-1.1-2-2.2-2l-5.5-0.2c-1.2-0.1-2.2,0.7-2.4,1.8
			l-0.5,3.1c-1.9,0.4-3.6,1-5.3,1.9L54,108c-0.9-0.8-2.2-0.8-3.1,0l-4.1,3.7c-0.9,0.8-1,2.1-0.3,3.1l2,2.8c-0.9,1.5-1.6,3.1-2.1,4.8
			l-3.5,0.2c-1.2,0.1-2.2,1-2.2,2.2l-0.2,5.5c-0.1,1.2,0.9,2.2,2,2.4l3.6,0.6c0.4,1.6,1,3.1,1.7,4.6l-2.4,2.8
			c-0.8,0.9-0.8,2.2,0,3.1l3.7,4.1c0.8,0.9,2.1,1,3.1,0.3l3-2.1c1.4,0.9,3,1.6,4.6,2.2l0.3,3.7c0.1,1.2,1.1,2.1,2.2,2.2l5.5,0.2
			c1.2,0.1,2.2-0.8,2.4-2l0.6-3.5c1.8-0.4,3.5-1,5.1-1.8l2.7,2.3c0.9,0.8,2.2,0.8,3.1,0l4.1-3.7c0.9-0.8,1-2.1,0.3-3.1l-2-2.8
			c1-1.5,1.7-3.1,2.3-4.8l3.1-0.2c1.2-0.1,1.9-1.1,2-2.2l0.2-5.5C91.7,125.8,91,124.8,89.9,124.6z M65.8,141.5
			c-7.1-0.3-12.7-6.4-12.4-13.5c0.3-7.1,6.4-12.7,13.5-12.4c7.1,0.3,12.7,6.4,12.4,13.5C79,136.3,73,141.8,65.8,141.5z"/>
	</g>
</g>
</svg>
