<?xml version="1.0" encoding="utf-8"?>
<!-- Generator: Adobe Illustrator 20.1.0, SVG Export Plug-In . SVG Version: 6.00 Build 0)  -->
<svg version="1.1" id="Layer_1" xmlns="http://www.w3.org/2000/svg" xmlns:xlink="http://www.w3.org/1999/xlink" x="0px" y="0px"
	 viewBox="0 0 396 162" style="enable-background:new 0 0 396 162;" xml:space="preserve">
<style type="text/css">
	.st0{fill:#E6AF78;}
	.st1{fill:#EFF2FA;}
	.st2{fill:#D29B6E;}
	.st3{fill:#F0C087;}
	.st4{fill:#E4EAF6;}
	.st5{fill:#5B5D6E;}
	.st6{fill:#515262;}
	.st7{fill:#CFC2C1;}
	.st8{fill:#C8BDBD;}
	.st9{fill:#CEC6C8;}
	.st10{fill:#694B4B;}
	.st11{fill:#5A4146;}
	.st12{fill:#785550;}
	.st13{fill:#B4E1FA;}
	.st14{fill:#A0D2F0;}
	.st15{fill:#0E3767;}
</style>
<g>
	<polygon class="st0" points="101,103.7 101,91.7 70.1,91.5 70,103.6 85.4,117.4 	"/>
	<path class="st1" d="M124.9,109.4l-21.2-5.1c-0.3-0.1-0.6-0.2-0.9-0.4l-17.3,10L69,103.3c-0.4,0.4-1,0.7-1.6,0.8l-21.3,4.9
		c-3.1,0.7-5.3,3.5-5.3,6.7l-0.1,13.5c0,1.9,1.5,3.4,3.4,3.5l82.5,0.4c1.9,0,3.4-1.5,3.5-3.4l0.1-13.5
		C130.1,113,128,110.2,124.9,109.4z"/>
	<path class="st2" d="M70.1,91.5L70,104.2c19.5,7.1,31-10.4,31-10.4l0-2.1L70.1,91.5L70.1,91.5z"/>
	<path class="st3" d="M63.4,52l1.3,33c0.1,3.1,1.6,5.9,4.1,7.8l7.1,5.4c1.8,1.3,3.9,2.1,6.2,2.1l6.9,0c2.2,0,4.4-0.7,6.2-2l7.1-5.3
		c2.5-1.8,4-4.7,4.2-7.8l1.7-32.9L63.4,52L63.4,52z"/>
	<path class="st0" d="M80.6,58.9c6.9,0,17.2-1.6,19.7-6.8L63.4,52l1.3,33c0.1,3.1,1.6,5.9,4.1,7.8l7.1,5.4c1.8,1.3,3.9,2.1,6.2,2.1
		l3.4,0c-3.4,0-10.3-6.9-10.2-15.5c0-4.2,0.1-15.5,0.1-20.6C75.4,62.3,77.1,58.9,80.6,58.9z"/>
	<path class="st4" d="M117.5,121.9l11.2-10c0.9,1.2,1.5,2.7,1.5,4.3l-0.1,13.5c0,1.9-1.6,3.4-3.5,3.4l-12-0.1l0-4.8
		C114.6,125.8,115.7,123.5,117.5,121.9z"/>
	<polygon class="st5" points="89.7,132.9 81.1,132.8 82.2,117.4 88.7,117.4 	"/>
	<path class="st6" d="M89.7,114l-8.6,0l0,1c0,2.3,1.8,4.2,4.1,4.2l0.3,0c2.3,0,4.2-1.8,4.2-4.1L89.7,114L89.7,114z"/>
	<g>
		<path class="st4" d="M69.8,99.7l15.6,14.2c0,0-4.4,2.2-9.9,6.7c-1.1,0.9-2.8,0.5-3.4-0.8l-7.3-16.3l2.4-3.5
			C67.8,99.2,69,99,69.8,99.7z"/>
		<path class="st4" d="M101.2,99.9l-15.8,14.1c0,0,4.4,2.2,9.8,6.7c1.1,0.9,2.8,0.6,3.4-0.8l7.5-16.2l-2.3-3.5
			C103.2,99.3,102,99.2,101.2,99.9z"/>
	</g>
	<path class="st7" d="M96.2,40.7l1.6,11.4c7.3,1.5,8.4,13.1,8.5,16.3c0,0.6,0.2,1.2,0.5,1.7l2.8,4.4c0,0-0.9-7.2,3.5-12
		C113.1,62.5,114.7,34,96.2,40.7z"/>
	<path class="st3" d="M111.3,73.8l-2,7.8c-0.2,0.9-1.1,1.6-2,1.6l0,0c-1,0-1.9-0.8-2-1.8l-1-7.9c-0.3-2.1,1.4-4,3.5-4l0,0
		C110.2,69.4,111.9,71.6,111.3,73.8z"/>
	<path class="st8" d="M65.1,37.5l2.5,1.7c-11.5,8.4-9.5,23-9.5,23c3.4,3.5,3.4,12,3.4,12l3.5-3.4c0,0-1.3-9.9,5.2-13.7
		c6-3.5,11.3-1.7,16.7-1.6c14.4,0.1,18.4-5.3,17.8-11.9c-0.3-3.4-5.5-10.6-18.9-10.4C80.5,33.2,70.4,34.8,65.1,37.5z"/>
	<path class="st9" d="M64,53.9c0,0-1.8-7.2,3.6-14.6c-11.5,8.4-9.5,23-9.5,23c3.4,3.5,3.4,12,3.4,12l3.5-3.4c0,0-1.3-9.9,5.2-13.7
		c6-3.5,11.3-1.7,16.7-1.6c2.3,0,4.4-0.1,6.2-0.4C82,55.4,75.5,47,64,53.9z"/>
	<path class="st0" d="M60,73.6l1.9,7.8c0.2,0.9,1,1.6,2,1.6l0,0c1,0,1.9-0.8,2.1-1.8l1-7.9c0.3-2.1-1.4-4-3.5-4l0,0
		C61.1,69.1,59.4,71.3,60,73.6z"/>
	<path class="st4" d="M106,129.5l-8.6,0c-1.9,0-3.4,1.5-3.5,3.4l0,0l15.5,0.1l0,0C109.4,131.1,107.9,129.5,106,129.5z"/>
</g>
<g>
	<path class="st10" d="M150.2,35.8c-35.9-0.2-32.1,43.5-32.1,75.1c0,1.2,0.6,2.3,1.6,2.9c4,2.4,14.9,8.1,30.1,8.1
		c15.2,0.1,26.1-5.5,30.1-7.9c1-0.6,1.7-1.7,1.7-2.9C181.9,79.6,186.1,36,150.2,35.8z"/>
	<path class="st11" d="M147.9,35.9c-33.4,1.7-29.8,44.1-29.8,75.1c0,1.2,0.6,2.3,1.6,2.9c4,2.4,14.9,8.1,30.1,8.1l9.4-63.5"/>
	<path class="st10" d="M150.2,35.8c-20.4-0.1-21.9,24.6-21.9,24.6c11.8-1.9,19,3.1,30.9-1.8l-9.4,63.5c15.2,0.1,26.1-5.5,30.1-7.9
		c1-0.6,1.7-1.7,1.7-2.9C181.9,79.6,186.1,36,150.2,35.8z"/>
	<path class="st12" d="M181.6,111.3c0.3-27.2,3.4-63.2-18.5-72.9c-0.4,2-1.1,7.5,0.7,11.1c4.5,9.1,9,9.1,13.5,15.9
		c4.4,25-8.9,51.4-13.3,55l0,0c7.8-1.8,13.4-4.7,16-6.3C181,113.5,181.6,112.5,181.6,111.3z"/>
	<path class="st0" d="M184.2,118.2l-20.2-8.5c-1.7-0.7-2.8-2.4-2.8-4.2l0-5.5l-22.7-0.1l0,5.5c0,1.8-1.1,3.5-2.8,4.2l-20.3,8.3
		c-2.5,1-4.2,3.5-4.2,6.3l0,9.1c0,2.5,2,4.5,4.5,4.6l68,0.3c2.5,0,4.5-2,4.6-4.5l0-9.1C188.4,121.7,186.7,119.2,184.2,118.2z"/>
	<path class="st13" d="M184.2,118.2l-19.5-8.2l-14.8,6.3l-14.8-6.5l-19.6,8.1c-2.5,1-4.2,3.5-4.2,6.3l0,9.1c0,2.5,2,4.5,4.5,4.6
		l68,0.3c2.5,0,4.5-2,4.6-4.5l0-9.1C188.4,121.7,186.7,119.2,184.2,118.2z"/>
	<path class="st2" d="M161.2,100l-22.7-0.1l0,5.5c0,1.8-1.1,3.5-2.8,4.2l-3.2,1.3C156.7,117.1,161.2,100,161.2,100z"/>
	<g>
		<path class="st14" d="M122.3,126.6l-9.1-7.3c-1.2,1.2-2,2.9-2,4.7l0,9.1c0,2.5,2,4.5,4.5,4.6l9.1,0l0-5.8
			C124.8,129.9,123.9,127.9,122.3,126.6z"/>
		<path class="st14" d="M188.3,133.5l0-9.1c0-1.8-0.7-3.5-1.9-4.7l-9.2,7.2c-1.6,1.3-2.6,3.2-2.6,5.3l0,5.8l9.1,0
			C186.2,138.1,188.3,136,188.3,133.5z"/>
		<path class="st14" d="M149.8,133.4L149.8,133.4c-1.3,0-2.3-1-2.3-2.3l0.1-14.8l4.5,0l-0.1,14.8C152,132.3,151,133.4,149.8,133.4z"
			/>
		<path class="st14" d="M149.8,116.2l-12.9-9.8c-0.8-0.6-2-0.4-2.6,0.4l-2.6,3.8l7.9,11.2c0.6,0.8,1.8,1,2.6,0.4L149.8,116.2z"/>
		<path class="st14" d="M149.8,116.2l13-9.7c0.8-0.6,2-0.4,2.6,0.5l2.5,3.9l-8,11.1c-0.6,0.8-1.8,1-2.6,0.3L149.8,116.2z"/>
	</g>
	<path class="st3" d="M161.5,56.3c-11.4,11.3-33.6,2.1-33.7,20.3l1.3,13.4c0.3,3,2,5.7,4.6,7.1l12.9,7.2c2,1.2,4.5,1.2,6.6,0
		l12.9-7.1c2.6-1.4,4.4-4.1,4.7-7.1l1.7-15.9c0.1-1.1,0.2-2.3,0.1-3.4C171.8,65.1,163.7,60.8,161.5,56.3z"/>
	<path class="st0" d="M127.8,76.6l1.3,13.4c0.3,3,2,5.7,4.6,7.1l12.9,7.2c1.4,0.8,3.1,1,4.6,0.7l0,0c0,0-6.5-2-10.3-12.5
		c-1.2-3.2-2.7-20.2-1.3-22.3c2.8-4.1,18.4-4.4,23.1-12c-0.2-0.3-0.4-0.6-0.6-0.9c0,0,0,0,0-0.1c-0.2-0.3-0.4-0.6-0.5-0.9
		C150.1,67.6,127.9,58.4,127.8,76.6z"/>
	<path class="st14" d="M167.9,133.4l-9.1,0c-1.3,0-2.3,1-2.3,2.3l0,2.3l13.6,0.1l0-2.3C170.2,134.5,169.1,133.4,167.9,133.4z"/>
</g>
<rect x="-5.3" y="131.2" class="st15" width="403" height="10.1"/>
<g id="XMLID_456_">
	<g>
		<path class="st15" d="M245.6,27v114.3h14.7v-22.9h12.4v22.9h15.8V27H245.6z M259.3,100.3H252V82.5h7.3V100.3z M259.3,77.5H252
			V59.6h7.3V77.5z M259.3,55.4H252V37.6h7.3V55.4z M270.7,100.3h-7.3V82.5h7.3V100.3z M270.7,77.5h-7.3V59.6h7.3V77.5z M270.7,55.4
			h-7.3V37.6h7.3V55.4z M282.1,100.3h-7.3V82.5h7.3V100.3z M282.1,77.5h-7.3V59.6h7.3V77.5z M282.1,55.4h-7.3V37.6h7.3V55.4z"/>
		<path class="st15" d="M234.4,123v-11.2h9.2V104h-9.2V92.9h9.2v-8.7h-9.2V73h9.2v-8.2h-9.2V53.6h9.2v-7.3H207v89.1h36.7V123H234.4z
			 M225.3,123h-11.2v-11.2h11.2V123z M225.3,104h-11.2V92.9h11.2V104z M225.3,84.1h-11.2V73h11.2V84.1z M225.3,64.7h-11.2V53.6h11.2
			V64.7z"/>
		<path class="st15" d="M321.5,131.1v-9.9v-4.7v-2.1v-6.3v-6.8v-3.6v-6.8v-3.3v-6.8v-3.9v-6.8v-3.9v-6.8h-7.3h-22.8v6.8h22.8v3.9
			h-22.8v6.8h22.8v3.9h-22.8v6.8h22.8v3.3h-22.8v6.8h22.8v3.6h-22.8v6.8h22.8v6.3h-22.8v2.1v4.7v9.9v5.7h22.8h7.3h4.9v-5.7H321.5z
			 M308.8,130.8h-13.6v-10h13.6V130.8z"/>
	</g>
</g>
</svg>
