<?xml version="1.0" encoding="utf-8"?>
<!-- Generator: Adobe Illustrator 20.1.0, SVG Export Plug-In . SVG Version: 6.00 Build 0)  -->
<svg version="1.1" id="Layer_1" xmlns="http://www.w3.org/2000/svg" xmlns:xlink="http://www.w3.org/1999/xlink" x="0px" y="0px"
	 viewBox="0 0 125.2 175.9" style="enable-background:new 0 0 125.2 175.9;" xml:space="preserve">
<style type="text/css">
	.st0{fill:#C0DB82;}
	.st1{fill:#FFCB31;}
	.st2{fill:none;stroke:#000000;stroke-width:1.2742;stroke-miterlimit:10;}
	.st3{fill:none;stroke:#000000;stroke-width:2;stroke-miterlimit:10;}
	.st4{fill:none;stroke:#000000;stroke-width:2;stroke-linecap:round;stroke-linejoin:round;stroke-miterlimit:10;}
	.st5{fill:none;stroke:#000000;stroke-width:1.5313;stroke-miterlimit:10;}
	.st6{fill:none;stroke:#000000;stroke-width:1.4849;stroke-miterlimit:10;}
	.st7{fill:none;stroke:#000000;stroke-width:1.4304;stroke-miterlimit:10;}
	.st8{fill:#0057A2;}
</style>
<g>
	<g>
		<path class="st0" d="M64.9,104.2c12-35.8,45.3-24,45.3-24l0.2,0.1c0,0-11.6,29.2-45.6,24V104.2z"/>
		<path class="st0" d="M16.1,90c35.3-12,46.1,21.5,46.1,21.5l-0.1,0.1c0,0-30.2,7.8-46.2-21.6L16.1,90z"/>
		<circle class="st1" cx="63.7" cy="39.1" r="30.3"/>
		<circle class="st2" cx="63.7" cy="39.1" r="34.1"/>
		<line class="st3" x1="61.9" y1="74.1" x2="61.9" y2="119.1"/>
		<path class="st4" d="M61.9,104.8c18-44.3,57.5-29.7,57.5-29.7l-0.4,0.2c0,0-16.1,36.2-57.1,29.8V104.8z"/>
		<path class="st5" d="M4.3,84.8c44.3-15,57.8,27,57.8,27L62,112c0,0-37.9,9.8-57.9-27.1L4.3,84.8z"/>
		<rect x="29.2" y="120" class="st6" width="69.5" height="14.3"/>
		<polygon class="st7" points="41,170.8 87,170.8 96.2,134.3 31.7,134.3 		"/>
		<g>
			<path class="st2" d="M54.8,48.2c0.9,4.3,4.7,7.6,9.2,7.6c5.2,0,9.4-4.2,9.4-9.4c0-3.2-2-5.9-4.7-7.5c-1.4-0.9-3-1.5-4.6-1.8
				c-1.5-0.3-3.1-0.5-4.4-1.4c-0.3-0.2-0.6-0.4-0.8-0.7c-1.4-1.4-2.2-3.3-2.2-5.2c0-4,3.3-7.3,7.3-7.3c2.9,0,5.5,1.7,6.6,4.3"/>
			<line class="st3" x1="63.9" y1="20.1" x2="63.9" y2="60.1"/>
		</g>
		<line class="st5" x1="64" y1="104.8" x2="90.7" y2="91.5"/>
		<line class="st5" x1="62" y1="112" x2="41.8" y2="102.4"/>
		<rect x="33.2" y="122.5" class="st8" width="61.6" height="9.3"/>
		<polygon class="st8" points="44.8,167.8 83.1,167.8 90.9,137.3 37.1,137.3 		"/>
	</g>
</g>
</svg>
