<svg xmlns="http://www.w3.org/2000/svg" xmlns:xlink="http://www.w3.org/1999/xlink" viewBox="0 0 250 250"><defs><style>.cls-1{fill:url(#linear-gradient);}.cls-13,.cls-15,.cls-2{fill:none;}.cls-3{isolation:isolate;}.cls-4{clip-path:url(#clip-path);}.cls-5,.cls-6{fill:#cdcccb;}.cls-5{opacity:0.36;}.cls-6{mix-blend-mode:overlay;}.cls-7{mask:url(#mask);}.cls-8{clip-path:url(#clip-path-2);}.cls-9{fill:url(#linear-gradient-2);}.cls-10{fill:url(#linear-gradient-3);}.cls-11{fill:url(#linear-gradient-4);}.cls-12{fill:url(#linear-gradient-5);}.cls-13{stroke:#fff;}.cls-13,.cls-15{stroke-miterlimit:10;}.cls-14{fill:#0f3867;}.cls-15{stroke:#000;stroke-width:0.58px;}</style><linearGradient id="linear-gradient" x1="1935.1" y1="-932.98" x2="-408.68" y2="-221.94" gradientUnits="userSpaceOnUse"><stop offset="0" stop-color="#fff" stop-opacity="0"/><stop offset="1" stop-color="#fff"/></linearGradient><clipPath id="clip-path"><rect class="cls-2" x="-32.86" y="-1168.25" width="1917.75" height="1084.7"/></clipPath><mask id="mask" x="-137.2" y="-1555.88" width="2028.52" height="1635.02" maskUnits="userSpaceOnUse"><g id="_Group_" data-name="&lt;Group&gt;"><rect id="_Rectangle_" data-name="&lt;Rectangle&gt;" class="cls-1" x="-32.86" y="-1265.13" width="1924.19" height="1274.6"/></g></mask><clipPath id="clip-path-2"><rect id="_Rectangle_2" data-name="&lt;Rectangle&gt;" class="cls-2" x="-32.86" y="-1265.13" width="1924.19" height="1274.6"/></clipPath><linearGradient id="linear-gradient-2" x1="167.78" y1="-175.87" x2="220.28" y2="45.64" xlink:href="#linear-gradient"/><linearGradient id="linear-gradient-3" x1="230.27" y1="-214.44" x2="-159.41" y2="65.55" xlink:href="#linear-gradient"/><linearGradient id="linear-gradient-4" x1="191.62" y1="-61.93" x2="1149.22" y2="54.32" xlink:href="#linear-gradient"/><linearGradient id="linear-gradient-5" x1="540.08" y1="-869.33" x2="686.61" y2="-245.95" gradientUnits="userSpaceOnUse"><stop offset="0" stop-color="#fff"/><stop offset="1" stop-color="#fff" stop-opacity="0"/></linearGradient></defs><title>Artboard 12 copy 14fondo</title><g class="cls-3"><g id="Layer_1" data-name="Layer 1"><g class="cls-4"><image width="1920" height="1271" transform="translate(-32.86 -1265.13)" xlink:href="../../../imgs/moscow-city-2210335_1920.jpg"/><rect class="cls-5" x="-34.73" y="-1265.13" width="1921.86" height="1271"/><rect class="cls-6" x="-34.73" y="-1265.13" width="1921.86" height="1271"/><g class="cls-7"><g id="_Clip_Group_" data-name="&lt;Clip Group&gt;"><g class="cls-8"><g id="_Group_2" data-name="&lt;Group&gt;"><polygon id="_Path_" data-name="&lt;Path&gt;" class="cls-9" points="165.66 44.64 189.08 44.64 224.78 -164.79 121.43 -189.48 165.66 44.64"/><polygon id="_Path_2" data-name="&lt;Path&gt;" class="cls-10" points="-45.08 -229.26 121.43 -189.48 165.66 44.64 -54.24 44.64 -45.08 -229.26"/><polygon id="_Path_3" data-name="&lt;Path&gt;" class="cls-11" points="224.78 -164.79 1243.82 78.65 189.08 44.64 224.78 -164.79"/><polygon id="_Path_4" data-name="&lt;Path&gt;" class="cls-12" points="224.78 -164.79 285.33 -519.95 804.27 -782.77 1243.82 78.65 224.78 -164.79"/><line id="_Path_5" data-name="&lt;Path&gt;" class="cls-13" x1="165.66" y1="44.64" x2="-136.71" y2="-1555.79"/><line id="_Path_6" data-name="&lt;Path&gt;" class="cls-13" x1="189.08" y1="44.64" x2="461.93" y2="-1555.79"/><line id="_Path_7" data-name="&lt;Path&gt;" class="cls-13" x1="-45.08" y1="-229.26" x2="1243.82" y2="78.65"/></g><line id="_Path_8" data-name="&lt;Path&gt;" class="cls-13" x1="-55.77" y1="74.18" x2="307.69" y2="-1322.17"/><line id="_Path_9" data-name="&lt;Path&gt;" class="cls-13" x1="89.31" y1="-1316.8" x2="759.72" y2="76.86"/></g></g></g></g><path class="cls-14" d="M168.15,212.68v-45.1a14.65,14.65,0,0,1,4.32-10.43l9.91-9.91a14.73,14.73,0,0,1,.7,5.11l-2.41,60.22m-44.56,0-2.62-60.12a8.5,8.5,0,0,0,4.81,1.49c.28,0,.57,0,.85,0a8.52,8.52,0,0,0,6.27-3.77l12.2-18.3,16,6.18a14.73,14.73,0,0,1,6,4.28l-11,11a20.07,20.07,0,0,0-5.92,14.28v45.1m-44.07.12,2.42-55.55h7.19l2.42,55.55m-44.07-.12v-45.1a20.07,20.07,0,0,0-5.92-14.28l-11-11a14.73,14.73,0,0,1,6-4.28l16-6.18,12.2,18.3a8.52,8.52,0,0,0,6.27,3.77q.43,0,.85,0a8.51,8.51,0,0,0,4.81-1.49l-2.62,60.12m-44.56,0-2.41-60.22a14.73,14.73,0,0,1,.7-5.11l9.91,9.91a14.65,14.65,0,0,1,4.32,10.43v45.1M98.71,92.34a5.67,5.67,0,0,0-5.89-4.62,3,3,0,0,1-.83-.06,3.41,3.41,0,0,1-2.48-3.42V82A3.3,3.3,0,0,1,92,78.66a3.09,3.09,0,0,1,3,1.17,4,4,0,0,0,5.44.86,22.35,22.35,0,0,0,6-6.34,2.73,2.73,0,0,0-4.6-2.92,17.11,17.11,0,0,1-3.5,4,8.52,8.52,0,0,0-3.67-2,71.47,71.47,0,0,1-2.31-17.94c0-11.37,8.47-11.82,9.41-11.84a2.72,2.72,0,0,0,1.89-.76c.08-.07,7.7-7.26,21.07-8,12.12-.65,21.49,2.42,27.1,8.89s7.57,16.72,5.43,29.38a12.94,12.94,0,0,0-3.21.22l-3-7.31a2.73,2.73,0,0,0-3.21-1.59c-.29.08-29.28,7.43-41.49-7.78a2.72,2.72,0,1,0-4.25,3.41c12.34,15.36,37.07,11.75,44.8,10.17L149.3,76a4.73,4.73,0,0,0,5.47,2.8,7.06,7.06,0,0,1,2.49-.17,3.33,3.33,0,0,1,2.52,3.3v2.27a3.41,3.41,0,0,1-2.48,3.42,3,3,0,0,1-.83.06,5.67,5.67,0,0,0-5.89,4.62,26.37,26.37,0,0,1-51.87,0Zm14.47,55.24a3.1,3.1,0,0,1-4.77-.47L96.11,128.66l5.36-5.36,19.19,16.79Zm8.11,4.23.21-4.84,3.15-3.15L127.8,147l.21,4.84Zm3.36-15.46L107,120.88V114a31.79,31.79,0,0,0,35.33,0v6.86Zm16.24,10.76a3.1,3.1,0,0,1-4.77.47l-7.48-7.48,19.19-16.79,5.36,5.36Z"/><path class="cls-15" d="M183.09,215.28c3.42,0,3-2.49,3-2.49l2.41-60.22a20.2,20.2,0,0,0-12.92-19.66l-17-6.57-8.7-8.7a2.72,2.72,0,0,0-2.11-.79v-7.42a31.71,31.71,0,0,0,8.18-16.11.36.36,0,0,1,.17-.17A8.51,8.51,0,0,0,158.4,93a8.82,8.82,0,0,0,6.84-8.76V82a8.94,8.94,0,0,0-2.78-6.5c2.8-15,.58-27.12-6.44-35.23-6.75-7.79-17.65-11.52-31.51-10.77a41.19,41.19,0,0,0-23.8,8.82C97.23,38.73,87,41.22,87,55.49a77.14,77.14,0,0,0,2.24,18.37A8.81,8.81,0,0,0,84.06,82v2.24A8.82,8.82,0,0,0,90.9,93a8.48,8.48,0,0,0,2.29.15.37.37,0,0,1,.17.17,31.71,31.71,0,0,0,8.18,16.11v7.42a2.72,2.72,0,0,0-2.11.79l-8.7,8.7-17,6.57a20.19,20.19,0,0,0-12.91,19.66l2.41,60.22a2.73,2.73,0,0,0,2.72,2.62Z"/></g></g></svg>