<?xml version="1.0" encoding="utf-8"?>
<!-- Generator: Adobe Illustrator 20.1.0, SVG Export Plug-In . SVG Version: 6.00 Build 0)  -->
<svg version="1.1" id="Layer_1" xmlns="http://www.w3.org/2000/svg" xmlns:xlink="http://www.w3.org/1999/xlink" x="0px" y="0px"
	 viewBox="0 0 768.2 324.3" style="enable-background:new 0 0 768.2 324.3;" xml:space="preserve">
<style type="text/css">
	.st0{fill:#F3725E;}
	.st1{fill:#C0DB82;}
	.st2{fill:none;stroke:#0E3767;stroke-width:0.9002;stroke-miterlimit:10;}
	.st3{fill:#0E3767;}
	.st4{font-family:'NewsCycle';}
	.st5{font-size:15.2228px;}
	.st6{fill:#FFFFFF;}
	.st7{font-size:17.9092px;}
	.st8{fill:none;stroke:#0E3767;stroke-miterlimit:10;}
</style>
<g>
	<rect x="169.6" y="118" class="st0" width="136.3" height="48.4"/>
	<rect x="317.6" y="118" class="st0" width="136.3" height="48.4"/>
	<rect x="465.4" y="118" class="st1" width="136.3" height="48.4"/>
	<rect x="317.6" y="176.9" class="st0" width="136.3" height="65.2"/>
	<rect x="169.6" y="176.9" class="st1" width="136.3" height="65.2"/>
	<rect x="613.7" y="11.7" class="st1" width="136.3" height="299.8"/>
	<rect x="465.4" y="176.9" class="st0" width="136.3" height="65.2"/>
	<polygon class="st2" points="755.8,318.5 14.2,318.5 14.2,113.9 14.2,6 163.2,6 755.8,6 	"/>
	<g>
		<g>
			<g>
				<text transform="matrix(1 0 0 1 207.3715 55.5842)"><tspan x="0" y="0" class="st3 st4 st5">Cuenta de</tspan><tspan x="9.9" y="19.7" class="st3 st4 st5">Ahorro</tspan></text>
			</g>
		</g>
	</g>
	<g>
		<g>
			<g>
				<text transform="matrix(1 0 0 1 651.1577 55.5842)"><tspan x="0" y="0" class="st3 st4 st5">Fondos de</tspan><tspan x="4.2" y="19.7" class="st3 st4 st5">Inversión</tspan></text>
			</g>
		</g>
	</g>
	<g>
		<g>
			<g>
				<text transform="matrix(1 0 0 1 400.6635 37.675)" class="st3 st4 st5">Mercado de Valores</text>
			</g>
		</g>
	</g>
	<g>
		<g>
			<g>
				<text transform="matrix(1 0 0 1 358.3149 80.7554)"><tspan x="0" y="0" class="st3 st4 st5">Acciones</tspan><tspan x="-11.7" y="19.7" class="st3 st4 st5">de un emisor</tspan></text>
			</g>
		</g>
	</g>
	<g>
		<g>
			<g>
				<text transform="matrix(1 0 0 1 495.9311 80.7554)"><tspan x="0" y="0" class="st3 st4 st5">Obligaciones</tspan><tspan x="-0.7" y="19.7" class="st3 st4 st5">de un emisor</tspan></text>
			</g>
		</g>
	</g>
	<g>
		<g>
			<g>
				<text transform="matrix(1 0 0 1 52.2866 148.7886)" class="st3 st4 st5">Rendimiento</text>
			</g>
		</g>
	</g>
	<g>
		<g>
			<g>
				<text transform="matrix(1 0 0 1 217.7846 148.7886)" class="st6 st4 st7">BAJO</text>
			</g>
		</g>
	</g>
	<g>
		<g>
			<g>
				<text transform="matrix(1 0 0 1 217.7846 216.3342)" class="st6 st4 st7">BAJO</text>
			</g>
		</g>
	</g>
	<g>
		<g>
			<g>
				<text transform="matrix(1 0 0 1 362.0893 148.7886)" class="st6 st4 st7">MEDIO</text>
			</g>
		</g>
	</g>
	<g>
		<g>
			<g>
				<text transform="matrix(1 0 0 1 366.3696 216.3342)" class="st6 st4 st7">ALTO</text>
			</g>
		</g>
	</g>
	<g>
		<g>
			<g>
				<text transform="matrix(1 0 0 1 514.1205 148.7886)" class="st6 st4 st7">ALTO</text>
			</g>
		</g>
	</g>
	<g>
		<g>
			<g>
				<text transform="matrix(1 0 0 1 514.1205 216.3342)" class="st6 st4 st7">ALTO</text>
			</g>
		</g>
	</g>
	<g>
		<g>
			<g>
				<text transform="matrix(1 0 0 1 637.853 140.7512)"><tspan x="0" y="0" class="st3 st4 st5">MEDIO a ALTO</tspan><tspan x="2.1" y="19.7" class="st3 st4 st5">según el plazo</tspan></text>
			</g>
		</g>
	</g>
	<g>
		<g>
			<g>
				<text transform="matrix(1 0 0 1 662.3813 216.3342)" class="st3 st4 st7">BAJO</text>
			</g>
		</g>
	</g>
	<g>
		<g>
			<g>
				<text transform="matrix(1 0 0 1 220.9184 289.8306)" class="st3 st4 st5">$100</text>
			</g>
		</g>
	</g>
	<g>
		<g>
			<g>
				<text transform="matrix(1 0 0 1 364.1049 289.8306)" class="st3 st4 st5">$1.000</text>
			</g>
		</g>
	</g>
	<g>
		<g>
			<g>
				<text transform="matrix(1 0 0 1 507.0395 289.8306)" class="st3 st4 st5">$50.000</text>
			</g>
		</g>
	</g>
	<g>
		<g>
			<g>
				<text transform="matrix(1 0 0 1 669.1352 289.8306)" class="st3 st4 st5">$50</text>
			</g>
		</g>
	</g>
	<g>
		<g>
			<g>
				<text transform="matrix(1 0 0 1 49.6738 204.3291)"><tspan x="0" y="0" class="st3 st4 st5">Riesgo según</tspan><tspan x="-2.7" y="19.7" class="st3 st4 st5">diversificación</tspan></text>
			</g>
		</g>
	</g>
	<g>
		<g>
			<g>
				<text transform="matrix(1 0 0 1 62.5663 279.5476)"><tspan x="0" y="0" class="st3 st4 st5">Inversión</tspan><tspan x="4.5" y="19.7" class="st3 st4 st5">mínima</tspan></text>
			</g>
		</g>
	</g>
	<line class="st8" x1="163.5" y1="6.3" x2="163.5" y2="319.3"/>
	<line class="st8" x1="311.5" y1="6.3" x2="311.5" y2="319.3"/>
	<line class="st8" x1="460.5" y1="56.3" x2="460.5" y2="319.3"/>
	<line class="st8" x1="607.5" y1="6.3" x2="607.5" y2="319.3"/>
	<line class="st8" x1="15" y1="114.8" x2="756" y2="114.8"/>
	<line class="st8" x1="311" y1="56.8" x2="607" y2="56.8"/>
	<line class="st8" x1="15" y1="171.8" x2="756" y2="171.8"/>
	<line class="st8" x1="15" y1="247.8" x2="756" y2="247.8"/>
</g>
</svg>
