<?xml version="1.0" encoding="utf-8"?>
<!-- Generator: Adobe Illustrator 20.1.0, SVG Export Plug-In . SVG Version: 6.00 Build 0)  -->
<svg version="1.1" id="Layer_1" xmlns="http://www.w3.org/2000/svg" xmlns:xlink="http://www.w3.org/1999/xlink" x="0px" y="0px"
	 viewBox="0 0 768.2 324.3" style="enable-background:new 0 0 768.2 324.3;" xml:space="preserve">
<style type="text/css">
	.st0{fill:#F3725E;}
	.st1{fill:#C0DB82;}
	.st2{fill:none;stroke:#0E3767;stroke-width:0.9002;stroke-miterlimit:10;}
	.st3{fill:#0E3767;}
	.st4{font-family:'NewsCycle';}
	.st5{font-size:15.2228px;}
	.st6{fill:#FFFFFF;}
	.st7{font-size:17.9092px;}
	.st8{fill:none;stroke:#0E3767;stroke-miterlimit:10;}
</style>
<g>
	<rect x="168.7" y="118.1" class="st0" width="136.3" height="48.4"/>
	<rect x="316.7" y="118.1" class="st0" width="136.3" height="48.4"/>
	<rect x="464.5" y="118.1" class="st1" width="136.3" height="48.4"/>
	<rect x="316.7" y="177" class="st0" width="136.3" height="65.2"/>
	<rect x="168.7" y="177" class="st1" width="136.3" height="65.2"/>
	<rect x="612.8" y="11.8" class="st1" width="136.3" height="299.8"/>
	<rect x="464.5" y="177" class="st0" width="136.3" height="65.2"/>
	<polygon class="st2" points="754.9,318.6 13.2,318.6 13.2,114 13.2,6.1 162.3,6.1 754.9,6.1 	"/>
	<g>
		<g>
			<g>
				<text transform="matrix(1 0 0 1 206.4518 55.7094)"><tspan x="0" y="0" class="st3 st4 st5">Cuenta de</tspan><tspan x="9.9" y="19.7" class="st3 st4 st5">Ahorro</tspan></text>
			</g>
		</g>
	</g>
	<g>
		<g>
			<g>
				<text transform="matrix(1 0 0 1 650.238 55.7094)"><tspan x="0" y="0" class="st3 st4 st5">Fondos de</tspan><tspan x="4.2" y="19.7" class="st3 st4 st5">Inversión</tspan></text>
			</g>
		</g>
	</g>
	<g>
		<g>
			<g>
				<text transform="matrix(1 0 0 1 399.7438 37.8002)" class="st3 st4 st5">Mercado de Valores</text>
			</g>
		</g>
	</g>
	<g>
		<g>
			<g>
				<text transform="matrix(1 0 0 1 357.3952 80.8806)"><tspan x="0" y="0" class="st3 st4 st5">Acciones</tspan><tspan x="-11.7" y="19.7" class="st3 st4 st5">de un emisor</tspan></text>
			</g>
		</g>
	</g>
	<g>
		<g>
			<g>
				<text transform="matrix(1 0 0 1 495.0114 80.8806)"><tspan x="0" y="0" class="st3 st4 st5">Obligaciones</tspan><tspan x="-0.7" y="19.7" class="st3 st4 st5">de un emisor</tspan></text>
			</g>
		</g>
	</g>
	<g>
		<g>
			<g>
				<text transform="matrix(1 0 0 1 51.3669 148.9138)" class="st3 st4 st5">Rendimiento</text>
			</g>
		</g>
	</g>
	<g>
		<g>
			<g>
				<text transform="matrix(1 0 0 1 216.8649 148.9138)" class="st6 st4 st7">BAJO</text>
			</g>
		</g>
	</g>
	<g>
		<g>
			<g>
				<text transform="matrix(1 0 0 1 216.8649 216.4594)" class="st6 st4 st7">BAJO</text>
			</g>
		</g>
	</g>
	<g>
		<g>
			<g>
				<text transform="matrix(1 0 0 1 361.1696 148.9138)" class="st6 st4 st7">MEDIO</text>
			</g>
		</g>
	</g>
	<g>
		<g>
			<g>
				<text transform="matrix(1 0 0 1 365.4499 216.4594)" class="st6 st4 st7">ALTO</text>
			</g>
		</g>
	</g>
	<g>
		<g>
			<g>
				<text transform="matrix(1 0 0 1 513.2009 148.9138)" class="st6 st4 st7">ALTO</text>
			</g>
		</g>
	</g>
	<g>
		<g>
			<g>
				<text transform="matrix(1 0 0 1 513.2009 216.4594)" class="st6 st4 st7">ALTO</text>
			</g>
		</g>
	</g>
	<g>
		<g>
			<g>
				<text transform="matrix(1 0 0 1 636.9333 140.8764)"><tspan x="0" y="0" class="st3 st4 st5">MEDIO a ALTO</tspan><tspan x="2.1" y="19.7" class="st3 st4 st5">según el plazo</tspan></text>
			</g>
		</g>
	</g>
	<g>
		<g>
			<g>
				<text transform="matrix(1 0 0 1 661.4616 216.4594)" class="st3 st4 st7">BAJO</text>
			</g>
		</g>
	</g>
	<g>
		<g>
			<g>
				<text transform="matrix(1 0 0 1 219.9987 289.9557)" class="st3 st4 st5">100$</text>
			</g>
		</g>
	</g>
	<g>
		<g>
			<g>
				<text transform="matrix(1 0 0 1 363.1852 289.9557)" class="st3 st4 st5">1.000$</text>
			</g>
		</g>
	</g>
	<g>
		<g>
			<g>
				<text transform="matrix(1 0 0 1 506.1198 289.9557)" class="st3 st4 st5">50.000$</text>
			</g>
		</g>
	</g>
	<g>
		<g>
			<g>
				<text transform="matrix(1 0 0 1 664.5954 289.9557)" class="st3 st4 st5">100$</text>
			</g>
		</g>
	</g>
	<g>
		<g>
			<g>
				<text transform="matrix(1 0 0 1 48.7541 204.4543)"><tspan x="0" y="0" class="st3 st4 st5">Riesgo según</tspan><tspan x="-2.7" y="19.7" class="st3 st4 st5">diversificación</tspan></text>
			</g>
		</g>
	</g>
	<g>
		<g>
			<g>
				<text transform="matrix(1 0 0 1 61.6466 279.6728)"><tspan x="0" y="0" class="st3 st4 st5">Inversión</tspan><tspan x="4.5" y="19.7" class="st3 st4 st5">mínima</tspan></text>
			</g>
		</g>
	</g>
	<line class="st8" x1="162.3" y1="5.8" x2="162.3" y2="318.8"/>
	<line class="st8" x1="310.3" y1="5.8" x2="310.3" y2="318.8"/>
	<line class="st8" x1="459.3" y1="55.8" x2="459.3" y2="318.8"/>
	<line class="st8" x1="606.3" y1="5.8" x2="606.3" y2="318.8"/>
	<line class="st8" x1="13.8" y1="114.3" x2="754.8" y2="114.3"/>
	<line class="st8" x1="309.8" y1="56.3" x2="605.8" y2="56.3"/>
	<line class="st8" x1="13.8" y1="171.3" x2="754.8" y2="171.3"/>
	<line class="st8" x1="13.8" y1="247.3" x2="754.8" y2="247.3"/>
</g>
</svg>
