<svg xmlns="http://www.w3.org/2000/svg" xmlns:xlink="http://www.w3.org/1999/xlink" viewBox="0 0 250 250"><defs><style>.cls-1{fill:url(#linear-gradient);}.cls-11,.cls-13,.cls-2{fill:none;}.cls-3{isolation:isolate;}.cls-4{clip-path:url(#clip-path);}.cls-5,.cls-6{fill:#cdcccb;}.cls-5{opacity:0.36;}.cls-6{mix-blend-mode:overlay;}.cls-7{mask:url(#mask);}.cls-8{clip-path:url(#clip-path-2);}.cls-9{fill:url(#linear-gradient-2);}.cls-10{fill:url(#linear-gradient-3);}.cls-11{stroke:#fff;}.cls-11,.cls-13{stroke-miterlimit:10;}.cls-12{fill:url(#linear-gradient-4);}.cls-13{stroke:#000;stroke-width:0.58px;}.cls-14{fill:#0f3867;}</style><linearGradient id="linear-gradient" x1="1337.1" y1="-932.98" x2="-1006.68" y2="-221.94" gradientUnits="userSpaceOnUse"><stop offset="0" stop-color="#fff" stop-opacity="0"/><stop offset="1" stop-color="#fff"/></linearGradient><clipPath id="clip-path"><rect class="cls-2" x="-630.86" y="-1168.25" width="1917.75" height="1084.7"/></clipPath><mask id="mask" x="-643.2" y="-1320" width="2379.68" height="1408.11" maskUnits="userSpaceOnUse"><g id="_Group_" data-name="&lt;Group&gt;"><rect id="_Rectangle_" data-name="&lt;Rectangle&gt;" class="cls-1" x="-630.86" y="-1265.13" width="1924.19" height="1274.6"/></g></mask><clipPath id="clip-path-2"><rect id="_Rectangle_2" data-name="&lt;Rectangle&gt;" class="cls-2" x="-630.86" y="-1265.13" width="1924.19" height="1274.6"/></clipPath><linearGradient id="linear-gradient-2" x1="-406.38" y1="-61.93" x2="551.22" y2="54.32" xlink:href="#linear-gradient"/><linearGradient id="linear-gradient-3" x1="-57.92" y1="-869.33" x2="88.61" y2="-245.95" gradientUnits="userSpaceOnUse"><stop offset="0" stop-color="#fff"/><stop offset="1" stop-color="#fff" stop-opacity="0"/></linearGradient><linearGradient id="linear-gradient-4" x1="63.38" y1="-679.9" x2="2078.89" y2="-478.81" gradientUnits="userSpaceOnUse"><stop offset="0" stop-color="#fff"/><stop offset="0.04" stop-color="#fff" stop-opacity="0.93"/><stop offset="0.2" stop-color="#fff" stop-opacity="0.69"/><stop offset="0.35" stop-color="#fff" stop-opacity="0.48"/><stop offset="0.5" stop-color="#fff" stop-opacity="0.31"/><stop offset="0.64" stop-color="#fff" stop-opacity="0.17"/><stop offset="0.77" stop-color="#fff" stop-opacity="0.08"/><stop offset="0.9" stop-color="#fff" stop-opacity="0.02"/><stop offset="1" stop-color="#fff" stop-opacity="0"/></linearGradient></defs><title>Artboard 12 copy 5fondo</title><g class="cls-3"><g id="Layer_1" data-name="Layer 1"><g class="cls-4"><image width="1920" height="1271" transform="translate(-630.86 -1265.13)" xlink:href="../../../imgs/moscow-city-2210335_1920.jpg"/><rect class="cls-5" x="-632.73" y="-1265.13" width="1921.86" height="1271"/><rect class="cls-6" x="-632.73" y="-1265.13" width="1921.86" height="1271"/><g class="cls-7"><g id="_Clip_Group_" data-name="&lt;Clip Group&gt;"><g class="cls-8"><g id="_Group_2" data-name="&lt;Group&gt;"><polygon id="_Path_" data-name="&lt;Path&gt;" class="cls-9" points="-373.22 -164.79 645.82 78.65 -408.92 44.64 -373.22 -164.79"/><polygon id="_Path_2" data-name="&lt;Path&gt;" class="cls-10" points="-373.22 -164.79 -312.67 -519.95 206.27 -782.77 645.82 78.65 -373.22 -164.79"/><line id="_Path_3" data-name="&lt;Path&gt;" class="cls-11" x1="-643.08" y1="-229.26" x2="645.82" y2="78.65"/></g><polygon id="_Path_4" data-name="&lt;Path&gt;" class="cls-12" points="206.27 -782.77 645.82 78.65 1246.06 88.11 1736.48 -1129.12 673.31 -1319.48 206.27 -782.77"/><polygon id="_Path_5" data-name="&lt;Path&gt;" class="cls-11" points="645.82 78.65 206.27 -782.77 673.31 -1319.48 1305.55 -1285.36 1308.53 51.64 645.82 78.65"/><line id="_Path_6" data-name="&lt;Path&gt;" class="cls-11" x1="-508.69" y1="-1316.8" x2="161.72" y2="76.86"/></g></g></g><g id="_Clip_Group_2" data-name="&lt;Clip Group&gt;"><g class="cls-8"><polyline id="_Path_7" data-name="&lt;Path&gt;" class="cls-11" points="77.73 -1281.89 211.97 -787.32 690.62 164.58"/></g></g></g><path id="path7003" class="cls-13" d="M222.77,23.91a3.25,3.25,0,0,0-.84.1l-39.48,9.87a3.26,3.26,0,0,0-1.51,5.46l12.34,12.34L125,119.95,56.73,51.68,69.07,39.34a3.26,3.26,0,0,0-1.51-5.46L28.07,24A3.26,3.26,0,0,0,24.12,28L34,67.44A3.26,3.26,0,0,0,39.45,69L51.79,56.61l69.72,69.72v51.16a24.43,24.43,0,1,0,7,0V126.33l69.72-69.72L210.55,69A3.26,3.26,0,0,0,216,67.44L225.88,28a3.26,3.26,0,0,0-3.11-4Z"/><polygon class="cls-14" points="31.76 31.64 60.39 38.8 38.92 60.28 31.76 31.64"/><polygon class="cls-14" points="218.24 31.64 211.08 60.28 189.61 38.8 218.24 31.64"/><path class="cls-14" d="M125,184.21a17.45,17.45,0,1,1-17.45,17.45A17.4,17.4,0,0,1,125,184.21Z"/></g></g></svg>