<svg xmlns="http://www.w3.org/2000/svg" xmlns:xlink="http://www.w3.org/1999/xlink" viewBox="0 0 250 250"><defs><style>.cls-1{fill:url(#linear-gradient);}.cls-11,.cls-14,.cls-2{fill:none;}.cls-3{isolation:isolate;}.cls-4{clip-path:url(#clip-path);}.cls-5,.cls-6{fill:#cdcccb;}.cls-5{opacity:0.36;}.cls-6{mix-blend-mode:overlay;}.cls-7{mask:url(#mask);}.cls-8{clip-path:url(#clip-path-2);}.cls-9{fill:url(#linear-gradient-2);}.cls-10{fill:url(#linear-gradient-3);}.cls-11{stroke:#fff;}.cls-11,.cls-14,.cls-15{stroke-miterlimit:10;}.cls-12{fill:url(#linear-gradient-4);}.cls-13,.cls-15{fill:#fff;}.cls-14,.cls-15{stroke:#000;stroke-width:1.94px;}.cls-14{stroke-dasharray:12.03 12.03;}.cls-16{fill:#00407d;}</style><linearGradient id="linear-gradient" x1="715.1" y1="-932.98" x2="-1628.68" y2="-221.94" gradientUnits="userSpaceOnUse"><stop offset="0" stop-color="#fff" stop-opacity="0"/><stop offset="1" stop-color="#fff"/></linearGradient><clipPath id="clip-path"><rect class="cls-2" x="-1252.86" y="-1168.25" width="1917.75" height="1084.7"/></clipPath><mask id="mask" x="-1265.2" y="-1320" width="2379.68" height="1408.11" maskUnits="userSpaceOnUse"><g id="_Group_" data-name="&lt;Group&gt;"><rect id="_Rectangle_" data-name="&lt;Rectangle&gt;" class="cls-1" x="-1252.86" y="-1265.13" width="1924.19" height="1274.6"/></g></mask><clipPath id="clip-path-2"><rect id="_Rectangle_2" data-name="&lt;Rectangle&gt;" class="cls-2" x="-1252.86" y="-1265.13" width="1924.19" height="1274.6"/></clipPath><linearGradient id="linear-gradient-2" x1="-1028.38" y1="-61.93" x2="-70.78" y2="54.32" xlink:href="#linear-gradient"/><linearGradient id="linear-gradient-3" x1="-679.92" y1="-869.33" x2="-533.39" y2="-245.95" gradientUnits="userSpaceOnUse"><stop offset="0" stop-color="#fff"/><stop offset="1" stop-color="#fff" stop-opacity="0"/></linearGradient><linearGradient id="linear-gradient-4" x1="-558.62" y1="-679.9" x2="1456.89" y2="-478.81" gradientUnits="userSpaceOnUse"><stop offset="0" stop-color="#fff"/><stop offset="0.04" stop-color="#fff" stop-opacity="0.93"/><stop offset="0.2" stop-color="#fff" stop-opacity="0.69"/><stop offset="0.35" stop-color="#fff" stop-opacity="0.48"/><stop offset="0.5" stop-color="#fff" stop-opacity="0.31"/><stop offset="0.64" stop-color="#fff" stop-opacity="0.17"/><stop offset="0.77" stop-color="#fff" stop-opacity="0.08"/><stop offset="0.9" stop-color="#fff" stop-opacity="0.02"/><stop offset="1" stop-color="#fff" stop-opacity="0"/></linearGradient></defs><title>Artboard 12 copy 7fondo</title><g class="cls-3"><g id="Layer_1" data-name="Layer 1"><g class="cls-4"><image width="1920" height="1271" transform="translate(-1252.86 -1265.13)" xlink:href="../../../imgs/moscow-city-2210335_1920.jpg"/><rect class="cls-5" x="-1254.73" y="-1265.13" width="1921.86" height="1271"/><rect class="cls-6" x="-1254.73" y="-1265.13" width="1921.86" height="1271"/><g class="cls-7"><g id="_Clip_Group_" data-name="&lt;Clip Group&gt;"><g class="cls-8"><g id="_Group_2" data-name="&lt;Group&gt;"><polygon id="_Path_" data-name="&lt;Path&gt;" class="cls-9" points="-995.22 -164.79 23.82 78.65 -1030.92 44.64 -995.22 -164.79"/><polygon id="_Path_2" data-name="&lt;Path&gt;" class="cls-10" points="-995.22 -164.79 -934.67 -519.95 -415.73 -782.77 23.82 78.65 -995.22 -164.79"/><line id="_Path_3" data-name="&lt;Path&gt;" class="cls-11" x1="-1265.08" y1="-229.26" x2="23.82" y2="78.65"/></g><polygon id="_Path_4" data-name="&lt;Path&gt;" class="cls-12" points="-415.73 -782.77 23.82 78.65 624.06 88.11 1114.48 -1129.12 51.31 -1319.48 -415.73 -782.77"/><polygon id="_Path_5" data-name="&lt;Path&gt;" class="cls-11" points="23.82 78.65 -415.73 -782.77 51.31 -1319.48 683.55 -1285.36 686.53 51.64 23.82 78.65"/></g></g></g><g id="_Clip_Group_2" data-name="&lt;Clip Group&gt;"><g class="cls-8"><polyline id="_Path_6" data-name="&lt;Path&gt;" class="cls-11" points="-544.27 -1281.89 -410.03 -787.32 68.62 164.58"/><line id="_Path_7" data-name="&lt;Path&gt;" class="cls-11" x1="-55.13" y1="-81.51" x2="830.15" y2="78.65"/></g></g></g><circle class="cls-13" cx="138" cy="115.8" r="88.1"/><circle class="cls-14" cx="138" cy="115.8" r="88.1"/><circle class="cls-15" cx="89.25" cy="168.14" r="56.35"/><circle class="cls-16" cx="89.25" cy="168.14" r="51.25"/><line class="cls-15" x1="166.5" y1="73.5" x2="138" y2="105"/><polyline class="cls-15" points="170 80.83 170 69.83 159 69.83"/><polyline class="cls-15" points="132.5 99.3 132.5 110.3 143.5 110.3"/></g></g></svg>