<?xml version="1.0" encoding="utf-8"?>
<!-- Generator: Adobe Illustrator 20.1.0, SVG Export Plug-In . SVG Version: 6.00 Build 0)  -->
<svg version="1.1" id="Layer_1" xmlns="http://www.w3.org/2000/svg" xmlns:xlink="http://www.w3.org/1999/xlink" x="0px" y="0px"
	 viewBox="0 0 960 519.2" style="enable-background:new 0 0 960 519.2;" xml:space="preserve">
<style type="text/css">
	.st0{fill:#0E3767;}
	.st1{font-family:'NotoSerif';}
	.st2{font-size:25.0112px;}
	.st3{font-family:'NewsCycle';}
	.st4{font-size:18.76px;}
	.st5{fill:none;stroke:#5B5957;stroke-miterlimit:10;}
	.st6{fill:none;stroke:#5B5957;stroke-miterlimit:10;stroke-dasharray:5,5;}
</style>
<title>Artboard 1 copy 12bla</title>
<text transform="matrix(0.9999 9.999500e-03 -9.999500e-03 0.9999 630.0902 41.9788)" class="st0 st1 st2">Fideicomiso</text>
<text transform="matrix(0.9999 9.999500e-03 -9.999500e-03 0.9999 629.7901 71.989)" class="st0 st1 st2">Mercantil</text>
<text transform="matrix(0.9999 9.999500e-03 -9.999500e-03 0.9999 340.0894 41.9788)" class="st0 st1 st2">Encargo</text>
<text transform="matrix(0.9999 9.999500e-03 -9.999500e-03 0.9999 339.7893 71.9886)" class="st0 st1 st2">Fiduciario</text>
<text transform="matrix(0.9999 9.999500e-03 -9.999500e-03 0.9999 85.2299 151.4686)" class="st0 st1 st2">T</text>
<text transform="matrix(0.9999 9.999500e-03 -9.999500e-03 0.9999 100.5597 151.6219)" class="st0 st1 st2">r</text>
<text transform="matrix(0.9999 9.999500e-03 -9.999500e-03 0.9999 111.8399 151.7347)" class="st0 st1 st2">ansferencia</text>
<text transform="matrix(0.9999 9.999500e-03 -9.999500e-03 0.9999 84.9298 181.4788)" class="st0 st1 st2">de dominio</text>
<text transform="matrix(0.9999 9.999500e-03 -9.999500e-03 0.9999 85.2297 245.9694)" class="st0 st1 st2">Tipo de</text>
<text transform="matrix(0.9999 9.999500e-03 -9.999500e-03 0.9999 84.9296 275.9786)" class="st0 st1 st2">documento</text>
<text transform="matrix(0.9999 9.999500e-03 -9.999500e-03 0.9999 85.2297 340.4585)" class="st0 st1 st2">Tipo de</text>
<text transform="matrix(0.9999 9.999500e-03 -9.999500e-03 0.9999 84.9296 370.4687)" class="st0 st1 st2">persona</text>
<text transform="matrix(0.9999 9.999500e-03 -9.999500e-03 0.9999 85.2296 434.9593)" class="st0 st1 st2">Instrucciones /</text>
<text transform="matrix(0.9999 9.999500e-03 -9.999500e-03 0.9999 84.9295 464.9685)" class="st0 st1 st2">finalidad</text>
<text transform="matrix(1 0 0 1 330.09 132.44)" class="st3 st4">No existe transferencia de la </text>
<text transform="matrix(1 0 0 1 330.09 159.64)" class="st3 st4">propiedad de los bienes o </text>
<text transform="matrix(1 0 0 1 330.09 186.84)" class="st3 st4">derechos.</text>
<text transform="matrix(1 0 0 1 330.09 247.42)" class="st3 st4">Se formaliza generalmente </text>
<text transform="matrix(1 0 0 1 330.09 274.62)" class="st3 st4">mediante contrato privado.</text>
<text transform="matrix(1 0 0 1 330.09 341.55)" class="st3 st4">No se crea un ente con </text>
<text transform="matrix(1 0 0 1 330.09 368.75)" class="st3 st4">personería jurídica.</text>
<text transform="matrix(1 0 0 1 330.09 431.55)" class="st3 st4">De tenencia, custodia y en </text>
<text transform="matrix(1 0 0 1 330.09 458.75)" class="st3 st4">general obligaciones de hacer.</text>
<text transform="matrix(1 0 0 1 630.09 132.44)" class="st3 st4">Transifieren de manera temporal </text>
<text transform="matrix(1 0 0 1 630.09 159.64)" class="st3 st4">e irrevocable propiedad de bienes </text>
<text transform="matrix(1 0 0 1 630.09 186.84)" class="st3 st4">muebles o inmuebles.</text>
<text transform="matrix(1 0 0 1 630.09 247.42)" class="st3 st4">Se formaliza mediante escritura </text>
<text transform="matrix(1 0 0 1 630.09 274.62)" class="st3 st4">pública.</text>
<text transform="matrix(1 0 0 1 630.09 341.55)" class="st3 st4">Patrimonio autónomo dotado de </text>
<text transform="matrix(1 0 0 1 630.09 368.75)" class="st3 st4">personería jurídica.</text>
<text transform="matrix(1 0 0 1 630.09 431.55)" class="st3 st4">Finalidades específicas señaladas </text>
<text transform="matrix(1 0 0 1 630.09 458.75)" class="st3 st4">en contrato a favor del </text>
<text transform="matrix(1 0 0 1 630.09 485.95)" class="st3 st4">Beneficiario.</text>
<line class="st5" x1="292.5" y1="19.4" x2="292.5" y2="22.4"/>
<line class="st6" x1="292.5" y1="26.4" x2="292.5" y2="492.4"/>
<line class="st5" x1="292.5" y1="495.4" x2="292.5" y2="497.4"/>
<line class="st5" x1="584.5" y1="19.4" x2="584.5" y2="22.4"/>
<line class="st6" x1="584.5" y1="26.4" x2="584.5" y2="492.4"/>
<line class="st5" x1="584.5" y1="495.4" x2="584.5" y2="497.4"/>
<line class="st5" x1="55" y1="92.9" x2="58" y2="92.9"/>
<line class="st6" x1="63" y1="92.9" x2="900" y2="92.9"/>
<line class="st5" x1="902" y1="92.9" x2="904" y2="92.9"/>
<line class="st5" x1="55" y1="206.9" x2="58" y2="206.9"/>
<line class="st6" x1="63" y1="206.9" x2="900" y2="206.9"/>
<line class="st5" x1="902" y1="206.9" x2="904" y2="206.9"/>
<line class="st5" x1="55" y1="301.9" x2="58" y2="301.9"/>
<line class="st6" x1="63" y1="301.9" x2="900" y2="301.9"/>
<line class="st5" x1="902" y1="301.9" x2="904" y2="301.9"/>
<line class="st5" x1="55" y1="396.9" x2="58" y2="396.9"/>
<line class="st6" x1="63" y1="396.9" x2="900" y2="396.9"/>
<line class="st5" x1="902" y1="396.9" x2="904" y2="396.9"/>
</svg>
