<svg xmlns="http://www.w3.org/2000/svg" xmlns:xlink="http://www.w3.org/1999/xlink" viewBox="0 0 250 250"><defs><style>.cls-1{fill:url(#linear-gradient);}.cls-11,.cls-2{fill:none;}.cls-3{isolation:isolate;}.cls-4{clip-path:url(#clip-path);}.cls-5,.cls-6{fill:#cdcccb;}.cls-5{opacity:0.36;}.cls-6{mix-blend-mode:overlay;}.cls-7{mask:url(#mask);}.cls-8{clip-path:url(#clip-path-2);}.cls-9{fill:url(#linear-gradient-2);}.cls-10{fill:url(#linear-gradient-3);}.cls-11{stroke:#fff;}.cls-11,.cls-13{stroke-miterlimit:10;}.cls-12{fill:url(#linear-gradient-4);}.cls-13{fill:#fff;stroke:#000;stroke-width:1.94px;}.cls-14{fill:#00407d;}</style><linearGradient id="linear-gradient" x1="1025.1" y1="-932.98" x2="-1318.68" y2="-221.94" gradientUnits="userSpaceOnUse"><stop offset="0" stop-color="#fff" stop-opacity="0"/><stop offset="1" stop-color="#fff"/></linearGradient><clipPath id="clip-path"><rect class="cls-2" x="-942.86" y="-1168.25" width="1917.75" height="1084.7"/></clipPath><mask id="mask" x="-955.2" y="-1320" width="2379.68" height="1408.11" maskUnits="userSpaceOnUse"><g id="_Group_" data-name="&lt;Group&gt;"><rect id="_Rectangle_" data-name="&lt;Rectangle&gt;" class="cls-1" x="-942.86" y="-1265.13" width="1924.19" height="1274.6"/></g></mask><clipPath id="clip-path-2"><rect id="_Rectangle_2" data-name="&lt;Rectangle&gt;" class="cls-2" x="-942.86" y="-1265.13" width="1924.19" height="1274.6"/></clipPath><linearGradient id="linear-gradient-2" x1="-718.38" y1="-61.93" x2="239.22" y2="54.32" xlink:href="#linear-gradient"/><linearGradient id="linear-gradient-3" x1="-369.92" y1="-869.33" x2="-223.39" y2="-245.95" gradientUnits="userSpaceOnUse"><stop offset="0" stop-color="#fff"/><stop offset="1" stop-color="#fff" stop-opacity="0"/></linearGradient><linearGradient id="linear-gradient-4" x1="-248.62" y1="-679.9" x2="1766.89" y2="-478.81" gradientUnits="userSpaceOnUse"><stop offset="0" stop-color="#fff"/><stop offset="0.04" stop-color="#fff" stop-opacity="0.93"/><stop offset="0.2" stop-color="#fff" stop-opacity="0.69"/><stop offset="0.35" stop-color="#fff" stop-opacity="0.48"/><stop offset="0.5" stop-color="#fff" stop-opacity="0.31"/><stop offset="0.64" stop-color="#fff" stop-opacity="0.17"/><stop offset="0.77" stop-color="#fff" stop-opacity="0.08"/><stop offset="0.9" stop-color="#fff" stop-opacity="0.02"/><stop offset="1" stop-color="#fff" stop-opacity="0"/></linearGradient></defs><title>Artboard 12 copy 6fondo</title><g class="cls-3"><g id="Layer_1" data-name="Layer 1"><g class="cls-4"><image width="1920" height="1271" transform="translate(-942.86 -1265.13)" xlink:href="../../../imgs/moscow-city-2210335_1920.jpg"/><rect class="cls-5" x="-944.73" y="-1265.13" width="1921.86" height="1271"/><rect class="cls-6" x="-944.73" y="-1265.13" width="1921.86" height="1271"/><g class="cls-7"><g id="_Clip_Group_" data-name="&lt;Clip Group&gt;"><g class="cls-8"><g id="_Group_2" data-name="&lt;Group&gt;"><polygon id="_Path_" data-name="&lt;Path&gt;" class="cls-9" points="-685.22 -164.79 333.82 78.65 -720.92 44.64 -685.22 -164.79"/><polygon id="_Path_2" data-name="&lt;Path&gt;" class="cls-10" points="-685.22 -164.79 -624.67 -519.95 -105.73 -782.77 333.82 78.65 -685.22 -164.79"/><line id="_Path_3" data-name="&lt;Path&gt;" class="cls-11" x1="-955.08" y1="-229.26" x2="333.82" y2="78.65"/></g><polygon id="_Path_4" data-name="&lt;Path&gt;" class="cls-12" points="-105.73 -782.77 333.82 78.65 934.06 88.11 1424.48 -1129.12 361.31 -1319.48 -105.73 -782.77"/><polygon id="_Path_5" data-name="&lt;Path&gt;" class="cls-11" points="333.82 78.65 -105.73 -782.77 361.31 -1319.48 993.55 -1285.36 996.53 51.64 333.82 78.65"/></g></g></g><g id="_Clip_Group_2" data-name="&lt;Clip Group&gt;"><g class="cls-8"><polyline id="_Path_6" data-name="&lt;Path&gt;" class="cls-11" points="-234.27 -1281.89 -100.03 -787.32 378.62 164.58"/><line id="_Path_7" data-name="&lt;Path&gt;" class="cls-11" x1="198.06" y1="-194.49" x2="6" y2="164.58"/><line id="_Path_8" data-name="&lt;Path&gt;" class="cls-11" x1="14.95" y1="-558.65" x2="85.41" y2="130.6"/></g></g></g><g id="_Group_3" data-name="&lt;Group&gt;"><path class="cls-13" d="M193.48,110.61v37.74a6.63,6.63,0,0,1-6.63,6.63h-2.94l-8.14,68.84a6.64,6.64,0,0,1-6.59,5.86H80.82a6.64,6.64,0,0,1-6.59-5.86L66.09,155H63.16a6.64,6.64,0,0,1-6.64-6.63V110.61A6.64,6.64,0,0,1,63.16,104h55.45V78.88l-2.9,0c-14,0-23.43-2.16-28.68-6.62-9.35-7.94-17.71-37.73-19.29-43.61a6.63,6.63,0,0,1,7.06-8.33c6.07.61,36.82,4,46.17,12,3.93,3.33,6.76,9.28,8.61,18.07,4.26-3.57,9.3-6.75,14-7.14.36,0,.74,0,1.12,0,9,0,25.88,9.35,30.85,12.22a6.64,6.64,0,0,1,.89,10.88c-6,4.93-21,16.49-29.58,17.19-.34,0-.69,0-1,0-4.45,0-9.48-2.45-13.94-5.4V104h55A6.63,6.63,0,0,1,193.48,110.61Z"/></g><rect class="cls-14" x="63.44" y="112.62" width="122.53" height="33.98"/><polygon class="cls-14" points="169.24 223.86 176.5 154.99 73.64 154.99 80.9 223.86 169.24 223.86"/><path class="cls-14" d="M147,75.56c3.7-.41,13.89-6.34,25.07-14.3-11.52-5.65-22.62-10.07-27-10.07-3.14.26-10.51,5.76-17.67,12.79C135.55,70.57,143.69,75.53,147,75.56Z"/><path class="cls-14" d="M118.79,70.26c1.28,0,2.5,0,3.64,0-1.08-14.29-4.21-28.89-8.29-32.36C109.57,34,91.66,29.82,73.64,27.18c5.52,17.36,12.55,34.37,17.11,38.24C93.5,67.76,102.31,70.26,118.79,70.26Z"/></g></g></svg>