<svg id="Layer_1" data-name="Layer 1" xmlns="http://www.w3.org/2000/svg" viewBox="0 0 250 250"><defs><style>.cls-1{fill:none;stroke:#000;stroke-miterlimit:10;stroke-width:0.58px;}.cls-2{fill:#0f3867;}</style></defs><title>Artboard 12 copy 9fondo</title><path class="cls-1" d="M183,25.81h-33.9a16.67,16.67,0,0,0-13.41-6.76H127a13.23,13.23,0,0,0-23.08,0H95.18a16.67,16.67,0,0,0-13.41,6.76H47.87A16.7,16.7,0,0,0,31.18,42.5v169a16.7,16.7,0,0,0,16.68,16.68H183a16.7,16.7,0,0,0,16.68-16.68V42.5A16.7,16.7,0,0,0,183,25.81Z"/><path class="cls-2" d="M183,39.33H162.76a3.17,3.17,0,0,0,0,6.34h17.11V164.36h-34a9.94,9.94,0,0,0-9.93,9.93v20.27a3.17,3.17,0,0,0,6.34,0V174.29a3.59,3.59,0,0,1,3.59-3.59h29.52l-37.59,37.59H51V45.67H68.14a3.17,3.17,0,0,0,0-6.34H47.87A3.17,3.17,0,0,0,44.7,42.5v169a3.17,3.17,0,0,0,3.17,3.17h91.24l.3,0,.15,0,.16,0,.17,0,.13,0,.17-.06.13,0,.16-.07.12-.06.15-.09.11-.07L141,214l.07-.05.24-.22,43.92-43.92v0a3.16,3.16,0,0,0,.26-.3l.07-.09a3.12,3.12,0,0,0,.22-.34l0,0a3.23,3.23,0,0,0,.15-.35l0-.08a3.14,3.14,0,0,0,.11-.4v0a3.17,3.17,0,0,0,0-.38s0-.07,0-.11,0-.07,0-.11V42.5A3.17,3.17,0,0,0,183,39.33Z"/><path class="cls-2" d="M84.83,35.74A10.36,10.36,0,0,1,95.18,25.39h10.76a3.17,3.17,0,0,0,3-2.11,6.91,6.91,0,0,1,13.06,0,3.17,3.17,0,0,0,3,2.11h10.76a10.36,10.36,0,0,1,10.35,10.35V46.09H84.83Z"/><path class="cls-2" d="M68.48,96.28H154a3.42,3.42,0,1,0,0-6.84H68.48a3.42,3.42,0,0,0,0,6.84Z"/><path class="cls-2" d="M68.48,68.91h34.2a3.42,3.42,0,0,0,0-6.84H68.48a3.42,3.42,0,0,0,0,6.84Z"/><path class="cls-2" d="M154,116.8H68.48a3.42,3.42,0,1,0,0,6.84H154a3.42,3.42,0,1,0,0-6.84Z"/><path class="cls-2" d="M154,144.16H68.48a3.42,3.42,0,1,0,0,6.84H154a3.42,3.42,0,1,0,0-6.84Z"/><path class="cls-2" d="M121.58,171.52H68.48a3.42,3.42,0,1,0,0,6.84h53.1a3.42,3.42,0,1,0,0-6.84Z"/></svg>