<svg id="Layer_1" data-name="Layer 1" xmlns="http://www.w3.org/2000/svg" viewBox="0 0 250 250"><defs><style>.cls-1{fill:#0f3867;}.cls-2{fill:none;stroke:#000;stroke-miterlimit:10;stroke-width:0.58px;}</style></defs><title>Artboard 12 copy 8fondo</title><path class="cls-1" d="M139.77,204.43l-1.14-6.09c1.94-.36,3.9-.81,5.81-1.31l1.6,6C144,203.56,141.86,204,139.77,204.43Z"/><path class="cls-1" d="M158.12,198.81l-2.46-5.68a80.73,80.73,0,0,0,10.52-5.51l3.27,5.25A86.19,86.19,0,0,1,158.12,198.81Zm-69.06-.11a86.62,86.62,0,0,1-11.32-6L81,187.48A79.89,79.89,0,0,0,91.54,193Zm90.73-13.37-4-4.72a80.66,80.66,0,0,0,8.47-8.33l4.66,4.08A87.87,87.87,0,0,1,179.8,185.34Zm-112.36-.17a87.9,87.9,0,0,1-9.1-9L63,172.1a81.07,81.07,0,0,0,8.45,8.36Zm129.19-19-5.2-3.36a80.68,80.68,0,0,0,5.68-10.43l5.64,2.55A86.21,86.21,0,0,1,196.62,166.16Zm-146-.22a87,87,0,0,1-6.09-11.26l5.65-2.53a80.63,80.63,0,0,0,5.65,10.45Zm156.47-23-6-1.69a80.68,80.68,0,0,0,2.38-11.63l6.14.79A86.4,86.4,0,0,1,207.14,142.91Zm-166.92-.27a86.45,86.45,0,0,1-2.52-12.54l6.14-.77A80.65,80.65,0,0,0,46.18,141Zm164-24.93a81.56,81.56,0,0,0-1.09-11.83l6.11-1a87.46,87.46,0,0,1,1.17,12.73Zm-161-.25L37,117.34a87.77,87.77,0,0,1,1.21-12.73l6.11,1A80.08,80.08,0,0,0,43.23,117.47ZM200.31,94.36a80.79,80.79,0,0,0-4.5-11l5.54-2.77a85.87,85.87,0,0,1,4.85,11.85Zm-153.1-.24-5.88-1.94a86.77,86.77,0,0,1,4.88-11.82l5.53,2.77A80.81,80.81,0,0,0,47.21,94.12Zm142.52-21a82,82,0,0,0-7.51-9.21l4.5-4.25a88.22,88.22,0,0,1,8.08,9.91ZM57.84,73l-5.07-3.56a87.44,87.44,0,0,1,8.11-9.89l4.49,4.27A80.2,80.2,0,0,0,57.84,73Zm115.61-17a81.9,81.9,0,0,0-9.85-6.64l3.08-5.37a87.76,87.76,0,0,1,10.6,7.15Zm-99.29-.14L70.36,50.9A87.23,87.23,0,0,1,81,43.79L84,49.17A80.84,80.84,0,0,0,74.16,55.78Zm78.73-11.61a80.18,80.18,0,0,0-11.36-3.47l1.37-6a86.89,86.89,0,0,1,12.23,3.74Zm-58.11-.09-2.23-5.77a85.93,85.93,0,0,1,12.26-3.7l1.35,6A80.67,80.67,0,0,0,94.78,44.09Zm35-5.13a82.69,82.69,0,0,0-11.88,0l-.44-6.17a87.68,87.68,0,0,1,12.78,0Z"/><path class="cls-1" d="M107.67,204.43c-2.1-.39-4.21-.87-6.27-1.42l1.6-6c1.91.51,3.87,1,5.81,1.31Z"/><path class="cls-2" d="M123.72,226.42A17.39,17.39,0,1,1,141.1,209,17.4,17.4,0,0,1,123.72,226.42Z"/><path class="cls-1" d="M123.72,221.42h0A12.39,12.39,0,0,1,111.33,209h0a12.39,12.39,0,0,1,12.39-12.39h0A12.39,12.39,0,0,1,136.1,209h0A12.39,12.39,0,0,1,123.72,221.42Z"/><path class="cls-2" d="M123.72,189.26a17.4,17.4,0,0,1-17.38-17.38V147.11a17.4,17.4,0,0,1,17.38-17.39H133a7.39,7.39,0,0,0,7.39-7.38V113a7.39,7.39,0,0,0-7.39-7.38H114.43A7.39,7.39,0,0,0,107,113v5H72.27v-8.1a39.1,39.1,0,0,1,39.06-39.06H136.1a39.1,39.1,0,0,1,39.06,39.06v15.48a39.12,39.12,0,0,1-34.06,38.74v7.7A17.4,17.4,0,0,1,123.72,189.26Z"/><path class="cls-1" d="M77.27,109.95V113H102a12.39,12.39,0,0,1,12.39-12.39H133A12.39,12.39,0,0,1,145.39,113v9.29A12.39,12.39,0,0,1,133,134.72h-9.29a12.39,12.39,0,0,0-12.39,12.39v24.77a12.39,12.39,0,0,0,12.39,12.39h0a12.39,12.39,0,0,0,12.39-12.39V159.49h0a34.06,34.06,0,0,0,34.06-34.06V109.95A34.06,34.06,0,0,0,136.1,75.89H111.33A34.06,34.06,0,0,0,77.27,109.95Z"/></svg>