<svg id="Layer_1" data-name="Layer 1" xmlns="http://www.w3.org/2000/svg" viewBox="0 0 250 250"><defs><style>.cls-1{fill:#fff;stroke:#000;stroke-miterlimit:10;stroke-width:1.94px;}.cls-2{fill:#00407d;}</style></defs><title>Artboard 12 copy 13fondo</title><g id="_Group_" data-name="&lt;Group&gt;"><path class="cls-1" d="M193.48,115.76V153.5a6.63,6.63,0,0,1-6.63,6.63h-2.94L175.77,229a6.64,6.64,0,0,1-6.59,5.86H80.82A6.64,6.64,0,0,1,74.23,229l-8.14-68.84H63.16a6.64,6.64,0,0,1-6.64-6.63V115.76a6.64,6.64,0,0,1,6.64-6.63h55.45V84l-2.9,0c-14,0-23.43-2.16-28.68-6.62C77.69,69.5,69.33,39.71,67.75,33.82a6.63,6.63,0,0,1,7.06-8.33c6.07.61,36.82,4,46.17,12,3.93,3.33,6.76,9.28,8.61,18.07,4.26-3.57,9.3-6.75,14-7.14.36,0,.74,0,1.12,0,9,0,25.88,9.35,30.85,12.22a6.64,6.64,0,0,1,.89,10.88c-6,4.93-21,16.49-29.58,17.19-.34,0-.69,0-1,0-4.45,0-9.48-2.45-13.94-5.4v25.84h55A6.63,6.63,0,0,1,193.48,115.76Z"/></g><rect class="cls-2" x="63.44" y="117.77" width="122.53" height="33.98"/><polygon class="cls-2" points="169.24 229 176.5 160.13 73.64 160.13 80.9 229 169.24 229"/><path class="cls-2" d="M147,80.7c3.7-.41,13.89-6.34,25.07-14.3-11.52-5.65-22.62-10.07-27-10.07-3.14.26-10.51,5.76-17.67,12.79C135.55,75.72,143.69,80.68,147,80.7Z"/><path class="cls-2" d="M118.79,75.41c1.28,0,2.5,0,3.64,0-1.08-14.29-4.21-28.89-8.29-32.36C109.57,39.13,91.66,35,73.64,32.32,79.16,49.69,86.19,66.7,90.74,70.56,93.5,72.91,102.31,75.41,118.79,75.41Z"/></svg>