<svg id="Layer_1" data-name="Layer 1" xmlns="http://www.w3.org/2000/svg" viewBox="0 0 250 250"><defs><style>.cls-1{fill:#0f3867;}.cls-2{fill:none;}.cls-2,.cls-3{stroke:#000;stroke-miterlimit:10;stroke-width:0.58px;}.cls-3,.cls-4{fill:#fff;}</style></defs><title>Artboard 12 copy 11fondo</title><path class="cls-1" d="M176.91,84.2a3.1,3.1,0,0,1,.24.3l.06.09a3.18,3.18,0,0,1,.2.34l0,0a3.38,3.38,0,0,1,.14.35l0,.08a3.37,3.37,0,0,1,.1.4v0a3.44,3.44,0,0,1,0,.38s0,.07,0,.11,0,.07,0,.11v125a3,3,0,0,1-2.9,3.17H156.26a3.18,3.18,0,0,1,0-6.34h15.68V89.6"/><path class="cls-1" d="M133.37,45.67H53.83V208.29h84.9a3.18,3.18,0,0,1,0,6.34H50.93a3,3,0,0,1-2.9-3.17V42.5a3,3,0,0,1,2.9-3.17h83.65l.28,0,.14,0,.14,0,.15,0,.12,0,.15.06.12,0,.14.07.11.06.14.09.1.07.16.13.07.05.22.22"/><polygon class="cls-2" points="189.52 75.67 141.64 27.79 35.61 27.79 35.61 226.17 189.52 226.17 189.52 75.67"/><path class="cls-1" d="M69.81,106.46h85.51a3.42,3.42,0,1,0,0-6.84H69.81a3.42,3.42,0,1,0,0,6.84Z"/><path class="cls-1" d="M69.81,79.09H104a3.42,3.42,0,1,0,0-6.84H69.81a3.42,3.42,0,1,0,0,6.84Z"/><path class="cls-1" d="M155.32,127H69.81a3.42,3.42,0,1,0,0,6.84h85.51a3.42,3.42,0,1,0,0-6.84Z"/><path class="cls-1" d="M144.5,154.34H69.81a3.42,3.42,0,1,0,0,6.84H144.5a3.42,3.42,0,1,0,0-6.84Z"/><path class="cls-1" d="M128.33,181.7H69.81a3.42,3.42,0,1,0,0,6.84h58.52a3.42,3.42,0,1,0,0-6.84Z"/><polygon class="cls-3" points="141.64 27.79 141.64 75.67 189.52 75.67 141.64 27.79"/><circle class="cls-1" cx="182.68" cy="192.92" r="41.04"/><path class="cls-4" d="M205.16,173a3.42,3.42,0,0,0-4.76.86l-19.14,27.5-13.51-11.09a3.42,3.42,0,0,0-4.34,5.29L179.78,209a3.43,3.43,0,0,0,2.17.78,3.63,3.63,0,0,0,.47,0,3.44,3.44,0,0,0,2.34-1.43L206,177.78A3.43,3.43,0,0,0,205.16,173Z"/></svg>