<svg id="Layer_1" data-name="Layer 1" xmlns="http://www.w3.org/2000/svg" viewBox="0 0 250 250"><defs><style>.cls-1{fill:none;stroke:#000;stroke-miterlimit:10;stroke-width:0.58px;}.cls-2{fill:#0f3867;}</style></defs><title>Artboard 12 copy 12fondo</title><path class="cls-1" d="M54.83,165.75A8.26,8.26,0,0,1,49,163.31L28.11,142.47a8.28,8.28,0,1,1,11.71-11.71l6.66,6.65V54.71A23.51,23.51,0,0,1,70,31.23H180.08a23.71,23.71,0,0,1,23.56,23.44V68A8.31,8.31,0,0,1,187,68V54.71a6.91,6.91,0,0,0-6.9-6.9H70a6.91,6.91,0,0,0-6.9,6.9v82.74l6.7-6.69a8.28,8.28,0,1,1,11.71,11.71L60.71,163.31A8.26,8.26,0,0,1,54.83,165.75Z"/><path class="cls-1" d="M180,218.77H69.92a23.51,23.51,0,0,1-23.48-23.48V182a8.31,8.31,0,0,1,16.62,0v13.29a6.91,6.91,0,0,0,6.9,6.9H180.08a6.91,6.91,0,0,0,6.9-6.9v-82.7l-6.7,6.69a8.3,8.3,0,1,1-11.75-11.71l20.84-20.84a8.3,8.3,0,0,1,6-2.37,8.12,8.12,0,0,1,5.77,2.43l20.79,20.79a8.28,8.28,0,1,1-11.71,11.71l-6.69-6.69v82.7A23.51,23.51,0,0,1,180,218.77Z"/><path class="cls-1" d="M125,170.95a8.32,8.32,0,0,1-8.31-8.31v-4H111A8.31,8.31,0,0,1,111,142h19.4c2,0,3.54-2,3.54-4.4s-1.62-4.4-3.54-4.4H119.58c-11.09,0-20.12-9.41-20.12-21,0-10.55,7.51-19.31,17.24-20.76V87.44a8.31,8.31,0,0,1,16.62-.09v3.9h5.34a8.31,8.31,0,0,1,0,16.62h-19c-1.92,0-3.54,2-3.54,4.4s1.62,4.4,3.54,4.4h10.79c11.09,0,20.12,9.41,20.12,21,0,10.49-7.51,19.29-17.21,20.76v4.22A8.32,8.32,0,0,1,125,170.95Z"/><path class="cls-2" d="M180.08,34.73H70a20,20,0,0,0-20,20v91.15L37.35,133.23A4.78,4.78,0,0,0,30.59,140l20.84,20.84a4.81,4.81,0,0,0,6.8,0L79.07,140a4.78,4.78,0,0,0-6.76-6.76L59.64,145.9V54.71A10.4,10.4,0,0,1,70,44.31H180.12a10.4,10.4,0,0,1,10.4,10.4V68a4.81,4.81,0,1,0,9.62,0V54.71A20.19,20.19,0,0,0,180.08,34.73Z"/><path class="cls-2" d="M191.85,89.2,171,110a4.8,4.8,0,0,0,6.8,6.76l12.67-12.67v91.15a10.4,10.4,0,0,1-10.4,10.4H70a10.4,10.4,0,0,1-10.4-10.4V182a4.81,4.81,0,0,0-9.62,0v13.3a20,20,0,0,0,20,20H180a20,20,0,0,0,20-20V104.14l12.67,12.67a4.78,4.78,0,0,0,6.76-6.76L198.57,89.2A4.87,4.87,0,0,0,191.85,89.2Z"/><path class="cls-2" d="M125,82.63a4.81,4.81,0,0,0-4.81,4.81v7.35h-.63c-9.15,0-16.62,7.86-16.62,17.48s7.47,17.48,16.62,17.48h10.79c3.87,0,7,3.56,7,7.9s-3.17,7.9-7,7.9H111a4.81,4.81,0,1,0,0,9.62h9.23v7.47a4.81,4.81,0,0,0,9.62,0v-7.51h.82c9.07-.12,16.38-7.94,16.38-17.48s-7.47-17.48-16.62-17.48H119.62c-3.87,0-7-3.56-7-7.9s3.17-7.9,7-7.9h19a4.81,4.81,0,0,0,0-9.62h-8.84V87.4A4.82,4.82,0,0,0,125,82.63Z"/></svg>