<svg id="Layer_1" data-name="Layer 1" xmlns="http://www.w3.org/2000/svg" viewBox="0 0 753.23 311.18"><defs><style>.cls-1{fill:#0e3767;stroke:#fff;stroke-width:0.95px;}.cls-1,.cls-10,.cls-11,.cls-12,.cls-14,.cls-20,.cls-23,.cls-4{stroke-miterlimit:10;}.cls-2{font-size:24px;}.cls-12,.cls-14,.cls-18,.cls-2,.cls-23{fill:#fff;}.cls-2,.cls-3{font-family:NewsCycle, News Cycle;}.cls-3{font-size:22.87px;}.cls-10,.cls-11,.cls-20,.cls-4{fill:none;}.cls-10,.cls-11,.cls-4{stroke:#3f4040;}.cls-4{stroke-width:0.83px;}.cls-5,.cls-9{fill:#00407d;}.cls-6,.cls-8{fill:#0057a2;}.cls-7{fill:#929497;}.cls-8,.cls-9{fill-rule:evenodd;}.cls-11{stroke-dasharray:3 3;}.cls-12,.cls-14,.cls-18,.cls-20,.cls-23{stroke:#000;}.cls-12,.cls-18{stroke-width:0.82px;}.cls-13{fill:#e6af78;}.cls-15{fill:#f0c087;}.cls-16{fill:#785550;}.cls-17{fill:#694b4b;}.cls-18{stroke-linecap:round;stroke-linejoin:round;}.cls-19{fill:#707487;}.cls-20,.cls-23{stroke-width:0.78px;}.cls-21{fill:#5b5d6e;}.cls-22{fill:#515262;}.cls-24{fill:#5a4146;}.cls-25{fill:#b4e1fa;}.cls-26{fill:#a0d2f0;}</style></defs><title>Artboard 1 copybla</title><rect class="cls-1" x="117.34" y="22.18" width="169.33" height="61.41"/><text class="cls-2" transform="translate(140.45 61.97)">Instrucciones</text><text class="cls-3" transform="matrix(1, 0.01, -0.01, 1, 50.47, 260.98)">Persona A<tspan x="-21.97" y="24.54">(Constituyente)</tspan></text><text class="cls-3" transform="matrix(1, 0.01, -0.01, 1, 318.92, 260.83)">Persona o entidad<tspan x="24.44" y="24.54">de confianza</tspan></text><text class="cls-3" transform="matrix(1, 0.01, -0.01, 1, 624.91, 260.92)">Persona B<tspan x="-12.49" y="24.54">(Beneficiario)</tspan></text><line class="cls-4" x1="179" y1="184.02" x2="224.57" y2="184.02"/><polyline class="cls-4" points="224.68 191.79 232.46 184.02 224.68 176.24"/><line class="cls-4" x1="550" y1="184.02" x2="595.57" y2="184.02"/><polyline class="cls-4" points="595.68 191.79 603.46 184.02 595.68 176.24"/><path class="cls-5" d="M321.7,145.92c-11.12,1.91-21.75,4.66-31.67,10.16-6.81,3.81-13.16,9.07-16.51,16.27A25.08,25.08,0,0,1,278.86,153c7-8.87,17.71-13.78,28.24-17.19Z"/><path class="cls-6" d="M326.46,149.46l15.35,11.26s-83.66,1-50.89,46.49C290.92,207.2,236.5,166.14,326.46,149.46Z"/><path class="cls-7" d="M313.2,208.06c-.05,0-.07,0-.07-.06v-7.11s0-.06.07-.06h5.59c.05,0,.07,0,.07.06v1s0,.06-.07.06h-4.19v2h3.57s.07,0,.07.06v1s0,.06-.07.06h-3.57v3s0,.06-.07.06Z"/><path class="cls-7" d="M321.13,208.06c-.05,0-.07,0-.07-.06v-7.11s0-.06.07-.06h1.32c.05,0,.07,0,.07.06V208s0,.06-.07.06Z"/><path class="cls-7" d="M325.62,208.06s-.07,0-.07-.06v-7.11s0-.06.07-.06h3.06a3.14,3.14,0,0,1,2.72,1.22,3.71,3.71,0,0,1,.27.45,1.55,1.55,0,0,1,.14.42,9.87,9.87,0,0,1,.07,1.52,7.93,7.93,0,0,1-.11,1.62,1.92,1.92,0,0,1-.14.41,2.27,2.27,0,0,1-.26.39h0a3.07,3.07,0,0,1-1.1.86,3.78,3.78,0,0,1-1.68.35ZM327,202v5h1.51a2,2,0,0,0,1.57-.59,1.26,1.26,0,0,0,.25-.55,2.89,2.89,0,0,0,0-.48c0-.21,0-.48,0-.82s0-.59,0-.8,0-.38,0-.51a1.28,1.28,0,0,0-.31-.63,1.93,1.93,0,0,0-1.5-.57Z"/><path class="cls-7" d="M334.52,200.89s0-.06.07-.06h1.33s.07,0,.07.06v4.58a1.26,1.26,0,0,0,.49,1.08,2.19,2.19,0,0,0,2.44,0,1.26,1.26,0,0,0,.5-1.08v-4.58s0-.06.07-.06h1.32c.05,0,.07,0,.07.06v4.7a2.18,2.18,0,0,1-.93,1.84,4,4,0,0,1-4.5,0,2.18,2.18,0,0,1-.93-1.84Z"/><path class="cls-7" d="M349.76,206l.06,0a0,0,0,0,1,0,.05,2.49,2.49,0,0,1-1.14,1.56,3.57,3.57,0,0,1-.92.4,4.19,4.19,0,0,1-1.08.13,3.55,3.55,0,0,1-1.78-.41,2.92,2.92,0,0,1-1-.89,2.26,2.26,0,0,1-.19-.34,1.82,1.82,0,0,1-.12-.36,10,10,0,0,1-.08-1.67c0-.43,0-.79,0-1.06a3.76,3.76,0,0,1,.06-.6,1.84,1.84,0,0,1,.12-.36,2.28,2.28,0,0,1,.19-.34,3,3,0,0,1,1-.89,3.48,3.48,0,0,1,1.78-.41,3.35,3.35,0,0,1,2.1.63,2.63,2.63,0,0,1,1,1.52,0,0,0,0,1,0,.05l-.06,0h-1.4s-.06,0-.07,0a1.28,1.28,0,0,0-.23-.37,1.85,1.85,0,0,0-.36-.32,1.67,1.67,0,0,0-1-.29,1.91,1.91,0,0,0-.78.15,1.85,1.85,0,0,0-.52.34,1.29,1.29,0,0,0-.2.27,1.61,1.61,0,0,0-.13.31,2.29,2.29,0,0,0-.07.52c0,.23,0,.53,0,.88s0,.66,0,.89a2.34,2.34,0,0,0,.07.52,1.5,1.5,0,0,0,.14.3,1.45,1.45,0,0,0,.2.27,1.63,1.63,0,0,0,.52.36,1.93,1.93,0,0,0,.78.14,1.76,1.76,0,0,0,1.6-.94l0,0h1.43Z"/><path class="cls-7" d="M352,208.06c-.05,0-.07,0-.07-.06v-7.11s0-.06.07-.06h1.32c.05,0,.07,0,.07.06V208s0,.06-.07.06Z"/><path class="cls-7" d="M355.62,208.05a.07.07,0,0,1-.06,0,0,0,0,0,1,0-.05l3.19-7.11a.07.07,0,0,1,.07,0h1.13l0,0,3.19,7.11a0,0,0,0,1,0,.05.06.06,0,0,1-.05,0h-1.4a.07.07,0,0,1-.06,0l-.66-1.57h-3.22l-.34.79-.34.78,0,0h-1.44Zm4.93-2.67,0-.07,0-.07-.19-.45-.15-.36-.09-.19-.07-.18a1.2,1.2,0,0,0-.06-.15l-.06-.14c0-.1-.07-.19-.12-.29l-.11-.3-.07-.15-.07-.18,0-.08,0-.06,0-.06,0-.1-.13.3-.11.26,0,.06a.14.14,0,0,1,0,0c0,.05,0,.11-.06.16l-.07.15c0,.05,0,.11-.06.15l-.06.14-.12.31-.14.34-.17.38-.22.52Z"/><path class="cls-7" d="M365.58,208.06c-.05,0-.07,0-.07-.06v-7.11s0-.06.07-.06H369a3.87,3.87,0,0,1,1,.13,2.7,2.7,0,0,1,.8.36,3,3,0,0,1,.34.31,2.49,2.49,0,0,1,.29.37,1.75,1.75,0,0,1,.2.42,1.43,1.43,0,0,1,.07.46,1.89,1.89,0,0,1-.12.67,2.22,2.22,0,0,1-.34.59,2.45,2.45,0,0,1-.52.44,2.8,2.8,0,0,1-.68.31l1,1.54,1,1.55a.06.06,0,0,1,0,.06.07.07,0,0,1-.06,0h-1.61l0,0-1.79-3H367v3s0,.06-.08.06Zm1.4-6.15v2h1.94a1.54,1.54,0,0,0,1.06-.32,1,1,0,0,0,.36-.76.91.91,0,0,0-.11-.44.83.83,0,0,0-.31-.32,1.6,1.6,0,0,0-.41-.15,2.27,2.27,0,0,0-.51-.05Z"/><path class="cls-7" d="M374.43,208.06s-.07,0-.07-.06v-7.11s0-.06.07-.06h1.33s.07,0,.07.06V208s0,.06-.07.06Z"/><path class="cls-7" d="M378,208.05a.06.06,0,0,1-.06,0,.06.06,0,0,1,0-.05l3.2-7.11a.06.06,0,0,1,.06,0h1.14l0,0,3.19,7.11a.05.05,0,0,1,0,.05.06.06,0,0,1-.05,0h-1.4a.06.06,0,0,1-.06,0l-.66-1.57h-3.22l-.34.79-.34.78,0,0H378Zm4.93-2.67,0-.07,0-.07-.19-.45-.15-.36-.08-.19-.08-.18-.06-.15-.06-.14-.11-.29-.12-.3-.06-.15-.07-.18,0-.08a.15.15,0,0,0,0-.06l0-.06,0-.1-.12.3c0,.09-.08.18-.11.26l0,.06a.24.24,0,0,1,0,0l-.07.16s0,.1-.06.15,0,.11-.06.15l-.06.14-.12.31c0,.11-.09.22-.14.34l-.16.38-.22.52Z"/><path class="cls-7" d="M392.2,208.06c-.05,0-.07,0-.07-.06v-7.11s0-.06.07-.06h3.06a3.14,3.14,0,0,1,2.72,1.22,3.75,3.75,0,0,1,.27.45,1.93,1.93,0,0,1,.14.42,10.61,10.61,0,0,1,.07,1.52,7.78,7.78,0,0,1-.11,1.62,1.73,1.73,0,0,1-.14.41,2.05,2.05,0,0,1-.26.39h0a3,3,0,0,1-1.1.86,3.81,3.81,0,0,1-1.68.35ZM393.6,202v5h1.52a1.94,1.94,0,0,0,1.56-.59,1.36,1.36,0,0,0,.26-.55,3.61,3.61,0,0,0,0-.48c0-.21,0-.48,0-.82s0-.59,0-.8a4.31,4.31,0,0,0-.05-.51,1.25,1.25,0,0,0-.31-.63,1.92,1.92,0,0,0-1.5-.57Z"/><path class="cls-7" d="M401.32,208.06s-.07,0-.07-.06v-7.11s0-.06.07-.06h5.59c.05,0,.07,0,.07.06v1s0,.06-.07.06h-4.19v1.9h3.56c.05,0,.07,0,.07.06v1s0,.05-.07.05h-3.56v2h4.19c.05,0,.07,0,.07.06v1s0,.06-.07.06Z"/><path class="cls-7" d="M413.77,208.06s-.07,0-.07-.06v-7.11s0-.06.07-.06h1.33s.07,0,.07.06v6h4.2s.07,0,.07.06v1s0,.06-.07.06Z"/><path class="cls-7" d="M421,208.05a.08.08,0,0,1-.07,0,.05.05,0,0,1,0-.05l3.19-7.11a.06.06,0,0,1,.06,0h1.13l0,0,3.19,7.11a.07.07,0,0,1,0,.05.06.06,0,0,1-.05,0h-1.4a.06.06,0,0,1-.06,0l-.66-1.57h-3.22l-.34.79-.34.78,0,0H421Zm4.92-2.67,0-.07,0-.07-.19-.45-.16-.36-.08-.19-.07-.18-.06-.15-.06-.14-.11-.29-.12-.3L425,203l-.07-.18,0-.08,0-.06,0-.06,0-.1-.12.3-.11.26a.16.16,0,0,0,0,.06.21.21,0,0,1,0,0l-.06.16-.07.15a1.34,1.34,0,0,1-.06.15l-.06.14-.12.31-.14.34c-.06.12-.11.25-.17.38l-.22.52Z"/><path class="cls-7" d="M431.06,206.23l0,0h.05a4.21,4.21,0,0,0,1.11.51,4.5,4.5,0,0,0,1.32.19,2.46,2.46,0,0,0,1.23-.26.76.76,0,0,0,.43-.67c0-.52-.36-.82-1.08-.9h0l-.29,0-.27,0-.28,0-.31,0a4.21,4.21,0,0,1-1-.23,2.3,2.3,0,0,1-.76-.45,2,2,0,0,1-.46-.63,1.8,1.8,0,0,1-.15-.74,1.85,1.85,0,0,1,.77-1.53,3.45,3.45,0,0,1,2.15-.6,5.66,5.66,0,0,1,.8.05,6.43,6.43,0,0,1,.75.16,5.94,5.94,0,0,1,.7.24c.22.09.44.19.64.3,0,0,0,.05,0,.09l-.74.89a.07.07,0,0,1-.1,0,5.46,5.46,0,0,0-1-.39,4.16,4.16,0,0,0-1.11-.15,2.4,2.4,0,0,0-.54.06,1.38,1.38,0,0,0-.45.18.78.78,0,0,0-.39.71.74.74,0,0,0,.27.53,1.07,1.07,0,0,0,.36.2,2.59,2.59,0,0,0,.55.12l.41.05.57.06a2.93,2.93,0,0,1,1.85.75,1.9,1.9,0,0,1,.6,1.36,1.77,1.77,0,0,1-.86,1.57,4.17,4.17,0,0,1-2.28.56,5.69,5.69,0,0,1-3.39-1,0,0,0,0,1,0,0,.06.06,0,0,1,0,0Z"/><path class="cls-7" d="M442.75,208.05a.07.07,0,0,1-.06,0,0,0,0,0,1,0-.05l3.2-7.11a.05.05,0,0,1,.06,0h1.13s0,0,0,0l3.19,7.11a0,0,0,0,1,0,.05.06.06,0,0,1-.06,0h-1.4a.06.06,0,0,1-.06,0l-.66-1.57h-3.22l-.34.79-.34.78,0,0h-1.44Zm4.93-2.67,0-.07a.24.24,0,0,1,0-.07l-.19-.45-.15-.36-.08-.19-.08-.18a1.39,1.39,0,0,0-.06-.15l-.06-.14-.11-.29-.12-.3-.07-.15-.07-.18,0-.08,0-.06,0-.06a.57.57,0,0,1,0-.1l-.13.3-.11.26,0,.06a.21.21,0,0,1,0,0l-.07.16-.06.15-.06.15-.06.14-.13.31c0,.11-.09.22-.14.34s-.11.25-.16.38l-.22.52Z"/><path class="cls-7" d="M452.71,208.06c-.05,0-.07,0-.07-.06v-7.11s0-.06.07-.06H454a.07.07,0,0,1,.07,0l2.45,4.51,1.19-2.26,1.2-2.25a.06.06,0,0,1,.07,0h1.25c.05,0,.07,0,.07.06V208s0,.06-.07.06h-1.32c-.05,0-.07,0-.07-.06v-4.2l-.86,1.61c-.29.53-.57,1.07-.85,1.6a.09.09,0,0,1-.07,0h-1.1a.08.08,0,0,1-.07,0l-1.72-3.22V208s0,.06-.07.06Z"/><path class="cls-7" d="M463.43,208.06c-.05,0-.07,0-.07-.06v-7.11s0-.06.07-.06H469c.05,0,.07,0,.07.06v1s0,.06-.07.06h-4.19v1.9h3.57s.07,0,.07.06v1s0,.05-.07.05h-3.57v2H469c.05,0,.07,0,.07.06v1s0,.06-.07.06Zm1.76-7.51s-.05,0-.06,0a.07.07,0,0,1,0-.06l1.09-1.45a.08.08,0,0,1,.06,0h1.58a.07.07,0,0,1,.07,0s0,0,0,.06l-1.69,1.45h-1.05Z"/><path class="cls-7" d="M471.62,208.06c-.05,0-.07,0-.07-.06v-7.11s0-.06.07-.06H475a3.88,3.88,0,0,1,1,.13,2.73,2.73,0,0,1,.8.36,3.31,3.31,0,0,1,.33.31,2.42,2.42,0,0,1,.29.37,1.73,1.73,0,0,1,.2.42,1.41,1.41,0,0,1,.07.46,1.88,1.88,0,0,1-.12.67,2.22,2.22,0,0,1-.34.59,2.46,2.46,0,0,1-.52.44,2.84,2.84,0,0,1-.68.31l1,1.54,1,1.55a.06.06,0,0,1,0,.06.07.07,0,0,1-.06,0h-1.61l0,0-1.79-3H473v3s0,.06-.07.06Zm1.4-6.15v2H475a1.54,1.54,0,0,0,1.06-.32,1,1,0,0,0,.36-.76.92.92,0,0,0-.1-.44.88.88,0,0,0-.31-.32,1.56,1.56,0,0,0-.41-.15,2.27,2.27,0,0,0-.51-.05Z"/><path class="cls-7" d="M480.47,208.06s-.07,0-.07-.06v-7.11s0-.06.07-.06h1.33c.05,0,.07,0,.07.06V208s0,.06-.07.06Z"/><path class="cls-7" d="M490.86,206l.06,0a0,0,0,0,1,0,.05,2.49,2.49,0,0,1-1.14,1.56,3.54,3.54,0,0,1-.93.4,4.14,4.14,0,0,1-1.08.13,3.54,3.54,0,0,1-1.77-.41,3,3,0,0,1-1-.89,3.32,3.32,0,0,1-.19-.34,2.11,2.11,0,0,1-.12-.36,10.71,10.71,0,0,1-.08-1.67c0-.43,0-.79,0-1.06a3.92,3.92,0,0,1,.06-.6,2.13,2.13,0,0,1,.12-.36,3.36,3.36,0,0,1,.19-.34,3,3,0,0,1,1-.89,3.47,3.47,0,0,1,1.77-.41,3.36,3.36,0,0,1,2.1.63,2.63,2.63,0,0,1,1,1.52,0,0,0,0,1,0,.05l-.06,0h-1.4a.06.06,0,0,1-.07,0,1.36,1.36,0,0,0-.23-.37,2,2,0,0,0-.36-.32,1.7,1.7,0,0,0-1-.29,1.88,1.88,0,0,0-.78.15,1.81,1.81,0,0,0-.52.34,1.16,1.16,0,0,0-.2.27,1.38,1.38,0,0,0-.13.31,2.28,2.28,0,0,0-.07.52c0,.23,0,.53,0,.88s0,.66,0,.89a2.33,2.33,0,0,0,.07.52,1.48,1.48,0,0,0,.14.3,1.28,1.28,0,0,0,.2.27,1.59,1.59,0,0,0,.52.36,1.89,1.89,0,0,0,.78.14,1.76,1.76,0,0,0,1.61-.94l0,0h1.43Z"/><path class="cls-7" d="M492.24,208.05a.07.07,0,0,1-.06,0,.07.07,0,0,1,0-.05l3.2-7.11a.06.06,0,0,1,.06,0h1.13l0,0,3.19,7.11a.07.07,0,0,1,0,.05.05.05,0,0,1-.05,0h-1.4a.06.06,0,0,1-.06,0l-.66-1.57h-3.22l-.34.79-.34.78,0,0h-1.44Zm4.92-2.67a.25.25,0,0,0,0-.07l0-.07-.19-.45-.15-.36-.08-.19-.08-.18-.06-.15-.06-.14-.11-.29-.12-.3-.06-.15c0-.06,0-.12-.07-.18a.25.25,0,0,1,0-.08l0-.06,0-.06,0-.1-.13.3-.11.26a.16.16,0,0,0,0,.06l0,0-.07.16-.06.15c0,.05,0,.11-.06.15l-.06.14-.13.31c0,.11-.09.22-.14.34l-.17.38-.21.52Z"/><path class="cls-7" d="M502.25,206.23l.05,0h.05a4.18,4.18,0,0,0,1.1.51,4.5,4.5,0,0,0,1.32.19,2.47,2.47,0,0,0,1.23-.26.75.75,0,0,0,.43-.67q0-.78-1.08-.9h0l-.29,0-.28,0-.28,0-.31,0a4.21,4.21,0,0,1-1-.23,2.32,2.32,0,0,1-.75-.45,2,2,0,0,1-.46-.63,1.79,1.79,0,0,1-.15-.74,1.86,1.86,0,0,1,.76-1.53,3.46,3.46,0,0,1,2.16-.6,5.68,5.68,0,0,1,.8.05,6.32,6.32,0,0,1,.75.16,6,6,0,0,1,.7.24,6.75,6.75,0,0,1,.64.3s0,.05,0,.09l-.74.89a.07.07,0,0,1-.1,0,5.45,5.45,0,0,0-1-.39,4.1,4.1,0,0,0-1.11-.15,2.36,2.36,0,0,0-.54.06,1.34,1.34,0,0,0-.45.18.78.78,0,0,0-.39.71.75.75,0,0,0,.27.53,1.11,1.11,0,0,0,.36.2,2.57,2.57,0,0,0,.55.12l.42.05.56.06a2.92,2.92,0,0,1,1.85.75,1.91,1.91,0,0,1,.61,1.36,1.78,1.78,0,0,1-.86,1.57,4.18,4.18,0,0,1-2.28.56,5.7,5.7,0,0,1-3.4-1,0,0,0,0,1,0,0,.06.06,0,0,1,0,0Z"/><path class="cls-8" d="M400.37,189.08l.22-.41L407.16,175c.3-.64.18-.55.85-.55h4l.07.07s0,0,0,0a1.39,1.39,0,0,1,0,.21q0,9.62,0,19.25c0,.05,0,.11,0,.16a29.07,29.07,0,0,1-4.13,0c0-.78,0-1.58,0-2.37s0-1.6,0-2.41v-7.29c-.25.1-.27.27-.33.4l-2.91,6.27c-.77,1.67-1.56,3.35-2.32,5a.62.62,0,0,1-.68.44c-.84,0-1.69,0-2.53,0a.59.59,0,0,1-.64-.4q-2.63-5.62-5.3-11.22c-.08-.18-.18-.34-.27-.52l-.1,0c0,.14,0,.29,0,.44v6q0,2.58,0,5.15c0,.17,0,.34,0,.53h-4.08V174.49l.44,0c1.25,0,2.49,0,3.74,0a.58.58,0,0,1,.61.39q3.18,6.78,6.38,13.55l.33.68Z"/><path class="cls-8" d="M434,174.5l.43,0c3.57,0,7.13,0,10.7,0a8.76,8.76,0,0,1,4.15,1.09,6.86,6.86,0,0,1,1.7,1.3,4.88,4.88,0,0,1-.41,7.33c-.23.19-.46.37-.74.58a3,3,0,0,0,.3.2,3.49,3.49,0,0,1,1.94,2.9,19.66,19.66,0,0,1,.09,2c0,.47,0,.95,0,1.42a3.14,3.14,0,0,0,.41,1.69c.23.43.47.84.73,1.3l-.36,0c-1.23,0-2.46,0-3.69,0a.65.65,0,0,1-.62-.34,3.27,3.27,0,0,1-.52-1.75c0-1.08,0-2.17,0-3.26a4.13,4.13,0,0,0-.06-.73,2.13,2.13,0,0,0-1.09-1.46,3.85,3.85,0,0,0-1.92-.53c-2.18,0-4.35,0-6.53,0-.1,0-.2,0-.35,0,0,.89,0,1.78,0,2.66s0,1.77,0,2.66v2.64a31.37,31.37,0,0,1-4.07,0c0-.14,0-.29,0-.44V175C434,174.83,434,174.69,434,174.5Zm4.17,8.89a1.23,1.23,0,0,0,.18,0c2.18,0,4.35,0,6.53,0a3.7,3.7,0,0,0,2.6-1.18A2.72,2.72,0,0,0,447,178a4.26,4.26,0,0,0-2.4-.7h-6.06l-.4,0A55.7,55.7,0,0,0,438.15,183.38Z"/><path class="cls-9" d="M322.32,194.1c.19-.92.37-1.75.55-2.59l2.28-10.56q.67-3.14,1.36-6.29c.08-.36.08-.36.45-.36,3.4,0,6.79,0,10.18,0a8.94,8.94,0,0,1,5.63,2A6.82,6.82,0,0,1,345.3,181a10.38,10.38,0,0,1-2,7.4,13.34,13.34,0,0,1-8.25,5.39,14.39,14.39,0,0,1-3.23.34h-9.47Zm4.75-2.83.54,0c1.32,0,2.63,0,4,0a11.57,11.57,0,0,0,2.67-.33,8.82,8.82,0,0,0,6.91-8.92,4.47,4.47,0,0,0-3-4.35,8.79,8.79,0,0,0-3.31-.61h-4.47a.26.26,0,0,0-.3.24c0,.09,0,.17-.06.25q-1.33,6.14-2.65,12.29C327.27,190.3,327.18,190.75,327.07,191.27Z"/><path class="cls-8" d="M504.58,187.51a24.59,24.59,0,0,1,4.19,0c0,.14.08.29.11.44a4.93,4.93,0,0,0,4,4,7.88,7.88,0,0,0,4.31-.31,3.93,3.93,0,0,0,1.59-1,2.53,2.53,0,0,0,.7-2,1.68,1.68,0,0,0-.58-1.12,4.92,4.92,0,0,0-1.44-.91,20.06,20.06,0,0,0-2.95-.91c-1.47-.4-3-.76-4.42-1.21a13.49,13.49,0,0,1-2.12-.93,5.61,5.61,0,0,1-1.73-1.4,4,4,0,0,1-1-2.38,4.36,4.36,0,0,1,2.22-4.29,9.41,9.41,0,0,1,3.24-1.18,18.05,18.05,0,0,1,4.49-.23,9.7,9.7,0,0,1,4.49,1.31,6.47,6.47,0,0,1,3.14,4.55c0,.2.06.41.09.64l-.34,0h-3.48c-.35,0-.36,0-.43-.33a4.09,4.09,0,0,0-3.3-3.33,7.42,7.42,0,0,0-4.14.23,3.29,3.29,0,0,0-1.22.71,1.85,1.85,0,0,0,0,2.8,5.18,5.18,0,0,0,2.08,1.17c1,.32,2,.58,3,.87,1.29.37,2.59.71,3.87,1.13a12.37,12.37,0,0,1,1.87.86,6.31,6.31,0,0,1,1.65,1.29,4.1,4.1,0,0,1,1.07,3.44,5,5,0,0,1-2.23,3.65,9.06,9.06,0,0,1-3.42,1.43,15.92,15.92,0,0,1-4.56.33,10.64,10.64,0,0,1-6.17-2.29,6.85,6.85,0,0,1-2.55-4.1C504.65,188.09,504.62,187.8,504.58,187.51Z"/><path class="cls-8" d="M387.58,194.27h-.52c-1.1,0-2.21,0-3.31,0a.64.64,0,0,1-.71-.44c-.73-1.65-1.5-3.28-2.24-4.92a.64.64,0,0,0-.68-.44q-4,0-8,0a.64.64,0,0,0-.68.45c-.73,1.65-1.49,3.29-2.21,4.93a.6.6,0,0,1-.67.42c-1.13,0-2.26,0-3.4,0h-.48c.08-.2.13-.34.2-.48l8.61-18.53c.08-.17.16-.33.23-.51a.42.42,0,0,1,.46-.29c.79,0,1.58,0,2.37,0,.51,0,1,0,1.55,0a.55.55,0,0,1,.61.39c.78,1.73,1.59,3.46,2.38,5.19l6.27,13.65Zm-11.47-15.41a1.46,1.46,0,0,0-.16.24l-2.88,6.23c0,.11-.06.23-.1.35.57.09,5.95.07,6.25,0C379.17,185.29,376.36,179.14,376.11,178.86Z"/><path class="cls-8" d="M486.53,194.25h-4.33c.05-.14.09-.27.14-.37q4.42-9.5,8.82-19a.63.63,0,0,1,.68-.42c1.23,0,2.46,0,3.69,0a.65.65,0,0,1,.7.46q4,8.64,7.93,17.28l.75,1.64c.06.13.1.26.16.42l-.39,0c-1.17,0-2.35,0-3.52,0a.54.54,0,0,1-.58-.38c-.74-1.66-1.51-3.3-2.26-5a.67.67,0,0,0-.7-.48q-4,0-8,0a.66.66,0,0,0-.71.46c-.71,1.64-1.46,3.26-2.2,4.89Zm10.22-8.58c-.05-.37-2.86-6.52-3.11-6.81a1.86,1.86,0,0,0-.16.25l-2.89,6.27a1.89,1.89,0,0,0-.09.31C491.1,185.77,496.44,185.75,496.75,185.67Z"/><path class="cls-8" d="M483.27,180.86h-.49c-1.08,0-2.15,0-3.22,0-.38,0-.62-.07-.76-.45a3.72,3.72,0,0,0-.42-.75,6.34,6.34,0,0,0-4.84-2.94,7.88,7.88,0,0,0-3.15.15,7,7,0,0,0-5,4.9,8.37,8.37,0,0,0,.84,6.95,6.54,6.54,0,0,0,4.41,3.15,6.86,6.86,0,0,0,8.19-4.52l.18-.49h4.19c0,.17-.06.32-.1.47a9.92,9.92,0,0,1-6.89,6.93,12.14,12.14,0,0,1-3.42.53,15.13,15.13,0,0,1-4.91-.61,9.58,9.58,0,0,1-5.12-3.57,10.23,10.23,0,0,1-1.81-4.94,11.8,11.8,0,0,1,0-2.83,9.55,9.55,0,0,1,2.65-5.51,10.92,10.92,0,0,1,6.17-3.21,14.93,14.93,0,0,1,6.46.27,10.09,10.09,0,0,1,5.4,3.38,10.37,10.37,0,0,1,1.56,2.7C483.19,180.58,483.21,180.69,483.27,180.86Z"/><path class="cls-9" d="M353.06,174.33c0,.19-.05.36-.09.52q-1.34,6.23-2.69,12.46a3.75,3.75,0,0,0-.07,1.61,3.27,3.27,0,0,0,1.16,1.91,4.68,4.68,0,0,0,2.51,1,7.69,7.69,0,0,0,4.85-1.1,5.12,5.12,0,0,0,2.51-3.48c.85-4.09,1.75-8.17,2.64-12.25.18-.84,0-.72.9-.73h2.84l.48,0a1.75,1.75,0,0,1,0,.33q-1.39,6.44-2.78,12.88a6.82,6.82,0,0,1-1.61,3.09,11.82,11.82,0,0,1-5.57,3.41,13.89,13.89,0,0,1-5,.59,9.68,9.68,0,0,1-4.17-1.2,5.59,5.59,0,0,1-2.77-3.45,5.9,5.9,0,0,1,.06-2.85q1.32-6.1,2.64-12.2c.14-.64,0-.61.73-.61h3.13A3.52,3.52,0,0,1,353.06,174.33Z"/><path class="cls-9" d="M301.46,194.08h-4.1c0-.2.06-.38.1-.55l3.42-15.84q.33-1.51.66-3c.08-.36.09-.36.45-.37H318.7c-.21,1-.4,1.86-.6,2.79H305.68c-.54,0-.54,0-.66.55-.3,1.4-.61,2.79-.9,4.19,0,.18-.07.36-.11.6.21,0,.39,0,.57,0H315.2c-.12,1-.37,1.84-.55,2.77l-.57,0H304c-.65,0-.65,0-.78.62l-1.66,7.72C301.55,193.75,301.5,193.9,301.46,194.08Z"/><path class="cls-8" d="M455,174.49h4.06v19.74h-4l0,0,0,0a1.91,1.91,0,0,1,0-.21q0-9.64,0-19.28A.78.78,0,0,1,455,174.49Z"/><path class="cls-9" d="M320.16,194.07h-4c0-.33,4-19.14,4.22-19.74h4l0,0a.06.06,0,0,1,0,0,3.2,3.2,0,0,1,0,.34q-2.07,9.6-4.15,19.19A.77.77,0,0,1,320.16,194.07Z"/><path class="cls-8" d="M432.21,191.48c0,1,0,1.86,0,2.77h-18c-.09-.38-.1-19.32,0-19.74H431.6v2.73l-.49,0H418.32a4.11,4.11,0,0,0-.06.48q0,2.19,0,4.38c0,.15,0,.31.06.5h12.41a9.42,9.42,0,0,1,.05,2.79l-.53,0h-11.3c-.68,0-.68,0-.68.68V191c0,.41,0,.44.44.45h13.52Z"/><path class="cls-6" d="M419.88,172.2a.2.2,0,0,1-.18-.08.18.18,0,0,1,0-.18l3.12-4.13a.22.22,0,0,1,.18-.08h4.52a.22.22,0,0,1,.2.1.13.13,0,0,1,0,.18l-4.8,4.13-.07,0-.09,0Z"/><line class="cls-10" x1="201.5" y1="92.18" x2="201.5" y2="94.18"/><line class="cls-11" x1="201.5" y1="96.18" x2="201.5" y2="171.18"/><line class="cls-10" x1="201.5" y1="173.18" x2="201.5" y2="174.18"/><rect class="cls-1" x="487.82" y="22.18" width="169.33" height="61.41"/><text class="cls-2" transform="translate(507.76 61.97)">Cumplimiento</text><line class="cls-10" x1="572.5" y1="92.18" x2="572.5" y2="94.18"/><line class="cls-11" x1="572.5" y1="96.18" x2="572.5" y2="171.18"/><line class="cls-10" x1="572.5" y1="173.18" x2="572.5" y2="174.18"/><polygon class="cls-12" points="111.12 196.78 111.17 185.1 81.13 184.96 81.08 196.64 96.03 210.06 111.12 196.78"/><polygon class="cls-13" points="109.62 195.34 109.67 184.82 82.63 184.69 82.58 195.21 96.04 207.29 109.62 195.34"/><path class="cls-12" d="M112.71,131.72c-2.4-3.18-7.58-6.58-16.67-6.47-5.22.06-15,1.6-20.12,4.22l2.46,1.7c-11.2,8.19-9.18,22.33-9.18,22.33,3.32,3.35,3.28,11.7,3.28,11.7l3.35-3.32s-1.24-9.65,5.07-13.33c5.86-3.41,11-1.62,16.17-1.59,5.89,0,10-.9,12.71-2.44,5.18,3,6,12.19,6.09,15a3.3,3.3,0,0,0,.52,1.63l2.7,4.24s-.9-7,3.39-11.67C122.5,153.75,123.66,133.43,112.71,131.72Z"/><path class="cls-14" d="M117.45,161.68h0c-.22,0-.43-.61-.64-.58l.84-17.08-43.39-.37.68,16.43c-.21,0-.42-.41-.64-.41h0a3.67,3.67,0,0,0-3.37,4.53l1.85,7.67a2.07,2.07,0,0,0,1.94,1.59,2,2,0,0,0,.76-.12l.09,2.13a10,10,0,0,0,4,7.58l6.88,5.21a10,10,0,0,0,6,2l6.68,0a10,10,0,0,0,6-2l6.92-5.14a10,10,0,0,0,4-7.54l.11-2.11a2,2,0,0,0,2.71-1.35l1.92-6.89C121.34,163.17,119.7,161.68,117.45,161.68Z"/><path class="cls-15" d="M75.44,144.29l1.23,30.24a9.46,9.46,0,0,0,3.74,7.16l6.5,4.92a9.46,9.46,0,0,0,5.67,1.92l6.31,0a9.46,9.46,0,0,0,5.69-1.87l6.54-4.86a9.46,9.46,0,0,0,3.81-7.12l1.52-30.23-41-.19Z"/><path class="cls-16" d="M105.55,134,107,144.44c6.74,1.38,7.66,12,7.79,15a3.11,3.11,0,0,0,.49,1.54l2.56,4s-.85-6.61,3.21-11C121,154,122.54,127.76,105.55,134Z"/><path class="cls-15" d="M119.41,164.33l-1.81,7.12a1.9,1.9,0,0,1-1.85,1.43h0a1.9,1.9,0,0,1-1.87-1.67l-.88-7.29a3.26,3.26,0,0,1,3.26-3.65h0A3.26,3.26,0,0,1,119.41,164.33Z"/><path class="cls-17" d="M77,131l2.33,1.6c-10.58,7.74-8.67,21.1-8.67,21.1,3.14,3.17,3.1,11.05,3.1,11.05l3.17-3.14s-1.17-9.12,4.79-12.59c5.53-3.23,10.36-1.53,15.28-1.5,13.21.06,16.93-4.9,16.32-11-.32-3.14-5.08-9.69-17.3-9.54C91.09,127.1,81.83,128.55,77,131Z"/><path class="cls-13" d="M72.29,164.1,74,171.24a1.9,1.9,0,0,0,1.83,1.44h0A1.9,1.9,0,0,0,77.76,171l.94-7.28a3.26,3.26,0,0,0-3.22-3.68h0A3.26,3.26,0,0,0,72.29,164.1Z"/><path class="cls-18" d="M134.44,203.88l-18.68-4.49.49-1.06L114,194.92a1.67,1.67,0,0,0-2.5-.33L96.18,208.25h0L81,194.45a1.67,1.67,0,0,0-2.51.3l-2.28,3.39.48,1.07L58,203.52A6.68,6.68,0,0,0,52.78,210l-.06,13.07A3.34,3.34,0,0,0,56,226.41l80.1.38a3.34,3.34,0,0,0,3.35-3.32l.06-13.07A6.68,6.68,0,0,0,134.44,203.88Z"/><path class="cls-19" d="M131.06,206l-17-4,.45-1-2.05-3.07a1.53,1.53,0,0,0-2.28-.29l-14,12.29h0L82.32,197.49a1.53,1.53,0,0,0-2.29.27L78,200.81l.44,1-17.07,3.88a6,6,0,0,0-4.72,5.83l-.06,10.32a3,3,0,0,0,3,3l73,.34a3,3,0,0,0,3.06-3l.06-10.32A6,6,0,0,0,131.06,206Z"/><path class="cls-20" d="M90,177.83s6.85,6.61,13.46,0"/><polygon class="cls-21" points="99.98 225.03 92.47 225 93.48 211.48 99.11 211.51 99.98 225.03"/><path class="cls-22" d="M100.06,209.87l-7.51,0v.87a3.64,3.64,0,0,0,3.62,3.66h.23a3.64,3.64,0,0,0,3.66-3.62v-.87Z"/><path class="cls-21" d="M82.52,197.4l13.67,12.42a51.8,51.8,0,0,0-8.62,5.81,1.93,1.93,0,0,1-3-.69l-6.38-14.22,2.05-3.05A1.5,1.5,0,0,1,82.52,197.4Z"/><path class="cls-21" d="M110.15,197.74,96.37,210a51.8,51.8,0,0,1,8.56,5.89,1.93,1.93,0,0,0,3-.66l6.52-14.16-2-3.07A1.5,1.5,0,0,0,110.15,197.74Z"/><path class="cls-23" d="M670.69,128.29c-.75,0-1.46,0-2.15.1l0,0c-31.27,1.61-27.91,41.32-27.9,70.29a3.16,3.16,0,0,0,1.54,2.71,56.74,56.74,0,0,0,56.37.27,3.16,3.16,0,0,0,1.56-2.7C700.38,169.31,704.3,128.44,670.69,128.29Z"/><path class="cls-24" d="M668.62,130.48C639,132,642.18,169.63,642.19,197.07a3,3,0,0,0,1.46,2.57,52.79,52.79,0,0,0,26.67,7.23l8.31-56.3"/><path class="cls-17" d="M670.68,130.41c-18.11-.09-19.47,21.79-19.47,21.79,10.45-1.71,16.84,2.72,27.42-1.63l-8.31,56.3a52.78,52.78,0,0,0,26.73-7,3,3,0,0,0,1.48-2.56C698.81,169.27,702.52,130.56,670.68,130.41Z"/><path class="cls-12" d="M704.09,207.32l-19.91-8.41a4.47,4.47,0,0,1-2.73-4.14l0-5.4-22.36-.11,0,5.4a4.47,4.47,0,0,1-2.77,4.11l-20,8.22a6.71,6.71,0,0,0-4.16,6.17l0,8.94a4.47,4.47,0,0,0,4.45,4.49l67.07.32a4.47,4.47,0,0,0,4.49-4.45l0-8.94A6.71,6.71,0,0,0,704.09,207.32Z"/><path class="cls-13" d="M700,207.41,682.5,200a3.93,3.93,0,0,1-2.4-3.64l0-7.55-19.67-.09,0,7.55A3.93,3.93,0,0,1,658,199.9l-17.59,7.23a5.9,5.9,0,0,0-3.66,5.43l0,7.87a3.93,3.93,0,0,0,3.92,4l59,.28a3.93,3.93,0,0,0,4-3.92l0-7.87A5.9,5.9,0,0,0,700,207.41Z"/><path class="cls-12" d="M681.68,146.33c-11.23,11.12-33.12,2.08-33.21,20l1.33,13.18a8.94,8.94,0,0,0,4.53,7l12.7,7.13a6.71,6.71,0,0,0,6.51,0l12.76-7a8.94,8.94,0,0,0,4.6-7L692.57,164a24.68,24.68,0,0,0,.12-3.35C691.87,155,683.89,150.82,681.68,146.33Z"/><path class="cls-15" d="M680.83,148.16c-10.38,10.28-30.61,1.92-30.68,18.45l1.23,12.18a8.26,8.26,0,0,0,4.19,6.49l11.73,6.59a6.2,6.2,0,0,0,6,0l11.79-6.48a8.26,8.26,0,0,0,4.25-6.46l1.55-14.45a22.81,22.81,0,0,0,.11-3.09C690.26,156.16,682.88,152.31,680.83,148.16Z"/><path class="cls-12" d="M711.3,212.25c0-.11,0-.21-.07-.32a7.2,7.2,0,0,0-.29-1l-.09-.23a7.2,7.2,0,0,0-3.84-3.87l-17.44-7.36.26-.36-2.7-4.09a1.92,1.92,0,0,0-2.75-.48l-13.82,10.26-13.72-10.39a1.92,1.92,0,0,0-2.76.46l-2.74,4.07.26.37-17.5,7.2a7.18,7.18,0,0,0-2.38,1.61h0a7.2,7.2,0,0,0-1.49,2.21l-.08.21a7.17,7.17,0,0,0-.31,1c0,.11-.05.21-.07.32a7.16,7.16,0,0,0-.14,1.29l0,9.62a4.81,4.81,0,0,0,4.79,4.83l9.62,0h0l62.54.29a4.81,4.81,0,0,0,4.83-4.79l0-9.62A7.17,7.17,0,0,0,711.3,212.25Z"/><path class="cls-25" d="M707.22,212.13c0-.1,0-.19-.06-.29a6.48,6.48,0,0,0-.26-.88l-.08-.21a6.48,6.48,0,0,0-3.45-3.48l-15.69-6.63.24-.33-2.43-3.68a1.73,1.73,0,0,0-2.48-.44l-12.44,9.23-12.35-9.35a1.73,1.73,0,0,0-2.48.41l-2.47,3.66.23.33-15.75,6.86a4.38,4.38,0,0,0-2.23,1.84H636v-.77a3.39,3.39,0,0,0-1.54,2c0,.06-.15.13-.17.19a6.66,6.66,0,0,0-.33.9c0,.1-.07.19-.09.28a6.45,6.45,0,0,0-.13,1.16l0,8.66a4.33,4.33,0,0,0,4.31,4.35l8.66,0h0l56.29.27a4.33,4.33,0,0,0,4.35-4.31l0-8.66A6.45,6.45,0,0,0,707.22,212.13Z"/><path class="cls-20" d="M663,180.93s6.17,6,12.12,0"/><path class="cls-21" d="M670.59,222.29h-.67a1.9,1.9,0,0,1-1.89-1.91l.07-15,4.47,0-.07,15A1.9,1.9,0,0,1,670.59,222.29Z"/><path class="cls-26" d="M670.33,205.42l-12.75-9.66a1.79,1.79,0,0,0-2.56.43L652.48,200l7.79,11a1.79,1.79,0,0,0,2.57.37Z"/><path class="cls-26" d="M670.33,205.42l12.84-9.54a1.79,1.79,0,0,1,2.56.45l2.51,3.8-7.9,10.95a1.79,1.79,0,0,1-2.57.35Z"/></svg>