<svg id="Layer_1" data-name="Layer 1" xmlns="http://www.w3.org/2000/svg" viewBox="0 0 250 250"><defs><style>.cls-1{fill:none;stroke:#000;stroke-width:0.58px;}.cls-1,.cls-2{stroke-miterlimit:10;}.cls-2{fill:#0f3867;stroke:#0f3867;stroke-width:6px;}</style></defs><title>Artboard 12 copy 3fondo</title><path class="cls-1" d="M187.74,212.88a19.2,19.2,0,0,1-13.66-5.66l-41.79-41.79,3.65-2.35a71.52,71.52,0,0,0,21.32-21.32l2.35-3.65L201.4,179.9a19.32,19.32,0,0,1-13.66,33Z"/><path class="cls-1" d="M98.09,170.69a66.78,66.78,0,1,1,66.78-66.78A66.86,66.86,0,0,1,98.09,170.69Zm0-110.74a44,44,0,1,0,44,44A44,44,0,0,0,98.09,59.95Z"/><path class="cls-2" d="M143.29,166.53,179,202.27a12.32,12.32,0,1,0,17.42-17.42h0l-35.73-35.73A78.83,78.83,0,0,1,143.29,166.53Z"/><path class="cls-2" d="M98.09,44.12a59.78,59.78,0,1,0,59.78,59.78A59.85,59.85,0,0,0,98.09,44.12Zm0,110.74a51,51,0,1,1,51-51A51,51,0,0,1,98.09,154.87Z"/></svg>