<svg xmlns="http://www.w3.org/2000/svg" xmlns:xlink="http://www.w3.org/1999/xlink" viewBox="0 0 250 250"><defs><style>.cls-1{fill:url(#linear-gradient);}.cls-10,.cls-11,.cls-2{fill:none;}.cls-3{isolation:isolate;}.cls-4{clip-path:url(#clip-path);}.cls-5,.cls-6{fill:#cdcccb;}.cls-5{opacity:0.36;}.cls-6{mix-blend-mode:overlay;}.cls-7{mask:url(#mask);}.cls-8{clip-path:url(#clip-path-2);}.cls-9{fill:url(#linear-gradient-2);}.cls-10{stroke:#fff;}.cls-10,.cls-11{stroke-miterlimit:10;}.cls-11{stroke:#000;stroke-width:0.58px;}.cls-12{fill:#0f3867;}</style><linearGradient id="linear-gradient" x1="418.1" y1="-932.98" x2="-1925.68" y2="-221.94" gradientUnits="userSpaceOnUse"><stop offset="0" stop-color="#fff" stop-opacity="0"/><stop offset="1" stop-color="#fff"/></linearGradient><clipPath id="clip-path"><rect class="cls-2" x="-1549.86" y="-1168.25" width="1917.75" height="1084.7"/></clipPath><mask id="mask" x="-1549.86" y="-1320" width="2367.34" height="1408.11" maskUnits="userSpaceOnUse"><g id="_Group_" data-name="&lt;Group&gt;"><rect id="_Rectangle_" data-name="&lt;Rectangle&gt;" class="cls-1" x="-1549.86" y="-1265.13" width="1924.19" height="1274.6"/></g></mask><clipPath id="clip-path-2"><rect id="_Rectangle_2" data-name="&lt;Rectangle&gt;" class="cls-2" x="-1549.86" y="-1265.13" width="1924.19" height="1274.6"/></clipPath><linearGradient id="linear-gradient-2" x1="-855.62" y1="-679.9" x2="1159.89" y2="-478.81" gradientUnits="userSpaceOnUse"><stop offset="0" stop-color="#fff"/><stop offset="0.04" stop-color="#fff" stop-opacity="0.93"/><stop offset="0.2" stop-color="#fff" stop-opacity="0.69"/><stop offset="0.35" stop-color="#fff" stop-opacity="0.48"/><stop offset="0.5" stop-color="#fff" stop-opacity="0.31"/><stop offset="0.64" stop-color="#fff" stop-opacity="0.17"/><stop offset="0.77" stop-color="#fff" stop-opacity="0.08"/><stop offset="0.9" stop-color="#fff" stop-opacity="0.02"/><stop offset="1" stop-color="#fff" stop-opacity="0"/></linearGradient></defs><title>Artboard 12 copy 4fondo</title><g class="cls-3"><g id="Layer_1" data-name="Layer 1"><g class="cls-4"><image width="1920" height="1271" transform="translate(-1549.86 -1265.13)" xlink:href="../../../imgs/moscow-city-2210335_1920.jpg"/><rect class="cls-5" x="-1551.73" y="-1265.13" width="1921.86" height="1271"/><rect class="cls-6" x="-1551.73" y="-1265.13" width="1921.86" height="1271"/><g class="cls-7"><g id="_Clip_Group_" data-name="&lt;Clip Group&gt;"><g class="cls-8"><polygon id="_Path_" data-name="&lt;Path&gt;" class="cls-9" points="-712.73 -782.77 -273.18 78.65 327.06 88.11 817.48 -1129.12 -245.69 -1319.48 -712.73 -782.77"/><polygon id="_Path_2" data-name="&lt;Path&gt;" class="cls-10" points="-273.18 78.65 -712.73 -782.77 -245.69 -1319.48 386.55 -1285.36 389.53 51.64 -273.18 78.65"/></g></g></g><g id="_Clip_Group_2" data-name="&lt;Clip Group&gt;"><g class="cls-8"><line id="_Path_3" data-name="&lt;Path&gt;" class="cls-10" x1="-352.13" y1="-81.51" x2="533.15" y2="78.65"/></g></g></g><path class="cls-11" d="M42.12,167.18A8.72,8.72,0,0,1,34,161.46,100.33,100.33,0,0,1,91.18,33.94a8.69,8.69,0,0,1,10.38-13.79l16,9.23a8.69,8.69,0,0,1,3.18,11.88l-9.23,16a8.7,8.7,0,0,1-16-6.25,83.22,83.22,0,0,0-48.92,61.78h0a82.85,82.85,0,0,0,3.72,42.75,8.7,8.7,0,0,1-8.17,11.67Z"/><path class="cls-11" d="M128.1,227.44a100,100,0,0,1-61.55-21.2,8.69,8.69,0,0,1-17.21-1.73V185.86c0-.15,0-.36,0-.57l0-.19a8.68,8.68,0,0,1,9.36-7.72H76.48a8.69,8.69,0,0,1,3,16.85,82.89,82.89,0,0,0,112.25-13.77A8.7,8.7,0,0,1,204,179.39h0a8.69,8.69,0,0,1,1.06,12.25A100.29,100.29,0,0,1,128.1,227.44Z"/><path class="cls-11" d="M214.31,168.08a8.7,8.7,0,0,1-7.53-4.35l-9.22-16a8.7,8.7,0,0,1,13-11.08,82.91,82.91,0,0,0-68-91.17,8.69,8.69,0,0,1,3-17.12A100.29,100.29,0,0,1,227.42,142a8.7,8.7,0,0,1,10.4,3.86h0a8.69,8.69,0,0,1-3.18,11.88l-16,9.22A8.71,8.71,0,0,1,214.31,168.08Z"/><path class="cls-12" d="M97.23,23a4.69,4.69,0,0,0-2.36,8.75l5.42,3.13-4.09,1.45a96.34,96.34,0,0,0-58.5,123.76,4.69,4.69,0,0,0,8.66.37,4.66,4.66,0,0,0,.15-3.59,86.86,86.86,0,0,1-3.9-44.81h0a87.24,87.24,0,0,1,56.2-66.7L104,43.5l-4.06,7A4.69,4.69,0,1,0,108,55.23l9.23-16a4.69,4.69,0,0,0-1.72-6.41l-16-9.23A4.67,4.67,0,0,0,97.23,23Z"/><path class="cls-12" d="M62.73,197.87,66,200.65a96.33,96.33,0,0,0,136-11.59,4.69,4.69,0,0,0-.57-6.61h0a4.7,4.7,0,0,0-6.61.57A86.9,86.9,0,0,1,73.06,194.3l-4.32-3.55h7.74a4.69,4.69,0,0,0,0-9.38h-18a4.68,4.68,0,0,0-5.1,4.17v.09c0,.12,0,.24,0,.36v18.52a4.69,4.69,0,0,0,9.38,0Z"/><path class="cls-12" d="M205.08,138.71a4.7,4.7,0,0,0-4.06,7l9.22,16a4.67,4.67,0,0,0,2.85,2.19,4.72,4.72,0,0,0,3.56-.47l16-9.23a4.69,4.69,0,0,0,1.72-6.41h0a4.69,4.69,0,0,0-6.41-1.72l-6,3.46.95-4.9c.05-.26.11-.52.15-.78A96.3,96.3,0,0,0,144.94,32.32a4.69,4.69,0,0,0-1.63,9.24,86.91,86.91,0,0,1,70.53,100.55l-.95,5.42-3.74-6.46a4.66,4.66,0,0,0-2.85-2.19A4.72,4.72,0,0,0,205.08,138.71Z"/></g></g></svg>