<svg xmlns="http://www.w3.org/2000/svg" xmlns:xlink="http://www.w3.org/1999/xlink" viewBox="0 0 250 250"><defs><style>.cls-1{fill:url(#linear-gradient);}.cls-11,.cls-12,.cls-2{fill:none;}.cls-3{isolation:isolate;}.cls-4{clip-path:url(#clip-path);}.cls-5,.cls-6{fill:#cdcccb;}.cls-5{opacity:0.36;}.cls-6{mix-blend-mode:overlay;}.cls-7{mask:url(#mask);}.cls-8{clip-path:url(#clip-path-2);}.cls-9{fill:url(#linear-gradient-2);}.cls-10{fill:url(#linear-gradient-3);}.cls-11{stroke:#fff;}.cls-11,.cls-12{stroke-miterlimit:10;}.cls-12{stroke:#000;stroke-width:0.58px;}.cls-13{fill:#0f3867;}</style><linearGradient id="linear-gradient" x1="1637.1" y1="-932.98" x2="-706.68" y2="-221.94" gradientUnits="userSpaceOnUse"><stop offset="0" stop-color="#fff" stop-opacity="0"/><stop offset="1" stop-color="#fff"/></linearGradient><clipPath id="clip-path"><rect class="cls-2" x="-330.86" y="-1168.25" width="1917.75" height="1084.7"/></clipPath><mask id="mask" x="-354.25" y="-1555.87" width="1947.58" height="1635.01" maskUnits="userSpaceOnUse"><g id="_Group_" data-name="&lt;Group&gt;"><rect id="_Rectangle_" data-name="&lt;Rectangle&gt;" class="cls-1" x="-330.86" y="-1265.13" width="1924.19" height="1274.6"/></g></mask><clipPath id="clip-path-2"><rect id="_Rectangle_2" data-name="&lt;Rectangle&gt;" class="cls-2" x="-330.86" y="-1265.13" width="1924.19" height="1274.6"/></clipPath><linearGradient id="linear-gradient-2" x1="-106.38" y1="-61.93" x2="851.22" y2="54.32" xlink:href="#linear-gradient"/><linearGradient id="linear-gradient-3" x1="242.08" y1="-869.33" x2="388.61" y2="-245.95" gradientUnits="userSpaceOnUse"><stop offset="0" stop-color="#fff"/><stop offset="1" stop-color="#fff" stop-opacity="0"/></linearGradient></defs><title>Artboard 12 copy 10fondo</title><g class="cls-3"><g id="Layer_1" data-name="Layer 1"><g class="cls-4"><image width="1920" height="1271" transform="translate(-330.86 -1265.13)" xlink:href="../../../imgs/moscow-city-2210335_1920.jpg"/><rect class="cls-5" x="-332.73" y="-1265.13" width="1921.86" height="1271"/><rect class="cls-6" x="-332.73" y="-1265.13" width="1921.86" height="1271"/><g class="cls-7"><g id="_Clip_Group_" data-name="&lt;Clip Group&gt;"><g class="cls-8"><g id="_Group_2" data-name="&lt;Group&gt;"><polygon id="_Path_" data-name="&lt;Path&gt;" class="cls-9" points="-73.22 -164.79 945.82 78.65 -108.92 44.64 -73.22 -164.79"/><polygon id="_Path_2" data-name="&lt;Path&gt;" class="cls-10" points="-73.22 -164.79 -12.67 -519.95 506.27 -782.77 945.82 78.65 -73.22 -164.79"/><line id="_Path_3" data-name="&lt;Path&gt;" class="cls-11" x1="-108.92" y1="44.64" x2="163.93" y2="-1555.79"/><line id="_Path_4" data-name="&lt;Path&gt;" class="cls-11" x1="-343.08" y1="-229.26" x2="945.82" y2="78.65"/></g><line id="_Path_5" data-name="&lt;Path&gt;" class="cls-11" x1="-353.77" y1="74.18" x2="9.69" y2="-1322.17"/><line id="_Path_6" data-name="&lt;Path&gt;" class="cls-11" x1="-208.69" y1="-1316.8" x2="461.72" y2="76.86"/></g></g></g></g><path class="cls-12" d="M49.93,212.73H194.31c3.64,0,6.58,3.77,6.58,8.42h0c0,4.65-2.94,8.42-6.58,8.42H49.93c-3.64,0-6.58-3.77-6.58-8.42h0C43.35,216.5,46.29,212.73,49.93,212.73Z"/><path class="cls-12" d="M51.11,113H74.86A7.9,7.9,0,0,1,83,120.69v75a7.9,7.9,0,0,1-8.11,7.64H51.11A7.9,7.9,0,0,1,43,195.67v-75A7.9,7.9,0,0,1,51.11,113Z"/><path class="cls-12" d="M107.31,81.36h23.75A7.9,7.9,0,0,1,139.17,89V195.67a7.9,7.9,0,0,1-8.11,7.64H107.31a7.9,7.9,0,0,1-8.11-7.64V89A7.9,7.9,0,0,1,107.31,81.36Z"/><path class="cls-12" d="M195.25,61.09V195.67a7.9,7.9,0,0,1-8.11,7.64H163.39a7.9,7.9,0,0,1-8.11-7.64V61.09H143.52l31.74-40.66L207,61.09Z"/><path class="cls-13" d="M52.46,214.42H191.09c2.92,0,5.27,3,5.27,6.74h0c0,3.72-2.35,6.74-5.27,6.74H52.46c-2.92,0-5.27-3-5.27-6.74h0C47.19,217.43,49.54,214.42,52.46,214.42Z"/><path class="cls-13" d="M53.48,117.36h19A6.32,6.32,0,0,1,79,123.48v69.25a6.32,6.32,0,0,1-6.49,6.12h-19A6.32,6.32,0,0,1,47,192.73V123.48A6.32,6.32,0,0,1,53.48,117.36Z"/><path class="cls-13" d="M109.68,85.12h19a6.32,6.32,0,0,1,6.49,6.12V192.55a6.32,6.32,0,0,1-6.49,6.12h-19a6.32,6.32,0,0,1-6.49-6.12V91.23A6.32,6.32,0,0,1,109.68,85.12Z"/><path class="cls-13" d="M191.25,58.16V192.55a6.32,6.32,0,0,1-6.49,6.12h-19a6.32,6.32,0,0,1-6.49-6.12V58.16h-9.41l25.4-32.53,25.4,32.53Z"/></g></g></svg>