<svg id="Layer_1" data-name="Layer 1" xmlns="http://www.w3.org/2000/svg" viewBox="0 0 44.57 44.57"><defs><style>.cls-1{fill:none;stroke:#fff;stroke-miterlimit:10;}</style></defs><title>Artboard 3social</title><path class="cls-1" d="M43.46,22.29A21.17,21.17,0,1,1,22.29,1.11,21.17,21.17,0,0,1,43.46,22.29Zm0,0"/><path class="cls-1" d="M35.25,16.33a10.11,10.11,0,0,1-2.91.8,5.09,5.09,0,0,0,2.23-2.8,10.17,10.17,0,0,1-3.21,1.23,5.07,5.07,0,0,0-8.62,4.62,14.37,14.37,0,0,1-10.43-5.29,5.07,5.07,0,0,0,1.56,6.76A5,5,0,0,1,11.58,21v.06a5.06,5.06,0,0,0,4.06,5,5.06,5.06,0,0,1-2.29.09,5.07,5.07,0,0,0,4.73,3.51,10.24,10.24,0,0,1-7.49,2.1A14.39,14.39,0,0,0,32.74,19.6c0-.22,0-.44,0-.65a10.27,10.27,0,0,0,2.52-2.62Zm0,0"/></svg>