<?xml version="1.0" encoding="utf-8"?>
<!-- Generator: Adobe Illustrator 20.1.0, SVG Export Plug-In . SVG Version: 6.00 Build 0)  -->
<svg version="1.1" id="Layer_1" xmlns="http://www.w3.org/2000/svg" xmlns:xlink="http://www.w3.org/1999/xlink" x="0px" y="0px"
	 viewBox="0 0 44.6 44.6" style="enable-background:new 0 0 44.6 44.6;" xml:space="preserve">
<style type="text/css">
	.st0{fill:#0057A2;}
	.st1{fill:#FFFFFF;}
</style>
<title>Artboard 3social</title>
<path class="st0" d="M43.5,22.3c0,11.7-9.5,21.2-21.2,21.2S1.1,34,1.1,22.3c0-11.7,9.5-21.2,21.2-21.2C34,1.1,43.5,10.6,43.5,22.3
	C43.5,22.3,43.5,22.3,43.5,22.3z"/>
<path class="st1" d="M35.2,16.3c-0.9,0.4-1.9,0.7-2.9,0.8c1.1-0.6,1.9-1.6,2.2-2.8c-1,0.6-2.1,1-3.2,1.2c-1.9-2-5.1-2.1-7.2-0.2
	c-1.3,1.2-1.9,3.1-1.5,4.8c-4.1-0.2-7.9-2.1-10.4-5.3c-1.3,2.3-0.7,5.3,1.6,6.8c-0.8,0-1.6-0.3-2.3-0.7v0.1c0,2.4,1.7,4.5,4.1,5
	c-0.7,0.2-1.5,0.2-2.3,0.1c0.7,2.1,2.6,3.5,4.7,3.5c-2.1,1.7-4.8,2.4-7.5,2.1c6.7,4.3,15.6,2.3,19.9-4.4c1.5-2.3,2.3-5,2.3-7.8
	c0-0.2,0-0.4,0-0.6C33.7,18.2,34.6,17.3,35.2,16.3L35.2,16.3z"/>
</svg>
