<?xml version="1.0" encoding="utf-8"?>
<!-- Generator: Adobe Illustrator 20.1.0, SVG Export Plug-In . SVG Version: 6.00 Build 0)  -->
<svg version="1.1" id="Layer_1" xmlns="http://www.w3.org/2000/svg" xmlns:xlink="http://www.w3.org/1999/xlink" x="0px" y="0px"
	 viewBox="0 0 44.6 44.6" style="enable-background:new 0 0 44.6 44.6;" xml:space="preserve">
<style type="text/css">
	.st0{fill:none;stroke:#0057A2;stroke-miterlimit:10;}
</style>
<title>Artboard 2social</title>
<path class="st0" d="M43.5,22.3c0,11.7-9.5,21.2-21.2,21.2S1.1,34,1.1,22.3c0-11.7,9.5-21.2,21.2-21.2C34,1.1,43.5,10.6,43.5,22.3
	C43.5,22.3,43.5,22.3,43.5,22.3z"/>
<path class="st0" d="M27.6,23.1h-3.8V37h-5.7V23.1h-2.7v-4.9h2.7v-3.1c0-2.2,1.1-5.8,5.8-5.8h4.2V14H25c-0.6,0-1.2,0.5-1.2,1.1
	c0,0.1,0,0.1,0,0.2v2.9h4.3L27.6,23.1z"/>
</svg>
