<?xml version="1.0" encoding="utf-8"?>
<!-- Generator: Adobe Illustrator 20.1.0, SVG Export Plug-In . SVG Version: 6.00 Build 0)  -->
<svg version="1.1" id="Layer_1" xmlns="http://www.w3.org/2000/svg" xmlns:xlink="http://www.w3.org/1999/xlink" x="0px" y="0px"
	 viewBox="0 0 44.6 44.6" style="enable-background:new 0 0 44.6 44.6;" xml:space="preserve">
<style type="text/css">
	.st0{fill:#0057A2;}
	.st1{fill:#FFFFFF;}
</style>
<title>Artboard 4social</title>
<path class="st0" d="M43.5,22.3c0,11.7-9.5,21.2-21.2,21.2S1.1,34,1.1,22.3c0-11.7,9.5-21.2,21.2-21.2C34,1.1,43.5,10.6,43.5,22.3
	C43.5,22.3,43.5,22.3,43.5,22.3z"/>
<path class="st1" d="M34.9,24v8.7h-5.1v-8.2c0-2-0.7-3.4-2.6-3.4c-1.2,0-2.2,0.8-2.6,1.9c-0.1,0.4-0.2,0.8-0.2,1.2v8.5h-5.1
	c0,0,0.1-13.8,0-15.2h5.1v2.2l0,0l0,0l0,0c0.9-1.6,2.7-2.6,4.6-2.5C32.4,17.1,34.9,19.3,34.9,24z M14.2,10.2
	c-1.5-0.1-2.7,0.9-2.9,2.4s0.9,2.7,2.4,2.9c0.2,0,0.3,0,0.5,0l0,0c1.5,0.1,2.7-0.9,2.9-2.4s-0.9-2.7-2.4-2.9
	C14.4,10.1,14.3,10.1,14.2,10.2L14.2,10.2z M11.6,32.7h5.1V17.5h-5.1V32.7z"/>
</svg>
