<?xml version="1.0" encoding="utf-8"?>
<!-- Generator: Adobe Illustrator 20.1.0, SVG Export Plug-In . SVG Version: 6.00 Build 0)  -->
<svg version="1.1" id="Layer_1" xmlns="http://www.w3.org/2000/svg" xmlns:xlink="http://www.w3.org/1999/xlink" x="0px" y="0px"
	 viewBox="0 0 312.3 261" style="enable-background:new 0 0 312.3 261;" xml:space="preserve">
<style type="text/css">
	.st0{fill:#23487D;}
	.st1{fill:#1758A0;}
	.st2{fill:#878E94;}
</style>
<g>
	<g>
		<polygon class="st0" points="82.9,81.7 151.6,149.7 151.6,122.2 135,105.7 151.6,89.1 151.6,60.4 121.3,90.7 111,80.4 156.2,35.2 
			156.2,6.5 		"/>
		<polygon class="st1" points="160.8,149.7 229.5,81.7 156.2,6.5 156.2,35.2 201.4,80.4 191.1,90.7 160.8,60.4 160.8,89.1 
			177.4,105.7 160.8,122.2 		"/>
	</g>
	<g>
		<g>
			<path class="st1" d="M12.4,227.7v8.3h-1.1v-8.3H7.9v-1h8v1H12.4z"/>
			<path class="st1" d="M27,231.9c0,1.3-0.4,2.3-1.1,3.1c-0.7,0.8-1.6,1.2-2.8,1.2c-1.2,0-2.1-0.4-2.8-1.2s-1.1-1.8-1.1-3.1v-5.2
				h1.1v5.2c0,1,0.3,1.7,0.8,2.3c0.5,0.6,1.2,0.9,2,0.9c0.8,0,1.5-0.3,2-0.9c0.5-0.6,0.8-1.4,0.8-2.3v-5.2H27V231.9z"/>
			<path class="st1" d="M40.7,226.7c1,0,1.8,0.3,2.3,0.8c0.6,0.5,0.9,1.2,0.9,2.1c0,0.9-0.3,1.6-0.9,2.1c-0.6,0.5-1.4,0.8-2.3,0.8
				h-2.9v3.5h-1.1v-9.3H40.7z M40.7,231.4c0.7,0,1.2-0.2,1.6-0.5c0.4-0.4,0.6-0.8,0.6-1.4s-0.2-1-0.6-1.4c-0.4-0.4-0.9-0.5-1.6-0.5
				h-2.9v3.8H40.7z"/>
			<path class="st1" d="M54.1,235.9h-6.4v-9.3h1.1v8.3h5.3V235.9z"/>
			<path class="st1" d="M64.7,235.9l-1-2.4h-4.9l-1,2.4h-1.2l4.2-9.3h1l4.2,9.3H64.7z M61.3,228l-2,4.6h4L61.3,228z"/>
			<path class="st1" d="M76,235.9h-7.1v-0.7l5.7-7.6H69v-0.9h6.9v0.8l-5.6,7.5H76V235.9z"/>
			<path class="st1" d="M87.4,227.9c0.9,0.9,1.4,2.1,1.4,3.4c0,1.3-0.5,2.5-1.4,3.4c-0.9,0.9-2.1,1.4-3.4,1.4
				c-1.3,0-2.5-0.5-3.4-1.4c-0.9-0.9-1.4-2.1-1.4-3.4c0-1.3,0.5-2.5,1.4-3.4c0.9-0.9,2.1-1.4,3.4-1.4
				C85.4,226.5,86.5,227,87.4,227.9z M86.6,234c0.7-0.7,1.1-1.6,1.1-2.7c0-1.1-0.4-2-1.1-2.7c-0.7-0.7-1.6-1.1-2.6-1.1
				c-1,0-1.9,0.4-2.6,1.1c-0.7,0.7-1.1,1.6-1.1,2.7c0,1.1,0.4,2,1.1,2.7c0.7,0.7,1.6,1.1,2.6,1.1C85.1,235.1,85.9,234.7,86.6,234z"
				/>
			<path class="st1" d="M105.2,235.9l-1-2.4h-4.9l-1,2.4h-1.2l4.2-9.3h1l4.2,9.3H105.2z M101.7,228l-2,4.6h4L101.7,228z"/>
			<path class="st1" d="M116.1,235.9h-6.4v-9.3h1.1v8.3h5.3V235.9z"/>
			<path class="st1" d="M135.2,235.9h-1.1v-6.8l-3.6,6.8h-0.7l-3.6-6.8v6.8h-1.1v-9.3h1l4,7.6l4-7.6h1V235.9z"/>
			<path class="st1" d="M146.3,235.9h-6.8v-9.3h6.8v1h-5.7v3.1h5.3v1h-5.3v3.2h5.7V235.9z"/>
			<path class="st1" d="M156.2,232.6c0,1-0.3,1.9-0.9,2.6c-0.6,0.7-1.5,1-2.5,1c-0.9,0-1.7-0.3-2.3-0.8c-0.6-0.5-1-1.3-1.1-2.2
				l1-0.2c0.1,0.7,0.3,1.2,0.7,1.6c0.4,0.4,0.9,0.6,1.6,0.6c0.7,0,1.3-0.2,1.7-0.7c0.4-0.5,0.7-1.1,0.7-1.8v-5.9h1.1V232.6z"/>
			<path class="st1" d="M168.2,227.9c0.9,0.9,1.4,2.1,1.4,3.4c0,1.3-0.5,2.5-1.4,3.4c-0.9,0.9-2.1,1.4-3.4,1.4
				c-1.3,0-2.5-0.5-3.4-1.4c-0.9-0.9-1.4-2.1-1.4-3.4c0-1.3,0.5-2.5,1.4-3.4c0.9-0.9,2.1-1.4,3.4-1.4
				C166.1,226.5,167.3,227,168.2,227.9z M167.4,234c0.7-0.7,1.1-1.6,1.1-2.7c0-1.1-0.4-2-1.1-2.7c-0.7-0.7-1.6-1.1-2.6-1.1
				c-1,0-1.9,0.4-2.6,1.1c-0.7,0.7-1.1,1.6-1.1,2.7c0,1.1,0.4,2,1.1,2.7c0.7,0.7,1.6,1.1,2.6,1.1C165.8,235.1,166.7,234.7,167.4,234
				z"/>
			<path class="st1" d="M179.9,235.9l-3.5-4h-1.7v4h-1.1v-9.3h4.3c0.9,0,1.6,0.2,2.2,0.7c0.6,0.5,0.8,1.1,0.8,1.9
				c0,0.8-0.3,1.4-0.8,1.9c-0.6,0.5-1.3,0.7-2.2,0.7h-0.2l3.6,4H179.9z M177.8,231c0.6,0,1-0.2,1.4-0.5c0.4-0.3,0.5-0.7,0.5-1.2
				c0-0.5-0.2-0.9-0.5-1.2c-0.4-0.3-0.8-0.5-1.4-0.5h-3.2v3.3H177.8z"/>
			<path class="st1" d="M196.5,235.9l-3.5-4h-1.7v4h-1.1v-9.3h4.3c0.9,0,1.6,0.2,2.2,0.7c0.6,0.5,0.8,1.1,0.8,1.9
				c0,0.8-0.3,1.4-0.8,1.9c-0.6,0.5-1.3,0.7-2.2,0.7h-0.2l3.6,4H196.5z M194.4,231c0.6,0,1.1-0.2,1.4-0.5c0.4-0.3,0.5-0.7,0.5-1.2
				c0-0.5-0.2-0.9-0.5-1.2c-0.4-0.3-0.8-0.5-1.4-0.5h-3.2v3.3H194.4z"/>
			<path class="st1" d="M208.1,235.9h-6.8v-9.3h6.8v1h-5.7v3.1h5.3v1h-5.3v3.2h5.7V235.9z"/>
			<path class="st1" d="M220.2,235.9h-0.9l-6.1-7.4v7.4h-1.1v-9.3h0.9l6.1,7.4v-7.4h1.1V235.9z"/>
			<path class="st1" d="M227.6,226.7c1.6,0,2.8,0.4,3.8,1.3c0.9,0.9,1.4,2,1.4,3.3c0,1.3-0.5,2.5-1.4,3.3c-0.9,0.9-2.2,1.3-3.8,1.3
				h-3.1v-9.3H227.6z M227.6,235c1.3,0,2.3-0.3,3-1c0.7-0.7,1.1-1.6,1.1-2.6c0-1.1-0.4-1.9-1.1-2.6c-0.7-0.7-1.7-1-3-1h-2v7.3H227.6
				z"/>
			<path class="st1" d="M236.7,235.9v-9.3h1.1v9.3H236.7z"/>
			<path class="st1" d="M252.1,235.9h-1.1v-6.8l-3.6,6.8h-0.7l-3.6-6.8v6.8h-1.1v-9.3h1l4,7.6l4-7.6h1V235.9z"/>
			<path class="st1" d="M256.5,235.9v-9.3h1.1v9.3H256.5z"/>
			<path class="st1" d="M268.7,235.9H262v-9.3h6.8v1h-5.7v3.1h5.3v1h-5.3v3.2h5.7V235.9z"/>
			<path class="st1" d="M280.8,235.9h-0.9l-6.1-7.4v7.4h-1.1v-9.3h0.9l6.1,7.4v-7.4h1.1V235.9z"/>
			<path class="st1" d="M288.9,227.7v8.3h-1.1v-8.3h-3.4v-1h8v1H288.9z"/>
			<path class="st1" d="M303.1,227.9c0.9,0.9,1.4,2.1,1.4,3.4c0,1.3-0.5,2.5-1.4,3.4c-0.9,0.9-2.1,1.4-3.4,1.4
				c-1.3,0-2.5-0.5-3.4-1.4c-0.9-0.9-1.4-2.1-1.4-3.4c0-1.3,0.5-2.5,1.4-3.4c0.9-0.9,2.1-1.4,3.4-1.4
				C301.1,226.5,302.2,227,303.1,227.9z M302.4,234c0.7-0.7,1.1-1.6,1.1-2.7c0-1.1-0.4-2-1.1-2.7c-0.7-0.7-1.6-1.1-2.6-1.1
				c-1,0-1.9,0.4-2.6,1.1c-0.7,0.7-1.1,1.6-1.1,2.7c0,1.1,0.4,2,1.1,2.7c0.7,0.7,1.6,1.1,2.6,1.1C300.8,235.1,301.6,234.7,302.4,234
				z"/>
		</g>
	</g>
	<g>
		<g>
			<path class="st0" d="M13.8,195.7h19.4v5.4H13.8v15.5h-6v-37.5h27.4v5.4H13.8V195.7z"/>
			<path class="st0" d="M72.8,184c3.8,3.8,5.7,8.4,5.7,13.9s-1.9,10.1-5.7,13.8c-3.8,3.8-8.4,5.7-13.9,5.7s-10.1-1.9-13.9-5.7
				c-3.8-3.8-5.7-8.4-5.7-13.8c0-5.5,1.9-10.1,5.7-13.9c3.8-3.8,8.4-5.7,13.9-5.7S69,180.2,72.8,184z M68.5,207.8
				c2.6-2.6,3.9-5.9,3.9-9.9c0-4-1.3-7.3-3.9-9.9c-2.6-2.7-5.8-4-9.6-4c-3.8,0-7,1.3-9.6,4c-2.6,2.7-3.9,6-3.9,9.9
				c0,3.9,1.3,7.2,3.9,9.9c2.6,2.6,5.8,4,9.6,4C62.7,211.8,65.9,210.4,68.5,207.8z"/>
			<path class="st0" d="M119.3,216.6h-5.1l-22.7-26.9v26.9h-6v-37.5h5.1l22.6,27.4v-27.4h6V216.6z"/>
			<path class="st0" d="M141.2,179.1c6.3,0,11.3,1.7,15.1,5.2c3.8,3.5,5.6,8,5.6,13.5c0,5.5-1.9,10-5.6,13.5
				c-3.8,3.5-8.8,5.2-15.1,5.2h-13.1v-37.5H141.2z M141.2,211.2c4.5,0,8-1.2,10.7-3.7c2.6-2.5,4-5.7,4-9.6c0-4-1.3-7.2-4-9.6
				c-2.6-2.5-6.2-3.7-10.7-3.7h-7.1v26.6H141.2z"/>
			<path class="st0" d="M200.7,184c3.8,3.8,5.7,8.4,5.7,13.9s-1.9,10.1-5.7,13.8c-3.8,3.8-8.4,5.7-13.9,5.7
				c-5.5,0-10.1-1.9-13.9-5.7c-3.8-3.8-5.7-8.4-5.7-13.8c0-5.5,1.9-10.1,5.7-13.9c3.8-3.8,8.4-5.7,13.9-5.7
				C192.2,178.3,196.9,180.2,200.7,184z M196.4,207.8c2.6-2.6,3.9-5.9,3.9-9.9c0-4-1.3-7.3-3.9-9.9c-2.6-2.7-5.8-4-9.6-4
				c-3.8,0-7,1.3-9.6,4c-2.6,2.7-3.9,6-3.9,9.9c0,3.9,1.3,7.2,3.9,9.9c2.6,2.6,5.8,4,9.6,4C190.6,211.8,193.8,210.4,196.4,207.8z"/>
		</g>
	</g>
	<g>
		<g>
			<path class="st1" d="M233.2,195.7h19.4v5.4h-19.4v15.5h-6v-37.5h27.4v5.4h-21.4V195.7z"/>
			<path class="st1" d="M260.4,216.6v-37.5h6v37.5H260.4z"/>
			<path class="st1" d="M291.3,184.6v32.1h-6v-32.1h-13.2v-5.4h32.4v5.4H291.3z"/>
		</g>
	</g>
	<g>
		<g>
			<rect x="7.8" y="240.3" class="st1" width="296.7" height="1.4"/>
		</g>
	</g>
	<g>
		<path class="st2" d="M153.9,254.3h-1.1v-4.7l-2.5,4.7h-0.7l-2.5-4.7v4.7h-1.1v-7.4h1l3,5.6l3-5.6h1V254.3z"/>
		<path class="st2" d="M161.2,254.3l-0.7-1.7h-3.6l-0.7,1.7h-1.3l3.2-7.4h1.1l3.2,7.4H161.2z M158.7,248.4l-1.3,3.1h2.7L158.7,248.4
			z"/>
		<path class="st2" d="M170,254.3h-1l-4.5-5.3v5.3h-1.2v-7.4h1l4.4,5.4v-5.4h1.2V254.3z"/>
		<path class="st2" d="M177.2,254.3l-0.7-1.7h-3.6l-0.7,1.7h-1.3l3.2-7.4h1.1l3.2,7.4H177.2z M174.7,248.4l-1.3,3.1h2.7L174.7,248.4
			z"/>
		<path class="st2" d="M186.4,250.1c0,0.3,0,0.4,0,0.5c0,1.1-0.3,2-1,2.7c-0.7,0.7-1.6,1.1-2.7,1.1c-1.1,0-2-0.4-2.8-1.1
			c-0.7-0.7-1.1-1.7-1.1-2.7c0-1.1,0.4-2,1.1-2.7c0.7-0.7,1.7-1.1,2.7-1.1c0.8,0,1.5,0.2,2.2,0.6c0.6,0.4,1.1,0.9,1.3,1.6l-1.1,0.4
			c-0.5-1-1.3-1.4-2.4-1.4c-0.7,0-1.4,0.3-1.9,0.8c-0.5,0.5-0.8,1.2-0.8,1.9c0,0.8,0.3,1.4,0.8,1.9c0.5,0.5,1.2,0.8,1.9,0.8
			c0.7,0,1.2-0.2,1.7-0.6c0.5-0.4,0.7-0.9,0.8-1.6h-2.9v-1.1H186.4z"/>
		<path class="st2" d="M193.3,254.3h-5.5v-7.4h5.5v1.1H189v2.1h4v1.1h-4v2.1h4.3V254.3z"/>
		<path class="st2" d="M197.4,246.9c1.2,0,2.2,0.3,3,1c0.7,0.7,1.1,1.6,1.1,2.7c0,1.1-0.4,2-1.1,2.7c-0.7,0.7-1.7,1-3,1h-2.6v-7.4
			H197.4z M197.4,253.3c0.9,0,1.6-0.2,2.1-0.7c0.5-0.5,0.8-1.1,0.8-1.9s-0.3-1.4-0.8-1.9c-0.5-0.5-1.2-0.7-2.1-0.7H196v5.2H197.4z"
			/>
		<path class="st2" d="M210.1,250.6c0.4,0,0.7,0.2,1,0.5c0.3,0.3,0.4,0.7,0.4,1.2c0,0.6-0.2,1.1-0.6,1.5s-1,0.6-1.7,0.6h-3.6v-7.4
			h3.5c0.7,0,1.2,0.2,1.6,0.5c0.4,0.4,0.6,0.8,0.6,1.4c0,0.4-0.1,0.8-0.4,1.1C210.7,250.3,210.4,250.5,210.1,250.6L210.1,250.6z
			 M206.8,250.1h2.2c0.4,0,0.6-0.1,0.9-0.3c0.2-0.2,0.3-0.5,0.3-0.8c0-0.3-0.1-0.6-0.3-0.8c-0.2-0.2-0.5-0.3-0.8-0.3h-2.2V250.1z
			 M209,253.3c0.4,0,0.7-0.1,0.9-0.3c0.2-0.2,0.3-0.5,0.3-0.8c0-0.3-0.1-0.6-0.3-0.8c-0.2-0.2-0.5-0.3-0.9-0.3h-2.3v2.2H209z"/>
		<path class="st2" d="M216.3,254.3h-1.2v-2.4l-3-4.9h1.3l2.3,3.7l2.3-3.7h1.4l-3,4.9V254.3z"/>
		<path class="st2" d="M224.3,250.2h3.8v1.1h-3.8v3.1h-1.2v-7.4h5.4v1.1h-4.2V250.2z"/>
		<path class="st2" d="M229.6,254.3v-7.4h1.2v7.4H229.6z"/>
		<path class="st2" d="M235.1,246.9c1.2,0,2.2,0.3,3,1c0.7,0.7,1.1,1.6,1.1,2.7c0,1.1-0.4,2-1.1,2.7c-0.7,0.7-1.7,1-3,1h-2.6v-7.4
			H235.1z M235.1,253.3c0.9,0,1.6-0.2,2.1-0.7c0.5-0.5,0.8-1.1,0.8-1.9s-0.3-1.4-0.8-1.9c-0.5-0.5-1.2-0.7-2.1-0.7h-1.4v5.2H235.1z"
			/>
		<path class="st2" d="M246.8,251.1c0,1-0.3,1.8-0.9,2.5c-0.6,0.6-1.3,0.9-2.3,0.9c-1,0-1.7-0.3-2.3-0.9c-0.6-0.6-0.9-1.5-0.9-2.5
			v-4.1h1.2v4.1c0,0.7,0.2,1.2,0.6,1.7c0.4,0.4,0.9,0.6,1.5,0.6c0.6,0,1-0.2,1.4-0.6c0.4-0.4,0.5-1,0.5-1.7v-4.1h1.2V251.1z"/>
		<path class="st2" d="M253.8,254.3l-0.7-1.7h-3.6l-0.7,1.7h-1.3l3.2-7.4h1.1l3.2,7.4H253.8z M251.2,248.4l-1.3,3.1h2.7L251.2,248.4
			z"/>
		<path class="st2" d="M264,254.3h-1.1v-4.7l-2.5,4.7h-0.7l-2.5-4.7v4.7H256v-7.4h1l3,5.6l3-5.6h1V254.3z"/>
		<path class="st2" d="M271.3,254.3h-5.5v-7.4h5.5v1.1H267v2.1h4v1.1h-4v2.1h4.3V254.3z"/>
		<path class="st2" d="M277.7,254.3l-2.6-2.9H274v2.9h-1.2v-7.4h3.5c0.8,0,1.4,0.2,1.8,0.6c0.5,0.4,0.7,0.9,0.7,1.6
			c0,0.6-0.2,1.1-0.6,1.5c-0.4,0.4-1,0.6-1.7,0.7l2.7,3H277.7z M276.3,250.3c0.4,0,0.7-0.1,1-0.3c0.2-0.2,0.4-0.5,0.4-0.8
			c0-0.3-0.1-0.6-0.4-0.8c-0.2-0.2-0.6-0.3-1-0.3H274v2.3H276.3z"/>
		<path class="st2" d="M280.2,254.3v-7.4h1.2v7.4H280.2z"/>
		<path class="st2" d="M288.1,252.9c0.4-0.3,0.7-0.8,0.9-1.4l1.1,0.2c-0.2,0.9-0.6,1.5-1.3,2c-0.7,0.5-1.4,0.7-2.3,0.7
			c-1.1,0-2-0.4-2.7-1.1c-0.7-0.7-1.1-1.7-1.1-2.7c0-1.1,0.4-2,1.1-2.7c0.7-0.7,1.7-1.1,2.7-1.1c0.9,0,1.6,0.2,2.3,0.7
			c0.7,0.5,1.1,1.1,1.3,1.9l-1.1,0.3c-0.2-0.6-0.5-1.1-0.9-1.4c-0.4-0.3-0.9-0.5-1.5-0.5c-0.7,0-1.4,0.3-1.9,0.8
			c-0.5,0.5-0.8,1.2-0.8,1.9c0,0.8,0.3,1.4,0.8,1.9c0.5,0.5,1.1,0.8,1.9,0.8C287.2,253.4,287.7,253.2,288.1,252.9z"/>
		<path class="st2" d="M296.9,254.3l-0.7-1.7h-3.6l-0.7,1.7h-1.3l3.2-7.4h1.1l3.2,7.4H296.9z M294.4,248.4l-1.3,3.1h2.7L294.4,248.4
			z"/>
		<path class="st2" d="M303.4,247.4c0.5,0.4,0.8,0.9,1,1.5l-1.2,0.2c-0.1-0.4-0.3-0.7-0.6-0.9c-0.3-0.2-0.7-0.4-1.1-0.4
			c-0.4,0-0.8,0.1-1,0.3c-0.3,0.2-0.4,0.5-0.4,0.8c0,0.3,0.1,0.5,0.2,0.6c0.2,0.1,0.4,0.3,0.7,0.3l1.6,0.3c1.3,0.3,1.9,1,1.9,2
			c0,0.7-0.3,1.2-0.8,1.6c-0.5,0.4-1.2,0.6-2.1,0.6c-0.8,0-1.5-0.2-2.1-0.6c-0.6-0.4-0.9-0.9-1-1.6l1.3-0.3c0.1,0.5,0.3,0.8,0.6,1.1
			c0.3,0.2,0.8,0.4,1.3,0.4c0.5,0,0.9-0.1,1.1-0.3c0.3-0.2,0.4-0.5,0.4-0.8c0-0.3-0.1-0.5-0.2-0.6c-0.2-0.1-0.4-0.3-0.8-0.3
			l-1.6-0.3c-1.2-0.3-1.9-1-1.9-2c0-0.7,0.2-1.2,0.7-1.6c0.5-0.4,1.2-0.6,2-0.6C302.3,246.8,302.9,247,303.4,247.4z"/>
	</g>
</g>
</svg>
