<?xml version="1.0" encoding="utf-8"?>
<!-- Generator: Adobe Illustrator 20.1.0, SVG Export Plug-In . SVG Version: 6.00 Build 0)  -->
<svg version="1.1" id="Layer_1" xmlns="http://www.w3.org/2000/svg" xmlns:xlink="http://www.w3.org/1999/xlink" x="0px" y="0px"
	 viewBox="0 0 164.9 209.9" style="enable-background:new 0 0 164.9 209.9;" xml:space="preserve">
<style type="text/css">
	.st0{fill:none;stroke:#FFFFFF;stroke-miterlimit:10;}
	.st1{opacity:0.37;fill:#FFFFFF;}
	.st2{fill:#FFFFFF;stroke:#FFFFFF;stroke-width:2;stroke-miterlimit:10;}
</style>
<g>
	<path class="st0" d="M11,188.4h137.2c3.5,0,6.3,3.6,6.3,8l0,0c0,4.4-2.8,8-6.3,8H11c-3.5,0-6.3-3.6-6.3-8l0,0
		C4.7,192,7.5,188.4,11,188.4z"/>
	<path class="st0" d="M12.1,93.7h22.6c4.2,0,7.7,3.3,7.7,7.3v71.2c0,4-3.5,7.3-7.7,7.3H12.1c-4.2,0-7.7-3.3-7.7-7.3V101
		C4.4,96.9,7.9,93.7,12.1,93.7z"/>
	<path class="st0" d="M65.5,63.6H88c4.2,0,7.7,3.3,7.7,7.3v101.3c0,4-3.5,7.3-7.7,7.3H65.5c-4.2,0-7.7-3.3-7.7-7.3V70.8
		C57.8,66.8,61.2,63.6,65.5,63.6z"/>
	<path class="st0" d="M149,44.3v127.9c0,4-3.5,7.3-7.7,7.3h-22.6c-4.2,0-7.7-3.3-7.7-7.3V44.3H99.9L130,5.7l30.2,38.6H149z"/>
	<path class="st1" d="M13.4,190h131.7c2.8,0,5,2.9,5,6.4l0,0c0,3.5-2.2,6.4-5,6.4H13.4c-2.8,0-5-2.9-5-6.4l0,0
		C8.4,192.8,10.6,190,13.4,190z"/>
	<path class="st1" d="M14.4,97.8h18c3.4,0,6.2,2.6,6.2,5.8v65.8c0,3.2-2.8,5.8-6.2,5.8h-18c-3.4,0-6.2-2.6-6.2-5.8v-65.8
		C8.2,100.4,11,97.8,14.4,97.8z"/>
	<path class="st1" d="M67.7,67.2h18c3.4,0,6.2,2.6,6.2,5.8v96.3c0,3.2-2.8,5.8-6.2,5.8h-18c-3.4,0-6.2-2.6-6.2-5.8V73
		C61.6,69.8,64.3,67.2,67.7,67.2z"/>
	<path class="st1" d="M145.2,41.5v127.7c0,3.2-2.8,5.8-6.2,5.8h-18c-3.4,0-6.2-2.6-6.2-5.8V41.5h-8.9L130,10.6l24.1,30.9H145.2z"/>
	<g>
		<path class="st2" d="M122.9,52.7L99.8,80.3l13.7,0.6c0,0-6.6,41.1-28,58c-21.4,16.8-40.4,18.2-40.4,18.2
			c14.7-1.1,29.9-2.7,43.5-8.5s23.4-15.9,29.8-28.4c6.2-12,10.2-25.8,10.2-39.2H141L122.9,52.7z"/>
	</g>
</g>
</svg>
