<?xml version="1.0" encoding="utf-8"?>
<!-- Generator: Adobe Illustrator 20.1.0, SVG Export Plug-In . SVG Version: 6.00 Build 0)  -->
<svg version="1.1" id="Layer_1" xmlns="http://www.w3.org/2000/svg" xmlns:xlink="http://www.w3.org/1999/xlink" x="0px" y="0px"
	 viewBox="0 0 780 332" style="enable-background:new 0 0 780 332;" xml:space="preserve">
<style type="text/css">
	.st0{fill:#0057A2;}
	.st1{font-family:'NotoSerif';}
	.st2{font-size:18.515px;}
	.st3{fill:none;stroke:#000000;stroke-miterlimit:10;}
	.st4{fill:#FFCB31;}
	.st5{fill:none;stroke:#000000;stroke-width:2.0677;stroke-miterlimit:10;}
	.st6{fill:#C0DB82;}
	.st7{fill:none;stroke:#000000;stroke-width:1.5719;stroke-miterlimit:10;}
	.st8{fill:none;stroke:#000000;stroke-width:2;stroke-miterlimit:10;}
	.st9{fill:none;stroke:#000000;stroke-width:1.8891;stroke-miterlimit:10;}
	.st10{fill:none;stroke:#000000;stroke-width:1.8319;stroke-miterlimit:10;}
	.st11{fill:none;stroke:#000000;stroke-width:1.7647;stroke-miterlimit:10;}
</style>
<text transform="matrix(1 0 0 1 332.1902 260.1313)"><tspan x="0" y="0" class="st0 st1 st2">Patrimonio</tspan><tspan x="-8.7" y="23.4" class="st0 st1 st2">de afectación</tspan></text>
<text transform="matrix(1 0 0 1 13.7944 295.3252)"><tspan x="0" y="0" class="st0 st1 st2">Transferencia</tspan><tspan x="0" y="23.4" class="st0 st1 st2">de bienes</tspan></text>
<g>
	<polyline class="st3" points="13.5,87 13.5,262.5 270,262.5 	"/>
	<polyline class="st3" points="753.5,104 753.5,260.5 490,260.5 	"/>
	<polyline class="st3" points="270,269.7 277.8,261.9 270,254.2 	"/>
	<polyline class="st3" points="761,104.2 753.2,96.5 745.4,104.2 	"/>
	<g>
		<g>
			<g>
				<path class="st4" d="M679.3,147.4c-13.7,0-24.9,5.1-24.9,11.3v2.4c0,6.2,11.1,11.3,24.9,11.3c13.7,0,24.9-5.1,24.9-11.3v-2.4
					C704.1,152.4,693,147.4,679.3,147.4L679.3,147.4z M679.3,147.4"/>
			</g>
			<path class="st4" d="M679.3,184.6c-14.7,0-27-3-29.9-9.3c-0.4,0.9-0.6-2.5-0.6-1.5v3c0,7.6,13.7,13.8,30.5,13.8
				c16.9,0,30.5-6.2,30.5-13.8v-3c0-1-0.2,2.4-0.6,1.5C706.3,181.6,694,184.6,679.3,184.6L679.3,184.6z M679.3,186.3"/>
			<path class="st4" d="M678.9,200.2c-14.7,0-27-4.7-29.9-11c-0.4,0.9-0.3-0.8-0.3,0.1v3c0,7.6,13.7,13.8,30.5,13.8
				c16.9,0,30.2-6.5,30.2-14.1l0,0c0-1-0.2-1.9-0.6-2.8C705.9,195.4,693.7,200.2,678.9,200.2L678.9,200.2z M678.9,200.2"/>
			<path class="st4" d="M679.3,217.1c-14.7,0-27-4.7-29.9-11c-0.4,0.9-0.6-1.5-0.6-0.6v3c0,7.6,13.7,13.8,30.5,13.8
				c16.9,0,30.5-6.2,30.5-13.8v0.4c0-1-0.2-1.9-0.6-2.8C706.3,212.4,694,217.1,679.3,217.1L679.3,217.1z M679.3,217.1"/>
			<path class="st4" d="M679.3,232.2c-14.7,0-27-4.7-29.9-11c-0.4,0.9-0.6-1.1-0.6-0.2v3c0,7.6,13.7,13.8,30.5,13.8
				c16.9,0,30.5-6.2,30.5-13.8v0c0-1-0.2-1.9-0.6-2.8C706.3,227.5,694,232.2,679.3,232.2L679.3,232.2z M679.3,232.2"/>
		</g>
		<g>
			<g>
				<path class="st5" d="M679.3,144.5c-16.9,0-30.5,6.2-30.5,13.8v3c0,7.6,13.7,13.8,30.5,13.8c16.9,0,30.5-6.2,30.5-13.8v-3
					C709.8,150.7,696.1,144.5,679.3,144.5L679.3,144.5z M679.3,144.5"/>
			</g>
			<path class="st5" d="M679.3,182c-14.7,0-27-4.7-29.9-11c-0.4,0.9-0.6,1.9-0.6,2.8v3c0,7.6,13.7,13.8,30.5,13.8
				c16.9,0,30.5-6.2,30.5-13.8v-3c0-1-0.2-1.9-0.6-2.8C706.3,177.3,694,182,679.3,182L679.3,182z M679.3,184.6"/>
			<path class="st5" d="M679.3,197.5c-14.7,0-27-4.7-29.9-11c-0.4,0.9-0.6,1.9-0.6,2.8v3c0,7.6,13.7,13.8,30.5,13.8
				c16.9,0,30.5-6.2,30.5-13.8v-3c0-1-0.2-1.9-0.6-2.8C706.3,192.7,694,197.5,679.3,197.5L679.3,197.5z M678.9,200.2"/>
			<path class="st5" d="M679.3,213.8c-14.7,0-27-4.7-29.9-11c-0.4,0.9-0.6,1.9-0.6,2.8v3c0,7.6,13.7,13.8,30.5,13.8
				c16.9,0,30.5-6.2,30.5-13.8v-3c0-1-0.2-1.9-0.6-2.8C706.3,209,694,213.8,679.3,213.8L679.3,213.8z M679.3,217.1"/>
			<path class="st5" d="M679.3,229.2c-14.7,0-27-4.7-29.9-11c-0.4,0.9-0.6,1.9-0.6,2.8v3c0,7.6,13.7,13.8,30.5,13.8
				c16.9,0,30.5-6.2,30.5-13.8v-3c0-1-0.2-1.9-0.6-2.8C706.3,224.5,694,229.2,679.3,229.2L679.3,229.2z M679.3,232.2"/>
		</g>
	</g>
	<g>
		<g>
			<g>
				<path class="st4" d="M76.7,178.2c-13.7,0-24.9,5.1-24.9,11.3v2.4c0,6.2,11.1,11.3,24.9,11.3c13.7,0,24.9-5.1,24.9-11.3v-2.4
					C101.6,183.2,90.4,178.2,76.7,178.2L76.7,178.2z M76.7,178.2"/>
			</g>
			<path class="st4" d="M76.7,215.4c-14.7,0-27-3-29.9-9.3c-0.4,0.9-0.6-2.5-0.6-1.5v3c0,7.6,13.7,13.8,30.5,13.8
				c16.9,0,30.5-6.2,30.5-13.8v-3c0-1-0.2,2.4-0.6,1.5C103.7,212.4,91.4,215.4,76.7,215.4L76.7,215.4z M76.7,217.1"/>
			<path class="st4" d="M76.4,231c-14.7,0-27-4.7-29.9-11c-0.4,0.9-0.3-0.8-0.3,0.1v3c0,7.6,13.7,13.8,30.5,13.8
				c16.9,0,30.2-6.5,30.2-14.1l0,0c0-1-0.2-1.9-0.6-2.8C103.4,226.3,91.1,231,76.4,231L76.4,231z M76.4,231"/>
		</g>
		<g>
			<g>
				<path class="st5" d="M76.7,175.3c-16.9,0-30.5,6.2-30.5,13.8v3c0,7.6,13.7,13.8,30.5,13.8c16.9,0,30.5-6.2,30.5-13.8v-3
					C107.2,181.5,93.6,175.3,76.7,175.3L76.7,175.3z M76.7,175.3"/>
			</g>
			<path class="st5" d="M76.7,212.8c-14.7,0-27-4.7-29.9-11c-0.4,0.9-0.6,1.9-0.6,2.8v3c0,7.6,13.7,13.8,30.5,13.8
				c16.9,0,30.5-6.2,30.5-13.8v-3c0-1-0.2-1.9-0.6-2.8C103.7,208.1,91.4,212.8,76.7,212.8L76.7,212.8z M76.7,215.4"/>
			<path class="st5" d="M76.7,228.3c-14.7,0-27-4.7-29.9-11c-0.4,0.9-0.6,1.9-0.6,2.8v3c0,7.6,13.7,13.8,30.5,13.8
				c16.9,0,30.5-6.2,30.5-13.8v-3c0-1-0.2-1.9-0.6-2.8C103.7,223.5,91.4,228.3,76.7,228.3L76.7,228.3z M76.4,231"/>
		</g>
	</g>
</g>
<g>
	<path class="st6" d="M386,139.1c15-44.2,55.9-29.6,55.9-29.6l0.3,0.2c0,0-14.2,36-56.2,29.7V139.1z"/>
	<path class="st6" d="M325.7,121.7c43.5-14.8,56.9,26.6,56.9,26.6l-0.1,0.2c0,0-37.3,9.7-56.9-26.6L325.7,121.7z"/>
	<circle class="st4" cx="384.4" cy="58.9" r="37.4"/>
	<circle class="st7" cx="384.4" cy="58.9" r="42"/>
	<line class="st8" x1="383" y1="101" x2="383" y2="158"/>
	<path class="st8" d="M383,139.9c22-54.7,70.6-36.7,70.6-36.7l-0.3,0.2c0,0-20.3,44.6-70.3,36.7V139.9z"/>
	<path class="st9" d="M311,115.3c54.6-18.5,71.3,33.3,71.3,33.3l-0.1,0.2c0,0-46.8,12.1-71.5-33.4L311,115.3z"/>
	<rect x="341.8" y="158.7" class="st10" width="85.8" height="17.6"/>
	<polygon class="st11" points="356.3,221.4 413.1,221.4 424.5,176.3 344.9,176.3 	"/>
	<g>
		<path class="st7" d="M373.4,70.1c1.1,5.3,5.7,9.3,11.4,9.3c6.4,0,11.6-5.2,11.6-11.6c0-4-2.5-7.2-5.7-9.3
			c-1.7-1.1-3.7-1.8-5.7-2.3c-1.9-0.4-3.8-0.6-5.4-1.7c-0.4-0.2-0.7-0.5-1-0.8c-1.7-1.7-2.7-4-2.7-6.5c0-5,4-9,9-9
			c3.6,0,6.8,2.2,8.2,5.3"/>
		<line class="st8" x1="385" y1="35" x2="385" y2="85"/>
	</g>
	<line class="st9" x1="384.8" y1="139.9" x2="417.7" y2="123.6"/>
	<line class="st9" x1="382.3" y1="148.8" x2="357.4" y2="136.9"/>
	<rect x="346.7" y="161.7" class="st0" width="76" height="11.5"/>
	<polygon class="st0" points="361.1,217.6 408.4,217.6 417.9,180 351.5,180 	"/>
</g>
</svg>
