<?xml version="1.0" encoding="utf-8"?>
<!-- Generator: Adobe Illustrator 20.1.0, SVG Export Plug-In . SVG Version: 6.00 Build 0)  -->
<svg version="1.1" id="Layer_1" xmlns="http://www.w3.org/2000/svg" xmlns:xlink="http://www.w3.org/1999/xlink" x="0px" y="0px"
	 viewBox="0 0 832 942" style="enable-background:new 0 0 832 942;" xml:space="preserve">
<style type="text/css">
	.st0{fill:none;stroke:#E6E6E6;stroke-width:1.7501;stroke-miterlimit:10;}
	.st1{fill:none;stroke:#3F4040;stroke-width:0.8341;stroke-miterlimit:10;}
	.st2{font-family:'NewsCycle';}
	.st3{font-size:22.8664px;}
	.st4{fill:#694B4B;}
	.st5{fill:#5A4146;}
	.st6{fill:#785550;}
	.st7{fill:#E6AF78;}
	.st8{fill:#B4E1FA;}
	.st9{fill:#D29B6E;}
	.st10{fill:#A0D2F0;}
	.st11{fill:#F0C087;}
	.st12{fill:#FFCB31;}
	.st13{fill:none;stroke:#000000;stroke-width:1.7947;stroke-miterlimit:10;}
	.st14{fill:#E4EAF6;}
	.st15{fill:#EFF2FA;}
	.st16{fill:#5B5D6E;}
	.st17{fill:#515262;}
	.st18{fill:#707487;}
	.st19{fill:#C0DB82;}
	.st20{fill:none;stroke:#000000;stroke-width:1.297;stroke-miterlimit:10;}
	.st21{fill:none;stroke:#000000;stroke-width:2;stroke-miterlimit:10;}
	.st22{fill:none;stroke:#000000;stroke-width:1.5587;stroke-miterlimit:10;}
	.st23{fill:none;stroke:#000000;stroke-width:1.5115;stroke-miterlimit:10;}
	.st24{fill:none;stroke:#000000;stroke-width:1.4561;stroke-miterlimit:10;}
	.st25{fill:#0057A2;}
	.st26{fill:#E6E6E6;}
	.st27{fill:none;stroke:#000000;stroke-width:0.8218;stroke-miterlimit:10;}
</style>
<g>
	<rect x="28" y="33.1" class="st0" width="768" height="871.9"/>
	<rect x="12" y="16" class="st0" width="800" height="906"/>
</g>
<g>
	<polyline class="st1" points="742.7,595 768,594.9 768,880.5 342.7,880.8 342.7,595.2 368.7,595.2 	"/>
	<g>
		<text transform="matrix(1 4.710000e-03 -4.710000e-03 1 82.6132 360.6866)" class="st2 st3">Inversionista B</text>
		<text transform="matrix(1 4.710000e-03 -4.710000e-03 1 59.7026 515.6678)" class="st2 st3">Otros Inversionistas</text>
		<g>
			<path class="st4" d="M151.5,224.2c-35.9-0.2-32.1,43.5-32.1,75.1c0,1.2,0.6,2.3,1.6,2.9c4,2.4,14.9,8.1,30.1,8.1
				c15.2,0.1,26.1-5.5,30.1-7.9c1-0.6,1.7-1.7,1.7-2.9C183.2,268,187.3,224.4,151.5,224.2z"/>
			<path class="st5" d="M149.1,224.3c-33.4,1.7-29.8,44.1-29.8,75.1c0,1.2,0.6,2.3,1.6,2.9c4,2.4,14.9,8.1,30.1,8.1l9.4-63.5"/>
			<path class="st4" d="M151.5,224.2c-20.4-0.1-21.9,24.6-21.9,24.6c11.8-1.9,19,3.1,30.9-1.8l-9.4,63.5c15.2,0.1,26.1-5.5,30.1-7.9
				c1-0.6,1.7-1.7,1.7-2.9C183.2,268,187.3,224.4,151.5,224.2z"/>
			<path class="st6" d="M182.8,299.6c0.3-27.2,3.4-63.2-18.5-72.9c-0.4,2-1.1,7.5,0.7,11.1c4.5,9.1,9,9.1,13.5,15.9
				c4.4,25-8.9,51.4-13.3,55l0,0c7.8-1.8,13.4-4.7,16-6.3C182.2,301.9,182.8,300.8,182.8,299.6z"/>
			<path class="st7" d="M185.4,306.5l-20.2-8.5c-1.7-0.7-2.8-2.4-2.8-4.2l0-5.5l-22.7-0.1l0,5.5c0,1.8-1.1,3.5-2.8,4.2l-20.3,8.3
				c-2.5,1-4.2,3.5-4.2,6.3l0,9.1c0,2.5,2,4.5,4.5,4.6l68,0.3c2.5,0,4.5-2,4.6-4.5l0-9.1C189.6,310.1,188,307.6,185.4,306.5z"/>
			<path class="st8" d="M185.4,306.5l-19.5-8.2l-14.8,6.3l-14.8-6.5l-19.6,8.1c-2.5,1-4.2,3.5-4.2,6.3l0,9.1c0,2.5,2,4.5,4.5,4.6
				l68,0.3c2.5,0,4.5-2,4.6-4.5l0-9.1C189.6,310.1,188,307.6,185.4,306.5z"/>
			<path class="st9" d="M162.5,288.3l-22.7-0.1l0,5.5c0,1.8-1.1,3.5-2.8,4.2l-3.2,1.3C158,305.5,162.5,288.3,162.5,288.3z"/>
			<g>
				<path class="st10" d="M123.5,315l-9.1-7.3c-1.2,1.2-2,2.9-2,4.7l0,9.1c0,2.5,2,4.5,4.5,4.6l9.1,0l0-5.8
					C126.1,318.3,125.1,316.3,123.5,315z"/>
				<path class="st10" d="M189.5,321.9l0-9.1c0-1.8-0.7-3.5-1.9-4.7l-9.2,7.2c-1.6,1.3-2.6,3.2-2.6,5.3l0,5.8l9.1,0
					C187.5,326.4,189.5,324.4,189.5,321.9z"/>
				<path class="st10" d="M151,321.7L151,321.7c-1.3,0-2.3-1-2.3-2.3l0.1-14.8l4.5,0l-0.1,14.8C153.3,320.7,152.2,321.7,151,321.7z"
					/>
				<path class="st10" d="M151.1,304.6l-12.9-9.8c-0.8-0.6-2-0.4-2.6,0.4l-2.6,3.8l7.9,11.2c0.6,0.8,1.8,1,2.6,0.4L151.1,304.6z"/>
				<path class="st10" d="M151.1,304.6l13-9.7c0.8-0.6,2-0.4,2.6,0.5l2.5,3.9l-8,11.1c-0.6,0.8-1.8,1-2.6,0.3L151.1,304.6z"/>
			</g>
			<path class="st11" d="M162.7,244.7c-11.4,11.3-33.6,2.1-33.7,20.3l1.3,13.4c0.3,3,2,5.7,4.6,7.1l12.9,7.2c2,1.2,4.5,1.2,6.6,0
				l12.9-7.1c2.6-1.4,4.4-4.1,4.7-7.1l1.7-15.9c0.1-1.1,0.2-2.3,0.1-3.4C173,253.5,164.9,249.2,162.7,244.7z"/>
			<path class="st7" d="M129,264.9l1.3,13.4c0.3,3,2,5.7,4.6,7.1l12.9,7.2c1.4,0.8,3.1,1,4.6,0.7l0,0c0,0-6.5-2-10.3-12.5
				c-1.2-3.2-2.7-20.2-1.3-22.3c2.8-4.1,18.4-4.4,23.1-12c-0.2-0.3-0.4-0.6-0.6-0.9c0,0,0,0,0-0.1c-0.2-0.3-0.4-0.6-0.5-0.9
				C151.3,256,129.1,246.8,129,264.9z"/>
			<path class="st10" d="M169.1,321.8l-9.1,0c-1.3,0-2.3,1-2.3,2.3l0,2.3l13.6,0.1l0-2.3C171.4,322.8,170.4,321.8,169.1,321.8z"/>
		</g>
		<g>
			<g>
				<g>
					<path class="st12" d="M273,112.4c-11.9-0.1-21.6,4.3-21.6,9.7l0,2.1c0,5.4,9.6,9.8,21.6,9.9c11.9,0.1,21.6-4.3,21.6-9.7l0-2.1
						C294.6,116.9,285,112.5,273,112.4L273,112.4z M273,112.4"/>
				</g>
				<path class="st12" d="M272.9,144.8c-12.8-0.1-23.4-2.7-25.9-8.2c-0.4,0.8-0.5-2.1-0.6-1.3l0,2.6c0,6.6,11.8,12.1,26.4,12.1
					c14.6,0.1,26.5-5.3,26.6-11.9l0-2.6c0-0.8-0.2,2.1-0.6,1.3C296.3,142.3,285.7,144.8,272.9,144.8L272.9,144.8z M272.9,146.3"/>
				<path class="st12" d="M272.5,158.3c-12.8-0.1-23.4-4.2-25.9-9.7c-0.4,0.8-0.3-0.7-0.3,0.1l0,2.6c0,6.6,11.8,12.1,26.4,12.1
					c14.6,0.1,26.2-5.5,26.3-12.1l0,0c0-0.8-0.2-1.7-0.5-2.5C296,154.3,285.3,158.3,272.5,158.3L272.5,158.3z M272.5,158.3"/>
			</g>
			<g>
				<g>
					<path class="st13" d="M273,110c-14.6-0.1-26.5,5.3-26.6,11.9l0,2.6c0,6.6,11.8,12.1,26.4,12.1c14.6,0.1,26.5-5.3,26.6-11.9
						l0-2.6C299.5,115.5,287.7,110,273,110L273,110z M273,110"/>
				</g>
				<path class="st13" d="M272.9,142.5c-12.8-0.1-23.4-4.2-25.9-9.7c-0.4,0.8-0.6,1.6-0.6,2.5l0,2.6c0,6.6,11.8,12.1,26.4,12.1
					c14.6,0.1,26.5-5.3,26.6-11.9l0-2.6c0-0.8-0.2-1.7-0.5-2.5C296.3,138.5,285.7,142.6,272.9,142.5L272.9,142.5z M272.9,144.8"/>
				<path class="st13" d="M272.8,155.9c-12.8-0.1-23.4-4.2-25.9-9.7c-0.4,0.8-0.6,1.6-0.6,2.5l0,2.6c0,6.6,11.8,12.1,26.4,12.1
					c14.6,0.1,26.5-5.3,26.6-11.9l0-2.6c0-0.8-0.2-1.7-0.5-2.5C296.3,151.9,285.6,156,272.8,155.9L272.8,155.9z M272.5,158.3"/>
			</g>
		</g>
		<g>
			<g>
				<g>
					<path class="st12" d="M272,266c-11.9-0.1-21.6,4.3-21.6,9.7l0,2.1c0,5.4,9.6,9.8,21.6,9.9c11.9,0.1,21.6-4.3,21.6-9.7l0-2.1
						C293.6,270.5,284,266.1,272,266L272,266z M272,266"/>
				</g>
				<path class="st12" d="M271.9,298.4c-12.8-0.1-23.4-2.7-25.9-8.2c-0.4,0.8-0.5-2.1-0.6-1.3l0,2.6c0,6.6,11.8,12.1,26.4,12.1
					c14.6,0.1,26.5-5.3,26.6-11.9l0-2.6c0-0.8-0.2,2.1-0.6,1.3C295.3,295.9,284.6,298.5,271.9,298.4L271.9,298.4z M271.9,299.9"/>
				<path class="st12" d="M271.5,311.9c-12.8-0.1-23.4-4.2-25.9-9.7c-0.4,0.8-0.3-0.7-0.3,0.1l0,2.6c0,6.6,11.8,12.1,26.4,12.1
					c14.6,0.1,26.2-5.5,26.3-12.1l0,0c0-0.8-0.2-1.7-0.5-2.5C295,307.9,284.3,311.9,271.5,311.9L271.5,311.9z M271.5,311.9"/>
			</g>
			<g>
				<g>
					<path class="st13" d="M272,263.6c-14.6-0.1-26.5,5.3-26.6,11.9l0,2.6c0,6.6,11.8,12.1,26.4,12.1c14.6,0.1,26.5-5.3,26.6-11.9
						l0-2.6C298.5,269.1,286.7,263.6,272,263.6L272,263.6z M272,263.6"/>
				</g>
				<path class="st13" d="M271.9,296.1c-12.8-0.1-23.4-4.2-25.9-9.7c-0.4,0.8-0.6,1.6-0.6,2.5l0,2.6c0,6.6,11.8,12.1,26.4,12.1
					c14.6,0.1,26.5-5.3,26.6-11.9l0-2.6c0-0.8-0.2-1.7-0.5-2.5C295.3,292.1,284.7,296.2,271.9,296.1L271.9,296.1z M271.9,298.4"/>
				<path class="st13" d="M271.8,309.5c-12.8-0.1-23.4-4.2-25.9-9.7c-0.4,0.8-0.6,1.6-0.6,2.5l0,2.6c0,6.6,11.8,12.1,26.4,12.1
					c14.6,0.1,26.5-5.3,26.6-11.9l0-2.6c0-0.8-0.2-1.7-0.5-2.5C295.3,305.5,284.6,309.6,271.8,309.5L271.8,309.5z M271.5,311.9"/>
			</g>
		</g>
		<g>
			<g>
				<g>
					<path class="st12" d="M270.1,417.2c-11.9-0.1-21.6,4.3-21.6,9.7l0,2.1c0,5.4,9.6,9.8,21.6,9.9c11.9,0.1,21.6-4.3,21.6-9.7
						l0-2.1C291.6,421.7,282,417.2,270.1,417.2L270.1,417.2z M270.1,417.2"/>
				</g>
				<path class="st12" d="M269.9,449.5c-12.8-0.1-23.4-2.7-25.9-8.2c-0.4,0.8-0.5-2.1-0.6-1.3l0,2.6c0,6.6,11.8,12.1,26.4,12.1
					c14.6,0.1,26.5-5.3,26.6-11.9l0-2.6c0-0.8-0.2,2.1-0.6,1.3C293.4,447,282.7,449.6,269.9,449.5L269.9,449.5z M269.9,451"/>
				<path class="st12" d="M269.6,463c-12.8-0.1-23.4-4.2-25.9-9.7c-0.4,0.8-0.3-0.7-0.3,0.1l0,2.6c0,6.6,11.8,12.1,26.4,12.1
					c14.6,0.1,26.2-5.5,26.3-12.1l0,0c0-0.8-0.2-1.7-0.5-2.5C293,459,282.3,463.1,269.6,463L269.6,463z M269.6,463"/>
			</g>
			<g>
				<g>
					<path class="st13" d="M270.1,414.7c-14.6-0.1-26.5,5.3-26.6,11.9l0,2.6c0,6.6,11.8,12.1,26.4,12.1c14.6,0.1,26.5-5.3,26.6-11.9
						l0-2.6C296.5,420.2,284.7,414.8,270.1,414.7L270.1,414.7z M270.1,414.7"/>
				</g>
				<path class="st13" d="M269.9,447.2c-12.8-0.1-23.4-4.2-25.9-9.7c-0.4,0.8-0.6,1.6-0.6,2.5l0,2.6c0,6.6,11.8,12.1,26.4,12.1
					c14.6,0.1,26.5-5.3,26.6-11.9l0-2.6c0-0.8-0.2-1.7-0.5-2.5C293.4,443.3,282.7,447.3,269.9,447.2L269.9,447.2z M269.9,449.5"/>
				<path class="st13" d="M269.9,460.7c-12.8-0.1-23.4-4.2-25.9-9.7c-0.4,0.8-0.6,1.6-0.6,2.5l0,2.6c0,6.6,11.8,12.1,26.4,12.1
					c14.6,0.1,26.5-5.3,26.6-11.9l0-2.6c0-0.8-0.2-1.7-0.5-2.5C293.3,456.7,282.6,460.7,269.9,460.7L269.9,460.7z M269.6,463"/>
			</g>
		</g>
		<g>
			<g>
				<g>
					<path class="st12" d="M497.8,236.6c-11.9-0.1-21.6,4.3-21.6,9.7l0,2.1c0,5.4,9.6,9.8,21.6,9.9c11.9,0.1,21.6-4.3,21.6-9.7
						l0-2.1C519.4,241,509.7,236.6,497.8,236.6L497.8,236.6z M497.8,236.6"/>
				</g>
				<path class="st12" d="M497.6,268.9c-12.8-0.1-23.4-2.7-25.9-8.2c-0.4,0.8-0.5-2.1-0.6-1.3l0,2.6c0,6.6,11.8,12.1,26.4,12.1
					c14.6,0.1,26.5-5.3,26.6-11.9l0-2.6c0-0.8-0.2,2.1-0.6,1.3C521.1,266.4,510.4,269,497.6,268.9L497.6,268.9z M497.6,270.4"/>
				<path class="st12" d="M497.3,282.4c-12.8-0.1-23.4-4.2-25.9-9.7c-0.4,0.8-0.3-0.7-0.3,0.1l0,2.6c0,6.6,11.8,12.1,26.4,12.1
					c14.6,0.1,26.2-5.5,26.3-12.1l0,0c0-0.8-0.2-1.7-0.5-2.5C520.7,278.4,510.1,282.5,497.3,282.4L497.3,282.4z M497.3,282.4"/>
				<path class="st12" d="M497.5,297.1c-12.8-0.1-23.4-4.2-25.9-9.7c-0.4,0.8-0.6-1.3-0.6-0.5l0,2.6c0,6.6,11.8,12.1,26.4,12.1
					c14.6,0.1,26.5-5.3,26.6-11.9l0,0.3c0-0.8-0.2-1.7-0.5-2.5C520.9,293.1,510.3,297.2,497.5,297.1L497.5,297.1z M497.5,297.1"/>
				<path class="st12" d="M497.4,310.2c-12.8-0.1-23.4-4.2-25.9-9.7c-0.4,0.8-0.6-1-0.6-0.2l0,2.6c0,6.6,11.8,12.1,26.4,12.1
					c14.6,0.1,26.5-5.3,26.6-11.9l0,0c0-0.8-0.2-1.7-0.5-2.5C520.9,306.2,510.2,310.3,497.4,310.2L497.4,310.2z M497.4,310.2"/>
			</g>
			<g>
				<g>
					<path class="st13" d="M497.8,234.1c-14.6-0.1-26.5,5.3-26.6,11.9l0,2.6c0,6.6,11.8,12.1,26.4,12.1c14.6,0.1,26.5-5.3,26.6-11.9
						l0-2.6C524.3,239.6,512.4,234.2,497.8,234.1L497.8,234.1z M497.8,234.1"/>
				</g>
				<path class="st13" d="M497.6,266.6c-12.8-0.1-23.4-4.2-25.9-9.7c-0.4,0.8-0.6,1.6-0.6,2.5l0,2.6c0,6.6,11.8,12.1,26.4,12.1
					c14.6,0.1,26.5-5.3,26.6-11.9l0-2.6c0-0.8-0.2-1.7-0.5-2.5C521.1,262.6,510.4,266.7,497.6,266.6L497.6,266.6z M497.6,268.9"/>
				<path class="st13" d="M497.6,280c-12.8-0.1-23.4-4.2-25.9-9.7c-0.4,0.8-0.6,1.6-0.6,2.5l0,2.6c0,6.6,11.8,12.1,26.4,12.1
					c14.6,0.1,26.5-5.3,26.6-11.9l0-2.6c0-0.8-0.2-1.7-0.5-2.5C521,276.1,510.3,280.1,497.6,280L497.6,280z M497.3,282.4"/>
				<path class="st13" d="M497.5,294.2c-12.8-0.1-23.4-4.2-25.9-9.7c-0.4,0.8-0.6,1.6-0.6,2.5l0,2.6c0,6.6,11.8,12.1,26.4,12.1
					c14.6,0.1,26.5-5.3,26.6-11.9l0-2.6c0-0.8-0.2-1.7-0.5-2.5C521,290.2,510.3,294.2,497.5,294.2L497.5,294.2z M497.5,297.1"/>
				<path class="st13" d="M497.4,307.6c-12.8-0.1-23.4-4.2-25.9-9.7c-0.4,0.8-0.6,1.6-0.6,2.5l0,2.6c0,6.6,11.8,12.1,26.4,12.1
					c14.6,0.1,26.5-5.3,26.6-11.9l0-2.6c0-0.8-0.2-1.7-0.5-2.5C520.9,303.6,510.2,307.7,497.4,307.6L497.4,307.6z M497.4,310.2"/>
			</g>
		</g>
		<g>
			<g>
				<path class="st14" d="M167.3,465l-2,0c-0.7,0-1.3,0.6-1.3,1.3l0,0.2l4.5,0l0-0.2C168.6,465.5,168,465,167.3,465z"/>
				<path class="st4" d="M186.4,417.9c-20.2-0.1-18.1,24.5-18.1,42.4c0,0.7,0.4,1.3,0.9,1.6c2.2,1.4,8.4,4.6,17,4.6
					c8.6,0,14.7-3.1,17-4.4c0.6-0.3,0.9-1,0.9-1.6C204.3,442.6,206.7,418,186.4,417.9z"/>
				<path class="st5" d="M185.1,417.9c-18.8,1-16.8,24.9-16.8,42.3c0,0.7,0.4,1.3,0.9,1.6c2.2,1.4,8.4,4.6,17,4.6l5.3-35.8"/>
				<path class="st4" d="M186.4,417.9c-11.5-0.1-12.4,13.9-12.4,13.9c6.6-1.1,10.7,1.7,17.4-1l-5.3,35.8c8.6,0,14.7-3.1,17-4.4
					c0.6-0.3,0.9-1,0.9-1.6C204.3,442.6,206.7,418,186.4,417.9z"/>
				<path class="st6" d="M204.1,460.4c0.2-15.3,1.9-35.6-10.4-41.1c-0.2,1.1-0.6,4.2,0.4,6.3c2.5,5.1,5.1,5.1,7.6,9
					c2.5,14.1-5,29-7.5,31l0,0c4.4-1,7.5-2.7,9-3.5C203.8,461.7,204.1,461.1,204.1,460.4z"/>
				<path class="st7" d="M205.6,464.3l-11.4-4.8c-1-0.4-1.6-1.3-1.6-2.4l0-3.1l-12.8-0.1l0,3.1c0,1-0.6,2-1.6,2.4l-11.4,4.7
					c-1.4,0.6-2.4,2-2.4,3.5l0,5.1c0,1.4,1.1,2.6,2.5,2.6l38.4,0.2c1.4,0,2.6-1.1,2.6-2.5l0-5.1C207.9,466.3,207,464.9,205.6,464.3z
					"/>
				<path class="st8" d="M205.6,464.3l-11-4.6l-8.4,3.6l-8.3-3.6l-11.1,4.5c-1.4,0.6-2.4,2-2.4,3.5l0,5.1c0,1.4,1.1,2.6,2.5,2.6
					l38.4,0.2c1.4,0,2.6-1.1,2.6-2.5l0-5.1C207.9,466.3,207,464.9,205.6,464.3z"/>
				<path class="st9" d="M192.6,454.1l-12.8-0.1l0,3.1c0,1-0.6,2-1.6,2.4l-1.8,0.7C190.1,463.7,192.6,454.1,192.6,454.1z"/>
				<g>
					<path class="st10" d="M170.7,469.1l-5.1-4.1c-0.7,0.7-1.1,1.6-1.1,2.7l0,5.1c0,1.4,1.1,2.6,2.5,2.6l5.1,0l0-3.3
						C172.1,470.9,171.6,469.8,170.7,469.1z"/>
					<path class="st10" d="M207.9,473l0-5.1c0-1-0.4-2-1.1-2.7l-5.2,4c-0.9,0.7-1.4,1.8-1.5,3l0,3.3l5.1,0
						C206.7,475.5,207.9,474.4,207.9,473z"/>
					<path class="st10" d="M186.2,472.9L186.2,472.9c-0.7,0-1.3-0.6-1.3-1.3l0-8.4l2.6,0l0,8.4C187.4,472.3,186.9,472.9,186.2,472.9
						z"/>
					<path class="st10" d="M186.2,463.2l-7.3-5.5c-0.5-0.4-1.1-0.2-1.5,0.2l-1.5,2.2l4.5,6.3c0.3,0.5,1,0.6,1.5,0.2L186.2,463.2z"/>
					<path class="st10" d="M186.2,463.2l7.3-5.5c0.5-0.4,1.1-0.2,1.5,0.3l1.4,2.2l-4.5,6.3c-0.3,0.5-1,0.6-1.5,0.2L186.2,463.2z"/>
				</g>
				<path class="st11" d="M192.8,429.4c-6.4,6.4-19,1.2-19,11.4l0.8,7.5c0.1,1.7,1.1,3.2,2.6,4l7.3,4.1c1.2,0.6,2.6,0.7,3.7,0l7.3-4
					c1.5-0.8,2.5-2.3,2.6-4l1-8.9c0.1-0.6,0.1-1.3,0.1-1.9C198.6,434.4,194,432,192.8,429.4z"/>
				<path class="st7" d="M173.8,440.9l0.8,7.5c0.1,1.7,1.1,3.2,2.6,4l7.3,4.1c0.8,0.5,1.7,0.6,2.6,0.4l0,0c0,0-3.7-1.1-5.8-7.1
					c-0.7-1.8-1.5-11.4-0.7-12.6c1.6-2.3,10.4-2.5,13-6.8c-0.1-0.2-0.2-0.3-0.4-0.5c0,0,0,0,0,0c-0.1-0.2-0.2-0.3-0.3-0.5
					C186.3,435.8,173.8,430.6,173.8,440.9z"/>
				<path class="st10" d="M196.4,472.9l-5.1,0c-0.7,0-1.3,0.6-1.3,1.3l0,1.3l7.7,0l0-1.3C197.7,473.5,197.1,472.9,196.4,472.9z"/>
			</g>
			<g>
				<polygon class="st7" points="118.5,458.5 118.5,451.6 100.9,451.5 100.9,458.4 109.6,466.3 				"/>
				<path class="st15" d="M132.1,461.8l-12.1-2.9c-0.2,0-0.4-0.1-0.5-0.2l-9.8,5.7l-9.4-6c-0.2,0.2-0.5,0.4-0.9,0.5l-12.1,2.8
					c-1.8,0.4-3,2-3,3.8l0,7.7c0,1.1,0.9,2,1.9,2l47,0.2c1.1,0,2-0.9,2-1.9l0-7.7C135.1,463.8,133.9,462.2,132.1,461.8z"/>
				<path class="st9" d="M100.9,451.5l0,7.2c11.1,4.1,17.7-5.9,17.7-5.9l0-1.2L100.9,451.5L100.9,451.5z"/>
				<path class="st11" d="M97.1,429l0.8,18.8c0.1,1.8,0.9,3.4,2.3,4.4l4,3.1c1,0.8,2.2,1.2,3.5,1.2l3.9,0c1.3,0,2.5-0.4,3.5-1.2
					l4.1-3c1.4-1,2.3-2.7,2.4-4.4l0.9-18.8L97.1,429L97.1,429z"/>
				<path class="st7" d="M106.9,433c3.9,0,9.8-0.9,11.2-3.9l-21-0.1l0.8,18.8c0.1,1.8,0.9,3.4,2.3,4.4l4,3.1c1,0.8,2.2,1.2,3.5,1.2
					l2,0c-2,0-5.9-3.9-5.8-8.8c0-2.4,0-8.8,0.1-11.7C103.9,434.9,104.9,433,106.9,433z"/>
				<path class="st14" d="M127.9,468.8l6.4-5.7c0.5,0.7,0.8,1.5,0.8,2.4l0,7.7c0,1.1-0.9,2-2,1.9l-6.9,0l0-2.7
					C126.3,471.1,126.9,469.7,127.9,468.8z"/>
				<polygon class="st16" points="112,475.1 107.1,475.1 107.8,466.3 111.5,466.3 				"/>
				<path class="st17" d="M112.1,464.3l-4.9,0l0,0.6c0,1.3,1.1,2.4,2.4,2.4l0.2,0c1.3,0,2.4-1.1,2.4-2.4L112.1,464.3L112.1,464.3z"
					/>
				<g>
					<path class="st14" d="M100.7,456.2l8.9,8.1c0,0-2.5,1.3-5.6,3.8c-0.6,0.5-1.6,0.3-1.9-0.4l-4.2-9.3l1.3-2
						C99.6,455.9,100.3,455.8,100.7,456.2z"/>
					<path class="st14" d="M118.6,456.3l-9,8c0,0,2.5,1.3,5.6,3.8c0.6,0.5,1.6,0.3,1.9-0.4l4.2-9.2l-1.3-2
						C119.8,456,119.1,455.9,118.6,456.3z"/>
				</g>
				<path class="st6" d="M115.8,422.6l0.9,6.5c4.2,0.9,4.8,7.4,4.8,9.3c0,0.3,0.1,0.7,0.3,1l1.6,2.5c0,0-0.5-4.1,2-6.8
					C125.4,435,126.3,418.7,115.8,422.6z"/>
				<path class="st11" d="M124.4,441.4l-1.1,4.4c-0.1,0.5-0.6,0.9-1.1,0.9l0,0c-0.6,0-1.1-0.4-1.2-1l-0.5-4.5
					c-0.1-1.2,0.8-2.3,2-2.3l0,0C123.7,438.9,124.7,440.2,124.4,441.4z"/>
				<path class="st4" d="M98.1,420.8l1.4,1c-6.6,4.8-5.4,13.1-5.4,13.1c1.9,2,1.9,6.9,1.9,6.9l2-1.9c0,0-0.7-5.7,3-7.8
					c3.4-2,6.4-0.9,9.5-0.9c8.2,0,10.5-3,10.1-6.8c-0.2-1.9-3.2-6-10.7-5.9C106.8,418.3,101,419.2,98.1,420.8z"/>
				<path class="st5" d="M97.4,430.1c0,0-1-4.1,2.1-8.3c-6.6,4.8-5.4,13.1-5.4,13.1c1.9,2,1.9,6.9,1.9,6.9l2-1.9c0,0-0.7-5.7,3-7.8
					c3.4-2,6.4-0.9,9.5-0.9c1.3,0,2.5-0.1,3.5-0.2C107.7,431,104,426.2,97.4,430.1z"/>
				<path class="st7" d="M95.1,441.3l1.1,4.4c0.1,0.5,0.6,0.9,1.1,0.9l0,0c0.6,0,1.1-0.4,1.2-1l0.6-4.5c0.2-1.2-0.8-2.3-2-2.3l0,0
					C95.8,438.8,94.8,440,95.1,441.3z"/>
				<path class="st14" d="M121.3,473.2l-4.9,0c-1.1,0-2,0.9-2,1.9l0,0l8.8,0l0,0C123.3,474.1,122.4,473.2,121.3,473.2z"/>
			</g>
			<g>
				<path class="st4" d="M146.3,407.8c-25.8-0.1-23.1,31.3-23.1,54.1c0,0.9,0.4,1.6,1.2,2.1c2.9,1.7,10.7,5.8,21.6,5.9
					c10.9,0.1,18.8-3.9,21.7-5.7c0.7-0.4,1.2-1.2,1.2-2.1C169.1,439.3,172.1,407.9,146.3,407.8z"/>
				<path class="st5" d="M144.6,407.8c-24,1.2-21.5,31.8-21.5,54c0,0.9,0.4,1.6,1.2,2.1c2.9,1.7,10.7,5.8,21.6,5.9l6.7-45.7"/>
				<path class="st4" d="M146.3,407.8c-14.7-0.1-15.8,17.7-15.8,17.7c8.5-1.4,13.7,2.2,22.3-1.3l-6.7,45.7
					c10.9,0.1,18.8-3.9,21.7-5.7c0.7-0.4,1.2-1.2,1.2-2.1C169.1,439.3,172.1,407.9,146.3,407.8z"/>
				<path class="st6" d="M168.9,462.1c0.2-19.6,2.4-45.5-13.3-52.5c-0.3,1.4-0.8,5.4,0.5,8c3.2,6.5,6.5,6.6,9.7,11.5
					c3.2,18-6.4,37-9.6,39.6l0,0c5.6-1.3,9.6-3.4,11.5-4.5C168.4,463.7,168.9,462.9,168.9,462.1z"/>
				<path class="st7" d="M170.7,467.1l-14.5-6.1c-1.2-0.5-2-1.7-2-3l0-3.9l-16.3-0.1l0,3.9c0,1.3-0.8,2.5-2,3l-14.6,6
					c-1.8,0.8-3,2.5-3,4.5l0,6.5c0,1.8,1.4,3.3,3.3,3.3l49,0.2c1.8,0,3.3-1.4,3.3-3.3l0-6.5C173.7,469.6,172.5,467.8,170.7,467.1z"
					/>
				<path class="st15" d="M170.7,467.1l-14.1-5.9l-10.7,4.5l-10.6-4.6l-14.1,5.8c-1.8,0.8-3,2.5-3,4.5l0,6.5c0,1.8,1.4,3.3,3.3,3.3
					l49,0.2c1.8,0,3.3-1.4,3.3-3.3l0-6.5C173.7,469.6,172.5,467.8,170.7,467.1z"/>
				<path class="st9" d="M154.2,453.9l-16.3-0.1l0,3.9c0,1.3-0.8,2.5-2,3l-2.3,0.9C150.9,466.3,154.2,453.9,154.2,453.9z"/>
				<g>
					<path class="st14" d="M126.2,473.2l-6.5-5.2c-0.9,0.9-1.4,2.1-1.4,3.4l0,6.5c0,1.8,1.4,3.3,3.3,3.3l6.5,0l0-4.2
						C128,475.5,127.3,474.1,126.2,473.2z"/>
					<path class="st14" d="M173.7,478.1l0-6.5c0-1.3-0.5-2.5-1.4-3.4l-6.6,5.2c-1.2,0.9-1.8,2.3-1.9,3.8l0,4.2l6.5,0
						C172.2,481.4,173.7,479.9,173.7,478.1z"/>
					<path class="st14" d="M146.2,478l-0.5,0c-0.8,0-1.4-0.6-1.4-1.4l0.1-10.9l3.3,0l-0.1,10.9C147.6,477.4,146.9,478,146.2,478z"/>
					<path class="st14" d="M146,465.7l-9.3-7.1c-0.6-0.5-1.5-0.3-1.9,0.3l-1.9,2.8l5.7,8c0.4,0.6,1.3,0.7,1.9,0.3L146,465.7z"/>
					<path class="st14" d="M146,465.7l9.4-7c0.6-0.4,1.5-0.3,1.9,0.3l1.8,2.8l-5.8,8c-0.4,0.6-1.3,0.7-1.9,0.3L146,465.7z"/>
				</g>
				<path class="st11" d="M154.4,422.5c-8.2,8.1-24.2,1.5-24.3,14.6l1,9.6c0.2,2.2,1.4,4.1,3.3,5.1l9.3,5.2c1.5,0.8,3.3,0.8,4.8,0
					l9.3-5.1c1.9-1,3.2-3,3.4-5.1l1.2-11.4c0.1-0.8,0.1-1.6,0.1-2.4C161.8,428.8,156,425.8,154.4,422.5z"/>
				<path class="st7" d="M130.1,437.1l1,9.6c0.2,2.2,1.4,4.1,3.3,5.1l9.3,5.2c1,0.6,2.2,0.7,3.3,0.5l0,0c0,0-4.7-1.4-7.4-9
					c-0.8-2.3-2-14.6-0.9-16.1c2-2.9,13.3-3.2,16.6-8.7c-0.2-0.2-0.3-0.4-0.5-0.6c0,0,0,0,0,0c-0.1-0.2-0.3-0.4-0.4-0.7
					C146.2,430.6,130.2,424,130.1,437.1z"/>
			</g>
		</g>
		<text transform="matrix(1 4.710000e-03 -4.710000e-03 1 82.6243 193.479)" class="st2 st3">Inversionista A</text>
		<text transform="matrix(1 4.710000e-03 -4.710000e-03 1 405.2979 346.7301)"><tspan x="0" y="0" class="st2 st3">El fondo de inversión</tspan><tspan x="-17.2" y="24.5" class="st2 st3">es un patrimonio común.</tspan></text>
		<g>
			<polygon class="st7" points="166.4,128.2 166.4,115.5 133.8,115.3 133.8,128 150,142.6 			"/>
			<path class="st18" d="M191.5,134.2l-22.4-5.4c-0.3-0.1-0.6-0.2-0.9-0.4L150,138.9l-17.4-11.2c-0.5,0.4-1,0.7-1.7,0.9l-22.4,5.2
				c-3.3,0.8-5.6,3.7-5.6,7l-0.1,14.2c0,2,1.6,3.6,3.6,3.6l86.9,0.4c2,0,3.6-1.6,3.6-3.6l0.1-14.2
				C197.1,137.9,194.8,135,191.5,134.2z"/>
			<path class="st9" d="M133.8,115.3l-0.1,13.4c20.5,7.5,32.6-11,32.6-11l0-2.3L133.8,115.3L133.8,115.3z"/>
			<path class="st11" d="M126.8,73.7l1.4,34.7c0.1,3.2,1.7,6.3,4.3,8.2l7.5,5.6c1.9,1.4,4.2,2.2,6.5,2.2l7.2,0
				c2.3,0,4.6-0.7,6.5-2.1l7.5-5.6c2.6-1.9,4.2-4.9,4.4-8.2l1.7-34.7L126.8,73.7z"/>
			<path class="st7" d="M144.9,81c7.2,0,18.1-1.7,20.7-7.1l-38.8-0.2l1.4,34.7c0.1,3.2,1.7,6.3,4.3,8.2l7.5,5.6
				c1.9,1.4,4.2,2.2,6.5,2.2l3.6,0c-3.6,0-10.8-7.3-10.8-16.3c0-4.4,0.1-16.3,0.1-21.7C139.4,84.6,141.2,81,144.9,81z"/>
			<g>
				<path class="st16" d="M183.7,147.3l11.8-10.5c1,1.2,1.5,2.8,1.5,4.5l-0.1,14.2c0,2-1.6,3.6-3.6,3.6l-12.7-0.1l0-5
					C180.7,151.4,181.8,149,183.7,147.3z"/>
				<path class="st16" d="M116.2,146.9l-11.7-10.6c-1,1.2-1.6,2.8-1.6,4.5l-0.1,14.2c0,2,1.6,3.6,3.6,3.6l12.7,0.1l0-5
					C119.2,151.1,118.1,148.7,116.2,146.9z"/>
				<polygon class="st16" points="154.4,158.9 145.4,158.8 146.6,142.5 153.4,142.6 				"/>
			</g>
			<path class="st17" d="M154.5,139l-9,0l0,2c0,1.9,1.5,3.4,3.4,3.4l2.2,0c1.9,0,3.4-1.5,3.4-3.4L154.5,139z"/>
			<g>
				<path class="st16" d="M133.5,124l16.5,15c0,0-4.6,2.3-10.4,7c-1.2,1-3,0.6-3.6-0.8l-7.7-17.1l2.5-3.7
					C131.4,123.4,132.7,123.2,133.5,124z"/>
				<path class="st16" d="M166.6,124.1L150,138.9c0,0,4.6,2.4,10.3,7.1c1.2,1,3,0.6,3.6-0.8l7.9-17.1l-2.4-3.7
					C168.7,123.6,167.5,123.4,166.6,124.1z"/>
			</g>
			<path class="st6" d="M161.4,61.9l1.6,12c7.7,1.6,8.8,13.7,8.9,17.2c0,0.6,0.2,1.2,0.6,1.8l2.9,4.6c0,0-1-7.6,3.7-12.7
				C179.1,84.8,180.8,54.7,161.4,61.9z"/>
			<path class="st11" d="M177.2,96.7l-2.1,8.2c-0.2,1-1.1,1.6-2.1,1.6l0,0c-1.1,0-2-0.8-2.1-1.9l-1-8.4c-0.3-2.2,1.5-4.2,3.7-4.2
				l0,0C176.1,92,177.8,94.3,177.2,96.7z"/>
			<path class="st4" d="M128.6,58.5l2.7,1.8c-12.1,8.9-10,24.2-10,24.2c3.6,3.6,3.6,12.7,3.6,12.7l3.6-3.6c0,0-1.3-10.5,5.5-14.5
				c6.4-3.7,11.9-1.8,17.5-1.7c15.2,0.1,19.4-5.6,18.7-12.6c-0.4-3.6-5.8-11.1-19.9-11C144.8,54,134.1,55.6,128.6,58.5z"/>
			<path class="st5" d="M127.5,75.7c0,0-1.9-7.6,3.8-15.4c-12.1,8.9-10,24.2-10,24.2c3.6,3.6,3.6,12.7,3.6,12.7l3.6-3.6
				c0,0-1.3-10.5,5.5-14.5c6.4-3.7,11.9-1.8,17.5-1.7c2.5,0,4.6-0.1,6.5-0.4C146.4,77.3,139.6,68.5,127.5,75.7z"/>
			<path class="st7" d="M123.2,96.4l2,8.2c0.2,1,1.1,1.7,2.1,1.7l0,0c1.1,0,2-0.8,2.2-1.9l1.1-8.4c0.3-2.2-1.4-4.2-3.7-4.2l0,0
				C124.4,91.8,122.6,94.1,123.2,96.4z"/>
			<path class="st16" d="M172.4,155.3l-10.6-0.1c-1.6,0-2.8,1.3-2.8,2.8l0,0.8l16.3,0.1l0-0.8C175.3,156.6,174,155.3,172.4,155.3z"
				/>
		</g>
		<polyline class="st1" points="324,442.2 499.7,443 500.1,402.5 		"/>
		<line class="st1" x1="318.1" y1="285.8" x2="450.3" y2="286.4"/>
		<polyline class="st1" points="497.8,209.1 498.2,140.6 318.8,139.9 		"/>
	</g>
	<polyline class="st1" points="554.4,280.1 674.4,280.1 674.4,468.1 	"/>
	<g>
		<path class="st19" d="M677,597.8c13-36.4,45.9-24.4,45.9-24.4l0.4,0.1c0,0-12.2,29.7-46.2,24.5V597.8z"/>
		<path class="st19" d="M626.8,583.4c35.9-12.2,46.9,21.9,46.9,21.9l-0.1,0.2c0,0-30.8,8-47-22L626.8,583.4z"/>
		<circle class="st12" cx="675.2" cy="531.6" r="30.9"/>
		<circle class="st20" cx="675.2" cy="531.6" r="34.7"/>
		<line class="st21" x1="674" y1="566" x2="674" y2="613"/>
		<path class="st22" d="M614.7,578.1c45-15.3,58.9,27.5,58.9,27.5l-0.1,0.2c0,0-38.6,10-59-27.6L614.7,578.1z"/>
		<path class="st22" d="M730.7,566.9c-15,45.1-57.5,30.3-57.5,30.3l-0.1-0.2c0,0,15.3-36.8,57.6-30.4L730.7,566.9z"/>
		<rect x="640.1" y="614" class="st23" width="70.8" height="14.5"/>
		<polygon class="st24" points="652,665.7 698.9,665.7 708.3,628.5 642.6,628.5 		"/>
		<g>
			<path class="st20" d="M666.1,540.9c0.9,4.4,4.7,7.7,9.4,7.7c5.3,0,9.6-4.3,9.6-9.6c0-3.3-2-6-4.7-7.6c-1.4-0.9-3-1.5-4.7-1.9
				c-1.5-0.3-3.1-0.5-4.5-1.4c-0.3-0.2-0.6-0.4-0.8-0.7c-1.4-1.4-2.3-3.3-2.3-5.3c0-4.1,3.3-7.4,7.4-7.4c3,0,5.6,1.8,6.8,4.3"/>
			<line class="st21" x1="676" y1="512" x2="676" y2="553"/>
		</g>
		<line class="st22" x1="673.5" y1="597.5" x2="700.6" y2="584"/>
		<line class="st22" x1="673.4" y1="605.8" x2="652.9" y2="596"/>
		<rect x="644.1" y="616.5" class="st25" width="62.7" height="9.5"/>
		<polygon class="st25" points="655.9,662.6 695,662.6 702.8,631.6 648.1,631.6 		"/>
	</g>
	<g>
		<g>
			<g>
				<path class="st12" d="M154.2,717.5c-11.9-0.1-21.6,4.3-21.6,9.7l0,2.1c0,5.4,9.6,9.8,21.6,9.9c11.9,0.1,21.6-4.3,21.6-9.7l0-2.1
					C175.8,722,166.1,717.6,154.2,717.5L154.2,717.5z M154.2,717.5"/>
			</g>
			<path class="st12" d="M154,749.9c-12.8-0.1-23.4-2.7-25.9-8.2c-0.4,0.8-0.5-2.1-0.6-1.3l0,2.6c0,6.6,11.8,12.1,26.4,12.1
				c14.6,0.1,26.5-5.3,26.6-11.9l0-2.6c0-0.8-0.2,2.1-0.6,1.3C177.5,747.4,166.8,749.9,154,749.9L154,749.9z M154,751.4"/>
			<path class="st12" d="M153.7,763.4c-12.8-0.1-23.4-4.2-25.9-9.7c-0.4,0.8-0.3-0.7-0.3,0.1l0,2.6c0,6.6,11.8,12.1,26.4,12.1
				c14.6,0.1,26.2-5.5,26.3-12.1l0,0c0-0.8-0.2-1.7-0.5-2.5C177.2,759.4,166.5,763.4,153.7,763.4L153.7,763.4z M153.7,763.4"/>
			<path class="st12" d="M153.9,778.1c-12.8-0.1-23.4-4.2-25.9-9.7c-0.4,0.8-0.6-1.3-0.6-0.5l0,2.6c0,6.6,11.8,12.1,26.4,12.1
				c14.6,0.1,26.5-5.3,26.6-11.9l0,0.3c0-0.8-0.2-1.7-0.5-2.5C177.4,774.1,166.7,778.2,153.9,778.1L153.9,778.1z M153.9,778.1"/>
			<path class="st12" d="M153.8,791.2c-12.8-0.1-23.4-4.2-25.9-9.7c-0.4,0.8-0.6-1-0.6-0.2l0,2.6c0,6.6,11.8,12.1,26.4,12.1
				c14.6,0.1,26.5-5.3,26.6-11.9l0,0c0-0.8-0.2-1.7-0.5-2.5C177.3,787.2,166.6,791.2,153.8,791.2L153.8,791.2z M153.8,791.2"/>
		</g>
		<g>
			<g>
				<path class="st13" d="M154.2,715.1c-14.6-0.1-26.5,5.3-26.6,11.9l0,2.6c0,6.6,11.8,12.1,26.4,12.1c14.6,0.1,26.5-5.3,26.6-11.9
					l0-2.6C180.7,720.6,168.8,715.1,154.2,715.1L154.2,715.1z M154.2,715.1"/>
			</g>
			<path class="st13" d="M154.1,747.6c-12.8-0.1-23.4-4.2-25.9-9.7c-0.4,0.8-0.6,1.6-0.6,2.5l0,2.6c0,6.6,11.8,12.1,26.4,12.1
				c14.6,0.1,26.5-5.3,26.6-11.9l0-2.6c0-0.8-0.2-1.7-0.5-2.5C177.5,743.6,166.8,747.7,154.1,747.6L154.1,747.6z M154,749.9"/>
			<path class="st13" d="M154,761c-12.8-0.1-23.4-4.2-25.9-9.7c-0.4,0.8-0.6,1.6-0.6,2.5l0,2.6c0,6.6,11.8,12.1,26.4,12.1
				c14.6,0.1,26.5-5.3,26.6-11.9l0-2.6c0-0.8-0.2-1.7-0.5-2.5C177.4,757,166.8,761.1,154,761L154,761z M153.7,763.4"/>
			<path class="st13" d="M153.9,775.2c-12.8-0.1-23.4-4.2-25.9-9.7c-0.4,0.8-0.6,1.6-0.6,2.5l0,2.6c0,6.6,11.8,12.1,26.4,12.1
				c14.6,0.1,26.5-5.3,26.6-11.9l0-2.6c0-0.8-0.2-1.7-0.5-2.5C177.4,771.2,166.7,775.2,153.9,775.2L153.9,775.2z M153.9,778.1"/>
			<path class="st13" d="M153.9,788.6c-12.8-0.1-23.4-4.2-25.9-9.7c-0.4,0.8-0.6,1.6-0.6,2.5l0,2.6c0,6.6,11.8,12.1,26.4,12.1
				c14.6,0.1,26.5-5.3,26.6-11.9l0-2.6c0-0.8-0.2-1.7-0.5-2.5C177.3,784.6,166.6,788.6,153.9,788.6L153.9,788.6z M153.8,791.2"/>
		</g>
	</g>
	<line class="st1" x1="153.4" y1="603.1" x2="153.4" y2="541"/>
	<polyline class="st1" points="153.4,814.3 153.4,842.1 343.5,842.1 	"/>
	<g>
		<text transform="matrix(1 4.710000e-03 -4.710000e-03 1 517.6951 825.8696)"><tspan x="0" y="0" class="st2 st3">Mercado</tspan><tspan x="-7" y="24.5" class="st2 st3">de valores</tspan></text>
		<g>
			<path class="st26" d="M593.9,741.5c-0.2-0.4-0.7-0.6-1.1-0.6l-8.8,0.2c-0.6,0-1.1,0.4-1.2,1c-0.1,0.6,0.2,1.2,0.7,1.4l2.1,1
				l-28.1,19.8l-19.6-17.3c-0.8-0.7-2.1-0.7-2.9,0l-14,12.5c-0.9,0.8-1,2.2-0.2,3.1c0.8,0.9,2.2,1,3.1,0.2l12.5-11.2l19.5,17.2
				c0.4,0.4,0.9,0.6,1.5,0.6c0.4,0,0.9-0.1,1.3-0.4l29.4-20.7l0.1,1.9c0,0.6,0.5,1.1,1.1,1.2c0.1,0,0.2,0,0.2,0c0.5,0,1-0.3,1.2-0.8
				l3.5-7.8C594.2,742.4,594.1,741.9,593.9,741.5L593.9,741.5z"/>
			<path class="st26" d="M583.3,758.3c-0.5-0.3-1.1-0.2-1.5,0.1L556,777l-16.6-15.6c-0.6-0.5-1.4-0.5-2,0l-13.8,12.5
				c-0.3,0.3-0.5,0.7-0.5,1.1v14.9c0,0.8,0.7,1.5,1.5,1.5h58.1c0.8,0,1.5-0.7,1.5-1.5v-30.3C584.2,759.1,583.8,758.5,583.3,758.3
				L583.3,758.3z"/>
			<g>
				<g>
					<path class="st27" d="M585.8,754.8c-0.5-0.3-1.2-0.2-1.7,0.1l-27.9,20.2l-18-16.9c-0.6-0.6-1.6-0.6-2.2,0l-15,13.5
						c-0.3,0.3-0.5,0.7-0.5,1.2v18.4c0,0.9,0.7,1.6,1.6,1.6h63c0.9,0,1.6-0.7,1.6-1.6v-35.1C586.7,755.6,586.4,755.1,585.8,754.8
						L585.8,754.8z"/>
					<path class="st27" d="M594.5,740.5c-0.3-0.4-0.8-0.7-1.3-0.7l-10.2,0.3c-0.7,0-1.3,0.5-1.4,1.2c-0.1,0.7,0.2,1.4,0.8,1.7
						l2.4,1.2l-28.2,20.1l-19.2-17.4c-1-0.9-2.4-0.9-3.4,0l-16.3,14.5c-1,0.9-1.1,2.5-0.2,3.6c0.9,1,2.5,1.1,3.6,0.2l14.6-13
						l19.1,17.3c0.5,0.4,1.1,0.7,1.7,0.7c0.5,0,1-0.2,1.5-0.5l29.8-21.2l0.1,2.2c0,0.7,0.6,1.3,1.2,1.4c0.1,0,0.2,0,0.3,0
						c0.6,0,1.1-0.3,1.4-0.9l4-9.1C594.8,741.5,594.8,741,594.5,740.5L594.5,740.5z M594.5,740.5"/>
				</g>
			</g>
			<g>
				<polygon class="st27" points="528.5,789.7 524.8,789.7 524.8,774.2 528.5,770.9 				"/>
				<polygon class="st27" points="535.2,789.7 531.6,789.7 531.6,768.1 535.2,764.8 				"/>
				<polygon class="st27" points="541.9,789.7 538.3,789.7 538.3,763.2 541.9,766.6 				"/>
				<polygon class="st27" points="548.6,789.7 545,789.7 545,769.5 548.6,772.9 				"/>
				<path class="st27" d="M555.4,789.7h-3.7v-13.9l3.2,3c0.2,0.1,0.3,0.3,0.5,0.3V789.7z"/>
				<polygon class="st27" points="562.2,789.7 558.5,789.7 558.5,777.7 562.2,775.1 				"/>
				<polygon class="st27" points="569,789.7 565.3,789.7 565.3,772.8 569,770.2 				"/>
				<polygon class="st27" points="575.7,789.7 572.1,789.7 572.1,767.9 575.7,765.3 				"/>
				<polygon class="st27" points="582.3,789.7 578.8,789.7 578.8,763 582.3,760.5 				"/>
				<path class="st27" d="M582.3,789.7"/>
			</g>
		</g>
	</g>
	<g>
		<text transform="matrix(1 4.710000e-03 -4.710000e-03 1 402.0755 824.9265)" class="st2 st3">Bancos</text>
		<g>
			<path class="st26" d="M413.7,780.7c-1.3,0-2.4,1.1-2.4,2.4c0,1.3,1.1,2.4,2.4,2.4h41.5c1.3,0,2.4-1.1,2.4-2.4
				c0-1.3-1.1-2.4-2.4-2.4h-0.6v-21.3h0.6c0.7,0,1.2-0.5,1.2-1.2c0-0.7-0.5-1.2-1.2-1.2h-41.5c-0.7,0-1.2,0.5-1.2,1.2
				c0,0.7,0.5,1.2,1.2,1.2h0.6v21.3L413.7,780.7L413.7,780.7z"/>
			<g>
				<path class="st27" d="M460.3,788.3h-51.7c-1.4,0-2.6,1.2-2.6,2.6c0,1.4,1.2,2.6,2.6,2.6h51.7c1.4,0,2.6-1.2,2.6-2.6
					C462.9,789.4,461.7,788.3,460.3,788.3L460.3,788.3z M460.3,788.3"/>
				<g>
					<path class="st27" d="M411.9,781.5c-1.4,0-2.6,1.2-2.6,2.6c0,1.4,1.2,2.6,2.6,2.6h45.2c1.4,0,2.6-1.2,2.6-2.6
						c0-1.4-1.2-2.6-2.6-2.6h-0.6v-23.3h0.6c0.7,0,1.3-0.6,1.3-1.3c0-0.7-0.6-1.3-1.3-1.3h-45.2c-0.7,0-1.3,0.6-1.3,1.3
						c0,0.7,0.6,1.3,1.3,1.3h0.6v23.3L411.9,781.5L411.9,781.5z M417.7,758.3"/>
					<path class="st27" d="M408.6,753.4h51.7c1.4,0,2.6-1.2,2.6-2.6c0-1.1-0.7-2.1-1.7-2.4l-25.6-11.5c-0.7-0.3-1.4-0.3-2.1,0
						l-25.8,11.6c-1.1,0.5-1.7,1.7-1.5,2.9C406.4,752.5,407.4,753.4,408.6,753.4L408.6,753.4z M408.6,753.4"/>
				</g>
			</g>
			<rect x="443.5" y="760.4" class="st27" width="7.8" height="18.9"/>
			<rect x="430.6" y="760.4" class="st27" width="7.8" height="18.9"/>
			<rect x="417.7" y="760.4" class="st27" width="7.8" height="18.9"/>
			<path class="st26" d="M415,751.3h38.9c1.1,0,1.9-0.9,1.9-1.9c0-0.9-0.5-1.6-1.3-1.8l-19.3-8.7c-0.5-0.2-1.1-0.2-1.6,0l-19.4,8.7
				c-0.8,0.4-1.3,1.3-1.1,2.2C413.3,750.6,414.1,751.3,415,751.3L415,751.3z"/>
			<path class="st26" d="M458.9,789.5H410c-1.4,0-2.4,0.6-2.4,1.3c0,0.7,1.1,1.3,2.4,1.3h48.9c1.4,0,2.4-0.6,2.4-1.3
				C461.4,790.1,460.3,789.5,458.9,789.5L458.9,789.5z"/>
		</g>
	</g>
	<g>
		<text transform="matrix(1 4.710000e-03 -4.710000e-03 1 651.849 826.4819)"><tspan x="0" y="0" class="st2 st3">Otros</tspan><tspan x="-7.1" y="24.5" class="st2 st3">activos</tspan></text>
		<g>
			<g>
				<path class="st27" d="M665.4,755.1h-13.8c-2.7,0-4.1,1.5-4.1,4.1v30.9c0,2.7,0.4,3.8,3.1,3.8h51.2c2.7,0,3.1-0.8,3.1-3.4v-31.3
					c0-2.7-1.1-4.1-3.8-4.1h-14.1L665.4,755.1z M686.9,755v-5.8c0-1-0.8-1.7-1.7-1.7h-18.1c-1,0-1.7,0.8-1.7,1.7v5.8 M700,791.6"/>
			</g>
			<rect x="667" y="749.1" class="st26" width="18.2" height="4.4"/>
			<path class="st26" d="M650.2,757.2H702c0.8,0,1.5,0.7,1.5,1.5v9.3c-3.7,3.6-12.5,6.2-22.7,6.8l-0.3-2.5c0-1.4-1.1-2.5-2.5-2.5
				h-3.6c-1.4,0-2.5,1.1-2.5,2.5l-0.3,2.5c-10.2-0.6-19-3.2-22.7-6.8v-9.3C648.8,757.9,649.4,757.2,650.2,757.2L650.2,757.2z"/>
			<path class="st26" d="M702,793h-51.7c-0.8,0-1.5-0.7-1.5-1.5v-18.8c5,3.1,13,5.2,22.2,5.8l-0.4,2.8c0,1.4,1.1,2.5,2.5,2.5h6
				c1.4,0,2.5-1.1,2.5-2.5l-0.4-2.8c9.2-0.6,17.2-2.7,22.2-5.8v18.8C703.5,792.3,702.8,793,702,793L702,793z"/>
			<path class="st27" d="M704.8,766.9c-3.7,3.6-13.9,7.4-24.1,8l-0.3-2.5c0-1.4-1.1-2.5-2.5-2.5h-3.6c-1.4,0-2.5,1.1-2.5,2.5
				l-0.3,2.5c-10.2-0.6-20.2-4.5-23.9-8"/>
			<path class="st27" d="M647.4,772.1c5,3.1,14.2,6,23.5,6.6l-0.4,2.8c0,1.4,1.1,2.5,2.5,2.5h6c1.4,0,2.5-1.1,2.5-2.5l-0.4-2.8
				c9.2-0.6,18.6-3.5,23.6-6.6"/>
		</g>
	</g>
	<line class="st1" x1="674.4" y1="686.1" x2="674.4" y2="725.1"/>
	<text transform="matrix(1 4.710000e-03 -4.710000e-03 1 395.7172 590.7675)"><tspan x="0" y="0" class="st2 st3">El comité de inversión</tspan><tspan x="31.6" y="24.5" class="st2 st3">evalúa las mejores</tspan><tspan x="68.9" y="49.1" class="st2 st3">oportunidades</tspan><tspan x="88.2" y="73.6" class="st2 st3">para invertir</tspan></text>
	<text transform="matrix(1 4.710000e-03 -4.710000e-03 1 90.1237 641.3849)"><tspan x="0" y="0" class="st2 st3">El rendimiento</tspan><tspan x="8.3" y="24.5" class="st2 st3">retorna a los</tspan><tspan x="3.3" y="49.1" class="st2 st3">inversionistas</tspan></text>
	<polyline class="st1" points="161.1,541 153.4,533.2 145.6,541 	"/>
	<polyline class="st1" points="666.6,468.2 674.4,476 682.1,468.2 	"/>
</g>
</svg>
