<?xml version="1.0" encoding="utf-8"?>
<!-- Generator: Adobe Illustrator 20.1.0, SVG Export Plug-In . SVG Version: 6.00 Build 0)  -->
<svg version="1.1" id="Layer_1" xmlns="http://www.w3.org/2000/svg" xmlns:xlink="http://www.w3.org/1999/xlink" x="0px" y="0px"
	 viewBox="0 0 45 58.6" style="enable-background:new 0 0 45 58.6;" xml:space="preserve">
<style type="text/css">
	.st0{fill:#E9E9E0;}
	.st1{fill:#0057A2;}
	.st2{fill:#D9D7CA;}
</style>
<title>Artboard 2pdf</title>
<g>
	<g>
		<g>
			<path class="st0" d="M31.6,1H2.4C1.6,1,0.9,1.7,0.9,2.9v53.4c0,0.3,0.7,1,1.5,1h40.4c0.8,0,1.5-0.7,1.5-1V14.1
				c0-0.7-0.1-0.9-0.3-1.1L32.3,1.3C32.1,1.1,31.9,1,31.6,1L31.6,1z M31.6,1"/>
			<path class="st1" d="M42.8,57.4"/>
		</g>
		<path class="st2" d="M32.1,1.2v11.9h11.9L32.1,1.2z M32.1,1.2"/>
	</g>
	<g>
		<g>
			<g>
				<path class="st1" d="M8.6,22.6l3.4-3.1c0.3-0.3,0.8-0.5,1.3-0.5c0.5,0,0.9,0.2,1.3,0.5l2.7,2.5l-5.9,5.4l-2.7-2.5
					C7.9,24.2,7.9,23.2,8.6,22.6z"/>
				<polygon class="st1" points="34.5,37.9 28.7,43.3 12.5,28.5 18.4,23.1 				"/>
				<polygon class="st1" points="35.8,39 37.1,45.6 29.9,44.4 				"/>
			</g>
		</g>
	</g>
</g>
</svg>
