<?xml version="1.0" encoding="utf-8"?>
<!-- Generator: Adobe Illustrator 20.1.0, SVG Export Plug-In . SVG Version: 6.00 Build 0)  -->
<svg version="1.1" id="Layer_1" xmlns="http://www.w3.org/2000/svg" xmlns:xlink="http://www.w3.org/1999/xlink" x="0px" y="0px"
	 viewBox="0 0 45 58.6" style="enable-background:new 0 0 45 58.6;" xml:space="preserve">
<style type="text/css">
	.st0{fill:#E9E9E0;}
	.st1{fill:#D9D7CA;}
	.st2{fill:#0057A2;}
	.st3{fill:#FFFFFF;}
	.st4{font-family:'NewsCycle-Bold';}
	.st5{font-size:14.2116px;}
	.st6{letter-spacing:1;}
</style>
<title>Artboard 2pdf</title>
<g>
	<g>
		<path class="st0" d="M31.4,1H2.2C1.4,1,0.7,1.7,0.7,2.9v53.4c0,0.3,0.7,1,1.5,1h40.4c0.8,0,1.5-0.7,1.5-1V14.1
			c0-0.7-0.1-0.9-0.3-1.1L32.1,1.3C31.9,1.1,31.7,1,31.4,1L31.4,1z M31.4,1"/>
		<path class="st1" d="M32,1.1v11.9h11.9L32,1.1z M32,1.1"/>
		<path class="st2" d="M42.6,57.4H2.2c-0.8,0-1.5-0.7-1.5-1.5V40.3H44v15.6C44,56.7,43.4,57.4,42.6,57.4L42.6,57.4z M42.6,57.4"/>
		<path class="st3" d="M11.7,45.5"/>
		<path class="st3" d="M30.7,45.5"/>
	</g>
	<path class="st2" d="M33.9,21c-0.7-0.9-2-1-2.8-0.3l-6.5,5.5l0.2-16.6c0-1.1-0.9-2.1-2-2.2c-1.1-0.1-2.1,0.8-2.1,1.9l-0.2,15.2
		c0,0-0.1,0.6,0,1.4l-6.6-5.4c-0.9-0.7-2.2-0.6-3,0.3c-0.7,0.9-0.6,2.2,0.3,3l10,8.2c0.4,0.3,0.8,0.5,1.3,0.5c0,0,0,0,0,0
		c0,0,0,0,0,0c0.1,0,0.1,0,0.2,0c0,0,0,0,0,0c0,0,0,0,0,0c0.4,0,0.8-0.2,1.1-0.4l9.7-8.2C34.5,23.2,34.6,21.9,33.9,21z"/>
	<text transform="matrix(1 0 0 1 10.2852 54.2562)" class="st3 st4 st5 st6">XLS</text>
</g>
</svg>
