<svg id="Layer_1" data-name="Layer 1" xmlns="http://www.w3.org/2000/svg" viewBox="0 0 45 58.61"><defs><style>.cls-1{fill:#e9e9e0;}.cls-2{fill:#d9d7ca;}.cls-3{fill:#0057a2;}.cls-4{fill:#fff;}</style></defs><title>Artboard 2pdf</title><path class="cls-1" d="M31.81.29H1.74C.9.29.23,1,.23,2.29v55a1.56,1.56,0,0,0,1.52,1H43.26a1.56,1.56,0,0,0,1.51-1V13.74c0-.72-.1-1-.26-1.12L32.46.56a.92.92,0,0,0-.65-.27Zm0,0"/><path class="cls-2" d="M32.35.45V12.73H44.62Zm0,0"/><path class="cls-3" d="M13.71,34.82a1.66,1.66,0,0,1-1-.34,2.48,2.48,0,0,1-1.15-2.32c.19-1.69,2.27-3.45,6.2-5.25a69.14,69.14,0,0,0,3.92-11.14c-1-2.25-2-5.17-1.3-6.88a2,2,0,0,1,1.17-1.26,5,5,0,0,1,1.05-.18c.53,0,1,.67,1.31,1.09s1,1.21-.39,7a33.12,33.12,0,0,0,5.27,7.83A20.51,20.51,0,0,1,32.27,23c1.62,0,2.61.38,3,1.16a2.09,2.09,0,0,1-.4,2.24,2.76,2.76,0,0,1-2.3,1.24c-1.26,0-2.73-.8-4.37-2.37a50,50,0,0,0-9.15,2.92,29.52,29.52,0,0,1-2.47,4.41c-1.06,1.49-2,2.18-2.88,2.18Zm2.76-5.31c-2.21,1.24-3.12,2.27-3.18,2.84,0,.1,0,.34.45.72.15-.05,1.05-.46,2.73-3.56Zm14.13-4.6c.85.65,1.05,1,1.6,1a1.55,1.55,0,0,0,1.25-.46,1.8,1.8,0,0,0,.24-.43c-.13-.07-.3-.2-1.22-.2a15.68,15.68,0,0,0-1.88.11Zm-7.74-6.82a73.25,73.25,0,0,1-2.77,7.84,51.34,51.34,0,0,1,6.73-2.09,35.46,35.46,0,0,1-4-5.75Zm-.63-8.77a2.49,2.49,0,0,0,.1,3.33c1-2.19-.06-3.35-.1-3.33Zm0,0"/><path class="cls-3" d="M43.26,58.32H1.74A1.52,1.52,0,0,1,.23,56.8V40.7H44.78V56.8a1.51,1.51,0,0,1-1.51,1.52Zm0,0"/><path class="cls-4" d="M11.5,55.2H9.8V44.77h3a4.24,4.24,0,0,1,1.31.21,3.54,3.54,0,0,1,1.17.64,3.32,3.32,0,0,1,.83,1A2.83,2.83,0,0,1,16.44,48a3.63,3.63,0,0,1-.27,1.44,3,3,0,0,1-.75,1.09,3.47,3.47,0,0,1-1.16.68,4.44,4.44,0,0,1-1.5.24H11.5Zm0-9.15v4.13h1.56a1.86,1.86,0,0,0,.62-.11,1.55,1.55,0,0,0,.56-.35,1.75,1.75,0,0,0,.41-.67A3.27,3.27,0,0,0,14.81,48a3,3,0,0,0-.07-.59,1.73,1.73,0,0,0-.29-.64,1.7,1.7,0,0,0-.62-.51,2.29,2.29,0,0,0-1-.2Zm0,0"/><path class="cls-4" d="M26.87,49.7a7.77,7.77,0,0,1-.27,2.21,5.53,5.53,0,0,1-.7,1.53,3.61,3.61,0,0,1-1,1,4.62,4.62,0,0,1-1,.53,4.51,4.51,0,0,1-.91.23,5.84,5.84,0,0,1-.61,0h-4V44.77h3.15a5.94,5.94,0,0,1,2.31.41,4.81,4.81,0,0,1,1.66,1.11,4.55,4.55,0,0,1,1,1.58,5.24,5.24,0,0,1,.32,1.82Zm-5,4.26a2.82,2.82,0,0,0,2.49-1.1,6.59,6.59,0,0,0,.61-4.49,2.8,2.8,0,0,0-.6-1.15,3.19,3.19,0,0,0-1.21-.84,5.22,5.22,0,0,0-2-.32h-1V54Zm0,0"/><path class="cls-4" d="M31.06,46.06v3.28h4.36v1.16H31.06v4.7H29.34V44.77h6.53v1.29Zm0,0"/></svg>