<?xml version="1.0" encoding="utf-8"?>
<!-- Generator: Adobe Illustrator 20.1.0, SVG Export Plug-In . SVG Version: 6.00 Build 0)  -->
<svg version="1.1" id="Capa_1" xmlns="http://www.w3.org/2000/svg" xmlns:xlink="http://www.w3.org/1999/xlink" x="0px" y="0px"
	 viewBox="0 0 51 27.5" style="enable-background:new 0 0 51 27.5;" xml:space="preserve">
<style type="text/css">
	.st0{fill:#FFFFFF;}
</style>
<g>
	<g>
		<path class="st0" d="M41.9,24.6h-26c-0.7,0-1.3-0.3-1.7-0.8s-0.5-1.1-0.4-1.8l3.5-17.1c0.3-1.3,1.6-2.4,2.9-2.4h26
			c0.7,0,1.3,0.3,1.7,0.8s0.5,1.1,0.4,1.8l-3.5,17.1C44.5,23.6,43.3,24.6,41.9,24.6z M20.2,3.6c-0.9,0-1.7,0.7-1.9,1.6l-3.5,17.1
			c-0.1,0.4,0,0.7,0.2,1s0.5,0.4,0.9,0.4h26c0.9,0,1.7-0.7,1.9-1.6l0,0L47.3,5c0.1-0.4,0-0.7-0.2-1s-0.5-0.4-0.9-0.4
			C46.3,3.6,20.2,3.6,20.2,3.6z"/>
		<path class="st0" d="M30.8,16.1c-0.8,0-1.5-0.3-2-0.8L18.9,4.9c-0.2-0.2-0.2-0.5,0-0.7c0.2-0.2,0.5-0.2,0.7,0l9.9,10.4
			c0.6,0.6,1.6,0.7,2.3,0.2L46.4,4.1C46.6,4,46.9,4,47.1,4.2c0.2,0.2,0.1,0.5-0.1,0.7L32.4,15.6C31.9,16,31.4,16.1,30.8,16.1z"/>
	</g>
	<path class="st0" d="M13.9,6.3H7.3C7,6.3,6.8,6.1,6.8,5.8S7,5.3,7.3,5.3h6.6c0.3,0,0.5,0.2,0.5,0.5S14.2,6.3,13.9,6.3z"/>
	<path class="st0" d="M12.6,13H2.3c-0.3,0-0.5-0.2-0.5-0.5S2.1,12,2.3,12h10.2c0.3,0,0.5,0.2,0.5,0.5S12.9,13,12.6,13z"/>
	<path class="st0" d="M10.9,19h-5c-0.3,0-0.5-0.2-0.5-0.5S5.6,18,5.9,18h5c0.3,0,0.5,0.2,0.5,0.5S11.2,19,10.9,19z"/>
</g>
</svg>
